<?xml version="1.0" encoding="UTF-8"?>
<svg id="Layer_1" data-name="Layer 1" xmlns="http://www.w3.org/2000/svg" viewBox="0 0 685.52 139.96">
  <g id="copy">
    <g id="Pack">
      <path id="I" d="M634.86,99.97c3.35-2.4,6.56-4.92,10.01-7.07,1.95-1.21,1.78-2.22.86-3.96-6.45-12.23-12.8-24.51-19.24-36.75-.6-1.14-.67-2.1-.29-3.29,1.5-4.65,2.91-9.32,4.37-14.05,1.36,1.65,32.07,61.74,33.56,65.11h-29.28ZM618.97,21c-1.4,1.28-2.3,2.7-2.83,4.54-6.95,23.87-13.96,47.72-20.93,71.59-.34,1.15-.9,2.05-1.76,2.93-5.57,5.71-11.05,11.49-16.42,17.09.53.2,1.43-.43,2.35-.74,4.5-1.53,8.91-3.38,13.49-4.61,6.16-1.66,11.24-4.64,15-9.85,1.02-1.41,2.26-2.57,2.76-4.38,6.95-24.86,13.98-49.7,20.98-74.54,2.1-7.44,4.18-14.87,6.37-22.63-9.02,3.09-17.73,6.08-26.87,9.21,4.34,2.54,8.23,4.82,11.91,6.98-1.39,1.53-2.6,3.1-4.05,4.42ZM685.52.85c-2.17,1.96-3.26,4.65-4.5,7.15-1.5,3.02-3.75,4.72-6.72,6.13-3.27,1.56-6.5,2.3-10.11,2.17-5.28-.19-10.57-.2-15.85,0-3.31.13-6.43,1.76-8.45,4.09-3.13,3.62-5.48,7.91-8.2,11.97,1.02.33,1.73-.21,2.45-.46,3.26-1.15,6.56-1.94,10.06-2.07,8.14-.31,16.29-.05,24.43-.14,1.31-.01,2.38-.33,3.47-1.07,3.21-2.18,6.48-4.28,9.77-6.35.95-.6,1.41-1.25,1.49-2.43.22-3.07.51-6.14,1-9.17.36-2.25.01-4.64,1.17-6.75V.85Z" style="fill: #595a5c;"/>
      <path id="C" d="M598.46,44.49c-5.21-.26-10.3-.51-15.4-.77-.95-.05-1.93-.28-2.84-.13-2.53.42-2.51-.89-2.11-2.73.58-2.64.97-5.33,1.58-7.97.3-1.31-.09-1.8-1.36-1.66-1.76.19-3.48-.67-5.34.37-2.28,1.29-3.38,2.86-3.9,5.51-3.18,16.23-6.57,32.42-9.95,48.62-.33,1.6-.14,2.39,1.68,2.07.36-.06.74-.06,1.1,0,3.89.63,6.83-.32,7.94-4.57.17-.63.52-1.38,1.52-1.31,7.05.47,14.11.91,21.17,1.37-.02.19,0,.3-.04.31-7,3.32-11.76,9.32-17.28,14.41-.82.76-1.59,1.1-2.7,1.09-14.75-.08-29.5-.12-44.25-.17-.27,0-.54-.02-1.29-.06,3.75-3.51,7.17-6.75,10.65-9.94.95-.87,1.55-1.79,1.84-3.1,3.88-18.18,7.83-36.35,11.74-54.52.23-1.09.56-2.08,1.27-2.98,2.77-3.51,5.49-7.06,8.19-10.63.62-.82,1.26-1.25,2.36-1.24,8.66.04,17.32.03,25.98,0,.96,0,1.72.19,2.24,1.04.19.31.43.6.71.84,4.65,3.88,6.23,8.6,4.26,14.49-1.3,3.89-.72,7.6,2.03,10.83.12.14.11.4.22.83Z" style="fill: #595a5c;"/>
      <path id="A" d="M444.96,98.94c7.31-6.74,14.14-13.05,20.99-19.34,1.03-.95,1.92-1.97,2.68-3.17,10.25-16.3,20.53-32.57,30.77-48.88.9-1.43,2-2.36,3.55-3.05,5.28-2.35,10.49-4.85,15.72-7.3.94-.44,1.88-.74,2.95-.74,10.71.02,21.42.01,32.17.01-.28.79-1.03.79-1.57,1.02-2.49,1.05-4.93,2.42-7.53,2.98-5.26,1.12-6.79,4.41-7.64,9.39-3.28,19.26-7.05,38.44-10.61,57.65-.28,1.5-.9,2.68-2.03,3.74-2.62,2.45-4.73,6.02-7.8,7.28-3.15,1.29-7.21.38-10.87.39-4.77.02-9.54,0-14.4,0,.32-.96,1.23-.95,1.88-1.23,5.03-2.19,10.07-4.35,15.14-6.47.94-.39,1.59-.84,1.91-1.88,6.57-21.08,13.17-42.15,19.89-63.64-4.22.86-8.2,1.66-12.17,2.51-.29.06-.54.46-.75.75-5.17,7.37-10.34,14.74-15.65,22.32,3.27.73,6.14,1.56,9.09-.9,2.79-2.33,6.04-4.13,9.09-6.14.32-.21.61-.72,1.1-.39.5.34.13.79.04,1.19-.9,4.15-1.94,8.26-3.22,12.31-.43,1.36-1.12,1.81-2.49,1.81-4.99,0-9.98.25-14.96.06-2.37-.09-3.46.8-4.46,2.78-5.86,11.63-11.85,23.18-17.74,34.79-.78,1.54-1.66,2.19-3.49,2.17-9.24-.12-18.49-.05-27.73-.05-.42,0-.84,0-1.85,0Z" style="fill: #595a5c;"/>
      <path id="P" d="M413.78,118.31c1.1-7.83,2.19-15.66,3.32-23.49,2.57-17.76,5.47-35.48,7.57-53.3.69-5.84,4.25-9.01,7.74-12.61,1.83-1.88,3.94-3.49,6.23-5.48-7.28-3.27-13.7-6.16-20.12-9.04.03-.15.06-.3.1-.45,12.26.36,24.52.72,37.02,1.08-4.88,14.57-9.71,28.97-14.55,43.38.72.44,1.17-.1,1.65-.3,6.64-2.88,13.26-5.83,19.93-8.66,1.29-.55,1.89-1.33,2.3-2.6,2.24-6.96,4.52-13.91,6.89-20.83.51-1.5.1-1.93-1.33-2.29-4.18-1.06-8.31-2.35-12.5-3.4-1.2-.3-1.23-.76-1.11-1.81.3-2.48,1.4-3.67,3.91-4.69,4.67-1.89,9.08-.65,13.6-.12,3.06.36,6.09.91,9.14,1.28,1.33.16,1.61.56,1.31,1.96-2.62,12.31-5.15,24.65-7.66,36.99-.2.96-.64,1.52-1.51,1.95-10.58,5.19-21.15,10.39-31.7,15.63-.89.44-1.65.38-2.51.1-2.61-.87-5.23-1.72-8.1-2.66.3,3.05.47,5.82.88,8.55.29,1.89.07,3.52-.84,5.24-6.23,11.77-12.36,23.59-18.53,35.39-.2.39-.46.75-.69,1.12-.83.02-.63-.46-.45-.93ZM413.6,120.78c.28-.69.45-1.11.63-1.54-.15-.31-.3-.62-.45-.93-.41.67-.5,1.37-.18,2.47Z" style="fill: #595a5c;"/>
    </g>
    <g id="Slash">
      <g id="slash_4" data-name="slash 4">
        <path d="M393.93,69.95c-.12.56-.38,1.14-.34,1.69.19,2.47-.85,4.32-2.73,5.79-1.2-.21-1.14-1.08-1.03-1.97.39-3.07.9-6.11,1.97-9.03-.1-.97.02-1.83.91-2.45,1.32-.93,1.1-2.94,2.6-3.76.51,2.15-.92,3.99-.96,6.08-.03,1.21-.47,2.41-.41,3.65Z" style="fill: #4a4a4c;"/>
        <path d="M375.49,87.07c-.13,1.25-.59,2.54.53,3.61-.55,1.81-1.39,3.46-2.7,4.85-.3.12-.6.24-.89.36-.42.05-.84.1-1.25.15-.65-.89-.5-1.8-.05-2.72,1.25-1.59.76-4.06,2.68-5.3.11-.15.22-.31.34-.46.33-.52.91-.32,1.36-.48Z" style="fill: #d83537;"/>
        <path d="M367.21,94.19c.12,0,.24-.02.36-.05.95,2.15-.33,4.16-.41,6.25-.02.41-.25.81-.09,1.24.19.9-.54,1.45-.83,2.16-1.67.17-1.81,1.78-2.61,2.77-.26.14-.52.29-.78.43-1.01.14-1.5-.57-1.3-1.29.57-2.09.16-4.44,1.61-6.3.82-1,.2-2.44,1.04-3.44,1.03-.55,2.32-.66,3.01-1.78Z" style="fill: #de3d41;"/>
        <path d="M363.16,99.4c-.54,1.92-.09,4.03-1.11,5.88-.45.82.05,1.36.8,1.71-.62.43-1.25.87-1.87,1.3-.44.13-.88.27-1.31.4-.81-.74-1.3.12-1.91.39-.36-.86.48-1.88-.35-2.67.24-.78.89-1.44.49-2.38-.4-.94.29-1.44.92-1.93,1.04-.42,1.73-1.21,2.22-2.19.71-.17,1.42-.34,2.13-.51Z" style="fill: #e14147;"/>
        <path d="M367.07,101.63c-1.45-1.18-.05-2.57-.03-3.78.02-1.13.26-2.48.53-3.71.29-.58.89-.3,1.33-.47.81.35,1.48-.18,2.21-.35.37.9.18,1.81.05,2.72-.33.96-.65,1.92-.98,2.88-.61.86-2.06.91-2.18,2.24-.31.15-.62.31-.93.47Z" style="fill: #db393d;"/>
        <path d="M368.49,105.47c.36-.41.85-.28,1.3-.34.47.03.94.05,1.4.08-.85.64-1.8.24-2.71.26Z" style="fill: #838385;"/>
        <path d="M373.73,86.22c.06.46-.06.98.39,1.33.19.37.03.49-.34.46-.16-.14-.31-.28-.47-.41.14-.46.28-.92.42-1.38Z" style="fill: #7b7a7b;"/>
        <path d="M342.97,117.17c.5-.48,1.07-.22,1.62-.13.36-.23.71-.29,1.04.06-.34.27-.69.53-1.04.8-.86.45-1.71.9-2.56,1.36-.75-1.17.75-1.33.93-2.08Z" style="fill: #e56667;"/>
        <path d="M386.51,73.92c.55.34.4.92.49,1.41-.16.42-.32.84-.47,1.26-.59.71-1.18,1.42-1.78,2.13-.25.03-.51.05-.76.08-.21.17-.41.14-.58-.07.05-.71.1-1.41.15-2.12.98-.9,1.97-1.8,2.95-2.7Z" style="fill: #cd2f2e;"/>
        <path d="M345.64,117.1c-.35-.02-.7-.04-1.04-.06.51-.86,1.03-1.72,1.55-2.59.7-.78,1.54-1.38,2.46-1.87,1.39.83.62,1.7.05,2.57-.52.31-1.29-.06-1.69.59-.44.45-.88.9-1.32,1.35Z" style="fill: #e94e57;"/>
        <path d="M375.49,87.07c.13-.28.26-.56.39-.83.72-1.04,1.84-1.76,2.32-2.98.28-.13.56-.26.84-.39.87,1.03.14,2.28.46,3.38,0,.14-.02.27-.04.41-1.49,1.01-1.02,3.49-3.06,4.09-.13-.04-.26-.06-.39-.07-1.44-.94-1.55-1.72-.53-3.61Z" style="fill: #d53234;"/>
        <path d="M379.49,86.25c-1.7-.92.05-2.3-.46-3.38,2.35-.43,2.73-2.94,4.37-4.13.19.02.38.04.58.07-1.24,1.54-.58,3.92-2.3,5.26-.73.73-1.46,1.46-2.19,2.19Z" style="fill: #d23031;"/>
        <path d="M356.99,106.49c.14-.03.27-.05.41-.08,1.5.71.55,1.74.35,2.67-.42,1.36-.72,2.79-2.06,3.63-.56.14-1.12.28-1.68.42-1.67.07-2.09-.39-1.72-1.82.19-.73.65-1.26,1.19-1.74.31-.24.63-.48.94-.73,1.78.23,2.1-1.14,2.57-2.35Z" style="fill: #e2474d;"/>
        <path d="M353.48,109.56c-.22.6-.42,1.21-.66,1.8-.48,1.19-.12,1.79,1.19,1.77-.47.62-1.44.04-1.86.78-.44.35-.87.69-1.31,1.04-.75-.16-1.48-.02-2.2.21-.08-.86.69-1.73-.05-2.57,0-.13-.02-.25-.06-.37.13-.78.54-1.17,1.36-1.34.73-.15,1.48-.45,1.85-1.23.58-.03,1.15-.06,1.73-.09Z" style="fill: #e64a52;"/>
        <path d="M322.22,134.22c.31-.81.1-1.94,1.32-2.2.64.07,1.21-.14,1.76-.44,0,.64-.01,1.28.88,1.32-1.23.7-2.46,1.43-3.96,1.32Z" style="fill: #eeefef;"/>
        <path d="M386.51,73.92c.36-.75.88-1.44.86-2.33.74-.36.67-1.61,1.75-1.6.39.41.37.83.02,1.25-.72,1.36-1.75,2.56-2.14,4.09-.53-.34-.51-.88-.49-1.41Z" style="fill: #c93e32;"/>
        <path d="M346.14,114.45c-.81-1.04.49-1.2.74-1.8.3-.43.6-.86.9-1.29.26.28.51.57.77.85.17.12.24.29.21.5-.7.83-1.45,1.59-2.61,1.74Z" style="fill: #b9b1b1;"/>
        <path d="M342.97,117.17c.27-1.08.54-2.16.81-3.23.63-1.39,2.03-.92,3.09-1.28.23.79-.8,1.23-.57,2.02-.11,1.02-.71,1.77-1.42,2.44-.63.38-1.27.26-1.91.06Z" style="fill: #beb7b7;"/>
        <path d="M375.43,82.55c1.01,1.12.02,2.49.45,3.69.3.51-.03.81-.36,1.11-.5.27-1.02.46-1.6.35-.53-.44-.47-.94-.18-1.48-.18-1.57.08-2.93,1.7-3.67Z" style="fill: #747171;"/>
        <path d="M322.22,134.22c-.24.43-.44.88-.72,1.28-.21.31-.54.48-.93.4-.5-.1-.76-.55-.78-.93-.06-1.28,1.1-1.91,1.72-2.82.48-.7,1.3-.88,2.03-.13-.29.82-.65,1.6-1.32,2.2Z" style="fill: #f7f7f7;"/>
        <path d="M383.39,76.53c.41-2.38,1.4-4.3,3.98-4.94.78.97-.21,1.59-.48,2.35-1.05.97-1.72,2.41-3.34,2.68l-.16-.09Z" style="fill: #656262;"/>
        <path d="M370.18,98.92c.31,2.1-.85,4.11-.39,6.21-.35.46-.9.12-1.3.34-.1.12-.23.18-.38.18-.92-1.48.95-3.02-.1-4.49-.33-1.77.94-1.99,2.18-2.24Z" style="fill: #7e7d7e;"/>
        <path d="M367.21,94.19c-.55-.08-.98-.22-.7-.94.37-.98.71-1.97,1.06-2.96,1.09.14,1.68-.57,2.22-1.34.24,1.67-.7,3.12-.89,4.71-.25.47-.73.54-1.17.66-.19.03-.37-.02-.52-.14Z" style="fill: #838588;"/>
        <path d="M351.26,106.89c.16.92.33,1.83.49,2.75-.25,1.8-2.26,1.55-3.1,2.68-.63-.01-1.04-.22-.88-.96,1.47-1.25,1.39-3.71,3.49-4.47Z" style="fill: #adafb1;"/>
        <path d="M356.99,106.49c-1.7-2.35.1-4.61.2-6.91,0-.2.17-.4.25-.6.43-.3.87-.6,1.3-.89.46.66.35,1.28-.02,1.96-.37.68-.73,1.42.1,2.06-.59,1.45.29,3.3-1.26,4.48-.21.08-.4.05-.57-.1Z" style="fill: #9d9b9c;"/>
        <path d="M360.97,108.29c-.6,1.79-.13,3.76-.97,5.52-.25.52.26.54.6.63-.42.6-1.01.89-1.74.91-.22-.27-.68-.66-.62-.8.85-1.87-.14-4.18,1.41-5.86.36-.39.73-.74,1.31-.4Z" style="fill: #939597;"/>
        <path d="M325.3,131.58c.42-.88,1.23-1.49,1.2-2.68-.03-.97.86-1.58,1.9-1.7,1.8,1.32.33,2.64,0,3.96-.68.65-1.29,1.4-2.21,1.75-1.36.27-1.34-.38-.88-1.32Z" style="fill: #e6e7e8;"/>
        <path d="M328.4,131.15c-.77-1.32,1.28-2.64,0-3.96,1.14-.08,1.07-1.67,2.2-1.76.94.95.28,1.91.17,2.93-.08.72-1.39,2.16.7,2.33-.92.83-2.05.28-3.07.45Z" style="fill: #e0e1e2;"/>
        <path d="M378.15,79.71c.05,1.18-.57,2.37.04,3.55-.04,1.67-.97,2.63-2.51,3.08-.9-1.21-.28-2.52-.25-3.79.46-1.38.78-2.88,2.72-2.84Z" style="fill: #737171;"/>
        <path d="M344.6,117.9c.33.21.62.57.47.9-.83,1.82-.38,3.81-.82,5.67-.87.23-1.69.75-2.66.48.15-1.9.3-3.8.44-5.7.59-.94,1.31-1.67,2.56-1.36Z" style="fill: #bdbec0;"/>
        <path d="M374.51,100.32c-.6-.01-1.99.56-1.37-.65.78-1.51,0-2.78.17-4.14.43-1.88,1.61-3.38,2.56-5,.22-.05.42-.02.62.09.73,1.79.02,3.52-.21,5.27-.74,1.41.04,3.44-1.76,4.43Z" style="fill: #727173;"/>
        <path d="M382.58,88.02c-1.41-1.07-.52-2.65-.9-3.95.42-1.89.74-3.81,2.07-5.34.28-.21.58-.24.9-.12,1,1.8.47,3.69.23,5.54-.13,1.01-.48,2-.07,3.01-.61.64-1.54.46-2.24.87Z" style="fill: #5e5c5d;"/>
        <path d="M363.17,93.28c.13-.81-.03-1.85,1.33-1.7.79,1.58-.73,3.11-.11,4.69-.15,1.21-.11,2.49-1.12,3.43-.71.48-1.47.75-2.33.5-1.44-2.29-.2-6.15,2.23-6.92Z" style="fill: #919294;"/>
        <path d="M363.17,93.28c-2.5,1.63-2.24,4.15-2.14,6.63.09,1.63-.86,2.27-2.32,2.41-.98-.41-.84-1.21-.67-1.99.17-.77.51-1.48.7-2.25.57-3.85,1.01-4.33,4.43-4.79Z" style="fill: #979799;"/>
        <path d="M350.84,114.94c-1.54,1.19-.66,3.09-1.31,4.56-.33.76-.2,1.7-.87,2.35-.66.28-1.27.61-1.44,1.39-.61.26-.67.13-.57-.53.3-1.9,1.17-3.69,1.08-5.67-.03-.62.05-1.18-.77-1.28-.08-1.16.91-.86,1.51-1.1.82-.16,1.68-.54,2.38.3Z" style="fill: #afafb1;"/>
        <path d="M354.42,108.83c-.74-2.04.71-3.85.61-5.83-.03-.49.1-.99.15-1.48-.04-1.55,1.17-2,2.26-2.55.34,1.16-.15,2.26-.32,3.36-.23,1.52-.31,2.99.13,4.47-.31,1.56-.86,2.78-2.83,2.03Z" style="fill: #a19fa0;"/>
        <path d="M384.82,87.15c-1.3-.04-.89-1.22-.76-1.62.72-2.23.42-4.54.69-6.79.14-1.09.58-1.92,1.78-2.13.54,1.77-.2,3.43-.38,5.14-.13,1.24-.75,2.6.48,3.67-.92.24-1.28,1.08-1.81,1.73Z" style="fill: #595758;"/>
        <path d="M356.22,116.24c-1.02-1.05-.32-2.35-.52-3.53.53-1.36,1.3-2.61,1.92-3.93.68-.54,1.33-1.35,2.18-.21-.39,2.25-.84,4.5-.93,6.79-.88.29-1.77.59-2.65.88Z" style="fill: #98999b;"/>
        <path d="M332.79,129.37c-.54.34-.62,1.14-1.32,1.33-1.3.6-1.55-.07-1.46-1.19.11-1.37.74-2.67.59-4.08,1-.11,1.49-.75,1.78-1.65.24-.75.5-1.52,1.28-1.93,1.33,2.69.37,5.12-.87,7.51Z" style="fill: #dadbdc;"/>
        <path d="M364.17,110.95c-.71.78-1.9,1.11-1.92,2.52-.01.89-.96.87-1.65.97-1.04.47-1.17-.22-1-.91.41-1.66.19-3.43.93-5.03.43-.84,1.24-1.27,1.95-1.82.37-.22.74-.44,1.19-.23.44.72.03,1.4-.17,2.04-.31,1.01-.14,1.79.67,2.45Z" style="fill: #8f8e8f;"/>
        <path d="M369.78,88.96c1.06-.77,2.38-.83,3.53-1.35.35.1.57.31.58.7-1.28,1.62-1.07,3.97-2.66,5.44-.73.42-1.48.61-2.28.18-1.05-1.87.63-3.29.83-4.96Z" style="fill: #807c7c;"/>
        <path d="M368.1,105.65c-.25,1.99-2.3,2.93-2.79,4.78-1.21-.56-.89-1.71-.69-2.52.35-1.38.51-2.83,1.17-4.13.32-.77.64-1.53,1.01-2.28.25-.38.58-.59,1.05-.51,1.84,1.46.34,3.1.25,4.67Z" style="fill: #838385;"/>
        <path d="M332.79,129.37c.35-2.5,1.25-4.93.87-7.51.63-.62,1.77-.35,2.22-1.27-.28,1.84-.62,3.66-.83,5.51-.09.81-.37,1.74.42,2.44-.8.58-1.78.58-2.68.84Z" style="fill: #d4d5d7;"/>
        <path d="M376.27,95.9c-.7-1.73.27-3.43.13-5.14,1.16-1.26,1.06-3.46,3.06-4.09-.27,2.72-1.25,5.32-1.28,8.08-.55.53-1.58.27-1.91,1.16Z" style="fill: #6b6b6d;"/>
        <path d="M366.24,103.79c-.43,2.2-1.83,4.26-.93,6.64-.17.62-.67.53-1.13.53-1.35-.12-2.27-.28-1.26-2.07.32-.57.62-1.5.72-2.32.16-2.26.65-2.79,2.61-2.77Z" style="fill: #898788;"/>
        <path d="M372.42,95.89c-.53,2.26-.49,4.63-1.41,6.81-.4.94.58,1.58.54,2.45l-.16.09-.18-.02c-.43.24-.88.18-1.33.13-.94-.48-.78-1.32-.62-2.09.3-1.42.34-2.87.46-4.31.26-1.15.45-2.32,1.36-3.19.47-.22.93-.25,1.35.13Z" style="fill: #7b7a7c;"/>
        <path d="M364.2,95.97c-1.4-1.56.43-2.91.3-4.38.91-.69,1.82-1.39,3.07-1.28.54,1.39-.79,2.66-.29,4.05-.59,1.37-1.63,1.88-3.08,1.62Z" style="fill: #8b8a8c;"/>
        <path d="M400.58,53.16c.32-2.81,3.03-4.03,4.15-6.37.27.79.36,1.47.06,2.24-1.23,3.19-2.46,6.37-2.8,9.83-.1,1-1.15,1.6-1.87,2.29-1.45-.01-1.66-.89-1.37-2.04.5-2.01.83-4.08,1.83-5.95Z" style="fill: #312f31;"/>
        <path d="M400.58,53.16c.27,2.06-.89,3.85-1.28,5.78-.26,1.28.05,1.65.83,2.21,0,2.32.12,4.68-2.68,5.71-.55.2.12,1.27-.8,1.33-1.67-2.79-.24-5.45.4-8.13.16-.66.89-1.18.53-1.99.68-1.83,1.3-3.71,3.01-4.91Z" style="fill: #393839;"/>
        <path d="M397.57,58.07c.97.13.72.67.43,1.24-.57,1.14-.79,2.38-1.13,3.57-.52,1.84-.2,3.55-.23,5.31-.9.59-1.81,1.17-2.71,1.76-.67-.55-.53-1.22-.41-1.96.45-2.62.86-5.25,1.78-7.77,1.06-.39,2.08-.83,2.27-2.14Z" style="fill: #404042;"/>
        <path d="M341.59,124.95c-.44.45-.87.9-1.31,1.35-.41.31-.85.22-1.29.12-.11-3.89.43-7.72,1.3-11.5,1.17-.33,2.34-.66,3.5-.99.46,1.07-.1,2.02-.36,3.01-.25.88-1.27,1.45-1.01,2.53-.21,1.83.14,3.75-.82,5.47Z" style="fill: #c4c5c7;"/>
        <path d="M389.11,79.63c-.62,1.12-1.26,2.17-.96,3.61.22,1.04-.2,2.02-1.52,2.17-1.3.16-1.12-.77-1.17-1.55-.11-1.76.46-3.43.61-5.16.07-.72.15-1.43.12-2.16.05-.54.25-1.03.42-1.53.57-1.47.85-3.14,2.63-3.75.74,1.16.48,2.39.19,3.6-.37,1.57-.45,3.16-.33,4.76Z" style="fill: #545456;"/>
        <path d="M340.28,114.92c-.02,3.83-.34,7.63-1.32,11.36-2.57.45-2.51.43-2.29-2.13.2-2.3.49-4.57,1.36-6.72.77-.81,1.04-2.08,2.25-2.5Z" style="fill: #c9cbcd;"/>
        <path d="M389.11,79.63c-1.54-1.2-.64-2.88-.39-4.1.3-1.45.38-2.85.42-4.29-.08-.42-.07-.83-.02-1.25-.17-1.98,1.79-2.37,2.68-3.56.07,1.84-.42,3.58-.91,5.32-.43,1.5-.1,3.1-.65,4.59-.09.25.4.72.62,1.08-.16,1.07-1.05,1.56-1.75,2.21Z" style="fill: #4e4c4d;"/>
        <path d="M347.21,123.23c-.01,2.74-1.66,1.59-2.96,1.24-1.04-2.18.2-4.29.2-6.44.03-.59.45-.93.83-1.3.54-.47.89-1.18,1.7-1.3,1.14.04,1.14.87,1.21,1.7.12,1.56-.39,3.01-.75,4.49-.13.52-.7,1-.22,1.61Z" style="fill: #b5b5b7;"/>
        <path d="M382.58,88.02c-.96,2.57-2.51,4.76-4.4,6.72-1-2.03.1-3.96.31-5.92.07-.63.39-1.25.46-1.9.04-.22.11-.43.2-.63.74-.88,1.2-2.06,2.51-2.33,1.03,1.19.49,2.73.91,4.06Z" style="fill: #666567;"/>
        <path d="M338.04,117.43c.41,2.34-.41,4.59-.81,6.81-.35,1.95.08,2.27,1.74,2.05.44,0,.88.02,1.32.02-1.76.42-3.6.64-4.81,2.23-1.39-.24-1.08-1.37-1-2.19.19-1.97.24-4.01,1.41-5.75,1.15-.76.35-2.85,2.16-3.16Z" style="fill: #cfd1d2;"/>
        <path d="M351.26,106.89c.27-.57.89-.94.8-1.73-.25-2.28.96-3.38,3.11-3.64,1,1.37.14,2.78,0,4.15-.1.99-.37,1.98-.48,2.98-.2.65-.68,1.01-1.28,1.25-.63.18-1.24.18-1.8-.22-.57-.87-.88-1.78-.37-2.79Z" style="fill: #a6a8aa;"/>
        <path d="M356.22,116.24c-1.52,1.2-2.54,2.82-3.68,4.33-1.13-.33-1.34-.47-1.06-1.6.41-1.71.33-3.44.48-5.16.41-.81,1.28-.8,1.97-1.1.66-.12,1.33-.52,1.97.07.54,1.11.43,2.29.32,3.46Z" style="fill: #a2a3a5;"/>
        <path d="M352.15,113.9c.62,1.52.36,3.04-.07,4.54-.23.82-.62,1.61.45,2.13-.82,1.87-2.41,1.37-3.87,1.28.07-1.88.68-3.68.83-5.56.05-.69.41-1.22.96-1.64.52-.37.97-.9,1.71-.75Z" style="fill: #a8a9ab;"/>
        <path d="M378.15,79.71c.87-.14,1.83-.39,2.18-1.19.61-1.42,1.84-1.64,3.06-1.99.08.08.17.15.25.23.34.64.31,1.3.07,1.97-1.28,1.69-1.98,3.96-4.47,4.45-.43.13-.87.27-1.29-.04-.93-1.2-.64-2.33.19-3.43Z" style="fill: #6a6767;"/>
        <path d="M374.51,100.32c-.39.69-.91,1.36-.72,2.2.43,1.9-.72,2.41-2.24,2.62-.71-.59-1.31-1.38-1.01-2.26.81-2.34.66-4.87,1.54-7.17.29-.35.64-.54,1.11-.44,1.21.87.81,2.19.84,3.34.02.66-.14,1.27.48,1.71Z" style="fill: #767678;"/>
      </g>
      <g id="Slash_3" data-name="Slash 3">
        <path d="M382.4,48.35c.19-.74.37-1.49.56-2.23-.08.77.46,1.69-.56,2.23Z" style="fill: #5e5958;"/>
        <path d="M371.6,59.84c.22-1.27,1.24.02,1.68-.53-.38.76-1.09.45-1.68.53Z" style="fill: #727273;"/>
        <path d="M374.97,57.19c-1.04-1.02-.37-2.3-.26-3.35.26-2.57.89-5.09.85-7.72-.01-.74.51-1.48.79-2.22,0-.12-.03-.24-.07-.36.4-.81,1.83.06,1.95-1.19,1.05-.67,1.01-2.16,2.11-2.78.88,2.87-.32,5.71-.14,8.57.03.4-.3.82.18,1.15-.44.3-.89.6-1.33.9-1.4.35-.82,1.68-1.21,2.53-.75,1.64-1.57,3.2-2.87,4.47Z" style="fill: #d83235;"/>
        <path d="M392.53,23.8c-.03,1.15.37,2.35-.3,3.44.13-1.15-.32-2.34.3-3.44Z" style="fill: #534e4d;"/>
        <path d="M356.01,60.27c.48-.43.96-.86,1.44-1.3.4.24.8.5,1.3.38.85.87.48,1.9.4,2.9-.39,4.51-1.51,8.92-1.64,13.46-.18.7-.35,1.4-.53,2.1-.37.67-1.13,1.05-1.36,1.82-.62.21-.84.67-.84,1.28-1.17.09-2.21.49-3.06,1.32-.56-.48-.66-1.16-.59-1.79.51-4.52.9-9.07,1.93-13.52,0,0-.05-.17-.05-.17,1.8-.37,2.46-1.43,2.07-3.24-.26-1.21.32-2.25.92-3.25Z" style="fill: #df3e43;"/>
        <path d="M363.59,56.27c.18-.4.56-.38.91-.44.77-.05,1.51.72,2.3.07.85-.43,1.7-.85,2.54-1.28,1.13,1.88-.02,3.76,0,5.64-.2,1.18-1.15,2.17-.9,3.47-.72,1.05-1.45,2.09-2.17,3.14-.95,1.01-2.72,1.01-3.19,2.61-1.36-.14-1.38-1.18-1.21-2.09.71-3.69,1-7.44,1.74-11.13Z" style="fill: #dc383c;"/>
        <path d="M314.34,101.74c1.06-.55,1.8-1.47,2.59-2.33.7.88,1.47.52,2.24.11.31.14.48.36.4.72-.29.32-.58.64-.88.96-.74.43-1.7.7-2.16,1.33-.89,1.22-1.97,1.08-3.15.88-.11-.8,1-.91.96-1.68Z" style="fill: #ec575f;"/>
        <path d="M341.55,83.48c.59,2.09-.83,4.18,0,6.26.02.14.03.28.03.42-1.17,1.37-2.91,1.77-4.4,2.6-.73,0-1.46.01-2.19.02-1.06-2.4-.04-4.67.44-6.97.14-.17.29-.33.43-.5,1.06-.05,1.82-.74,2.64-1.27,1.04-.03,2.11.1,3.03-.57Z" style="fill: #e4454d;"/>
        <path d="M369.33,60.27c-1.24-1.88.45-3.76,0-5.64,1.76-1.65,2.18-3.58,1.23-5.8,1.21-.84,2.45-1.65,3.05-3.09,1-.48,1.54-1.65,2.73-1.83.11,2.16-.24,4.29-.51,6.42-.29,2.29-.67,4.57-.88,6.87-.12.41-.25.83-.37,1.24-.57.09-1.09.27-1.31.88-.41.67-1.27-.1-1.68.53-.07.09-.11.19-.11.31-.72.04-1.44.08-2.16.12Z" style="fill: #d93538;"/>
        <path d="M335.44,85.81c.63,2.37-.69,4.62-.44,6.97-1.63-.09-2.08,1.46-3.09,2.23-.51.35-1.01.7-1.68.52-1.16.03-1.09-.91-1-1.53.28-2.01.15-4.09.92-6.03.49-.67,1.87-.32,1.85-1.6,1.08-.62,2.26-.64,3.46-.56Z" style="fill: #e74851;"/>
        <path d="M319.57,100.24c-.13-.24-.27-.48-.4-.72.38-1.76,1.74-2.95,2.64-4.4.72-.77,1.44-1.54,2.17-2.31.43-.18.86-.35,1.29-.53.92,1.27-.13,2.79.52,4.1-.05.12-.1.25-.15.37-.78-.05-1.56-.13-2.21.45-.73.39-.93,1.16-1.37,1.76-.53.72-1.1,2.01-2.5,1.28Z" style="fill: #ea4f58;"/>
        <path d="M353.07,66.92c.39,2.77-.34,5.45-.66,8.16-.28,2.38-.85,4.73-.69,7.15-.28.3-.56.6-.83.91-1.39-1.13-1.91,1.11-3.09.81-.31-.28-.62-.56-.92-.83.54-3.72,1.07-7.45,1.65-11.17.1-.65-.17-1.13-.39-1.66.93-1.14,1.64-2.53,3.25-2.92.56-.15,1.13-.29,1.69-.44Z" style="fill: #e14046;"/>
        <path d="M363.59,56.27c1.02,1.64-.05,3.28-.13,4.9-.09,2.08-.73,4.13-1.1,6.2-.15.82-.17,1.63.71,2.12.04.12.06.24.06.37-.78.24-1.22.91-1.26,1.58-.09,1.43-1.04,2.29-1.79,3.29-.85.33-1.71.65-2.56.98-.73-.09-.93-.44-.81-1.19.7-4.33,1.35-8.66,1.99-13,.1-.71.05-1.45.06-2.17.84-.46,1.42-1.17,1.85-2.01,1.01-.31,1.75-1.38,2.99-1.07Z" style="fill: #de3b40;"/>
        <path d="M355.63,79.63c-.16-1.06.79-1.3,1.36-1.82-.02.93-.8,1.29-1.36,1.82Z" style="fill: #938987;"/>
        <path d="M325.79,96.39c-1.31-.23-.9-1.25-.87-2.03.03-.7.22-1.38.34-2.07.56-.87,1.76-1.3,1.79-2.54.59-.45,1.18-.9,1.77-1.34.44-.14.87-.28,1.31-.42.47,1.66.01,3.29-.24,4.91-.14.93-.53,1.85.32,2.65-.32.13-.63.25-.95.38-1.27-.67-2.27.68-3.48.47Z" style="fill: #e84b54;"/>
        <path d="M394.87,27.66c-.11.41-.45.92.39.92-.13.66-.86.53-1.21.91-.57-.31-.47-.86-.53-1.37.19-.9.73-.8,1.35-.46Z" style="fill: #4c4443;"/>
        <path d="M370.65,46.16c-.37.43-.74.86-1.11,1.3-.89-1.51.43-1.13,1.11-1.3Z" style="fill: #797778;"/>
        <path d="M401.11,22.63c-.02-.82-.03-1.64-.05-2.45.29.81.79,1.62.05,2.45Z" style="fill: #3b3636;"/>
        <path d="M394.87,27.66c-.44.17-1.02-.05-1.34.46-.17.3-.33.6-.5.89-.93.41-1.31.06-1.25-.91.15-.29.3-.57.45-.86.53-1.11.04-2.31.3-3.44.57-.97,1.87-1.39,2.03-2.67.71-.42,1.45-.8,1.67-1.7,1.56-.7,2.6-1.75,3.18-3.47.53-1.6,1.37-3.19,2.44-4.47.92-1.1,1.27-2.38,1.9-3.56.41-.04.63.07.43.53-.71,3.45-1.53,6.85-3.93,9.61-.23.26-.53.62-.5.9.19,1.8-.49,3.22-1.63,4.55-.27.32-.14.97-.2,1.47-1.25.63-2.25,1.53-3.05,2.68Z" style="fill: #d12a2d;"/>
        <path d="M404.19,8.44c-.14-.18-.29-.35-.43-.53.49-.39-.1-1.82,1.29-1.35-.29.62-.58,1.25-.87,1.87Z" style="fill: #c92e2b;"/>
        <path d="M343.85,72.7c1.13-.23,2.15-.7,3.06-1.41.72.04.84-.65,1.23-1.01.73.29.94.91.89,1.6-.24,3.35-.64,6.68-1.34,9.97-.11.5-.35.96-.81,1.26-.75.56-1.5,1.12-2.25,1.68-.92.72-2.57.89-1.57,2.87.48.96-.72,1.58-1.51,2.09-.93-.09-.92-.85-.86-1.44.17-1.62.09-3.3.86-4.82-.09-.56.26-1.21-.35-1.65.54-.66,1.01-1.41,1.65-1.96,1.59-1.4,2.18-2.93.99-4.86-.47-.77-.07-1.53.02-2.3Z" style="fill: #e24249;"/>
        <path d="M382.13,48.46c-.59.28-1.17.55-1.76.83-1.05-.07-.75-.88-.74-1.45.07-2.77.18-5.54.7-8.27.96-.69,2.04-1.28,2.29-2.6.58-1.41,2.2-1.58,3.12-2.6.4-.02.8-.05,1.2-.07-.22,2.05-.97,4.06-.44,6.17-.05.12-.09.24-.13.37-.4.46-.8.93-1.2,1.39-1.02,1.14-2.24,2.17-2.22,3.9-.54.66.25,1.64-.56,2.23-.11-.01-.2.02-.27.1Z" style="fill: #d53033;"/>
        <path d="M386.51,40.46c-1.15-1.78-.97-4.35.44-6.17.65-1.6,2.87-2,3.05-3.96.03-1.2.43-2.09,1.78-2.23.23.56.62.9,1.25.91-.85,1.11-1.63,2.18-.85,3.72.32.64.12,1.59-.43,2.05-2.01,1.66-3.28,3.99-5.24,5.68Z" style="fill: #d32e30;"/>
        <path d="M325.64,96.76c.67.4.62.92.2,1.46-.41.52-.23.74.36.81-.73.74-2-.14-2.64.89-1.01-.85.79-1.84-.13-2.7.52-1.2,1.33-1.01,2.21-.45Z" style="fill: #cbcacb;"/>
        <path d="M394.57,21.13c-.2-.17-.4-.35-.59-.52.48-1.64.85-3.38,3.11-3.39-.28.74-.56,1.48-.85,2.22.09,1.2-.47,1.76-1.67,1.7Z" style="fill: #403c3c;"/>
        <path d="M323.48,91.07c1.09.32.55,1.1.49,1.74-.08,1.37-.98,1.98-2.17,2.31-.6-.9-.61-1.7.4-2.33.06-.85.64-1.31,1.28-1.73Z" style="fill: #d4cecd;"/>
        <path d="M358.33,55.94c.23,1.16-1.17,1.85-.88,3.03-.21.73-.64,1.22-1.44,1.3-.64-.64-.08-1.21.1-1.8-.23-1.69.99-2.11,2.22-2.52Z" style="fill: #8f8c8c;"/>
        <path d="M397.92,24.98c.18.18.36.36.53.54-.49,1.61-2.02,2.15-3.19,3.05-1.16.35-.97-.35-.79-1.03.85-1.25,1.63-2.6,3.44-2.57Z" style="fill: #3b3636;"/>
        <path d="M329.27,97.21c0-.43,0-.86,0-1.3.2-.37.55-.56.91-.73.56-.17,1.11-.47,1.72-.17-.26,1.11.71,1.28,1.31,1.73-1.33.03-2.56.91-3.94.47Z" style="fill: #c1b8b7;"/>
        <path d="M374.59,58.43c-.09.51-.67,1.06.15,1.48-.91.9-2.62.66-3.08,2.19-.99-.56-.27-1.28-.18-1.94-.06-.19-.01-.36.13-.49.46-.29,1.05-.35,1.44-.79.45-.38.88-.82,1.54-.44Z" style="fill: #706b6b;"/>
        <path d="M329.27,97.21c-.91.79-1.22,2.61-3.07,1.81-.55.32-1,.28-.95-.47.05-.62.26-1.23.27-1.87.05-.22.16-.4.32-.55,1.19-.43,2.36-1.51,3.64-.19.19.46.13.89-.21,1.27Z" style="fill: #c5c4c6;"/>
        <path d="M350.89,83.13c-.81,1.22.39,1.39.98,1.88-1.1,1.18-2.9.33-4.05,1.38-.52-.81-.57-1.63-.01-2.45,1.72-1.77,1.91-1.81,3.09-.81Z" style="fill: #989798;"/>
        <path d="M341.58,90.17c.12.88.25,1.76.37,2.64-.48.87-1.25.99-2.14.82-.7-.81-1.99.16-2.63-.86.99-1.67,2.81-1.93,4.4-2.6Z" style="fill: #aaa6a6;"/>
        <path d="M382.13,48.46c.39.41.78.82,1.17,1.23-.29,1.99-2.07,1.4-3.24,1.88-.61-.26-1.02-.66-1.02-1.38.13-.67.73-.9,1.18-1.27.6-.31,1.12-.93,1.9-.46Z" style="fill: #5e5958;"/>
        <path d="M309.01,106.06c-.01.64-.01,1.27.88,1.32-1.36.81-2.75,1.5-4.4,1.32-.6-1.18-.57-2.15.88-2.64.88,0,1.76,0,2.65,0Z" style="fill: #f0f1f1;"/>
        <path d="M306.37,106.05c-.65.76-.84,1.68-.88,2.64-.2.37-.38.74-.6,1.11-.23.4-.56.66-1.06.57-.5-.09-.68-.53-.79-.93-.34-1.24,1.89-3.49,3.32-3.39Z" style="fill: #f7f7f7;"/>
        <path d="M360.44,76.55c-1.41-.35-.47-1.17-.36-1.82.21-1.54,1.28-2.72,1.68-4.2.15-.55.64-1,1.37-.68.09,1.06.58,2.12.05,3.18-1.78.5-1.87,2.31-2.74,3.51Z" style="fill: #807d7d;"/>
        <path d="M367.14,52.04c.77,1.36-1.04,2.5-.35,3.86-.65,1.35-1.47.47-2.24.17-.72-1.2-.62-2.31.38-3.32.74-.24,1.47-.47,2.21-.71Z" style="fill: #7e7a7a;"/>
        <path d="M364.93,52.75l-.43,3.08c-.19.42-.55.63-.94.8-1.01.14-1.84,1.02-2.95.71-.8-2.46,1.44-2.04,2.55-2.69.81-.43.31-2.08,1.77-1.9Z" style="fill: #838587;"/>
        <path d="M346.36,68.49c.9.79-.11,1.96.55,2.79-.54,1.5-1.61,1.87-3.06,1.41,0-1.2,1.54-2.22.41-3.55.7-.22,1.4-.44,2.1-.66Z" style="fill: #a5a2a2;"/>
        <path d="M378.09,39.04c.82,1.07-.27,2.22.13,3.31.1,1.62-1.07,1.17-1.95,1.19-1.25-.32-.22-1.49-.77-2.08,1.48-.15,1.87-1.45,2.58-2.42Z" style="fill: #6b6969;"/>
        <path d="M317.8,97.23c.11.89-.93,1.32-.88,2.18-.18,1.54-1.06,2.29-2.59,2.33-.01-.61-.03-1.23-.04-1.84.44-1.84,2.4-1.7,3.51-2.67Z" style="fill: #dfdbda;"/>
        <path d="M335.87,85.32c1.17-.9.43-2.06.4-3.12.4-1.53,1.86-2.24,2.67-3.46.54,1.82-.7,3.5-.43,5.3-.54,1.14-1.25,1.91-2.65,1.27Z" style="fill: #b2b1b2;"/>
        <path d="M373.62,45.73c-.51,0-1.56.61-1.02-.71.32-.8.09-1.39-.24-2.03.61-1.4,2.06-1.1,3.14-1.53.71.52.64,1.42,1.03,2.1.02.21-.02.4-.12.58-.84.69-1.53,1.65-2.8,1.59Z" style="fill: #6f6c6d;"/>
        <path d="M385.18,42.22c0,1.13.04,2.2-.63,3.29-.61.99.01,2.04.69,2.91-.32.92-1.84.01-1.93,1.27-.89.08-1.24-.44-1.34-1.22.06-.19.14-.36.23-.53.38-.62.23-1.32.29-1.99.41-1.6.7-3.27,2.69-3.71Z" style="fill: #555556;"/>
        <path d="M382.04,35.45c.43-1.87,1.36-3.23,3.46-3.4q.94.46.34,2.53c-1.01,1.12-2.01,2.26-3.65,2.45-.57-.48-.43-1.02-.15-1.58Z" style="fill: #5c5859;"/>
        <path d="M358.33,55.94c1.43-1.1,3.05-1.5,4.83-1.29-.5,1.15-2.55,1-2.32,2.77-.31,1.14-.99,1.92-2.15,2.25-.63.07-1.11-.17-1.45-.69-.52-1.33.51-2.1,1.1-3.03Z" style="fill: #8c898a;"/>
        <path d="M318.69,101.21c.52.31.43.83.44,1.32-1.38.9-2.3,2.73-4.4,2.21-.55-.16-1.15-.22-1.63-.5-.82-.49-.36-.71.27-.81,1.35-.4,2.63-.92,3.71-1.88.41-.37.98-.64,1.6-.33Z" style="fill: #ddd5d4;"/>
        <path d="M328.82,88.4c.27-1.01,1.48-1.71.81-3.06-.29-.58.85-.29.95-.84.77-.4,1.71-.54,2.15-1.44.56,1.29-.12,2.3-.75,3.32.37,1.43-.93,1.49-1.65,2.01-.5.21-1,.51-1.51,0Z" style="fill: #c1c0c1;"/>
        <path d="M385.75,34.36c-.97-.68,1.05-1.68-.25-2.32,1.62-.54,3.15-1.2,3.63-3.09.06.6-.07,1.32.87,1.37.49,1.18-.22,1.9-1.04,2.52-.68.52-1.23,1.2-1.95,1.67-.45.17-.88.19-1.26-.15Z" style="fill: #534e4d;"/>
        <path d="M382.04,35.45c.09.55-.03,1.17.59,1.51.38,1.68-.96,2.21-1.96,2.98-1.08.52-.88,2.57-2.67,2.22-.69-1.07.15-2.09.09-3.13,1.98-.47,3.04-1.95,3.95-3.59Z" style="fill: #636162;"/>
        <path d="M389.13,28.96c0-.86-.57-1.84.91-2.23.86-.23,1.28-1.24,1.38-2.08.21-1.8,1.6-2.77,2.56-4.05.34.08.56.29.69.6.19,1.38-1.16,1.9-1.61,2.93-.48.99-.11,2.09-.4,3.1-.12.44-.35.8-.68,1.1-1.07.41-1.27,1.69-2.24,2.21-1.07-.2-.86-.88-.61-1.59Z" style="fill: #4d4d4f;"/>
        <path d="M386.38,40.83c.5.2.86.54,1.05,1.05-1.03.96-.98,2.19-.83,3.42.17,1.34-.05,2.45-1.37,3.11-1.67-.51-1.47-1.84-1.18-3.05.23-.96.57-1.9.65-2.9.26-.85.64-1.58,1.67-1.64Z" style="fill: #555354;"/>
        <path d="M354.79,80.91c.17.18.35.35.52.53-.24,2.06-1.59,3.05-3.44,3.57-1.34,0-1.92-.6-1.51-1.95.32-.47.71-.86,1.11-1.26.97-.79,1.94-1.61,3.32-.88Z" style="fill: #919192;"/>
        <path d="M332.73,83.06c1.18-.29,2.36-.57,3.54-.86,1.09,1.14,1.01,2.25-.07,3.35-.25.24-.53.43-.85.57-1.07.23-2.14.52-3.25.33-.7-1.3.74-2.2.63-3.39Z" style="fill: #b7b8b9;"/>
        <path d="M327.06,89.74c-.82-1.08.26-2.4-.43-3.5.89-1.56,2.42-1.67,3.96-1.74.14.59-1.19.7-.4,1.72.42.54-.49,1.65-1.06,2.39-.62.51-1.02,1.42-2.07,1.13Z" style="fill: #c6c7c9;"/>
        <path d="M344.63,84.78c-.28,1.64-.68,3.27-.47,4.95-.06,1.51-1.42,2.09-2.21,3.07-1.19-.58-.46-1.73-.78-2.57,0-.2.05-.4.11-.6.58-.9,1.23-1.65,1.05-2.96-.2-1.43.99-1.91,2.3-1.9Z" style="fill: #a49f9f;"/>
        <path d="M323.56,99.9c-.86,1.91-2.47,2.56-4.42,2.62-.42-.36-.59-.84-.63-1.37.06-.58.41-.92.94-1.11,1-.16,1.74-.69,2.29-1.53.44-.67.83-1.41,1.77-1.48,1.33.93.06,1.91.06,2.87Z" style="fill: #d2cfcf;"/>
        <path d="M370.57,48.82c-.62-.01-1.01-.34-1.24-.89.07-.16.14-.32.21-.47-.18-.9.62-.96,1.11-1.3.63-1.02.54-2.43,1.71-3.17.82.33,1,1.02.76,1.73-.27.79.44.72.71,1.04-.27,1.9-1.48,2.79-3.27,3.05Z" style="fill: #757373;"/>
        <path d="M339.82,93.63c-1.85-.05-3.34.03-3.65,2.56-.25,2-1.86.83-2.95.55-.96-.17-1.95-.32-1.65-1.72.72-1.45,1.66-2.63,3.45-2.74.71-.04,1.42,0,2.12.15.85.51,2.22-.16,2.69,1.19Z" style="fill: #b6b5b7;"/>
        <path d="M367.14,52.04c2.65-.35,1.29-2.83,2.19-4.11.71.09,1.24.47,1.68,1.01,1.16,2.3.44,4.21-1.24,5.92-.96.52-1.87,1.19-3.02,1.25-.83-.24-.72-.91-.47-1.4.43-.85.36-1.85.87-2.66Z" style="fill: #797778;"/>
        <path d="M317.8,97.23c.85-2.09,1.19-4.69,4.4-4.43.03.07.1.16.07.19-.48.68-.82,1.36-.16,2.12-.51,1.76-2.07,2.88-2.75,4.55-.94.71-1.89,1.46-2.67-.18-.28-1.06.8-1.46,1.1-2.25Z" style="fill: #d8d5d5;"/>
        <path d="M353.06,59.44c.33,1.73-.14,3.49-.64,5.01-.41,1.24-.02,1.65.6,2.31-.02.12-.05.23-.07.35-.49.68-1.21.73-1.96.71-1.52-.36-2.04-1.26-1.49-2.74,1.16-.55,1.41-1.59,1.64-2.74.24-1.17.09-2.72,1.91-2.89Z" style="fill: #98999a;"/>
        <path d="M366.26,66.87c-.05,1.48-.41,2.91-.3,4.43.08,1.03.53,1.2,1.28,1.34-1.32.54-2.64.95-4.06.4-.56-.94-.27-2.02-.51-3.02,0-.22.01-.44.04-.65.61-1.65,1.86-2.38,3.55-2.49Z" style="fill: #7b7a7c;"/>
        <path d="M360.44,76.55c-.27.31-.69.58-.79.94-.42,1.5-.97,2.7-2.86,2.75-.5.01-.99.78-1.48,1.2-.4.17-.6-.07-.76-.38-.2-.72.16-1.23.64-1.69.56-.52,1.2-.99,1.29-1.84.13-.72.31-1.42.81-1.98.78-.56,1.56-1.14,2.61-.95.75.49.11,1.36.53,1.95Z" style="fill: #878688;"/>
        <path d="M349.5,65.07c.33,1.01.22,2.38,1.89,2.29-.78,1.3-2.2,2.05-2.93,3.39-.44.52-.91.96-1.68.77-1.12-.88-.56-1.98-.41-3.03-.05-2.14,1.83-2.53,3.14-3.42Z" style="fill: #9f9fa0;"/>
        <path d="M380.06,51.56c-1.38,3.03-3.31,5.71-5.32,8.34-1.22.01-.77-.81-.73-1.44.14-.55.36-1.07.63-1.56,1.29-1.64,2.4-3.38,2.95-5.43.19-.7.43-1.4,1.34-1.45.62.33.97.85,1.11,1.53Z" style="fill: #656161;"/>
        <path d="M347.82,86.39c-.84,1.53-3.27,1.32-3.65,3.35-1.37-1.6-.26-3.19,0-4.78.56-1.1,1.43-1.79,2.65-2.05.63.05,1.02.41,1.2,1,.05.83,0,1.66-.2,2.48Z" style="fill: #9f9ea0;"/>
        <path d="M323.48,91.07c-.07-2.34,1.93-3.32,3.14-4.82,1.28.94.45,2.36.82,3.51-.04,1.36-1.03,2.07-1.93,2.83-.45.27-.92.49-1.47.38-.54-.53-.38-1.26-.56-1.9Z" style="fill: #cbcaca;"/>
        <path d="M397.08,17.21c1.36-.7,1.29-2.2,1.64-3.33.88-2.86,3.42-4.63,4.38-7.56.56-1.73,2.79-3.12,4.06-4.92.5,2.39-.64,4.26-1.67,6.16-.23-.09-.43-.25-.67-.33-.52.19-.54.72-.75,1.11-1.3,3.26-3.45,6.06-4.91,9.25-.46,1-1.33,2.17-2.88,1.88-.54-1.04.17-1.64.8-2.26Z" style="fill: #403f41;"/>
        <path d="M405.06,6.57c.36.23.39.61.44.99-.69,1.96-1.23,4.12-1.4,6.02-.26,2.77-2.26,4.31-3.03,6.59.34.81.23,1.63.05,2.45-.76,1.08-1.02,2.62-2.66,2.9-.43.18-.64-.09-.82-.41-.13-.35-.28-.79-.09-1.07,1.52-2.25,1.56-5.07,3.09-7.4,1.58-2.41,2.52-5.25,3.2-8.11.39-.67.54-1.48,1.22-1.97Z" style="fill: #3a3231;"/>
        <path d="M341.1,75.55c1-.94,1.54-2.01,1.38-3.47-.14-1.32.43-2.41,1.78-2.93,1.74,1.12.31,2.36.14,3.55-.16.8-.14,1.57.08,2.38.84,3.14-.41,5.49-3.6,6.85-.94-2.16.04-4.25.22-6.38Z" style="fill: #a9a7a8;"/>
        <path d="M394.05,29.48c-.2.62-.6,1.25-.56,1.86.3,4.87-3.29,7.46-6.06,10.54-.57-.14-.91-.51-1.1-1.05-.02-.21.02-.42.1-.62,1.22-1.74,2.46-3.46,4.09-4.86.84-.72,1.33-1.65,1.02-2.73-.44-1.54.17-2.71,1.03-3.86.22-.37.45-.73.96-.7.51.36.5.9.52,1.43Z" style="fill: #4e4a4a;"/>
        <path d="M353.06,59.44c.86-.82,1.99-.79,3.06-.97.37.64.13,1.35.22,2.03-.34,1.24-.94,2.42-.77,3.77.24,1.84-.69,2.67-2.44,2.76-1.26-.41-1.73-1.08-1.24-2.48.57-1.64.33-3.49,1.17-5.09Z" style="fill: #959292;"/>
        <path d="M369.26,67.76c-.02.91-.44,1.74-.14,2.75.43,1.43-.91,1.7-1.88,2.12-1.17.4-1.6-.26-1.77-1.26-.25-1.47-.04-2.9.3-4.32.6-1.29,1.25-2.55,2.47-3.39,1.13.3,1.06,1.18,1,2.06-.05.68-.62,1.36.02,2.03Z" style="fill: #767576;"/>
        <path d="M309.01,106.06c.99-1.02,1.8-1.97,1.93-3.63.13-1.59,1.88-2.14,3.36-2.54.44.43.53.97.5,1.55-.04.77-.49,1.34-.93,1.9-.34.86.75.82.87,1.38-1.98.21-3.01,2.16-4.85,2.64-1.45.33-1.22-.46-.88-1.32Z" style="fill: #e6e7e7;"/>
        <path d="M341.1,75.55c.75,1.8-.02,3.56-.16,5.34-.03.39-.11.7.27.94,1.14.33.8,1.13.58,1.88-.91,1.04-2,1.06-3.18.57-1.38-1.93.07-3.7.34-5.53-.45-1.85,1.21-2.28,2.15-3.19Z" style="fill: #aeadae;"/>
        <path d="M369.26,67.76c-1.39.56-1.04-.31-.81-1.01.34-1.01.69-2.02-.03-3.02-.9-1.37.02-2.39.65-3.47.75-.66,1.55-.82,2.41-.2.56.63-.15,1.38.18,2.03.01,2.24-.26,4.35-2.41,5.67Z" style="fill: #727273;"/>
      </g>
      <g id="slash_2" data-name="slash 2">
        <path d="M352.6,41.78c-.85-1.36.31-2.91-.42-4.28.19-.6.75-1.18.45-1.82-.7-1.45.17-2.1,1.21-2.72.32-1.07,1.32-1.65,1.88-2.55.72-.32,1.44-.64,2.16-.96-.1,1.51.22,3.03-.24,4.53-.18.59.33.7.77.79-.62,2.25-1.85,4.18-3.18,6.06-.83.46-1.64.94-2.63.94Z" style="fill: #d93437;"/>
        <path d="M345.03,40.9c-.12.41-.5.36-.79.48-.44-.02-.88-.03-1.33-.05.59-.71,1.4-.33,2.12-.43Z" style="fill: #948f8f;"/>
        <path d="M341.53,43.13c-.17.99.48,2.08-.38,2.98.15-.99-.36-2.07.38-2.98Z" style="fill: #989697;"/>
        <path d="M343.8,52.79c-2.01-1.54-.21-3.34-.25-5-.05-2.13.44-4.27.7-6.41.14-.36.64-.14.79-.48.04-.26.09-.53.13-.79,1.12-.49,2.14-1.34,3.5-.89-.44,2.88-1.62,5.67-1.02,8.67-.19.99-1.34,1.56-1.2,2.7-.78.86-1.26,2.08-2.65,2.2Z" style="fill: #dd3b3f;"/>
        <path d="M348.62,39.08c.88.15,1.69.06,2.26-.74.67.08.87-.57,1.31-.84,1.34,1.31.64,2.82.42,4.28-.29.29-.59.58-.88.87-.59,1.29-1.19,2.59-1.78,3.88-.67.61-1.78.49-2.3,1.36-.32,0-.62-.17-.63-.46-.12-2.87-.05-5.71,1.66-8.21l-.04-.14Z" style="fill: #db383c;"/>
        <path d="M316.06,70.76c-1.26.65-2.06,2-3.53,2.32-.35-.05-.69-.1-1.08-.15.68-.74,1.31-1.44,1.95-2.13.66-.99,1.87-.25,2.66-.83.22.26.26.53,0,.79Z" style="fill: #ec5a60;"/>
        <path d="M325.67,65.98c-.76-.42-.91-1-.59-1.8.41-1.03.19-2.11.15-3.18.86-1.33,2.65-.46,3.62-1.53.14,0,.29,0,.43-.01-.45,1.86-1.02,3.7-.9,5.65-.95.15-1.99.01-2.71.88Z" style="fill: #e54750;"/>
        <path d="M320.04,67.83c.14-1.01.58-1.98.42-3.04.67-.59,1.06-1.37,1.38-2.18,1.02-.48,2.13-.78,3-1.56.13-.01.26-.03.39-.06,1.36,1.55.04,3.34.44,4.98-.37,1.36-1.51,1.34-2.58,1.44-1.08-.34-1.98.71-3.05.41Z" style="fill: #e74a53;"/>
        <path d="M339.81,47.01c.68,2.85-.29,5.59-.65,8.36-.1.8-.19,1.58-.17,2.39-.74.41-1.49.83-2.23,1.24-.44-.18-.88-.35-1.32-.53-.15-2.96.99-5.8.88-8.76.58-.95,1.13-1.92,2.21-2.41.43-.1.86-.2,1.29-.29Z" style="fill: #e14046;"/>
        <path d="M316.06,70.76c0-.26,0-.53,0-.79.38-1.77,1.97-2.82,2.64-4.42.59-.25,1.18-.5,1.77-.75.9,1.16.39,2.12-.42,3.04,0,.11-.02.21-.04.31-.91-.04-1.5.35-1.79,1.23-.27.84-1.03,1.15-1.73,1.52-.14-.05-.29-.1-.43-.14Z" style="fill: #e95058;"/>
        <path d="M362.28,30.32c-1.37.93-.48,3.15-2.21,3.87-.55.2-1.1.39-1.66.59-.91.4-1.27-.13-1.25-.88.04-1.51-.17-3.07.72-4.44.88-1.03,1.75-2.07,2.63-3.1.64-.8.81-2.1,2.23-2.08,1.22,1.32.37,2.88.48,4.33-.31.57-.63,1.14-.94,1.71Z" style="fill: #d53134;"/>
        <path d="M363.22,28.61c-1.15-1.33.12-2.93-.48-4.33.15-.18.31-.36.46-.54,1.56-.63,2.43-1.8,3.21-3.3.72-1.36,1.85-2.51,2.04-4.14.15.88-.38,1.88.49,2.63-.1,1.21-1.97,1.98-.87,3.49-.77,2.73-3.04,4.28-4.86,6.19Z" style="fill: #d12f30;"/>
        <path d="M335.43,58.47c-.58.47-1.17.94-1.75,1.42-1.23.52-.62,1.74-.99,2.58-1.32.39-1.19-.71-1.35-1.39-.19-.81.06-1.59.5-2.3.12-.82-.17-1.71.61-2.42,1.2-1.1,2.16-2.25,1.02-4.08-.52-.82.24-1.45,1.08-1.76.59-.27,1.17-.54,1.76-.82.29.25.51.59.49.94-.21,2.65-.18,5.34-1.36,7.82Z" style="fill: #e14349;"/>
        <path d="M331.84,58.78c.44,1.19-.74,2.76.84,3.69-.77,1.36-2.2,1.85-3.44,2.59-.29.01-.58.03-.87.04-1.04-2.1-.41-3.92.9-5.65.42-.67,1.18-.36,1.74-.61.27-.02.55-.04.82-.07Z" style="fill: #e3454c;"/>
        <path d="M340.77,46.21c.14,0,.26-.02.38-.09.56-.94-.06-2.03.38-2.98.07-.9.84-1.25,1.37-1.79,0,0,.01,0,.01,0,.47-.28.94-.26,1.42-.03.85,2.18-.06,4.32-.21,6.46-.12,1.67-.59,3.32-.33,5.02-.73,1.16-1.47,2.32-2.2,3.48-.87.49-1.74.99-2.61,1.48-.44-.35-.61-.86-.52-1.36.53-3.12.61-6.3,1.34-9.39.32-.27.64-.53.96-.8Z" style="fill: #df3e43;"/>
        <path d="M378.65,1.93c-.09-.52.05-1.1-.44-1.51.11-.27.39-.59.56-.33.38.58.38,1.26-.12,1.84Z" style="fill: #443a37;"/>
        <path d="M353.06,45.79c.06-.75-.27-1.55.32-2.22,0,.76.29,1.55-.32,2.22Z" style="fill: #767475;"/>
        <path d="M371.97,17.08c-1.14.39-1.54,2-3.02,1.85-1.42-.64-.52-1.72-.49-2.63.13-.32.27-.64.4-.97,1.08-1.44,2.64-2.34,3.96-3.5.43-.1.62.04.5.5.6,1.88-1.12,3.11-1.35,4.75Z" style="fill: #cf2c2d;"/>
        <path d="M373.32,12.33c-.17-.17-.34-.33-.5-.5.73-2.5,2.3-4.56,3.57-6.77-.26,2.74-.84,5.35-3.06,7.27Z" style="fill: #c2342c;"/>
        <path d="M351.27,35.58c-.48.87-.47,1.81-.39,2.76-.35,1.45-1.24,1.41-2.31.82-.63-1.04-.58-1.95.52-2.66.73-.31,1.46-.61,2.19-.92Z" style="fill: #7c7878;"/>
        <path d="M360.52,26.36c-.16-.17-.32-.35-.48-.52.51-1.73.74-3.68,3.1-3.95.02.62.04,1.23.07,1.85.12.33-.07.54-.3.73-1.03.33-1.39,1.5-2.38,1.88Z" style="fill: #5e5b5c;"/>
        <path d="M349.08,36.5c-.52.8-.44,1.7-.46,2.58-.06.08-.12.17-.18.25-1.05.32-2,.96-3.16.89-.68-.59-.31-1.26-.15-1.92,1.61.06,2.39-1.74,3.95-1.79Z" style="fill: #857e7d;"/>
        <path d="M345.13,38.3c.45.6.3,1.2.04,1.82.22.26.21.53.08.82-.53.52-1.25.4-1.89.56-.18.04-.37.04-.56.03-.6-.11-.54-.66-.71-1.05.52-1.42,1.89-1.65,3.04-2.18Z" style="fill: #8f8b8c;"/>
        <path d="M360.57,35.64c-.79-.27-.77-.82-.5-1.45.75-1.29.39-3.2,2.21-3.87.51,1.14-.97,2.57.51,3.58-1.03.22-1.37,1.31-2.23,1.75Z" style="fill: #585657;"/>
        <path d="M316.49,70.9c0,.42,0,.84,0,1.26-1.26.72-2.24,2.07-3.96,1.75,0-.28,0-.55-.01-.83.88-1.2,2.03-2.02,3.44-2.47.21.03.39.12.52.29Z" style="fill: #ded6d4;"/>
        <path d="M342.09,40.48c.27.29.54.58.82.87.18.93-.86,1.26-.98,2.04-.38.87-.05,1.88-.59,2.71-.16.17-.35.2-.57.11-.67-1.72-.11-3.46-.05-5.19.43-.24,1.04-.04,1.37-.55Z" style="fill: #948f8f;"/>
        <path d="M308.56,74.8c.02.57.32.87.89.89-1.12.92-2.72.92-3.78,1.98-.21.21-.53.23-.78-.02-.26-.26-.06-.52,0-.8.4-2.27,1.17-2.71,3.67-2.05Z" style="fill: #f4f4f5;"/>
        <path d="M324.88,58.99c.46.7-.14,1.38-.03,2.07-.38,1.71-1.69,1.62-3,1.56-.57-.89.1-1.82-.06-2.72.94-.6,2.04-.66,3.09-.91Z" style="fill: #c5c2c3;"/>
        <path d="M355.23,40.84c.02.41.12.78.52.99-.52.95-2.2.33-2.38,1.74-.31.71.12,1.53-.32,2.22-.35.42-.69.83-1.04,1.25-.89-1.41.48-2.97-.3-4.39-.14-.7.43-.87.85-1.15.88-.24,1.66-.9,2.66-.66Z" style="fill: #726c6b;"/>
        <path d="M336.75,58.99c.01.48.02.96.04,1.45-.51,1.28-2.41.99-2.77,2.44-.84-.92.68-2.1-.34-3-.08-1.23.91-1.38,1.72-1.7.63-.03,1.14.14,1.35.81Z" style="fill: #9f9b9c;"/>
        <path d="M323.1,67.42c.44.37.89.74,1.33,1.11-1.6.05-2.56,2.13-4.41,1.37-1.06-.51-.71-1.26-.33-2.01.14-.19.31-.34.52-.45.96-.23,1.93-.95,2.9-.02Z" style="fill: #c6c6c8;"/>
        <path d="M353.85,32.97c-.28-.6-.55-1.19-.83-1.79-.12-1.31.63-1.96,1.76-2.32.74-.24,1.49-.46,2.24-.69.62,1.14-.52,1.64-.87,2.42-.71.85-1.29,1.82-2.3,2.38Z" style="fill: #726e6e;"/>
        <path d="M355.73,30.42c.18-.9,1.34-1.23,1.29-2.25.26-1.74,1.84-1.78,3.02-2.33.33.08.54.3.64.62-.31,1.56-1.73,2.25-2.65,3.33-.7.45-1.35,1.11-2.3.64Z" style="fill: #676363;"/>
        <path d="M371.97,17.08c.17.17.33.35.5.52-.28.57-.31,1.14-1.18,1.46-1.4.52-2.46,1.64-2.49,3.35-.24,0-.48,0-.72,0-1.74-1.53.02-2.46.61-3.59,1.16-.46,1.89-1.72,3.28-1.74Z" style="fill: #514948;"/>
        <path d="M320,68.14c-.31.58-.46,1.17.01,1.75-1.19.72-1.7,2.52-3.52,2.27-.39-.38-.4-.83-.24-1.31.48-.8,1.23-1.38,1.75-2.16.47-.72,1.13-1.11,2-.55Z" style="fill: #d1cccc;"/>
        <path d="M331.41,53.09c.37,1.95-.07,3.85-.38,5.75-.37.66-1.05.65-1.67.77-.21,0-.41-.05-.59-.15-.43-.7-.09-1.56-.43-2.28,1.47-1.03,1.21-3.36,3.07-4.09Z" style="fill: #aeacad;"/>
        <path d="M330.58,65.91c-.44-.29-.89-.57-1.33-.86,0-.95.86-1,1.42-1.36.68-.43,1.25-.93,1.5-1.72.21-.92.09-2.04,1.4-2.28,1.88.81.06,2.16.45,3.18-.52,1.72-1.34,3.1-3.44,3.03Z" style="fill: #a7a3a3;"/>
        <path d="M341.6,56.27c.02.36.04.72.06,1.09.21,2.19-1.8,2.07-2.96,2.77-.51.31-1.26.22-1.9.31-.42-.34-.45-.79-.36-1.27.38-1.09,1.36-1.43,2.29-1.85.98-.29,1.67-1.38,2.88-1.05Z" style="fill: #979292;"/>
        <path d="M346.87,51.47c-.34-.2-.41-.52-.42-.88-.68-1.28.43-2.01.89-2.93.67-.83,1.47-1.35,2.6-1.12-.02,1.58-1.59,3.02-.45,4.71-.84.42-1.74.14-2.61.22Z" style="fill: #7c7b7c;"/>
        <path d="M318.69,65.54c-.14-.28-.28-.57-.43-.85.89-1.81,1.85-3.57,3.52-4.8.73.82.26,1.8.39,2.71-.09,1.05-.58,1.85-1.41,2.47-.65.35-1.21,1.06-2.07.47Z" style="fill: #cecac9;"/>
        <path d="M360.57,35.64c-1.53.67-2.15,2.16-2.98,3.43-.6.92-.94,2.03-1.84,2.76-.7.22-.74-.31-.85-.75.7-2.32,2.32-4.19,3.18-6.44.52-.4,1.08-.68,1.77-.56.61.35.55,1.01.72,1.56Z" style="fill: #656262;"/>
        <path d="M328.33,57.18c1.84.38.23,1.55.52,2.28-.59,1.61-2.34,1.01-3.37,1.79-.2.06-.4.07-.61,0-.65-.76-.39-1.52,0-2.28.79-1.3,2.47-.89,3.46-1.8Z" style="fill: #b8b7b9;"/>
        <path d="M351.27,35.58c-.04-1.72-.22-3.49,1.75-4.41.85.33,1,1.07,1.08,1.85-1.5,1.22-.62,3.31-1.7,4.69-.48.54-.96,1.09-1.75.47-.54-1.05-.33-1.91.62-2.61Z" style="fill: #787474;"/>
        <path d="M337.17,45.7c-.02.93.66,1.27,1.35,1.6-.35,1.11-1.29,1.79-1.98,2.66-.6.4-1.15,1-1.99.57-.48-.96.12-1.73.44-2.55.15-1.3,1.17-1.79,2.17-2.28Z" style="fill: #a4a1a1;"/>
        <path d="M313.4,70.79c0-.57.01-1.14.02-1.71.67-.39,1.55-.55,1.73-1.48.34-1.73,1.6-2.46,3.12-2.91.45.17.63.51.61.97-.31,1.78-1.87,2.84-2.53,4.41-.87.71-1.87.88-2.95.72Z" style="fill: #d9d4d3;"/>
        <path d="M330.58,65.91c-1.12.04-2.15.09-2.29,1.65-.09.99-.86,1.29-1.78.84-.74-.36-1.41-.16-2.09.12-.52-.36-1.57-.18-1.33-1.31.84-.51,1.85-.78,2.43-1.68.76-.73,1.68-.97,2.71-.93.33.01.65.07.97.17.54.28,1.32.28,1.38,1.14Z" style="fill: #b7b3b3;"/>
        <path d="M346.87,51.47c-1.28,2.37-2.45,4.84-5.22,5.89-.3-.22-.41-.53-.43-.88.42-1.48,1.09-2.82,2.24-3.87,1.16-.42,1.69-1.7,2.85-2.13.44.19.57.55.55.99Z" style="fill: #8b8787;"/>
        <path d="M368.44,14.91c.14.14.28.28.41.43.3.44.07.85-.06,1.26-.2,2.53-2.05,4.2-3.33,6.14-.49.74-1.33,1.63-2.52.84-.3-.6-.19-1.16.19-1.68,1.17-.75,2.1-1.34,2.63-3.04.34-1.08,1.24-3,2.67-3.94Z" style="fill: #535051;"/>
        <path d="M331.41,53.09c.43-.86,1.05-1.57,1.04-2.7-.02-1.54,1.07-2.27,2.55-2.42.29,1.02-.17,1.93-.41,2.87-.13.26-.43.56-.35.78,1.06,3.12-1.46,5.06-2.43,7.5-.35.1-.67.05-.94-.2-.41-2,.07-3.92.54-5.84Z" style="fill: #aaa7a7;"/>
        <path d="M376.38,5.06c.14-.08.28-.16.43-.24.93.5.5,1.41.32,1.94-.65,1.93-.46,4.19-2.1,5.76-.42.4-.47.88-.42,1.41.17,1.74-.59,2.94-2.13,3.68-.4.18-.58-.07-.73-.38-.11-1.86,1.23-3.33,1.4-5.12,1.51-2.15,2.45-4.57,3.24-7.05Z" style="fill: #3d3837;"/>
        <path d="M352.02,47.03c-.12.42-.42.87-.34,1.25.4,1.87-.62,2.6-2.2,2.96-1.15-.42-.89-1.36-.77-2.2.13-.86.5-1.67.75-2.5.82-1.28.73-3.08,2.24-3.96,1.52,1.39.33,2.96.31,4.46Z" style="fill: #767475;"/>
        <path d="M308.56,74.8c1.37-2.11,2.31-4.6,4.86-5.71.43.43.51.95.42,1.52-.2.81-.76,1.37-1.38,1.88-.18.14-.09.37.23.59.12.31.09.59-.15.83-1.03.59-2.06,1.18-3.09,1.77-.95.35-1.22.03-.89-.89Z" style="fill: #e6e4e4;"/>
        <path d="M337.17,45.7c.78-.57,1.42-1.13,1.44-2.27.02-1.29.79-2.15,2.11-2.41.69,1.72.17,3.5.21,5.25-.15.55-.58.84-1.04,1.1-.49.24-1,.43-1.57.3-.82-.4-1.71-.76-1.16-1.97Z" style="fill: #989697;"/>
        <path d="M378.65,1.93c-.26,1.19-.67,2.28-1.84,2.88-.01.31-.12.58-.27.85-1.21,2.06-2.36,4.15-3.42,6.3-1.16,1.48-2.68,2.55-4.25,3.55-.34-.06-.61-.17-.43-.6.7-1.39.85-3.2,2.87-3.58.54-.1.69-.68.88-1.16,1.43-3.6,3.65-6.72,6.02-9.74,1.04.24.44.96.44,1.51Z" style="fill: #413d3d;"/>
        <path d="M368.8,22.42c.49,2.95-1.99,4.28-3.48,6.07-.74.89-1.41,1.64-1.2,2.78.24,1.28-.33,2.03-1.33,2.63-1.06.18-1.12-.56-1.12-1.28,0-.7.02-1.4.14-2.09.17-.78.53-1.46,1.01-2.08,1.84-1.92,3.66-3.86,5.1-6.11.31-.16.6-.17.87.08Z" style="fill: #565252;"/>
      </g>
      <g id="Slash1">
        <path d="M334.55,29.45c.44-.31.88-.62,1.32-.94.65.18,1.21-.1,1.77-.37.54.59.43,1.18.02,1.78-.44,1.6-1.91,2.51-2.66,3.9-.17.15-.34.3-.51.45-1.06-.07-1.08-.88-.95-1.57.22-1.11.26-2.31,1.01-3.26Z" style="fill: #da3c3e;"/>
        <path d="M337.65,29.92c0-.5-.01-1-.02-1.5.4-.87.55-1.84,1.25-2.61.46-.23.93-.47,1.39-.7.1.64-.32,1.39.55,1.87-.54.51-.86,1.11-1,1.78-.73.38-1.15,1.17-2.17,1.16Z" style="fill: #d33938;"/>
        <path d="M334.55,29.45c.04.93-.02,1.83-.38,2.71-.3.74-.46,1.51.32,2.12-.85,1.07-1.64,2.21-2.98,2.75-1.07-1.85-.66-3.45.84-4.87,1.12-.54.55-1.99,1.44-2.65.26-.02.51-.04.77-.06Z" style="fill: #de3f43;"/>
        <path d="M332.34,32.16c-.64,1.56-1.02,3.16-.84,4.87-.15.15-.31.3-.46.45-1.66-.31-2.04,1.09-2.73,2.07-1.03-.81-1.03-1.01.07-2.1,1.11-1.11.73-2.89,1.8-4.02.67-.21.97-.82,1.4-1.29.26,0,.51.01.77.02Z" style="fill: #df4449;"/>
        <path d="M328.38,37.45c-.34.69-.77,1.38-.07,2.1,0,.15,0,.3.01.45-.85.43-1.92.21-2.68.9-2.11-.4-.41-1.41-.34-2.15.46-.3.92-.59,1.38-.89.42-.16.84-.33,1.26-.49.14.03.29.06.43.09Z" style="fill: #e14a4f;"/>
        <path d="M325.31,38.74c.43.67-.84,1.6.34,2.15-.08.44-.49.4-.79.51-1.37-.49-2,.93-3.08,1.18.01-.12.02-.23,0-.35,0-.14.01-.28.01-.42.76-.84,1.52-1.68,2.28-2.53.41-.18.83-.37,1.24-.55Z" style="fill: #e55056;"/>
        <path d="M345.12,19.78c-.16,0-.33-.02-.49-.03-.09-1.42,1.14-2.07,1.78-3.07.29-.27.58-.54.88-.82.18,1.8-.7,3.02-2.17,3.92Z" style="fill: #c03c31;"/>
        <path d="M343.78,22.81c-.58.75-1.15,1.5-1.73,2.25-.41.46-.82.92-1.22,1.38-1.5-.41-.98-1.33-.55-2.22.27-.46.55-.92.82-1.38,1.13-1.08,2.83-1.52,3.53-3.09.17-.15.34-.14.49.03-.58.95-.36,2.25-1.34,3.03Z" style="fill: #cf3533;"/>
        <path d="M320.47,42.69c.44-.15.88-.3,1.32-.45.1.08.13.16.09.24-.03.08-.07.11-.1.11-.01.14-.02.28-.03.41-.54,0-.88.72-1.47.4-.05-.03.12-.46.19-.71Z" style="fill: #ea5e63;"/>
        <path d="M349.08,12.74c-.59,0-.82-.34-.88-.87.19-.98,1.55-.87,1.72-1.87.12,1.03.03,2.01-.84,2.74Z" style="fill: #453d3b;"/>
        <path d="M333.78,29.51c-1.01-.85-.49-1.77-.11-2.68.65-.57,1.67-.42,2.23-1.17.06.95-.9,1.9-.02,2.86-.13.7-.7.92-1.25,1.16-.31.07-.59.05-.84-.17Z" style="fill: #8a898a;"/>
        <path d="M324.84,43c0-.53.01-1.06.02-1.59.13-.42.43-.72.75-1,.85-.52,1.76-.79,2.77-.71.21.07.39.19.53.36-.96,1.52-1.96,2.99-4.06,2.93Z" style="fill: #a8a7a9;"/>
        <path d="M318.7,41.79c.02,1.48.08,2.97-.44,4.4-.58.28-1.17.56-1.75.84-.41-1.6.41-2.95.86-4.37.44-.29.89-.58,1.33-.86Z" style="fill: #d6d7d8;"/>
        <path d="M330.18,33.43c-1.38-.69.01-1.87-.49-2.72.78-.7.36-2.26,1.8-2.48.06,1.3-1.21,2.64.09,3.91-.03.9-.44,1.39-1.4,1.29Z" style="fill: #9c9c9d;"/>
        <path d="M348.22,14.93c-.31.31-.62.62-.94.94-.35.21-.02,1.15-.88.81-.17-.19-.34-.39-.51-.58.4-1.61,1.43-2.88,2.3-4.23.41.17.7.47.88.87,0,.15,0,.29,0,.43-.43.52-.17,1.36-.85,1.76Z" style="fill: #5a5251;"/>
        <path d="M321.78,38.73c.78-.66,1.73-.96,2.66-1.29.54.62.28,1.27.08,1.91-.7,1.1-1.4,2.19-2.81,2.48-.56-1.05-.26-2.07.07-3.1Z" style="fill: #bfbbbb;"/>
        <path d="M317.37,42.65c-.07,1.5-.07,3.02-.86,4.37-.44.15-.88.31-1.32.46-.47-.87.08-1.74,0-2.61.97-.5,1.48-1.46,2.18-2.23Z" style="fill: #dcdddf;"/>
        <path d="M315.18,44.88c1.06.87.15,1.74,0,2.61-.45.28-.64.96-1.33.9-.31.26-.7.27-.87-.06-.26-.5.22-.86.44-1.26.62-.7.65-1.88,1.77-2.19Z" style="fill: #e5e6e7;"/>
        <path d="M324.07,39.29c.12-.62.25-1.24.37-1.86.68-.69.7-1.87,1.72-2.3.23.89-.1,1.9.53,2.71.04.81-.65.95-1.15,1.27-.47.2-.94.44-1.47.18Z" style="fill: #b2acac;"/>
        <path d="M328.9,40.06c-.19-.02-.38-.05-.58-.07-.14-.2-.2-.42-.2-.66.55-1.28.93-2.84,2.92-1.85-.32.56-.78,1.13,0,1.68-.72.3-1.43.6-2.15.9Z" style="fill: #9d9695;"/>
        <path d="M339.88,29.19c-.02-.21-.04-.43-.06-.64-.61-1,.17-1.65.6-2.39.54-.42.76-1.45,1.79-.95.1.45.05.89-.14,1.31-.6,1-.83,2.3-2.19,2.67Z" style="fill: #716a69;"/>
        <path d="M313.42,47.07c.15.44-.73,1.21.43,1.32-.83.41-1.66.82-2.52,1.25q-.1-1.79,2.08-2.57Z" style="fill: #f2f3f3;"/>
        <path d="M321.78,38.73c.55,1.03,0,2.06.01,3.09.12.17.12.35,0,.53-.42.21-.79.6-1.33.34.52-1.26.19-2.72.87-3.94.15,0,.3,0,.45-.01Z" style="fill: #c9c1c0;"/>
        <path d="M342.07,26.52c0-.49-.01-.98-.02-1.46-.04-1.23.58-1.94,1.73-2.25.03.52-.06,1.08.51,1.4-.38,1.11-1.77,1.26-2.22,2.32Z" style="fill: #5d5959;"/>
        <path d="M348.22,14.93c.09-.68.26-1.32.85-1.76-.04.84.21,1.58.8,2.18-.24.55-.85.58-1.27.89-.49-.33-.35-.85-.38-1.31Z" style="fill: #453d3b;"/>
        <path d="M328.34,32.01c.26-.63.74-1.02,1.34-1.29.88.78.19,1.91.61,2.79-.4,1.53-.12,3.44-2.21,4.05-.23-.11-.39-.27-.49-.5-.4-1.78-.56-3.53.75-5.05Z" style="fill: #a29f9f;"/>
        <path d="M328.34,32.01c-.53,1.75-.39,3.56-.4,5.35-.23.66-.72.84-1.37.74-1.14-.84-.79-1.9-.42-2.96.66-1.09.35-2.86,2.18-3.13Z" style="fill: #a8aaac;"/>
        <path d="M338.88,25.05c-.64-.66-.26-1.51-.4-2.26.09-2,2.46-1.5,3.13-2.86.46,1.08-1.63,1.71-.51,2.91.4.72-.08,1.16-.51,1.62-.51.37-1.05.66-1.71.59Z" style="fill: #706f71;"/>
        <path d="M334.99,33.83c.32.57.93.37,1.4.53-1.92.56-2.25,2.8-3.9,3.74-.44.25-.98.68-1.45,1.07-1.28-.28-.72-1.04-.46-1.73.18-.27.4-.51.65-.73,1.13-.71,1.99-1.73,2.92-2.66.25-.2.51-.35.84-.22Z" style="fill: #908b8b;"/>
        <path d="M321.79,44.38c-.34-.45-.21-.91-.04-1.38-.09-.23-.07-.45.07-.65.86-1.02,1.73-2.01,3.22-.99.33.59.25,1.13-.19,1.64-.1.86-.3,1.64-1.43,1.19-.61-.24-1.1-.04-1.62.19Z" style="fill: #b9b4b4;"/>
        <path d="M339.88,29.19c-.57,1.19-1.42,2.34-1.64,3.6-.22,1.26-.82,1.52-1.84,1.57-.55.2-1.1.34-1.55-.21-.12-2.04,1.83-2.86,2.56-4.4.83-.41,1.36-1.52,2.54-1.13.14.21.12.41-.07.58Z" style="fill: #7b7879;"/>
        <path d="M335.89,25.66c1.07-.3,2.09-.65,1.72-2.1-.23-.89.47-.63.86-.77.69.59.59,1.43.72,2.2-.26,1.22-.59,2.42-1.4,3.42-.59.51-1.24.68-1.98.37-1.4-1.08-.44-2.1.08-3.13Z" style="fill: #7c7a7b;"/>
        <path d="M331.48,28.24c1.01-.04.92-1.78,2.19-1.4.36.92.04,1.9.26,2.83-.13,1.17-.23,2.37-1.62,2.81-.38.07-.74.03-1.08-.14-1.38-1.46-.58-2.78.25-4.1Z" style="fill: #958f8f;"/>
        <path d="M318.7,41.79c.62-1.24,1.21-2.51,2.64-3.05.38,1.23.04,2.41-.28,3.58-.27.66.34.47.6.61.51.44.27.95.14,1.45-.91,1.12-2.49.96-3.54,1.81-.49-1.53-.33-3,.44-4.4Z" style="fill: #cdcccd;"/>
        <path d="M341.61,19.93c1.36-1.35,2.41-3.05,4.29-3.84.34.07.55.29.68.59-.05,1.33-1.43,1.98-1.63,3.23-.79,1.69-2.13,2.68-3.94,3.07-1.67-1.39.6-2,.6-3.06Z" style="fill: #646161;"/>
        <path d="M348.61,16.24c-.18,2.2-1.34,4.01-2.92,5.29-1,.81.38,2.54-1.4,2.68-.93.11-.81-.59-.9-1.14.26-1.2.93-2.21,1.51-3.27.73-1.31,2.15-2.26,2.13-3.98.24-.47.47-.96,1.11-.98.52.35.52.87.47,1.4Z" style="fill: #5c5453;"/>
        <path d="M349.92,10c.66-2.28,2.33-3.9,3.89-5.65-.89,3.83-1.34,7.79-3.93,11.01-1.22-.21-1.18-1.16-1.23-2.06.02-.22.07-.44.14-.65.34-.9.99-1.67,1.14-2.65Z" style="fill: #3b3a3b;"/>
      </g>
    </g>
    <g id="Wolf">
      <path id="F" d="M315.61,3.35c-3.57,3.94-7.14,7.87-10.72,11.81-3.25,3.58-6.55,7.12-9.76,10.74-.85.96-1.74,1.37-3.01,1.39-9.82.14-19.64.37-29.46.46-1.79.02-2.92.57-4,2.03-6.81,9.2-6.77,9.18-8.71,20.71-2.71,16.09-5.55,32.16-8.31,48.25-.13.77-.41,1.38-1,1.87-.39.33-.82.64-1.14,1.02-7.38,8.81-18.01,11.83-28.12,15.79-3.06,1.2-6.13,2.4-9.19,3.59-.71.28-1.41.74-2.35.23,7.55-6.68,15.04-13.34,22.58-19.94,1.24-1.08,1.83-2.26,2.11-3.89,3.85-22.73,7.79-45.45,11.7-68.17.06-.36.1-.73.14-1.09.4-3.86,1.46-7.28,4.62-10.01,2.7-2.33,4.47-6.19,7.48-7.57,2.92-1.34,6.89-.4,10.4-.41,11.52-.02,23.04-.02,34.55,0,1.41,0,2.74-.2,4.07-.69,5.96-2.17,11.94-4.29,17.91-6.43.07.09.13.19.2.28ZM249.03,75.92c3.55-4.38,7.11-8.74,10.63-13.13.72-.9,1.44-1.5,2.73-1.43,4.61.25,9.22.36,13.83.6,1.38.07,2.48-.29,3.67-1.02,7.49-4.58,13.29-10.6,16.78-18.76.92-2.14,2.3-4.07,3.41-6.13.19-.35.85-.71.18-1.39-4.6,2.95-9.24,5.88-13.82,8.87-1.04.68-2.06.94-3.28.91-5.42-.11-10.88.19-16.25-.34-4.09-.4-6.74,1.24-9.67,3.7-3.11,2.61-4.84,5.46-5.37,9.49-.82,6.23-2.14,12.38-3.25,18.57.14.02.28.03.42.05Z" style="fill: #595a5c;"/>
      <path id="L" d="M217.4,15.36c-3.75,1.98-7.48,3.99-11.26,5.92-1.06.54-1.64,1.27-1.91,2.43-4.81,20.96-9.65,41.92-14.47,62.88-.05.2,0,.42,0,.9,3.89-.86,7.7-1.72,11.52-2.54.96-.21.96-1,1.17-1.66,1.29-4.12,2.6-8.22,3.79-12.37.31-1.08.82-1.77,1.77-2.33,6-3.52,11.97-7.09,17.95-10.64.36-.21.7-.65,1.16-.38.58.34.13.82-.03,1.13-4.24,8.29-4.53,17.49-6.01,26.4-.52,3.11-2.02,5.45-3.51,8.05-2.69,4.72-6.29,6.22-11.7,6.22-13.99,0-27.97.71-41.96,1.12-.11,0-.22-.14-.52-.33,4.2-3.91,8.34-7.8,12.54-11.62.76-.69,1.17-1.43,1.37-2.4,4.44-21.65,8.91-43.28,13.3-64.94.38-1.89,1.19-2.55,3.08-2.81,7.76-1.07,15.5-2.34,23.24-3.53.47-.14.58.07.48.49ZM218.5,14.62c-.59-.22-1.11-.11-1.59.25.16.16.32.32.48.49.5-.04.89-.24,1.11-.74Z" style="fill: #595a5c;"/>
      <path id="O" d="M101.62,99.82c3.88-3,7.32-5.7,10.8-8.34,1.09-.83,1.76-1.75,2.1-3.16,4.61-18.76,9.3-37.5,13.94-56.25.4-1.6,1.05-2.96,2.16-4.21,2.92-3.29,5.74-6.67,8.54-10.06.76-.92,1.54-1.36,2.78-1.34,10.71.15,21.42.24,32.13.3,1.57,0,2.26.52,3.03,2.05,3.53,7,2.87,13.74.56,21.06-4.78,15.13-8.79,30.51-13.1,45.79-.34,1.22-.78,2.29-1.75,3.2-3.54,3.3-7.01,6.67-10.49,10.03-.6.58-1.18.97-2.09.97-15.99-.03-31.98-.02-48.61-.02ZM148.17,35.75c-3.32,15.38-6.63,30.76-9.93,46.14-.38,1.79-1.52,4.11-.81,5.25.87,1.4,3.5.71,5.35,1.01.36.06.72.11,1.09.16.45.06.93.11,1.2-.31.95-1.46,2.34-2.65,2.68-4.48,2.96-15.97,5.93-31.95,8.87-47.92.68-3.7.63-3.71-3.1-3.91-2.46-.13-4.83,1.64-5.35,4.05Z" style="fill: #595a5c;"/>
      <path id="W" d="M112.09,10.9c-6.3,3.83-12.59,7.67-18.91,11.47-1.1.66-1.99,1.44-2.69,2.51-.96,1.47-1.88,3-3.06,4.29-4.65,5.07-6.53,11.16-7.43,17.85-1.13,8.34-2.74,16.61-4.27,24.89-.58,3.14,1.16,5.65,1.83,8.99,2.02-2.64,4.69-4.15,5.36-7.49,2.16-10.76,4.52-21.49,6.77-32.23.2-.95.46-1.84,1.01-2.64,2.82-4.11,5.64-8.21,8.43-12.34.48-.71,1.04-1.14,1.88-1.35,8.44-2.1,16.88-4.22,25.64-6.42-.46.84-.77,1.43-1.1,2.01-.43.76-.83,1.55-1.33,2.27-8.3,11.97-13.35,25.2-16.01,39.5-1.4,7.54-3.55,14.95-5.37,22.41-.28,1.15-.76,2.16-1.53,3.11-2.16,2.68-4.28,5.4-6.31,8.19-.76,1.05-1.66,1.52-2.88,1.71-3.98.63-7.97,1.23-11.91,2.01-1.27.25-1.8-.04-2.37-1.13-2.22-4.26-4.54-8.47-6.96-12.96-2.73,3.83-5.37,7.42-7.86,11.1-.82,1.21-1.76,1.77-3.2,1.89-3.94.35-7.88.79-11.81,1.28-1.39.17-2.57-.12-3.77-.78-1.4-.78-2.87-1.44-4.36-2.18,0,2.83-.05,5.56.03,8.29.03.99-.29,1.63-1.02,2.24C25.96,118.22,13.06,129.08.11,139.96c-.35-.74.23-1.12.49-1.56,5.88-9.7,12.01-19.27,17.61-29.14,4.12-7.26,6.85-15.11,8.56-23.38,3.67-17.7,7.77-35.31,11.77-52.93.36-1.58.05-2.52-1.22-3.5-2.78-2.15-5.49-4.41-8.11-6.76-1.48-1.33-3.05-2.07-5.03-2.32-5.95-.76-11.89-1.67-18.16-2.57,3.03-1.08,5.94-1.38,8.78-1.94,17.1-3.35,34.22-6.63,51.33-9.94.78-.15,1.76-.65,2.3-.05.62.69-.23,1.48-.54,2.17-3.01,6.58-6.11,13.13-9.07,19.74-2.12,4.73-2.42,9.93-3.45,14.93-2.49,12.12-4.8,24.27-7.19,36.41-.14.69-.37,1.37-.56,2.09.57.46.88-.15,1.26-.37.31-.18.59-.44.84-.71,2.58-2.81,6.8-4.09,8.06-8.06,1.15-3.62,1.84-7.38,2.72-11.08,1.97-8.26,3.93-16.52,5.89-24.78.22-.94.61-1.76,1.22-2.54,5.53-7.03,11.03-14.08,16.51-21.15.57-.73,1.13-1.26,2.12-1.3,8.56-.26,17.12-.55,25.68-.83.05.16.1.33.15.49Z" style="fill: #595a5c;"/>
    </g>
  </g>
</svg>