<?xml version="1.0" encoding="UTF-8"?>
<svg id="Solid_red_letter_white_stroke" data-name="Solid red letter white stroke" xmlns="http://www.w3.org/2000/svg" viewBox="0 0 792.39 105.86">
  <path d="M28.72,14.75c.75.03,1.51.07,2.26.07,7.68,0,15.36.03,23.04,0,5.57-.03,11.14-.16,16.71-.24.58,0,1.15,0,1.86,0,.05.64.13,1.12.13,1.6,0,5.57,0,11.14.02,16.7,0,1.16.1,2.33.27,3.47.29,1.96,2.59,4.02,4.62,4.09,3.93.13,7.87.22,11.8.25,2.25.01,4.51-.07,6.76-.24,2.84-.22,4.9-2.58,4.9-5.47.01-6.24,0-12.47,0-18.71,0-.49.05-.97.08-1.53h43.76v80.96h-43.76c-.03-.54-.07-1.03-.07-1.51,0-8.08,0-16.16,0-24.24,0-3.22-2.41-5.73-5.66-5.76-5.41-.05-10.83-.07-16.24.02-2.11.03-4.2.48-5.34,2.56-.44.8-.83,1.76-.84,2.66-.06,8.25-.04,16.49-.04,24.74,0,.49,0,.97,0,1.56H29.17c-.04-.57-.11-1.1-.11-1.62,0-15.91-.34-69.3-.34-79.35ZM97.34,58.03" style="fill: #dd2430; stroke: #fff; stroke-miterlimit: 10; stroke-width: 4.5px;"/>
  <path d="M176.39,95.75V14.92h43.82c.05.42.13.78.13,1.14,0,4.14.02,8.29,0,12.43-.08,22.22-.2,67.32-.17,67.65-10.5,0-43.27-.37-43.78-.39Z" style="fill: #dd2430; stroke: #fff; stroke-miterlimit: 10; stroke-width: 4.5px;"/>
  <path d="M251.5,45.94h81.09c.69,5.68.2,11.46.39,17.34-1.73.13-3.3.36-4.86.36-16.7.03-33.4-.01-50.1.03-8.25.02-16.51.16-24.76.24-.5,0-.99,0-1.76,0v-17.97Z" style="fill: #dd2430; stroke: #fff; stroke-miterlimit: 10; stroke-width: 4.5px;"/>
  <path d="M457.52,67.32c2.64-.14,4.94-.19,7.22-.41,4.52-.43,8.16-2.55,11.12-5.93,2.83-3.23,4.2-7.01,4.21-11.28.02-5.53-.09-11.06.03-16.58.1-4.43-1.07-8.4-3.84-11.82-3.12-3.85-7.2-6.41-12.21-6.42-32.83-.1-65.67-.06-98.5-.05-.44,0-.88.08-1.34.12v80.72h43.85v-27.3c.11-.04.22-.09.32-.13,8.29,9.17,16.57,18.33,24.8,27.44h47.12c-7.69-9.56-15.18-18.88-22.79-28.35ZM441.42,45.28c-1.58,2.99-4.32,4.46-7.56,4.5-10.4.13-20.81.05-31.22.05-.24,0-.49-.06-.87-.11v-17.81c.55,0,.96,0,1.37,0,10.07,0,20.14-.04,30.21,0,7.56.03,11.21,7.42,8.07,13.36Z" style="fill: #dd2430; stroke: #fff; stroke-miterlimit: 10; stroke-width: 4.5px;"/>
  <path d="M570.59,96.14c-.49-.11-.99-.31-1.48-.31-11.38-.02-22.75.02-34.13-.03-6.89-.03-12.91-2.35-17.69-7.38-3.4-3.57-5.55-7.83-6.05-12.8-.17-1.65-.24-3.32-.26-4.98-.04-3.89-.03-7.79,0-11.68.08-14.39.16-28.78.25-43.17,0-.41.04-.81.06-1.27h43.69c.07.57.17.96.17,1.36,0,8.71.04,17.42,0,26.12-.04,8.24-.1,16.47-.27,24.71-.05,2.7,2.54,5.4,4.98,5.42,6.03.04,12.06.2,18.09.18,1,0,2.11-.52,2.96-1.1,1.3-.89,2.12-2.19,2.13-3.89.07-12.59.14-25.18.25-37.77.04-4.59.16-9.19.25-13.78,0-.24.07-.48.11-.71h43.72c.04.66.09,1.11.09,1.55-.08,16.32-.15,32.63-.26,48.95-.02,3.3,0,6.61-.29,9.88-.33,3.68-1.62,7.09-3.69,10.19-3.84,5.74-9.19,9.12-16,10.24-.13.02-.23.19-.34.29h-36.28Z" style="fill: #dd2430; stroke: #fff; stroke-miterlimit: 10; stroke-width: 4.5px;"/>
  <path d="M774.41,95.82c-.67,0-1.21,0-1.75,0-11.67,0-23.34.06-35.02-.03-4.95-.04-9.31-1.96-13.18-4.97-4.06-3.17-8.08-6.4-12.1-9.61-3.18-2.54-6.35-5.1-9.79-7.86v22.34h-43.89V14.92c.5-.04.94-.1,1.39-.1,11.8,0,23.6-.06,35.39.03,4.9.04,9.26,1.9,13.09,4.88,3.94,3.06,7.8,6.23,11.7,9.33,3.35,2.67,6.71,5.31,10.3,8.15V14.71h43.84v81.11Z" style="fill: #dd2430; stroke: #fff; stroke-miterlimit: 10; stroke-width: 4.5px;"/>
</svg>