<?xml version="1.0" encoding="UTF-8"?>
<svg id="Layer_1" data-name="Layer 1" xmlns="http://www.w3.org/2000/svg" viewBox="0 0 389.19 229.04">
  <defs>
    <style>
      .cls-1 {
        fill: #283A8E;
        stroke-width: 0px;
      }
    </style>
  </defs>
  <path class="cls-1" d="M196.52,162.75c15.74,0,31.48.11,47.21-.07,4.48-.05,8.76,4.07,8.59,8.44-.18,4.62-3.77,8.34-8.55,8.33-30.56-.03-61.12-.05-91.68-.12-2.14,0-4.35-.1-6.4-.64-3.53-.94-5.22-5.08-5.24-7.87-.02-3.29,2.35-6.62,5.53-7.77.96-.34,2.08-.32,3.12-.32,15.81-.02,31.61-.01,47.42-.01v.03Z"/>
  <path class="cls-1" d="M196.26,81.13c-2.91.66-5.79,1.48-8.73,1.95-11.97,1.9-24.04,2.61-36.13,1.65-6.35-.5-12.67-1.58-18.98-2.51-5.27-.78-10.54-1.61-15.78-2.61-7.16-1.36-14.28-2.92-21.42-4.37-4.12-.84-8.25-1.64-12.37-2.47-2.33-.48-4.69-.89-6.97-1.56-.68-.2-1.64-1.21-1.6-1.78.36-5.18,1.49-10.17,5.27-14.04,3.58-3.66,9.58-4.56,14.42-2.76,6.3,2.35,12.68,4.48,19.05,6.61,6.38,2.14,12.76,4.28,19.2,6.2,5.43,1.61,10.97,2.88,16.45,4.33,5.06,1.34,10.11,2.76,15.17,4.09,3.12.82,6.25,1.62,9.41,2.25,6.88,1.37,13.79,2.61,20.68,3.92.78.15,1.55.37,2.33.55,0,.19,0,.37,0,.56Z"/>
  <path class="cls-1" d="M313.98,93.57c10.77.87,21.55,1.73,32.32,2.61,2.4.2,2.73,1.01,1.44,3.11-.91,1.48-1.55,3.17-2.63,4.51-.8.99-2.07,1.65-3.23,2.26-.91.48-1.96.87-2.97.92-1.15.07-2.97.13-3.38-.52-2.8-4.4-7.06-4.62-11.52-4.5-3.08.08-6.15.21-9.23.32-2.07.07-3.49,1.21-4.74,2.76-2.09,2.59-2.65,2.65-5.71,1.56-2.42-.86-4.73-.74-7.03.72-3.31,2.09-6.76,3.97-10.18,5.9-2.22,1.25-3.62,2.97-3.91,5.59-.35,3.17-1.16,4.05-4.3,4.42-2.55.3-4.27,1.57-5.47,3.74-.24.43-.41,1-.78,1.23-.71.43-1.54.65-2.32.96-.17-.79-.69-1.74-.44-2.36,1.35-3.21,2.88-6.35,4.38-9.5,2.12-4.48,4.48-8.86,6.34-13.44,1.8-4.43,5.11-6.65,9.48-7.75,7.84-1.97,15.84-2.13,23.89-2.54Z"/>
  <path class="cls-1" d="M196.38,159.07c-15.24,0-30.49,0-45.73,0-2.43,0-2.83-.4-2.85-2.78q-.05-5.34,5.19-5.33c29.16,0,58.31,0,87.47-.01.91,0,1.9-.17,2.71.13.73.26,1.7.99,1.8,1.62.26,1.64.17,3.36.03,5.03-.04.43-.72,1-1.22,1.15-.71.22-1.53.14-2.3.14-15.04,0-30.07,0-45.11,0v.04Z"/>
  <path class="cls-1" d="M246.95,13.12c1.05,0,2.11.06,3.16-.01,1.71-.13,2.75.77,3.61,2.08,5.18,7.81,10.39,15.6,15.57,23.41,3.59,5.42,7.12,10.88,10.73,16.29.9,1.35.61,2.3-.79,2.81-2.56.93-5.18,1.72-7.77,2.56-1.6.52-3.21.98-4.8,1.54-1.84.64-2.83.16-3.67-1.63-2.75-5.89-5.58-11.73-8.34-17.61-2.61-5.57-5.07-11.21-7.82-16.71-1.11-2.23-1.8-4.68-4.27-6.31-1.03-.68-.78-3.55-.73-5.42,0-.35,1.8-.75,2.81-.95.74-.15,1.54-.03,2.31-.03h0Z"/>
  <path class="cls-1" d="M86.63,105.77c-1.44.44-2.71.63-3.81,1.19-1.81.93-3.31.43-4.24-1.04-1.94-3.08-4.8-3.87-8.11-3.89-1.9-.01-3.82.16-5.68-.08-.84-.11-2.01-.86-2.29-1.59-.81-2.15-1.29-4.43-1.81-6.68-.46-2.01.21-2.55,2.18-2.06,3.2.79,6.41,1.52,9.63,2.22,8.95,1.95,17.57,4.84,25.61,9.25,8.21,4.5,15.46,10.25,20.75,18.06,3.56,5.25,6.67,10.82,9.87,16.3.86,1.48.93,2.99-.87,4.19-1.97,1.32-3.74,2.94-5.65,4.37-.32.24-.88.31-1.27.21-.17-.05-.38-.83-.23-1.08,2.68-4.44-.37-7.76-2.24-11.25-1.42-2.65-3.09-5.16-4.69-7.7-1.21-1.92-3.01-2.83-5.25-3.06-2.59-.27-3.59-1.3-3.73-3.91-.15-2.85-1.76-4.64-4.04-5.99-3.44-2.03-6.88-4.06-10.38-5.99-1.19-.66-2.55-1.01-3.77-1.48Z"/>
  <path class="cls-1" d="M223.42,22.23c-3.72,0-7.45.02-11.17,0-2.89-.02-3.42-.55-3.47-3.46-.03-1.68.1-3.37,0-5.05-.13-2,.9-2.95,2.7-2.97,7.94-.05,15.88-.04,23.81,0,1.9.01,2.99.9,2.82,3.04-.14,1.74-.01,3.51-.04,5.26-.04,2.62-.58,3.16-3.27,3.18-3.79.03-7.59,0-11.38,0h0Z"/>
  <path class="cls-1" d="M371.37,79.84c-5.73-5.01-12.76-7.55-19.75-9.95-5.01-1.73-10.31-2.69-15.55-3.65-6.21-1.14-12.47-2.05-18.74-2.81-8.51-1.03-17.04-1.89-25.57-2.72-3.81-.37-7.65-1.23-11.48.09-2.24.77-4.55,1.38-6.82,2.09-8.55,2.67-17.08,5.39-25.65,8.02-5.89,1.81-11.79,3.64-17.75,5.23-10.02,2.69-20.08,5.24-30.15,7.75-3.33.83-6.74,1.34-10.11,2.02-10.22,2.07-20.56,3.33-30.98,2.64-8.81-.58-17.61-1.69-26.36-2.92-8.4-1.19-16.77-2.69-25.1-4.32-9.84-1.92-19.62-4.19-29.44-6.17-10.3-2.07-20.64-3.99-30.95-5.98-.69-.13-1.42-.22-2.04-.52-2.36-1.14-4.09.05-5.58,1.59-5.35,5.5-8.61,12.21-10.78,19.47-.23.76.24,2.01.81,2.66.79.9,1.91,1.27,3.18.34,2.48-1.83,5.08-3.48,7.59-5.27,2.34-1.66,4.66-2.81,7.77-2.12,7.59,1.7,15.25,3.12,22.88,4.66,9.18,1.85,18,4.69,26.4,8.92,5.48,2.76,10.59,6,15.16,10.07,10.69,9.51,17.59,21.49,22.46,34.76,1.23,3.36,2,4,5.62,4,18.56-.02,37.11-.01,55.67-.01v-.03c18.98,0,37.96-.04,56.94.05,2.31.01,3.5-.99,4.33-2.88.82-1.85,1.65-3.71,2.53-5.54,2.12-4.41,4.28-8.81,6.4-13.22,2-4.16,3.93-8.35,5.94-12.5,2.04-4.21,4.28-8.33,6.16-12.61,1.45-3.31,3.8-5.54,7.02-6.84,5.59-2.27,11.52-3.1,17.48-3.44,10.61-.6,21.22-.5,31.78.95,10.49,1.45,21.01,2.8,31.48,4.4,3.17.48,6.25,1.54,9.33,2.48,2.01.61,2.9.11,3.09-2.03.59-6.85-2.18-12.25-7.22-16.66ZM168.8,93.63c-6.52,1.94-13.03,3.88-19.56,5.79-1.84.54-2.24,1.33-1.6,3.06,1.97,5.34,2.93,10.8,1.95,16.49-.39,2.28-.65,4.59-1.13,6.85-.14.7-.8,1.29-1.23,1.93-.6-.6-1.55-1.1-1.75-1.81-1.83-6.49-4.99-12.31-8.95-17.7-6.1-8.31-13.62-14.99-22.86-19.68-.73-.37-1.21-1.24-2.15-2.24,10.19,1.6,19.69,3.45,29.28,4.51,9.55,1.07,19.2,1.35,29.21,2-.61.41-.88.7-1.21.8ZM325.33,74.2c-1.7.21-3.4.43-5.1.64-9.82,1.19-19.71,1.98-29.44,3.69-9.2,1.62-16.75,6.52-22.45,14.08-5.36,7.1-9.06,15.09-12.64,23.15-1.69,3.83-3.45,7.64-5.19,11.44-.13.29-.4.53-1.02,1.31-.22-1.32-.44-2.05-.45-2.79-.14-9.81,1.09-19.46,3.54-28.95.4-1.56,1.12-3.03,1.57-4.57.46-1.56-.22-2.36-1.78-2.06-5.93,1.12-11.84,2.34-17.77,3.43-1.98.36-4.02.42-6.04.62-.07-.33-.15-.66-.23-.99,1.75-.85,3.48-1.76,5.27-2.52,4.89-2.1,9.81-4.11,14.69-6.21,4.64-2,9.24-4.05,13.85-6.1,6.33-2.81,12.61-5.75,18.99-8.43,3.31-1.39,6.67-2.94,10.51-1.48,1.54.58,3.31.55,4.98.78,8.88,1.27,17.76,2.54,26.64,3.82.7.1,1.39.34,2.09.51-.01.21-.02.42-.02.63Z"/>
  <path class="cls-1" d="M65.86,140.02c-12.77.43-22.27,9.94-22.12,22.57.13,12.42,9.07,22.05,22.37,22.01,12.18-.04,21.54-9.42,21.73-21.93.19-13.11-10.17-22.39-21.98-22.65ZM65.48,174.25c-6.24-.15-11.68-5.88-11.55-12.17.14-6.23,5.93-11.94,12.03-11.71,6.81.26,11.67,5.65,11.72,12.19.05,6.45-5.78,11.84-12.2,11.69ZM65.86,140.02c-12.77.43-22.27,9.94-22.12,22.57.13,12.42,9.07,22.05,22.37,22.01,12.18-.04,21.54-9.42,21.73-21.93.19-13.11-10.17-22.39-21.98-22.65ZM65.48,174.25c-6.24-.15-11.68-5.88-11.55-12.17.14-6.23,5.93-11.94,12.03-11.71,6.81.26,11.67,5.65,11.72,12.19.05,6.45-5.78,11.84-12.2,11.69ZM122.09,167.73c-.19-1.74-.04-3.51-.04-5.26.01-1.97-.12-3.95.04-5.9.18-2.07-.84-3.29-2.45-4.25-2.89-1.73-3.75-6.09-2.05-9.01.53-.92.74-2.54.29-3.42-1.94-3.79-4.17-7.45-6.33-11.13-.88-1.49-2.15-2.23-4-2.17-2.99.09-6.47-3.59-6.34-6.53.07-1.49-.21-2.76-1.65-3.58-3.64-2.09-7.22-4.31-10.9-6.32-1.62-.88-3.33-.78-4.95.44-.6.45-1.65.49-2.47.41-.88-.09-1.71-.7-2.59-.81-1.57-.19-2.61-.91-3.16-2.38-.61-1.61-1.95-2.21-3.5-2.23-4.07-.06-8.15-.03-12.22.01-1.87.01-3.08.94-3.97,2.62-.42.79-1.41,1.37-2.26,1.83-.78.42-1.79.43-2.59.84-1.23.63-2.21.49-3.27-.37-1.55-1.26-3.34-1.19-4.96-.28-3.54,1.99-6.98,4.15-10.49,6.18-1.5.87-1.92,2.13-1.75,3.72.26,2.61-3.61,6.83-6.19,6.5-2.02-.26-3.19.58-4.12,2.15-2.13,3.61-4.4,7.15-6.29,10.89-.51,1-.27,2.8.32,3.84,1.47,2.6.51,7.38-2.16,8.81-1.58.85-2.38,1.98-2.33,3.85.09,3.79.11,7.59-.04,11.38-.09,2.27.61,3.79,2.62,4.99,2.62,1.57,3.22,6.07,1.81,8.75-.56,1.05-.69,2.85-.16,3.89,1.96,3.86,4.17,7.61,6.52,11.25.56.87,2.05,1.59,3.11,1.59,3.33,0,7.01,3.58,7.03,6.82.01,1.14.69,2.71,1.58,3.31,3.48,2.34,7.08,4.54,10.83,6.42,1.14.58,3.1.4,4.31-.19,2.68-1.3,7.14-.18,8.79,2.34.64.98,1.94,2.07,3,2.13,4.41.24,8.85.18,13.27.07.87-.03,2.25-.55,2.48-1.18,1.1-3.01,3.81-3.32,6.25-3.98.85-.22,2.05.09,2.85.57,1.68,1,3.3,1.14,4.97.21,2.82-1.57,5.68-3.07,8.36-4.85,1.76-1.16,4.11-1.98,3.84-4.95-.3-3.18,3.48-6.92,6.73-6.8,1.67.07,2.83-.54,3.64-1.96,1.94-3.41,3.81-6.86,5.87-10.19,1.04-1.69,1.23-3.04.05-4.79-1.64-2.41-.45-6.98,2.04-8.51,1.81-1.11,2.88-2.47,2.63-4.77ZM65.85,191.1c-15.28.03-28.98-13.44-28.28-28.61-.81-15.22,12.78-29.01,28.43-28.85,15.34.16,28.22,13.39,28.3,28.6.08,15.42-13.17,28.82-28.45,28.86ZM65.86,140.02c-12.77.43-22.27,9.94-22.12,22.57.13,12.42,9.07,22.05,22.37,22.01,12.18-.04,21.54-9.42,21.73-21.93.19-13.11-10.17-22.39-21.98-22.65ZM65.48,174.25c-6.24-.15-11.68-5.88-11.55-12.17.14-6.23,5.93-11.94,12.03-11.71,6.81.26,11.67,5.65,11.72,12.19.05,6.45-5.78,11.84-12.2,11.69ZM65.86,140.02c-12.77.43-22.27,9.94-22.12,22.57.13,12.42,9.07,22.05,22.37,22.01,12.18-.04,21.54-9.42,21.73-21.93.19-13.11-10.17-22.39-21.98-22.65ZM65.48,174.25c-6.24-.15-11.68-5.88-11.55-12.17.14-6.23,5.93-11.94,12.03-11.71,6.81.26,11.67,5.65,11.72,12.19.05,6.45-5.78,11.84-12.2,11.69ZM65.86,140.02c-12.77.43-22.27,9.94-22.12,22.57.13,12.42,9.07,22.05,22.37,22.01,12.18-.04,21.54-9.42,21.73-21.93.19-13.11-10.17-22.39-21.98-22.65ZM65.48,174.25c-6.24-.15-11.68-5.88-11.55-12.17.14-6.23,5.93-11.94,12.03-11.71,6.81.26,11.67,5.65,11.72,12.19.05,6.45-5.78,11.84-12.2,11.69ZM65.86,140.02c-12.77.43-22.27,9.94-22.12,22.57.13,12.42,9.07,22.05,22.37,22.01,12.18-.04,21.54-9.42,21.73-21.93.19-13.11-10.17-22.39-21.98-22.65ZM65.48,174.25c-6.24-.15-11.68-5.88-11.55-12.17.14-6.23,5.93-11.94,12.03-11.71,6.81.26,11.67,5.65,11.72,12.19.05,6.45-5.78,11.84-12.2,11.69ZM65.86,140.02c-12.77.43-22.27,9.94-22.12,22.57.13,12.42,9.07,22.05,22.37,22.01,12.18-.04,21.54-9.42,21.73-21.93.19-13.11-10.17-22.39-21.98-22.65ZM65.48,174.25c-6.24-.15-11.68-5.88-11.55-12.17.14-6.23,5.93-11.94,12.03-11.71,6.81.26,11.67,5.65,11.72,12.19.05,6.45-5.78,11.84-12.2,11.69Z"/>
  <path class="cls-1" d="M363.73,198.11c-2.3-.14-6.53,3.41-6.21,5.59.51,3.5-1.76,4.72-4.08,6.08-2.66,1.55-5.34,3.07-8.01,4.6-1.78,1.01-3.53,1.3-5.24-.2-.35-.3-.84-.54-1.29-.61-2.34-.34-6.3,1.88-7.54,3.88-.44.71-1.52,1.39-2.33,1.42-4.63.14-9.28.19-13.91,0-.95-.04-2.18-1.04-2.7-1.94-1.59-2.73-6.31-3.95-9.06-2.49-1.11.59-3.01.7-4.11.15-3.57-1.77-6.96-3.9-10.37-5.97-1.64-.99-2.86-2.3-2.14-4.49.06-.19.03-.42,0-.62-.36-2.24-4.48-5.48-6.84-5.37-2.42.11-3.37-1.73-4.38-3.39-1.67-2.75-3.23-5.57-4.85-8.35-1.15-1.98-1.36-3.87.03-5.91.5-.73.54-1.93.43-2.87-.14-1.16-.53-2.34-1.06-3.39-.37-.74-1.03-1.52-1.76-1.86-1.64-.76-2.3-1.95-2.3-3.66,0-4.36-.14-8.72.11-13.06.07-1.13,1.34-2.21,2.11-3.26.61-.84,1.44-1.54,1.95-2.43.45-.77.8-1.71.83-2.58.05-1.17.09-2.55-.48-3.48-1.06-1.74-1.08-3.39-.19-4.99,1.98-3.54,4.1-7.01,6.25-10.45.9-1.45,2.2-2.2,4.07-1.9,2.06.33,6.53-3.76,6.07-5.73-.69-2.91,1.05-4.16,3.01-5.35,2.81-1.7,5.69-3.32,8.56-4.92,1.87-1.04,3.7-1.42,5.71,0,.74.52,2.07.36,3.11.27.96-.09,1.96-.38,2.8-.84.85-.46,1.5-1.26,2.27-1.87,1.09-.85,2.17-2.29,3.34-2.38,4.2-.31,8.43-.23,12.64-.14,1.67.03,3.11.66,3.66,2.59.18.62.92,1.26,1.55,1.53,1.41.6,2.89,1.1,4.39,1.39.71.14,1.71-.09,2.28-.54,1.54-1.19,3.22-1.31,4.75-.47,3.79,2.09,7.47,4.39,11.19,6.6,1.32.78,1.64,1.96,1.54,3.42-.2,2.82,3.35,6.55,6.11,6.39,1.76-.1,3.1.65,3.92,2.01,2.2,3.65,4.36,7.34,6.26,11.15.49.98.41,2.75-.17,3.68-1.78,2.82.1,5.26.46,7.83.06.4.95.72,1.49,1,1.72.91,2.84,2.11,2.79,4.27-.09,3.72-.04,7.45.03,11.17.04,2.21-.97,3.63-2.77,4.84-.91.61-1.61,1.78-2.03,2.85-.94,2.41-.97,4.69.55,7.12.55.88-.37,2.95-1.04,4.26-1.6,3.11-3.43,6.09-5.19,9.11-.97,1.66-2.34,2.59-4.22,2.3ZM322.06,140.07c-12.24-.07-22.31,10.18-22.11,22.45.26,12.6,9.73,22.09,22.25,22.08,12.18-.01,21.98-9.8,21.83-22.65-.14-12.7-10.4-21.82-21.97-21.88ZM322.28,174.23c-6.59.22-12-5.23-12.07-11.92-.06-6.17,5.53-11.93,11.72-11.98,5.65-.05,11.83,4.92,11.82,12.02,0,6.77-5.53,11.68-11.47,11.88ZM321.59,133.69c-15.46.24-27.86,12.7-28.02,28.36-.17,16.17,12.73,29.25,28.43,28.92,15.68.48,28.55-12.99,28.56-28.58.01-15.37-12.47-28.95-28.97-28.7ZM322.2,184.6c-12.52.01-21.99-9.48-22.25-22.08-.2-12.27,9.87-22.52,22.11-22.45,11.57.06,21.83,9.18,21.97,21.88.15,12.85-9.65,22.64-21.83,22.65ZM322.06,140.07c-12.24-.07-22.31,10.18-22.11,22.45.26,12.6,9.73,22.09,22.25,22.08,12.18-.01,21.98-9.8,21.83-22.65-.14-12.7-10.4-21.82-21.97-21.88ZM322.28,174.23c-6.59.22-12-5.23-12.07-11.92-.06-6.17,5.53-11.93,11.72-11.98,5.65-.05,11.83,4.92,11.82,12.02,0,6.77-5.53,11.68-11.47,11.88ZM321.93,150.33c-6.19.05-11.78,5.81-11.72,11.98.07,6.69,5.48,12.14,12.07,11.92,5.94-.2,11.47-5.11,11.47-11.88.01-7.1-6.17-12.07-11.82-12.02Z"/>
</svg>