<?xml version="1.0" encoding="UTF-8"?>
<svg id="Layer_3" data-name="Layer 3" xmlns="http://www.w3.org/2000/svg" version="1.1" viewBox="0 0 420.3 95.5">
  <defs>
    <style>
      .cls-1 {
        fill: #104b84;
      }

      .cls-2 {
        fill: #fff;
        stroke-width: 0px;
      }
    </style>
  </defs>
  <g id="blue">
    <path class="cls-1" d="M365.8,71.7c.7-20.2-.6-16.7-10.4-38.4,4.5,16.6,8.5,31.3,10.4,38.4M27.6,86.9C-3.6,73.6-1.4,20.1,29.9,8.2c10.2-4.1,36-6,38.1,8.4-5.3,37-15,9.8-29,20.5-4.3,4.9-5,19.6,2.5,23,7.3,3.5,14.8-4.8,20.9.7,8.5-24.8,9.5-55.2,21.1-54.5,6.4.9,23.4-3.5,25.3,6.2,0,0,5.7,20.8,10.9,39.9,1.6-24.8-5-42,6.9-45.1,13-1.9,32.5-4,43.3,5.8,10.1,9.1,10.8,27.1,1.8,37.3,1.2,2.1,2.2,4.5,3,7.4,8.6-25.4,8.6-51.8,20.3-51.6,6.4.9,23.4-3.5,25.3,6.2,0,0,5.5,20.2,10.6,39.1-3.3-24.8-15.2-42.9.9-45.3,6.5.5,21.4-2.9,22.3,7.2.6-4.1,4.1-7.2,8.3-7.2,6,.6,19.8-2.7,21.9,5.8,2-8.3,15.3-5.2,21.3-5.8,16.7,2,3.2,23.7-.8,49.9,8.7-25.6,8.1-49.8,19.8-49.9,5.5.8,21.3-2.7,24.3,4,3-6.4,16.7-3.3,22.1-4,7.4.7,7.4,4.7,10.4,12.2,2.9-7.5,3-11.5,10.4-12.2h14.7c2.9,0,5.6,1.5,7.1,4,.8,1.4,1.3,2.9,1.3,4.4s-.3,2.5-.9,3.7c0,0-16.6,33.5-18.2,36.7-1.5,10.9,5.3,33.5-8.4,33.9-5.4-.6-17.5,2.3-20.4-4.3-2.9,6.7-16,3.7-21.4,4.3-9.4-1.3-7.6-6.7-10.9-16.9h-3.5c-3,10.2-1.3,15.6-10.7,16.9-6.2-.6-20.1,2.7-21.7-6.4-1.6,9.2-16,5.7-22.3,6.4-4.2,0-7.7-3.1-8.3-7.2-.6,4.1-4.2,7.2-8.3,7.2-5.8-.7-19.6,2.6-22-5.1-2.5,7.7-16,4.4-21.8,5.1-9.4-1.3-7.6-6.7-10.9-16.9h-3.5c-3,10.2-1.3,15.6-10.7,16.9-2.1-.2-14.6.4-16.3-.5-1.6.9-14.1.3-16.1.5-5-.1-7.6-3.5-8.9-8.3,0,4.5-3.9,8.4-8.4,8.3-3.5-.4-14.8,1.1-17.7-1.4-2.8,2.6-15.3,1.1-18.8,1.4-9.4-1.3-7.6-6.7-10.9-16.9h-3.5c-3,10.2-1.3,15.6-10.7,16.9-3.9-.4-15.7,1.3-18.8-1.8-10.3,3.8-23.1,3.8-33.1-.4"/>
  </g>
  <path class="cls-2" d="M58,79.1c-2.2,1.3-7.5,2.9-14.2,2.9-19.2,0-29.1-14.4-29.1-33.3S28.3,13.4,45.1,13.4s11.5,1.5,13.7,3l-2.6,11.8c-2.5-1.3-6-2.5-10.6-2.5-9.9,0-17.6,7.2-17.6,22s6.6,21.7,17.7,21.7,8-.9,10.6-2.2l1.8,11.8ZM83.8,63.8l-4,17.1h-12.9L83.8,14.4h16.5l17.3,66.5h-13.6l-4.3-17.1h-15.9ZM97.9,52.5l-3.5-14.1c-1-3.9-2-8.9-2.8-12.8h-.2c-.8,3.9-1.6,9-2.6,12.8l-3.3,14.1h12.3ZM128.9,15.3c4-.8,10-1.4,16.7-1.4s14,1.5,18,5.2c3.4,3.2,5.2,7.9,5.2,14s-5,14.2-9.8,16.3v.3c3.9,1.9,6,6.2,7.4,12.3,1.7,7.6,3.4,16.3,4.5,18.8h-12.9c-.8-2-2.2-7.3-3.8-15.5-1.6-8.4-4-10.6-9.2-10.6h-3.7v26.1h-12.5V15.3ZM141.3,43.9h4.9c6.3,0,10-3.7,10-9.6s-3.5-9.2-9.2-9.2-4.8.2-5.7.5v18.2ZM195.2,63.8l-4,17.1h-12.9l16.9-66.5h16.5l17.3,66.5h-13.6l-4.3-17.1h-15.9ZM209.3,52.5l-3.5-14.1c-1-3.9-2-8.9-2.8-12.8h-.2c-.8,3.9-1.6,9-2.6,12.8l-3.3,14.1h12.3ZM245.8,80.8l-13.2-66.5h13.4l4.2,27.3c1.2,8,2.4,16.6,3.3,23.3h.2c.9-7.2,2.2-15.2,3.6-23.5l4.7-27.1h13.4l4.5,28c1.2,7.8,2.1,14.9,3,22.3h.2c.8-7.4,2.1-15.2,3.2-23.2l4.5-27.1h12.8l-14.3,66.5h-13.6l-4.7-28.6c-1.1-6.7-2-12.9-2.6-20.5h-.2c-1,7.5-1.9,13.8-3.2,20.5l-5.3,28.6h-13.8ZM324.7,63.8l-4,17.1h-12.9l16.9-66.5h16.5l17.3,66.5h-13.6l-4.3-17.1h-15.9ZM338.8,52.5l-3.5-14.1c-1-3.9-2-8.9-2.8-12.8h-.2c-.8,3.9-1.6,9-2.6,12.8l-3.3,14.1h12.3ZM374.5,80.8v-27.2l-17.6-39.2h14.4l5.6,16c1.7,4.8,3,8.4,4.3,12.7h.2c1.2-4.1,2.6-8,4.2-12.7l5.6-16h14.1l-18.3,38.7v27.7h-12.5Z"/>
</svg>