<?xml version="1.0" encoding="UTF-8"?>
<svg id="Layer_2" data-name="Layer 2" xmlns="http://www.w3.org/2000/svg" viewBox="0 0 389.19 229.04">
  <defs>
    <style>
      .cls-1 {
        fill: #283A8E;
        stroke-width: 0px;
      }
    </style>
  </defs>
  <path class="cls-1" d="M238.34,166.51c.93-6.37,1.82-12.51,2.73-18.76h-46.72c.32,2,.59,3.88.95,5.74.05.26.48.53.79.62.36.11.78.03,1.17.03,11.92,0,23.85,0,35.77,0,.51,0,1.01.05,1.65.08-.4,3.02-.78,5.89-1.15,8.77-1.2,9.23-2.4,18.45-3.56,27.69-.15,1.2-.48,1.69-1.82,1.68-8.83-.06-17.67-.04-26.5-.01-.9,0-1.28-.29-1.57-1.14-2.78-8.28-5.64-16.53-8.37-24.83-.48-1.45-.43-3.08-.57-4.63-2.18-24.64-19.6-46.1-43.51-52.99-19.95-5.75-38.39-2.28-55.09,10.11-.81.6-1.59.89-2.61.89-8.66-.04-17.32-.02-25.98-.02-.47,0-.94,0-1.64,0,.4-1.59.73-3,1.12-4.4,1.59-5.76,3.54-11.38,6.58-16.55,2.55-4.34,5.57-8.2,10.61-9.96.42-.15.7-1.11.79-1.73.88-5.98,1.69-11.97,2.57-17.95,1.36-9.29,2.78-18.58,4.15-27.87,1.18-7.96,2.36-15.91,3.45-23.88.18-1.29.76-1.72,1.9-1.99,9.78-2.4,19.7-3.91,29.72-4.82,12.2-1.11,24.42-1.33,36.65-.89,12.28.44,24.48,1.69,36.53,4.14,2.6.53,5.16,1.22,7.75,1.78.79.17,1.16.55,1.3,1.35,1.21,6.85,2.48,13.69,3.66,20.54.21,1.19.59,1.72,1.9,1.64,1.95-.12,3.91-.03,5.86-.03.09-.26.18-.41.19-.57.17-2.25.8-3.03,3.01-3.28,1.05-.12,2.18.01,3.21.26,1.41.34,1.95,1.21,1.95,2.68,0,10.7,0,21.4,0,32.1,0,1.62-.43,2.46-1.98,2.76-1.36.26-2.85.24-4.22,0-1.3-.22-2.04-1.15-1.97-2.65.09-1.9.02-3.81.02-5.81h-3c.36,2.04.69,3.98,1.04,5.93.45,2.48.92,4.96,1.35,7.44.12.68.35,1.04,1.14,1.12,10.04,1,20.08,2.04,30.12,3.07.21.02.42,0,.81,0,0-2.11.02-4.18-.03-6.24,0-.27-.39-.54-.64-.78-1.63-1.55-2.46-3.44-2.47-5.7,0-2.39-.02-4.79,0-7.18.02-2.15.84-3.94,2.34-5.5.45-.47.8-1.24.8-1.88.06-5.92.02-11.83.04-17.75.02-9.86,7.59-18.65,17.32-20.13.33-.05.67-.04,1.18-.06,0,2.99.03,5.89-.05,8.79,0,.29-.66.69-1.08.84-4.21,1.47-6.82,4.36-7.8,8.7-.15.67-.2,1.38-.2,2.07-.02,5.83,0,11.66-.02,17.49,0,.82.15,1.45.82,2.05,1.56,1.41,2.29,3.24,2.3,5.35,0,2.44,0,4.87,0,7.31,0,2.16-.87,3.93-2.31,5.52-.41.46-.71,1.17-.75,1.78-.1,1.65.05,3.31-.06,4.95-.08,1.18.41,1.49,1.46,1.58,4.64.43,9.27.9,13.9,1.38,12.33,1.26,24.67,2.54,37,3.8,4.85.5,9.7.99,14.55,1.44.89.08,1.49.4,2.01,1.17,6.14,9.02,12.33,18.01,18.47,27.04.38.57.62,1.36.62,2.04.03,14.96.02,29.93.05,44.89,0,1.04-.23,1.44-1.36,1.42-3.52-.07-7.05-.06-10.57,0-.94.01-1.35-.29-1.67-1.19-4.97-14.25-14.5-24.17-28.64-29.44-19.26-7.18-41.27-.57-53.62,15.87-3.14,4.17-5.55,8.72-7.13,13.69-.25.79-.63,1.14-1.49,1.07-.99-.08-1.98-.02-3.16-.02ZM142.61,18.01c-.05.61-.1.99-.1,1.37,0,21.88,0,43.75-.03,65.63,0,1.02.39,1.34,1.27,1.55,14,3.3,26.01,10.09,35.93,20.55.46.49,1.32.85,2,.86,4.83.07,9.66,0,14.49.06,1.01.01,1.42-.33,1.7-1.3,2.87-9.89,5.8-19.76,8.69-29.65.18-.6.24-1.3.13-1.91-1.03-5.91-2.09-11.81-3.17-17.71-2.05-11.25-4.12-22.49-6.15-33.74-.15-.81-.42-1.21-1.26-1.35-5.19-.85-10.35-1.89-15.57-2.57-10.8-1.41-21.67-1.82-32.55-1.78-1.77,0-3.55,0-5.4,0ZM129.93,18.83c-.39-.02-.64-.07-.89-.05-7.94.62-15.84,1.58-23.64,3.2-2.69.56-2.66.56-3.06,3.31-1.33,9.16-2.68,18.32-4.02,27.49-1.53,10.45-3.05,20.91-4.57,31.36-.09.62-.13,1.25-.2,2.05,12.18-1.75,24.21-2.41,36.39-1.87V18.83ZM270.69,102.91c0,2.66-.03,5.04.04,7.42,0,.27.59.69.95.74,3.06.41,6.13.75,9.2,1.1,11.32,1.28,22.65,2.55,33.97,3.81,2.58.29,5.16.56,7.95.87,0-1.91-.05-3.68.02-5.45.04-1.05-.34-1.43-1.37-1.57-14.18-1.92-28.35-3.87-42.53-5.81-2.66-.36-5.33-.71-8.23-1.1ZM270.7,89.05c0,2.62-.03,5.08.04,7.54,0,.23.59.56.94.63,1.07.18,2.16.25,3.24.37,8.98,1.01,17.97,2.03,26.95,3.04,6.61.74,13.22,1.46,19.83,2.22.91.11,1.15-.17,1.12-1.03-.05-1.48-.05-2.96,0-4.43.04-.92-.26-1.29-1.22-1.41-6.03-.78-12.06-1.6-18.09-2.44-9.08-1.25-18.17-2.52-27.25-3.78-1.79-.25-3.59-.46-5.58-.71ZM215.28,86.62c.42,2.4.79,4.57,1.18,6.74.73,4.05,1.45,8.04.92,12.26-1.35,10.74-2.39,21.51-3.55,32.27-.12,1.11-.22,2.22-.33,3.33.4-.47.61-.98.74-1.52,2.85-11.69,5.69-23.38,8.52-35.08.42-1.73,1.14-3.5,1.04-5.2-.23-3.63-.88-7.24-1.43-10.85-.06-.39-.54-.95-.9-1.02-1.96-.36-3.94-.6-6.21-.92ZM213.09,163.67c-3.65,0-7.3-.01-10.95,0-1.87,0-3.17,1.15-3.17,2.73,0,1.6,1.28,2.82,3.11,2.82,7.26.02,14.52.02,21.77,0,1.9,0,3.13-1.14,3.14-2.77.01-1.7-1.21-2.78-3.21-2.79-3.56-.01-7.13,0-10.69,0ZM209.9,40.64c0,.39-.04.7,0,.98,1.23,6.83,2.44,13.67,3.72,20.49.32,1.7,1.77.71,2.7.87,1.01.17.75-.73.75-1.27.02-5.56.03-11.12.04-16.67,0-1.46,0-2.92,0-4.4h-7.21ZM215.37,181.3c-2.7,0-5.39,0-8.09,0-1.96,0-3.13.95-3.15,2.52-.02,1.56,1.18,2.63,3.08,2.63,5.52.02,11.05.02,16.57,0,1.81,0,3.02-1.06,3.04-2.55.02-1.53-1.13-2.58-2.96-2.6-2.83-.03-5.65,0-8.48,0Z"/>
  <path class="cls-1" d="M90.94,195.23c-.71-2.74-1.96-5.61-4.44-7.78-1.14-1-2.44-1.37-3.99-.83-1.29.45-2.54-.17-2.88-1.5-.94-3.74-1.79-7.51-2.58-11.29-.08-.38.35-1.05.73-1.29,1.35-.86,2.8-.74,4.37.03.97-3.38,1.34-6.6.11-9.82-.46-1.21-1.37-2.05-2.75-2.37-1.68-.39-2.34-1.42-1.87-3.12.92-3.35,1.92-6.68,2.99-9.98.55-1.7,1.32-2.01,2.96-1.3.89.39,1.65,1.08,2.68,1.78,2.4-2.56,4.79-5.29,4.72-9.26-.01-.8-.63-1.68-1.18-2.35-1.11-1.34-1.3-2.47-.07-3.68,2.57-2.53,5.26-4.93,7.87-7.42.8-.77,1.6-.77,2.25-.02.81.95,1.44,2.05,2.14,3.09-.09.1-.17.19-.26.29.28-.02.58.01.85-.06,2.56-.7,4.9-1.83,6.82-3.67,1.35-1.28,2.22-2.76,1.38-4.77-.44-1.06.14-2.34,1.29-2.64,3.86-1.01,7.76-1.89,11.66-2.71.37-.08,1.2.53,1.28.93.27,1.31.29,2.66.43,4.3,2.93.88,6.24,1.27,9.52-.16,1.09-.47,1.85-1.35,2.09-2.65.29-1.5,1.42-2.3,2.9-1.89,3.68,1.03,7.32,2.19,10.95,3.37.34.11.67.74.73,1.16.23,1.71-.81,2.84-2.14,3.97,2.53,2.51,5.19,4.65,8.81,4.94.91.07,2.04-.46,2.8-1.07,1.65-1.33,2.57-1.51,4.06,0,2.44,2.47,4.73,5.09,7.13,7.6.88.91.76,1.79-.04,2.47-.92.79-2.04,1.34-3.3,2.14.07.28.12.95.41,1.48,1.1,2,2.13,4.07,3.49,5.89,1.05,1.41,2.64,2.02,4.54,1.35,1.32-.46,2.51.18,2.85,1.53.93,3.75,1.78,7.51,2.58,11.29.08.36-.28,1-.62,1.23-1.38.89-2.87.79-4.48.04-.97,3.34-1.3,6.53-.16,9.71.45,1.26,1.4,2.14,2.82,2.48,1.64.39,2.3,1.37,1.85,3-.95,3.47-2.07,6.9-3.07,10.36-.37,1.28-1.25,1.57-2.28,1.18-1.1-.42-2.09-1.11-3.36-1.81-2.3,2.35-4.53,5.03-4.65,8.8-.03.84.48,1.85,1.05,2.53,1.35,1.62,1.52,2.56,0,4.06-2.54,2.5-5.2,4.86-7.8,7.31-.67.63-1.4.66-1.95.03-.87-1.01-1.59-2.15-2.58-3.53-3.12.95-6.56,2.1-8.45,5.62-.38.7-.29,1.77-.12,2.61.31,1.48,0,2.65-1.44,3.02-3.73.98-7.51,1.81-11.28,2.61-.41.09-1.14-.36-1.4-.77-.84-1.31-.65-2.73.02-4.3-3.49-1-6.89-1.54-10.18.15-.83.43-1.48,1.54-1.85,2.48-.55,1.39-1.39,2.3-2.8,1.92-3.77-1.03-7.49-2.22-11.2-3.42-.33-.11-.63-.77-.67-1.21-.15-1.63.77-2.79,2.14-3.83-2.59-2.66-5.32-4.8-9.06-4.99-.87-.04-1.9.56-2.63,1.14-1.5,1.21-2.5,1.4-3.87,0-2.52-2.57-4.91-5.27-7.39-7.9-.64-.68-.67-1.39-.04-1.93,1.04-.89,2.21-1.63,3.54-2.59ZM129.9,199.27c16.83,0,31.31-13.16,31.85-30.98.53-17.44-13.49-32.08-30.94-32.51-17.6-.43-32.24,13.46-32.63,30.95-.4,17.83,13.55,32.14,31.72,32.54Z"/>
  <path class="cls-1" d="M112.22,167.47c0-9.75,7.89-17.65,17.66-17.69,9.87-.04,17.86,7.93,17.84,17.79-.02,9.74-7.95,17.68-17.67,17.69-9.9.02-17.82-7.89-17.82-17.8Z"/>
  <path class="cls-1" d="M266.35,150.34c2.39-.6,4.52-1.59,6.16-3.44.76-.85,1.06-1.84.64-3.02-.39-1.09.1-1.95,1.18-2.23,2.77-.71,5.57-1.35,8.37-1.92.37-.07,1.16.38,1.25.72.24.96.23,2,.33,3.22,2.19.66,4.64.93,7.01-.04.76-.31,1.43-1.25,1.77-2.05.49-1.15,1.17-1.8,2.37-1.46,2.72.75,5.42,1.58,8.09,2.49.38.13.83,1.01.72,1.4-.25.92-.82,1.76-1.35,2.8,1.56,1.69,3.49,3.15,5.99,3.47.86.11,1.93-.35,2.7-.86,1.2-.8,1.84-.98,2.86.04,1.82,1.8,3.59,3.66,5.3,5.57,1.07,1.19.88,2.03-.52,2.9-.5.31-1.1.48-1.86.79.78,2.58,1.71,5.07,4.16,6.59.55.34,1.43.36,2.11.24,1.49-.25,2.13-.04,2.54,1.45.68,2.51,1.27,5.05,1.81,7.6.3,1.39-.12,1.91-1.57,2.05-.67.06-1.36-.09-2.08-.15-1.16,1.69-1.17,6.26.13,7.88.43.53,1.14.91,1.79,1.16,1.06.41,1.66,1.11,1.37,2.18-.77,2.8-1.63,5.58-2.54,8.34-.11.32-.87.72-1.2.62-.96-.29-1.85-.8-2.98-1.33-1.59,1.49-2.98,3.42-3.48,5.9-.22,1.08.07,2.02.87,2.86,1,1.04,1.02,1.79-.02,2.83-1.81,1.82-3.75,3.49-5.56,5.31-1.24,1.24-2.07.56-2.85-.51-.37-.51-.52-1.17-.81-1.86-2.28.54-4.34,1.49-5.97,3.19-.89.92-1.34,1.98-.83,3.33.33.88-.03,1.78-.93,2.02-2.93.78-5.9,1.45-8.86,2.07-.3.06-.96-.4-1.03-.72-.22-.98-.23-2-.34-3.25-2.21-.67-4.69-.96-7.1.09-.72.31-1.33,1.21-1.68,1.98-.58,1.28-1.12,1.81-2.47,1.46-2.52-.66-5.02-1.41-7.49-2.23-1.43-.48-1.67-1.24-.97-2.59.29-.56.76-1.04,1.25-1.69-1.83-1.88-3.86-3.45-6.59-3.69-.68-.06-1.52.34-2.11.78-1.39,1.05-2.02,1.15-3.26-.08-1.69-1.69-3.34-3.42-4.92-5.21-1.23-1.4-.78-2.75,1.02-3.39.36-.13.73-.23,1.22-.38-.7-2.54-1.6-4.88-3.76-6.41-.64-.46-1.71-.57-2.53-.46-1.3.17-2.08,0-2.42-1.27-.73-2.72-1.36-5.47-1.92-8.24-.08-.4.4-1.23.78-1.34.9-.27,1.9-.23,3.06-.33.95-1.47.99-5.99-.22-7.57-.41-.54-1.1-.97-1.75-1.22-1.17-.44-1.8-1.16-1.46-2.37.76-2.72,1.57-5.42,2.48-8.09.13-.38,1-.83,1.38-.72.92.25,1.76.81,2.8,1.33,1.68-1.53,3.03-3.49,3.52-5.96.2-1.03-.05-1.94-.82-2.75-1.06-1.11-1.09-1.82,0-2.92,1.8-1.82,3.68-3.57,5.59-5.28,1.09-.99,1.9-.84,2.73.42.37.56.57,1.24.89,1.96ZM287.65,204.32c13.43,0,24.3-10.8,24.32-24.16.02-13.37-10.88-24.3-24.21-24.28-13.44.02-24.3,10.82-24.31,24.17-.01,13.4,10.83,24.26,24.21,24.26ZM301.25,180.13c.03-7.4-6.08-13.55-13.5-13.58-7.44-.03-13.56,6.02-13.61,13.47-.04,7.49,5.95,13.55,13.43,13.59,7.59.03,13.65-5.93,13.68-13.47Z"/>
  <path class="cls-1" d="M84,126.64c-1.12,1.42-2.11,2.62-3.04,3.85-7.75,10.26-11.89,21.83-12.38,34.68-.04,1.1-.39,1.4-1.44,1.37-2.83-.06-5.66,0-8.48-.04-.91-.02-1.22.27-1.21,1.19.05,3.17.06,6.35,0,9.52-.02.97.26,1.41,1.24,1.24,1.25-.21,1.56.36,1.5,1.53-.09,1.73-.06,3.48,0,5.22.03.88-.2,1.24-1.16,1.23-5.18-.04-10.36-.02-15.53,0-.87,0-1.25-.23-1.22-1.18.06-1.87.05-3.74,0-5.61-.02-.89.25-1.35,1.18-1.19,1.26.21,1.49-.36,1.49-1.52-.03-24.66-.02-49.32-.02-73.98,0-1.69,0-1.7,1.69-1.7,3.09,0,6.18.05,9.27-.03,1.23-.03,1.64.27,1.62,1.57-.06,7.39,0,14.79-.06,22.18,0,1.25.33,1.62,1.6,1.61,7.83-.05,15.66-.02,23.5-.02.41,0,.82.04,1.47.07Z"/>
</svg>