<?xml version="1.0" encoding="UTF-8"?>
<svg id="Layer_3" data-name="Layer 3" xmlns="http://www.w3.org/2000/svg" viewBox="0 0 389.19 229.04">
  <defs>
    <style>
      .cls-1 {
        fill: #000;
        stroke-width: 0px;
      }
    </style>
  </defs>
  <path class="cls-1" d="M40.59,200.17c-7.19.15-14.34.97-20.28-4.24-4.27-3.74-6.63-8.39-6.68-14.07-.08-9.26,0-18.53-.07-27.79-.01-1.43.45-1.72,1.78-1.72,13.02.04,26.03.03,39.05.02,7.14,0,11.64-4.47,11.65-11.57,0-19.31,0-38.62,0-57.93,0-7.38-4.37-11.78-11.72-11.78-12.7,0-25.41,0-38.11,0-3.12,0-2.59.2-2.59-2.55-.01-9.45,6.23-17.02,15.51-18.78,1.22-.23,2.49-.23,3.73-.23,13.38-.02,26.76.01,40.15-.04,1.29,0,1.91.43,2.48,1.55,8.31,16.25,16.66,32.47,25.02,48.7,3.56,6.9,9.27,10.34,17.01,10.35,19.73.02,39.47.02,59.2-.03,1.41,0,2.38.38,3.11,1.56,3.94,6.36,7.82,12.77,11.88,19.05,2.88,4.44,5.9,8.8,9.08,13.03,2.01,2.68,4.84,3.69,8.34,3.68,23.12-.11,46.24-.06,69.36-.05.55,0,1.1,0,2.1,0-17.46-24.38-34.67-48.41-52.15-72.82.94,0,1.52,0,2.11,0,13.49,0,26.97.01,40.46-.03,1.18,0,1.88.38,2.56,1.33,16.7,23.37,33.44,46.7,50.13,70.07.75,1.05,1.52,1.48,2.81,1.47,5.78-.07,11.56.14,17.34-.07,9.54-.34,16.15,4.18,20.87,12.04,4.24,7.07,6.44,14.87,7.7,22.92.84,5.39,1.19,10.85,1.74,16.28.05.5,0,1.01,0,1.63h-30c0-1.14,0-2.17,0-3.2-.04-10.86-8.09-19.01-18.9-19.02-18.85-.03-37.7-.03-56.55,0-10.09.01-18.36,8.35-18.38,18.44q0,3.9-3.92,3.9c-6.2,0-12.39-.01-18.59-.03-.5,0-1.01-.05-1.53-.08,4.85-20.64-12.03-40.13-32.56-40.15-19.18-.02-37.19,18.23-32.43,40.14h-55.81c2.15-12.57-1.15-23.36-10.7-31.89-7.03-6.28-15.45-8.86-24.83-8.04-18.69,1.64-33.41,19.38-29.32,39.97Z"/>
  <path class="cls-1" d="M143.07,103.3c-8.43,0-16.87-.04-25.3.01-5.27.03-9-2.25-11.41-6.95-11.05-21.56-22.16-43.09-33.22-64.64-2.94-5.72-.91-12.39,4.58-15.33,5.66-3.03,12.36-1.14,15.4,4.63,5.89,11.18,11.61,22.45,17.39,33.68,4.19,8.13,8.39,16.26,12.53,24.42.58,1.15,1.29,1.49,2.55,1.49,14.58-.04,29.16-.04,43.74-.02,5.16,0,9.48,3.2,10.95,7.96,1.45,4.7-.22,9.73-4.21,12.61-2.01,1.45-4.28,2.1-6.74,2.1-8.75,0-17.49,0-26.24,0v.03Z"/>
  <path class="cls-1" d="M13.67,77.93c.65-.03,1.21-.09,1.77-.09,13.01,0,26.02,0,39.03,0,3.29,0,4.77,1.48,4.77,4.76,0,19.35,0,38.7,0,58.05,0,3.49-1.42,4.95-4.91,4.95-13.01.02-26.02,0-39.03.03-1.21,0-1.74-.23-1.73-1.61.04-21.54.03-43.07.03-64.61,0-.46.05-.91.08-1.5Z"/>
  <path class="cls-1" d="M297.12,210.47c-12.65,0-25.29,0-37.94,0q-2.02,0-2.02-2.07c0-3.85-.02-7.7,0-11.55.04-7.26,4.93-12.15,12.16-12.15,18.58,0,37.16,0,55.74,0,7.24,0,12.14,4.88,12.16,12.14.01,3.95-.07,7.91.04,11.86.04,1.52-.51,1.81-1.88,1.8-12.75-.04-25.5-.03-38.25-.03Z"/>
  <path class="cls-1" d="M72.95,166.81c14.45-.08,26.4,11.81,26.41,26.26,0,14.42-11.77,26.22-26.22,26.27-14.52.05-26.36-11.59-26.44-26-.09-14.64,11.61-26.45,26.26-26.53ZM72.96,202.04c5.08.02,9.08-4.02,9.06-9.15-.01-4.76-4.09-8.74-8.97-8.78-4.92-.03-9,3.95-9.05,8.85-.05,5,3.95,9.06,8.96,9.07Z"/>
  <path class="cls-1" d="M193.71,219.34c-14.69-.06-26.3-11.79-26.23-26.49.07-14.43,12-26.2,26.39-26.04,14.63.16,26.29,11.92,26.19,26.43-.1,14.48-11.89,26.15-26.35,26.1ZM193.69,202.04c5.04.02,9.05-3.94,9.06-8.96.01-4.88-4.01-8.91-8.94-8.95-4.95-.04-9.01,3.92-9.04,8.82-.03,5.06,3.89,9.07,8.92,9.09Z"/>
  <path class="cls-1" d="M224.47,51.07c-3.22,2.34-6.37,4.62-9.52,6.91-1.98,1.44-3.94,2.89-5.93,4.32-4.51,3.25-10.27,2.48-13.46-1.8-3.16-4.25-2.21-10.06,2.3-13.36,15.09-11.01,30.19-21.99,45.32-32.95,4.59-3.32,10.33-2.37,13.5,2.09,3.03,4.28,1.95,9.94-2.53,13.2-4.71,3.43-9.41,6.88-14.15,10.26-1.08.77-1.38,1.27-.47,2.52,5.74,7.85,11.37,15.79,17.03,23.69.33.46.62.93,1.06,1.58-.55.06-.93.15-1.31.15-6.14,0-12.28-.02-18.42.03-1.09,0-1.69-.41-2.28-1.25-3.33-4.71-6.71-9.39-10.08-14.08-.3-.41-.63-.8-1.04-1.32Z"/>
</svg>