<?xml version="1.0" encoding="utf-8"?>
<!-- Generator: Adobe Illustrator 27.9.0, SVG Export Plug-In . SVG Version: 6.00 Build 0)  -->
<svg version="1.1" xmlns="http://www.w3.org/2000/svg" xmlns:xlink="http://www.w3.org/1999/xlink" x="0px" y="0px"
	 viewBox="0 0 1364.9 133.2" style="enable-background:new 0 0 1364.9 133.2;" xml:space="preserve">
<style type="text/css">
	.st0{display:none;fill:#078E45;stroke:#000000;stroke-miterlimit:10;}
	.st1{fill:#EE1E26;}
	.st2{fill:#FFFFFF;}
</style>
<g id="Layer_2">
	<rect x="-2" y="-2" class="st0" width="1366" height="136"/>
</g>
<g id="Layer_1">
	<g>
		<path class="st1" d="M707.5,131.9H667l-6.6-0.1l47.8-80.1l0,0c-1.9,2.2-3.8,4.5-5.7,6.7c-0.8,1-1.7,2-2.5,3l-2,2.3
			c-3.8,4.5-7.6,8.9-11.4,13.4c-2.2,2.6-4.4,5.2-6.6,7.8l-10.9,13l-9,10.8l-7.9,9l-10.1,12.1c-1,1.3-2.6,2.1-4.3,2.1l-0.2,0l-40.7,0
			c-0.6,0-2.1,0-3-1.2c-0.9-1.2-0.4-2.6-0.2-3.2l2.8-8.4c0.4-1.4,0.9-2.9,1.3-4.4c0.4-1.4,0.8-2.7,1.2-4.1c0.3-1,0.7-1.9,1-2.9
			c0.2-0.5,0.4-1,0.5-1.5c0.3-0.9,0.6-1.9,1-3.1l5.1-16.1l2.1-6.8l3.5-11l2.7-8.9l2.7-8.4l1-3.4l-1,1.7l-5.5,10l-6.6,12.2
			c-0.9,1.6-1.8,3.1-2.7,4.6c-0.8,1.3-1.5,2.6-2.2,3.9c-0.7,1.3-1.5,2.7-2.2,4.1c-0.5,1-1,1.9-1.5,2.9l-5.7,10.2l-5.7,10.4l-4.5,7.9
			c-2.2,4-4.4,8-6.6,12.1c-0.9,2.1-2.9,3.4-5.2,3.4c-0.1,0-0.2,0-0.3,0c-4.7,0-9.5,0-14.2,0c-4.8,0-9.5,0-14.3,0
			c-4.8,0-9.5,0-14.3,0h-5.3l0.9-2.8c0.2-0.5,0.4-1,0.6-1.5l0-0.1l4.8-8.2l5.7-10.2c1-1.8,2.1-3.6,3.1-5.3c0.6-1.1,1.3-2.1,1.9-3.2
			l3-5.3l4-6.9l3.9-7.1l5.1-8.8c0.6-0.9,1.1-1.9,1.6-2.8c0.4-0.8,0.8-1.5,1.3-2.3L562,58l2.5-4.5l4.7-8.4l5-8.7l7.5-12.8l4.5-8.1
			c0.6-1,1.2-2,1.7-2.9c1.5-2.5,2.9-4.8,4.1-7.3c1.7-3.6,4.5-4.1,6.9-4.1l49.1,0.2c3.7,0,7.2,1.3,10.1,3.5c2.1,1.8,3.3,4.4,3.5,7
			c0.3,3.6-0.6,7.1-1.5,10.4c-0.3,0.9-0.5,1.8-0.7,2.8c-0.2,0.9-0.5,1.8-0.7,2.6c-0.3,1.1-0.6,2.1-1,3.2c-0.2,0.8-0.5,1.5-0.7,2.3
			c-0.3,1-0.6,2.1-0.8,3l-1.6,6.3c-0.2,0.8-0.4,1.5-0.6,2.2c-0.1,0.4-0.2,0.7-0.3,1.1l-2.5,8.5l-2.4,9.1c-0.4,1.3-0.7,2.7-1,4
			c2.3-2.4,4.6-4.8,6.8-7.1l10.9-11.9c4-4.3,8-8.6,12-12.9l10.6-11.4c4.2-4.5,8.3-9,12.4-13.6c2.4-2.7,4.4-4.9,6.4-7.3
			c1.1-1.2,2.6-1.9,4.2-1.9c0.2,0,0.4,0,0.6,0h42.9c3.6,0.1,6.9,0.9,10.1,2.4c2.3,1,5,2.2,7,4.5c2.6,2.8,3.8,6.8,3.1,10.6
			c-0.3,1.7-1.2,3.2-2,4.6c-0.2,0.3-0.4,0.7-0.6,1l-5.4,9.4l-8.5,15.3l-6.1,10.5l-5.2,9.5l-6.5,11.2l-7,12.5
			c-0.7,1.3-1.5,2.5-2.2,3.7c-0.6,0.9-1.1,1.8-1.7,2.8c-1,1.8-2,3.6-3,5.4l-0.9,1.7c-1,1.7-1.9,3.3-2.9,4.9
			c-0.4,0.6-0.8,1.3-1.2,1.9c-0.7,1.2-1.3,2.3-2,3.5l-4.2,7.6l-2.8,4.8c-0.9,1.8-2.7,2.9-4.7,2.9
			C707.7,131.9,707.6,131.9,707.5,131.9z"/>
		<path class="st2" d="M711,3.3c0.2,0,0.3,0,0.5,0h43c3.2,0.1,6.3,0.8,9.2,2.2c2.3,1,4.6,2,6.3,4c2.2,2.4,3.1,5.6,2.6,8.8
			c-0.3,1.7-1.5,3.3-2.3,4.9l-5.3,9.3l-8.5,15.4l-6.1,10.4l-5.3,9.5L738.5,79l-7,12.5c-1.2,2.2-2.6,4.3-3.9,6.5
			c-1.4,2.4-2.7,4.8-4,7.2s-2.7,4.5-4,6.7c-1,1.6-1.9,3.2-2.8,4.9l-3.5,6.2l-2.8,4.9c-0.5,1.1-1.6,1.8-2.8,1.8c-0.1,0-0.1,0-0.2,0
			H667l-2.9-0.1L719.5,37l-0.4-0.4c-0.4,0.2-0.8,0.5-1.2,0.8l-5.4,6.4l-5.9,6.4c-2.8,3.2-5.5,6.5-8.2,9.8l-2,2.3
			c-3.8,4.5-7.6,8.9-11.4,13.4c-2.2,2.6-4.4,5.2-6.6,7.8l-10.9,13l-9,10.8l-7.8,9l-10.1,12.1c-0.6,0.8-1.6,1.3-2.7,1.3
			c0,0-0.1,0-0.1,0h-40.8c-1.3,0-1.6-0.3-1.2-1.6l2.8-8.4c0.9-2.8,1.6-5.7,2.5-8.5c0.4-1.4,1-2.8,1.5-4.3c0.4-1.1,0.7-2.2,1-3.3
			l5.1-16l2.1-6.8l3.5-11l2.7-8.9l2.7-8.4l3.5-11.6l1.2-3.9c0.1-0.5,0.2-1,0.2-1.5l-0.5-0.2c-0.6,0.5-1.1,1.1-1.5,1.8l-6.9,12.2
			l-5.5,10l-6.6,12.2c-1.6,2.9-3.3,5.7-4.9,8.5c-1.3,2.3-2.5,4.7-3.7,7L589.2,97l-5.7,10.4l-4.5,7.9c-2.2,4-4.4,8.1-6.6,12.2
			c-0.5,1.3-1.8,2.2-3.2,2.2c-0.1,0-0.2,0-0.2,0c-4.8,0-9.5,0-14.3,0c-9.5,0-19,0-28.6,0h-2.3c0.1-0.4,0.3-0.9,0.5-1.3l4.8-8.2
			l5.7-10.3c1.6-2.8,3.3-5.6,5-8.4l3-5.3l4-6.9l3.9-7.1l5.1-8.8c1-1.7,1.9-3.4,2.9-5.1l5.2-9.2l2.5-4.5l4.7-8.4l5-8.7l7.5-12.8
			l4.6-8.1c2-3.4,4.2-6.7,5.9-10.3c1.1-2.4,2.6-2.9,5-2.9c0,0,0.1,0,0.1,0l48.7,0.2c0.1,0,0.2,0,0.2,0c3.2,0,6.3,1.1,8.8,3.1
			c1.6,1.4,2.6,3.4,2.7,5.5c0.3,3.3-0.5,6.5-1.4,9.6c-0.5,1.8-0.9,3.6-1.4,5.4s-1.1,3.6-1.7,5.5c-0.3,1-0.6,2.1-0.9,3.1l-1.6,6.4
			c-0.3,1.1-0.6,2.1-0.9,3.2l-2.5,8.5l-2.5,9.1c-0.7,2.8-1.5,5.6-2.2,8.4c-0.1,0.5-0.1,1,0,1.4c0.5-0.2,1.2-0.2,1.6-0.5
			c3.4-3.4,6.7-6.9,10-10.4l10.9-11.9c4-4.3,8-8.6,12-12.9l10.6-11.4c4.2-4.5,8.3-9.1,12.5-13.6c2.2-2.4,4.4-4.8,6.5-7.4
			C709,3.7,710,3.3,711,3.3 M711-1c-2.2,0-4.3,0.9-5.8,2.6l-0.1,0.1l0,0.1c-2.1,2.5-4.3,4.9-6.3,7.2c-4.1,4.5-8.3,9.1-12.4,13.6
			l-10.6,11.4c-4,4.3-8,8.6-12,12.9l-11,11.9c-0.3,0.3-0.6,0.7-0.9,1l1.3-4.9l2.4-8.4c0.1-0.4,0.2-0.7,0.3-1.1
			c0.2-0.7,0.4-1.5,0.6-2.2l0,0l0,0l1.6-6.4c0.2-0.9,0.5-1.9,0.8-2.9c0.2-0.8,0.5-1.5,0.7-2.3c0.3-1.1,0.7-2.2,1-3.3
			c0.3-0.9,0.5-1.8,0.7-2.7c0.2-0.9,0.5-1.8,0.7-2.7c1-3.4,1.9-7.2,1.6-11.2c-0.2-3.2-1.7-6.3-4.1-8.4l-0.1-0.1l-0.1-0.1
			c-3.2-2.6-7.3-4-11.5-4c-0.1,0-0.2,0-0.3,0L599-1l-0.1,0c-2.7,0-6.6,0.6-8.9,5.4c-1.1,2.4-2.5,4.7-4,7.1c-0.6,1-1.2,1.9-1.7,2.9
			l0,0l0,0l-4.5,8.1l-7.5,12.8l0,0l0,0l-5,8.7l-4.7,8.4l-2.5,4.5l-5.2,9.1c-0.4,0.7-0.9,1.5-1.3,2.3c-0.5,0.9-1,1.8-1.6,2.7
			l-5.1,8.8l0,0l0,0l-3.9,7.1l-4,6.9l0,0l0,0l-3,5.3c-0.6,1.1-1.2,2.1-1.9,3.1c-1,1.7-2.1,3.5-3.1,5.3l-5.7,10.2l-4.7,8.1l-0.1,0.2
			l-0.1,0.2c-0.3,0.6-0.5,1.2-0.7,1.8l-1.9,5.7h6h2.3c4.8,0,9.5,0,14.3,0c4.8,0,9.5,0,14.3,0c5.3,0,9.9,0,14.1,0c0.1,0,0.3,0,0.4,0
			c3.1,0,5.9-1.8,7.1-4.6c2.1-4,4.3-8,6.5-12l4.4-7.9l5.7-10.4l5.6-10.1l0,0l0,0c0.5-1,1-1.9,1.5-2.9c0.7-1.4,1.4-2.7,2.2-4
			c0.7-1.3,1.5-2.6,2.2-3.8c0.9-1.5,1.8-3.1,2.7-4.7l2.9-5.3l-0.1,0.4l-3.5,11l-2.1,6.9l-5.1,16l0,0.1l0,0.1c-0.3,1.2-0.6,2.2-0.9,3
			c-0.2,0.5-0.3,0.9-0.5,1.4c-0.4,1-0.7,1.9-1,3c-0.4,1.4-0.8,2.8-1.2,4.1c-0.4,1.5-0.8,2.9-1.3,4.3l-2.8,8.3
			c-0.2,0.8-1,3.1,0.5,5.2c1.5,2.1,4,2.1,4.8,2.1h40.7c0.1,0,0.1,0,0.2,0c2.4,0,4.6-1.1,6-2.9l10.1-12l7.8-9l0,0l0,0l9-10.8l10.9-13
			c2.2-2.6,4.4-5.1,6.6-7.7c1.6-1.8,3.1-3.7,4.7-5.5l-32.5,54.4l-3.8,6.4l7.5,0.1l2.9,0l0,0h0h40.5c0.1,0,0.2,0,0.3,0
			c2.8,0,5.4-1.6,6.6-4.1l2.7-4.8l3.5-6.3c0.2-0.4,0.5-0.9,0.7-1.3c0.7-1.2,1.3-2.3,2-3.4c0.4-0.7,0.8-1.3,1.2-1.9
			c1-1.6,1.9-3.2,2.9-4.9l0.9-1.7c1-1.8,2-3.6,3-5.4c0.5-0.9,1.1-1.8,1.6-2.7c0.7-1.2,1.5-2.5,2.2-3.8l7-12.5l6.5-11.2l0,0l0,0
			l5.2-9.5l6.1-10.4l0,0l0,0l8.5-15.3l5.3-9.3l0,0l0,0c0.2-0.3,0.4-0.6,0.6-1c0.8-1.4,1.9-3.2,2.3-5.3c0.8-4.4-0.5-9.1-3.6-12.4
			c-2.4-2.7-5.2-3.9-7.8-5c-3.4-1.6-7.1-2.5-10.9-2.5l0,0h0h-42.8C711.5-1,711.2-1,711-1L711-1z"/>
	</g>
	<g>
		<path d="M318.7,135.5c-1.8,0-2.6-1-2.8-1.5c-0.2-0.4-0.7-1.6,0.3-3.1c1.4-2,1.7-4.4,2.1-6.9c0.1-0.9,0.3-1.8,0.5-2.8l1.5-7.8
			l2.4-12.7c-1.2,2.1-2.3,4.1-3.5,6.1c-0.9,1.6-1.8,3.2-2.7,4.8l-5.4,9.6l-7,12c-0.7,1.3-2,2.1-3.6,2.1c-0.1,0-0.2,0-0.3,0h-51.6
			l-0.1,0c-0.8-0.1-1.5-0.2-2.3-0.3l-2.7-0.6l1.2-2.5c0.1-0.2,0.2-0.4,0.2-0.5c0.2-0.5,0.4-0.9,0.7-1.4l5-9c4.4-7.5,8.7-15,13-22.5
			c3.4-5.8,6.7-11.7,10.1-17.5l9.7-17.1l9-15.4l11.1-19.7l7.8-13.4l8.4-14.9c0.7-1.6,2.2-2.6,4-2.6c0.1,0,0.2,0,0.2,0l39.2,0
			c1.5,0,3.1,0.1,4.5,0.9c2.8,1.6,5.8,3.7,7.1,7.5c0.6,1.6,0.9,3.3,1,5c0.2,3.2-0.1,6.5-0.8,9.6c-0.7,3-1.2,6.1-1.7,9.2
			c-0.1,0.5-0.2,1-0.3,1.6l1.4-2.3l5.6-9.6l6.4-11.5l4.9-8.6l0.2-0.2c0.9-0.9,2.1-1.5,3.4-1.5c8.5,0,17,0,25.5,0c8.5,0,17,0,25.5,0
			c0.1,0,0.3,0,0.5,0c0.2,0,0.4,0,0.7,0c0.3,0,0.5,0,0.8,0c0.8,0.1,1.6,0.4,2.2,1l0.2,0.2l0.1,0.2c0.8,1.1,0.3,2.4-0.1,3.1
			l-6.4,10.9c-2.7,4.7-5.4,9.3-8.1,14l-4.1,7.3c-1.5,2.7-3,5.4-4.5,7.9l-6.9,11.7l-9.8,17.2l-8.8,15.4l-9.9,17.1l-9.9,17.5
			l-6.2,10.6c-1.1,2.2-3.3,3.5-5.7,3.5c-0.2,0-0.4,0-0.5,0l-46.8,0c-0.9,0-1.9,0-2.9,0.1L318.7,135.5L318.7,135.5z M1163.9,135.4
			c-1.6,0-2.4-0.7-2.7-1.4c-0.3-0.5-0.7-1.6,0.2-3l22.6-38.8l9.2-16.4c3.8-6.7,7.7-13.5,11.6-20.2l10.9-18.9l9.4-16.4l9.8-16.9
			c0.6-1,1.1-2.1,1.6-3.1c0.6-1.5,2-2.5,3.6-2.5h26.1l0.5,0h26.7l0.2,0c0.8,0,1.7,0.3,2.3,0.9l0.2,0.2l0.2,0.2
			c0.7,1,0.4,2.4-0.2,3.3l-4.9,8.1c-1,1.7-1.9,3.3-2.8,5c-0.5,1-1.1,2-1.7,3c-2.6,4.5-5.1,9-7.7,13.4l-7.4,12.9l9.9,0.1l0.1,2.2
			v-2.2c0.2,0,0.3-0.1,0.4-0.2l6.6-11.8l8-13.8l6.6-11.7l4.3-7.7l0.1-0.1c0.7-0.9,1.7-1.5,2.8-1.6l0.1,0c0.5,0,1-0.1,1.5-0.1
			c0.5,0,0.9,0,1.4,0h48.7c0.2,0,0.4,0,0.6,0c0.2,0,0.5,0,0.7,0l0.1,0l0.3,0.1c0.6,0.1,1.7,0.3,2.4,1.3c0.7,1,0.7,2.3-0.1,3.7
			l-6.9,11.8l-8.1,14.2c-3.1,5.4-6.2,10.9-9.4,16.3l-11.7,20.1l-12.7,22.3l-7.1,12.2c-3.3,5.8-6.7,11.5-10,17.3l-8.7,15.3
			c-1.4,2.5-3.4,2.8-5.3,2.8h-50.4c-0.1,0-0.1,0-0.2,0c-0.1,0-0.3,0-0.4,0l-0.1,0l-4-1l0.7-2.2c0.2-0.6,0.4-1.2,0.7-1.8l0-0.1
			c3.2-5.6,6.3-11.2,9.5-16.8l7-11.9l7-12.1l3.5-6l-10,0c0,0-0.1,0-0.1,0c-0.3,0-0.6,0.2-0.7,0.4l-5.5,9.8l-9.3,15.9l-5.6,9.6
			l-7.2,12.6c-1.1,2.2-3.4,3.7-5.8,3.7c-0.2,0-0.4,0-0.6,0l-47.9-0.1c-0.7,0-1.3,0-2,0C1165,135.4,1164.5,135.4,1163.9,135.4
			L1163.9,135.4L1163.9,135.4z M202.7,135.3c-0.7,0-1.4,0-2.1,0c-17.5,0-35.6,0-53.4-0.1l-0.3,0c-5.7,0-11.3-1.5-16.3-4.3
			c-2.9-1.7-6.9-4.5-8.5-9.5c-1.3-3.4-1.2-7.1,0.2-10.5c1.7-3.5,3.5-6.8,5.3-10c0.7-1.2,1.4-2.5,2.1-3.8l3.2-5.8l19.8-34.7l9.4-16.2
			l7.7-13.6l0.2-0.3c2.7-4.5,5.4-9.1,8.4-13.5c3.1-4.5,7.5-8.1,13.7-11.1c1.9-0.9,3.8-1.4,5.7-1.8c1.4-0.3,2.7-0.7,3.9-1.1l0.1,0
			c2.4-0.8,4.9-1.2,7.4-1.2c0.5,0,1,0,1.5,0h33.5l1.3,0h36.4c0.2,0,0.4,0,0.6,0c1.7,0,3.4,0.3,4.9,1c1,0.5,1.9,0.8,2.9,1.2
			c1.5,0.6,3.1,1.2,4.6,2.1c7.6,4.6,10.2,10.2,8.6,18.7l0,0.1c-0.4,1.7-1.1,3.4-2.1,4.9l-6.1,10.9l-5.8,9.8l-9.4,16.5l-7.7,13.1
			l-6.6,11.8c-0.8,1.5-1.7,2.9-2.6,4.4c-0.6,1-1.2,2-1.8,3l-7.4,12.7c-0.6,1-1.1,1.9-1.6,2.9c-1.2,2.1-2.4,4.3-3.8,6.4
			c-3.2,4.9-7.7,9-12.9,11.8c-3.8,2.1-8,3.5-12.2,4.2c-6.5,1.1-13.1,1.7-19.7,1.7C203.5,135.3,203.1,135.3,202.7,135.3z M181.3,96.5
			c0.1,0.3,0.2,0.5,0.2,0.8c0.2,0.8,0.4,1.5,0.7,1.9c1.5,2.1,3.6,3.4,6.1,3.9c2,0.4,3.9,0.7,5.9,0.7c1.6,0,3.2-0.1,4.8-0.4
			c3.5-0.7,6.7-2.5,9.3-5.1c2-1.8,3.2-4.1,4.6-6.5c0.4-0.7,0.7-1.3,1.1-2l7.2-12.8l8.8-15c3.2-5.5,6.3-11,9.4-16.5
			c0.3-0.6,0.7-1.2,1-1.8c1.1-1.9,2.2-3.8,3-5.7c0.7-1.5,0.5-3.3-0.5-4.6c-1.9-2.4-4.8-3.9-7.8-4.2c-1.1-0.1-2.2-0.2-3.3-0.2
			c-2.5,0-4.9,0.4-7.3,1c-3,0.9-5.7,2.5-7.9,4.7c-2.1,2.1-3.5,4.7-5,7.5c-0.4,0.8-0.8,1.5-1.3,2.3c-1.8,3-3.6,6.2-5.3,9.3l-1.2,2.2
			l-5.6,9.5c-2.5,4.3-5,8.6-7.4,13L182.6,93C182.1,94.2,181.7,95.3,181.3,96.5z M472,135.3c-3,0-5.8-0.1-8.6-0.1
			c-2.4-0.1-4.7-0.1-6.8-0.1c-1.2,0-2.3,0-3.3,0.1l0,0l-0.5,0c-4.7,0-8.9,0-12.9,0c-3.5,0-6.8,0-10,0c-5.6,0-10-0.1-14.1-0.2
			c-7.4-0.2-13.6-2.4-18.6-6.5c-3.3-2.5-5.4-6.4-5.8-10.5c-0.3-4.3,0.7-8.7,3-12.3l10.3-17.9c4.6-7.9,9.2-15.9,13.7-23.8l10.4-18
			l8-14.2l10.3-17.1c2.5-4,5.9-7.3,9.8-9.7c3.3-2,7.1-4.2,11.5-5c0.8-0.1,1.5-0.4,2.4-0.7c0.9-0.3,1.8-0.6,2.8-0.8
			c1.8-0.4,3.7-0.5,5.5-0.5c6.9,0,13.9,0,20.8,0s13.9,0,20.8,0h31.4c0.2,0,0.4,0,0.6,0c1.7,0,3.3,0.3,4.9,1c1,0.5,1.9,0.8,2.9,1.2
			c1.5,0.6,3.1,1.2,4.6,2.1c6.9,4.1,9.9,10.2,8.6,17.6c-0.4,2.5-1.7,4.8-2.8,6.9c-0.3,0.6-0.7,1.2-1,1.8c-0.6,1.2-1.2,2.3-1.9,3.3
			c-0.4,0.7-0.9,1.4-1.2,2.1c-0.7,1.3-2,2.2-3.5,2.2c-0.1,0-0.1,0-0.2,0h-61.9c-0.2,0-0.3,0-0.5,0c-3.4,0-6.5,1.7-8.4,4.4
			c-0.8,1.2-1.5,2.4-2.2,3.8c-0.1,0.2-0.2,0.4-0.3,0.6c0.5-0.2,1.1-0.3,1.6-0.3c0.2,0,0.3,0,0.5,0c1,0.1,1.9,0.1,2.7,0.1l2.4,0h48.6
			l10-0.1c0.7,0,2.3,0.2,2.9,1.6l0.1,0.1l0,0.1c0.2,0.9,0.1,1.9-0.3,2.7l-5.1,8.5l-11.1,19.6l-5.2,8.9l-5.2,9.4
			c-2.1,3.8-4.3,7.5-6.4,11.3l-4.9,8.5c-3.9,6.5-8.6,11.1-14.4,14c-2.7,1.4-5.6,2.6-8.6,3.5l-0.1,0c-3.1,0.7-6.2,1.2-9.3,1.4
			C483.1,135,478.1,135.3,472,135.3z M460.9,96.3c1.3,0.4,2.7,0.6,4.1,0.6c1.1,0,2.2-0.1,3.2-0.4l0.1,0c2.6-0.4,4.9-1.9,6.3-4.1
			c0.6-0.8,1-1.7,1.5-2.6c0.3-0.6,0.6-1.1,0.9-1.6l2.9-4.8l-8.9,0.1l-0.2,0c-0.6-0.1-1.1-0.3-1.6-0.5l-0.7-0.3l-4.4,7.8L460.9,96.3z
			 M881.7,132.3H733.3l-7.4-0.1l2.4-3.4c0.4-0.5,0.8-1,1.2-1.5l0.1-0.1l9.3-8.6l10.8-10.7l10.5-10c7.1-6.8,14.1-13.6,21.2-20.3
			l9.9-9.3l13.3-13.1c2.1-2,4.2-4,6.3-5.9c1.1-1,2.3-2.1,3.4-3.2l6.3-5.9c0.8-0.8,1.9-1.3,3.1-1.4l0.1,0h44.5c0.3,0,0.5,0,0.6,0
			c0-0.1,0.1-0.3,0.2-0.5l0-0.1c0.4-1.2,0.7-2.4,0.9-3.6c0-0.9-0.6-1.4-1.9-1.5c-1.2-0.1-2.4-0.1-3.8-0.1l-47,0c-0.2,0-0.5,0-0.7,0
			c-0.3,0-0.6,0-1,0c0,0-0.3,0-0.3,0c-1.7,0-2.4-0.9-2.7-1.4c-0.4-0.6-0.6-1.7,0.2-3.2l5.8-9.9l6.7-12.2l1.8-3.3
			c0.7-1.5,2.1-2.4,3.8-2.4c0.2,0,0.5,0,0.7,0.1c0.8,0.1,1.5,0.1,2.3,0.1l69.7,0c0.3,0,0.7,0,1.1,0c2.4,0,4.9,0.1,7.3,0.4
			c4,0.5,7.7,2.2,10.6,4.9l0.1,0.1l0.1,0.1c1.4,1.5,2.4,3.2,3.1,5.1c2,4.9,0.3,9.4-1.1,13.4l-5,13.5l-3.4,9.1l-5.5,15l-5,13.4
			l-3,8.3c-1.1,3-2.2,6-3.3,9c-1.8,4.8-3.5,9.5-5.3,14.3l-8.2,22c-0.5,1.7-2.1,2.9-3.9,2.9C881.9,132.3,881.8,132.3,881.7,132.3z
			 M844.1,99.9c0,0,0.2,0,0.2,0c0.3,0,0.4-0.1,0.5-0.3l0-0.1l2-4.9l8-20.3l9.1-23l-14.2,14.6c-3.4,3.6-6.9,7.1-10.3,10.7l-21.1,21.9
			c-0.4,0.4-0.8,0.8-1.2,1.2c-0.1,0.1-0.1,0.1-0.2,0.2H844.1z M974.7,132.3c-1.4,0-2.3-0.5-2.9-1.4c-0.5-0.9-0.5-2,0.2-3.1l4.6-8
			l5.8-10.4c3.3-5.9,6.7-11.8,10.1-17.7c0.4-0.7,0.8-1.4,1.2-2c0.9-1.5,1.8-3,2.6-4.6c0.4-0.8,0.8-1.9,0.4-3c-0.4-1-1.4-1.6-2.1-1.9
			c-1.2-0.5-2.5-0.8-3.8-0.8c-1.4-0.1-2.7-0.1-3.8-0.1l-3.4,0c-1,0-1.9,0-2.9,0c0,0-0.1,0-0.1,0c-0.2,0-0.3,0.1-0.4,0.2l-7,12
			l-6.7,11.4l-7.8,13.5l-8,13.5c-0.8,1.5-2.3,2.5-4.1,2.5c-13.1,0-26.2-0.1-39.3-0.1l-4.6,0.1c-0.7,0-2-0.2-2.8-1.2l-0.2-0.3
			l-0.1-0.3c-0.3-0.9-0.1-1.9,0.4-2.7l18.8-32.1l7-12.5l8.9-15.3l6.5-11.3l9.4-16l6.1-11l9-15.6c2-3.5,4-7.1,6-10.7
			c0.7-1.6,2.2-2.7,4-2.7c0.3,0,0.6,0,1,0.1c0.3,0,0.5,0,0.8,0c0.1,0,0.2,0,0.4,0l0.1,0h80.5c0.4,0,0.9,0,1.4,0
			c2.4,0,4.8,0.2,7.1,0.6c5.1,1,10.7,2.5,14.3,7.6c3.1,4,3.6,9.5,1.1,14.1c-2.3,4.4-4.8,8.8-7.2,13.1l-1.5,2.6l-12.4,21.8l-0.5,0.8
			c-1.8,3.3-3.7,6.6-5.8,9.9c-1.9,2.9-4.6,5.2-7.8,6.5c-2.9,1.3-6,2.2-9.2,2.4c0.3,0.2,0.6,0.5,0.9,0.7c2.6,2.6,3.8,6.1,3.4,9.7
			c-0.4,2.5-1.2,4.9-2.4,7c-2.3,4.2-4.8,8.5-7.3,12.6c-1.2,2-2.3,4-3.5,6c-2.6,4.5-5.2,9.1-7.8,13.6c-0.7,1.6-2.3,2.6-4.1,2.6
			l-13.8,0l0.1,0.1H974.7z M1011.4,48.8c1.3,0,2.4,0,3.4,0.1c0.3,0,0.5,0,0.8,0c1.4,0,2.3-0.3,3-2.1c0.8-1.9,1.8-3.7,2.8-5.4
			c0.8-1.4,1.5-2.7,2.1-4l0.1-0.1c0.5-0.9,0.4-2.1-0.3-2.8c-1.1-1.3-2.6-1.9-4.8-1.9l-11.8-0.1c0,0-0.1,0-0.1,0
			c-0.1,0-0.2,0.1-0.2,0.1c-0.5,1.1-1.1,2.1-1.7,3.1L997.2,49l7.3,0l2-0.1c0.8,0,1.6,0,2.4,0C1009.7,48.9,1010.6,48.8,1011.4,48.8z"
			/>
		<path class="st2" d="M323.8,0c0.1,0,0.1,0,0.2,0l38.6,0.1c0.2,0,0.4,0,0.7,0c1.2,0,2.5,0,3.4,0.6c2.6,1.5,5.1,3.3,6.1,6.3
			c0.5,1.4,0.8,2.9,0.9,4.4c0.2,3-0.1,6.1-0.8,9c-1,4.3-1.6,8.8-2.4,13.2l-0.8,5c0,0.4,0.3,0.7,0.4,1.1c0.3-0.2,0.6-0.4,0.9-0.7
			l5.4-8.6l5.6-9.6l6.4-11.5l4.7-8.3c0.5-0.5,1.2-0.8,1.9-0.8c0,0,0,0,0,0c8.5,0,17,0,25.5,0s17,0,25.5,0c0.4,0,0.7,0,1.1,0
			c0.2,0,0.4,0,0.6,0c0.3,0,0.7,0.2,0.9,0.4c0.1,0.2-0.1,0.6-0.2,0.9L442,12.1c-2.7,4.7-5.4,9.3-8.1,14l-4.1,7.3
			c-1.5,2.7-3,5.3-4.5,7.9L418.4,53l-9.8,17.2c-2.9,5.1-5.9,10.3-8.8,15.4l-9.9,17.1l-9.9,17.5l-6.2,10.7c-0.7,1.5-2.2,2.4-3.8,2.4
			c-0.1,0-0.3,0-0.4,0l-46.9-0.1c-1.3,0-2.6,0.1-4,0.1c-0.9,0-1.2-0.4-0.7-1.2c2.2-3.2,2.2-6.9,2.9-10.5l1.5-7.8l1.2-6.5l2.1-10.9
			c0.2-1.1,0.6-2.1-0.2-3.1l0,0c-1,0.5-1.9,1.3-2.4,2.3c-2.7,5-5.6,9.9-8.4,14.9l-5.4,9.6l-6.9,12c-0.3,0.6-1,1-1.7,1
			c-0.1,0-0.1,0-0.2,0h-51.6c-0.7,0-1.3-0.1-2-0.3c0.3-0.6,0.5-1.2,0.8-1.8l5-9c4.3-7.5,8.7-15,13-22.5c3.4-5.8,6.7-11.7,10.1-17.5
			l9.7-17.1l9-15.4l11.2-19.7l7.8-13.3l8.4-15.1C322.1,0.5,322.9,0,323.8,0 M1293.6,0c0.3,0,0.6,0.1,0.8,0.3c0.1,0.2,0,0.7-0.2,0.9
			l-4.9,8.1c-1.6,2.7-3,5.4-4.5,8c-2.6,4.5-5.1,8.9-7.7,13.4l-8,13.9c-0.3,0.5-0.4,1.1-0.3,1.6c0.2,0.4,1,0.6,1.5,0.6l11.2,0.1
			c0,0,0.1,0,0.1,0c1,0,1.9-0.5,2.3-1.4l6.6-11.7l8-13.8l6.6-11.7l4.2-7.5c0.4-0.5,0.9-0.8,1.4-0.8c0.4,0,0.9,0,1.3,0
			c0.4,0,0.9,0,1.3,0h48.8c0.2,0,0.4,0,0.5,0s0.4,0,0.5,0c0.5,0.1,1.1,0.2,1.3,0.5c0.2,0.3,0,0.9-0.2,1.3l-6.9,11.8l-8.2,14.2
			c-3.1,5.4-6.2,10.9-9.4,16.3l-11.7,20.1l-12.7,22.3l-7.1,12.2c-3.3,5.8-6.7,11.5-10,17.3l-8.7,15.3c-0.8,1.5-1.9,1.8-3.4,1.8
			c0,0-0.1,0-0.1,0h-50.4c0,0-0.1,0-0.1,0c0,0-0.1,0-0.1,0l-1.6-0.4c0.2-0.5,0.4-1,0.6-1.5c3.2-5.6,6.3-11.2,9.5-16.8l7-11.9l7-12.1
			l3.8-6.4c0.2-0.3,0.4-0.5,0.5-0.8c0.5-1.2,0-2-1.2-2h-11.3c-0.1,0-0.1,0-0.2,0c-1.1,0-2.1,0.6-2.6,1.6l-5.4,9.7l-9.2,15.8
			l-5.6,9.7l-7.2,12.7c-0.7,1.5-2.3,2.5-3.9,2.5c-0.2,0-0.3,0-0.5,0l-48-0.1c-1.2,0-2.4,0.1-3.6,0.1c-0.9,0-1.1-0.4-0.7-1.1
			l9.5-16.3l13.1-22.5l9.2-16.4c3.8-6.7,7.7-13.5,11.6-20.2l10.9-18.9l9.4-16.4l9.8-16.9c0.6-1.1,1.2-2.2,1.8-3.4
			c0.2-0.7,0.9-1.2,1.6-1.2c0,0,0,0,0,0h26.6l0,0L1293.6,0C1293.6,0,1293.6,0,1293.6,0 M209.2,0c0.5,0,1,0,1.5,0h34.9l0,0H282
			c0.2,0,0.4,0,0.6,0c1.4,0,2.8,0.3,4.1,0.8c2.4,1.1,5,1.8,7.2,3.1c6.8,4.1,9,8.9,7.6,16.5c-0.4,1.5-1,3-1.8,4.3l-6.2,11l-5.8,9.8
			l-9.5,16.5l-7.7,13.1L264,87c-1.4,2.5-2.9,4.9-4.4,7.4l-7.4,12.8c-1.8,3.1-3.4,6.2-5.4,9.2c-3,4.6-7.2,8.5-12.1,11.1
			c-3.6,1.9-7.5,3.3-11.6,4c-6.4,1.1-12.9,1.6-19.3,1.6c-0.4,0-0.8,0-1.2,0c-18.5,0-37,0-55.6-0.1c-0.1,0-0.2,0-0.3,0
			c-5.3,0-10.6-1.4-15.2-4c-3.4-2-6.3-4.5-7.6-8.3c-1.1-2.9-1.1-6.1,0.2-8.9c2.2-4.6,4.9-9.1,7.3-13.6l3.2-5.8l19.8-34.7l9.4-16.2
			l7.7-13.6c2.7-4.5,5.4-9.2,8.5-13.6c3.2-4.7,7.8-7.9,12.9-10.4c3.1-1.4,6.4-1.7,9.4-2.9C204.6,0.4,206.9,0,209.2,0 M194.3,105.9
			c1.7,0,3.5-0.2,5.2-0.5c4-0.8,7.6-2.8,10.5-5.7c2.7-2.5,4.2-5.8,6-8.9l7.2-12.8l8.8-15c3.2-5.5,6.3-11,9.5-16.5
			c1.4-2.5,3-5,4.2-7.7c1.1-2.2,0.7-4.9-0.8-6.8c-2.3-2.8-5.6-4.6-9.2-5c-1.2-0.1-2.4-0.2-3.5-0.2c-2.7,0-5.3,0.4-7.9,1.1
			c-3.3,1-6.4,2.8-8.8,5.3c-2.9,2.9-4.6,6.7-6.7,10.2c-2.2,3.8-4.4,7.7-6.5,11.6l-5.6,9.5c-2.5,4.3-5,8.7-7.4,13l-8.3,14.6
			c-0.7,1.5-1.2,3-1.6,4.5l0,0c0.5,1.4,0.7,2.8,1.5,3.9c1.8,2.5,4.4,4.2,7.4,4.8C190,105.7,192.1,105.9,194.3,105.9 M499.9,0.1
			c6.9,0,13.9,0,20.8,0h31.4c0.2,0,0.4,0,0.6,0c1.4,0,2.7,0.3,4,0.8c2.4,1.1,5,1.9,7.2,3.2c5.7,3.4,8.8,8.5,7.6,15.4
			c-0.5,2.8-2.3,5.5-3.6,8.2c-0.9,1.9-2.1,3.6-3.1,5.4c-0.3,0.6-0.9,1-1.6,1c0,0-0.1,0-0.1,0h-61.9c-0.2,0-0.3,0-0.5,0
			c-4.1,0-7.9,2-10.2,5.4c-1.3,1.8-2.2,3.8-3.3,5.7l-9.7,17.3l-4.5,7.8l-5.4,10l-5.2,9.3l-3.3,5.8c-0.6,0.8-0.5,2,0.3,2.6
			c0.2,0.2,0.5,0.3,0.8,0.4c1.6,0.5,3.3,0.8,4.9,0.8c1.2,0,2.5-0.1,3.7-0.4c3.2-0.5,6-2.3,7.8-5c1-1.4,1.7-2.9,2.5-4.3l3.6-6.1
			c0.7-1.1,0.2-2-1.1-2l-10.3,0.1c-0.4-0.1-0.7-0.2-1.1-0.3c0.1-0.3,0.3-0.7,0.5-1c1.1-1.8,2.3-3.4,3.3-5.2l6.2-10.9
			c2.3-4,4.5-8,6.8-11.9l2-3.6c0.4-0.9,1.3-1.5,2.3-1.5c0.1,0,0.2,0,0.3,0c1,0.1,1.9,0.1,2.9,0.1c0.8,0,1.6,0,2.4,0h48.6l10-0.1
			c0.3,0,0.9,0.1,0.9,0.3c0.1,0.4,0,0.8-0.1,1.1l-5.1,8.4L540,76.4l-5.2,8.9l-5.3,9.4c-2.1,3.8-4.3,7.5-6.4,11.2l-4.9,8.5
			c-3.3,5.6-7.6,10.2-13.5,13.1c-2.6,1.4-5.4,2.5-8.3,3.4c-3,0.7-6,1.1-9,1.4c-5.2,0.6-10.5,0.8-15.4,0.8c-5.6,0-10.9-0.2-15.3-0.2
			c-1.3,0-2.6,0-3.8,0.1l0,0c-8.8,0-16.2,0.1-22.9,0.1c-4.9,0-9.5,0-14.1-0.2c-6.2-0.2-12.2-1.8-17.2-6c-2.9-2.2-4.7-5.5-5-9.1
			c-0.3-3.9,0.6-7.7,2.7-11l10.3-18c4.6-7.9,9.1-15.8,13.7-23.8l10.4-17.9l8-14.2l10.2-17c2.3-3.7,5.4-6.7,9.1-9
			c3.4-2,6.8-4,10.8-4.8c1.8-0.3,3.4-1.1,5.2-1.5c1.7-0.3,3.4-0.5,5.1-0.5C486,0.1,492.9,0.1,499.9,0.1 M975.7,2.7
			c0.2,0,0.4,0,0.6,0.1c0.4,0.1,0.8,0.1,1.2,0.1c0.2,0,0.3,0,0.5,0h80.5c0.5,0,0.9,0,1.4,0c2.3,0,4.5,0.2,6.7,0.6
			c4.9,1,9.8,2.4,12.9,6.8c2.7,3.4,3,8,1,11.8c-2.7,5.3-5.7,10.4-8.6,15.6l-5.8,10.2l-6.6,11.5c-2,3.6-4,7.2-6.2,10.7
			c-1.6,2.5-4,4.5-6.8,5.7c-3.2,1.5-6.7,2.3-10.3,2.3c-0.1,0-0.2,0-0.4,0c-0.5,0-1.4,0.5-1.4,0.7c0.1,0.6,0.4,1.2,0.8,1.7
			c0.7,0.8,1.6,1.3,2.3,2c2.1,2.1,3.1,5,2.8,7.9c-0.3,2.2-1,4.3-2.2,6.1c-3.5,6.3-7.2,12.5-10.8,18.7c-2.6,4.6-5.2,9.1-7.8,13.7
			c-0.4,0.8-1.2,1.4-2.1,1.4c0,0,0,0-0.1,0H996l0.1,0.1h-21.4c-1.1,0-1.3-0.4-0.8-1.3l4.6-8l5.9-10.4c3.3-5.9,6.7-11.8,10.1-17.7
			c1.3-2.2,2.6-4.4,3.8-6.7c1.7-3.3,0.7-6.5-2.8-7.9c-1.4-0.6-2.9-0.9-4.5-1c-1.3-0.1-2.6-0.1-3.9-0.1c-1.1,0-2.3,0-3.4,0
			c-0.9,0-1.9,0-2.8,0c-0.1,0-0.2,0-0.2,0c-0.9,0-1.8,0.5-2.3,1.3l-7,12l-6.7,11.4l-7.8,13.5l-8,13.5c-0.4,0.8-1.2,1.4-2.2,1.4
			c0,0,0,0,0,0c-13.1,0-26.2-0.1-39.2-0.1l-4.7,0.1c-0.3,0-0.8-0.1-0.9-0.3c-0.1-0.3,0-0.7,0.2-1l18.8-32.2l7-12.5l8.8-15.2
			l6.5-11.3l9.3-16l6.1-11l9-15.5c2.1-3.6,4.1-7.2,6.1-10.9C973.9,3.2,974.8,2.7,975.7,2.7 M1006.5,51.2L1006.5,51.2L1006.5,51.2
			c1.6-0.1,3.3-0.2,4.9-0.2c1.1,0,2.1,0,3.2,0.1c0.3,0,0.7,0,1,0c2.4,0,4-0.9,5-3.4c1.4-3.2,3.3-6.2,4.8-9.3
			c0.9-1.7,0.7-3.8-0.6-5.3c-1.7-2-4-2.6-6.4-2.6l-11.8-0.1c-0.1,0-0.1,0-0.2,0c-0.9,0-1.7,0.5-2.2,1.3c-0.5,1-1.1,2-1.6,2.9
			l-8,14.2c-0.3,0.6-0.3,1.2-0.1,1.8c0.1,0.3,0.9,0.5,1.5,0.5L1006.5,51.2 M830.8,2.8c0.1,0,0.3,0,0.4,0c0.9,0.1,1.7,0.1,2.6,0.1
			c0.1,0,0.3,0,0.4,0h69.2c0.4,0,0.7,0,1.1,0c2.4,0,4.7,0.1,7.1,0.4c3.5,0.5,6.8,2,9.4,4.4c1.2,1.3,2.1,2.8,2.7,4.4
			c1.7,4.1,0.3,8-1.2,11.9l-5,13.5l-3.4,9.1l-5.5,15.1l-5,13.3l-3,8.3c-1.1,3-2.2,6-3.3,9c-1.8,4.8-3.5,9.5-5.3,14.2
			c-2.7,7.4-5.5,14.8-8.2,22.1c-0.2,0.8-1,1.4-1.8,1.4c-0.1,0-0.1,0-0.2,0H733.3l-3.3-0.1c0.3-0.5,0.7-0.9,1.1-1.3l9.3-8.6
			l10.8-10.7l10.5-10c7.1-6.8,14.1-13.6,21.2-20.3l9.8-9.3l13.3-13.1c3.2-3.1,6.4-6,9.7-9l6.3-5.9c0.5-0.5,1.1-0.7,1.8-0.8h44.4
			c1.8,0,2.3-0.2,2.8-2c0.5-1.4,0.9-2.8,1-4.3c0.1-2.1-1.4-3.6-3.8-3.8c-1.3-0.1-2.6-0.1-4-0.1c-0.2,0-0.4,0-0.5,0h-46.5
			c-0.6,0-1.1,0.1-1.7,0.1c-0.1,0-0.1,0-0.2,0c-1,0-1.2-0.5-0.7-1.3l5.8-9.9l6.7-12.3L829,4C829.3,3.2,830.1,2.8,830.8,2.8
			 M815.3,102.1c0.4,0,0.8,0,1.2-0.1H844c0.1,0,0.3,0,0.4,0c1.2,0,2.2-0.8,2.5-2l1.9-4.8l8-20.3c3.6-9.1,7.3-18.3,10.9-27.4
			c0.3-0.9,0.5-1.8,0.7-2.8l0,0l0,0c0,0,0,0,0,0l-0.3-0.2c-0.4,0.2-0.9,0.4-1.2,0.7c-1.3,1.3-2.6,2.6-3.9,3.9
			c-4.9,5.1-9.9,10.1-14.8,15.2c-3.5,3.6-6.9,7.1-10.3,10.7L816.8,97c-0.9,1-2,1.9-2.8,2.9c-0.3,0.5-0.5,1.1-0.4,1.7
			c0.1,0.3,0.9,0.4,1.4,0.5C815.1,102.1,815.2,102.1,815.3,102.1 M323.8-4.3c-2.5,0-4.8,1.5-5.9,3.7l-8.3,14.9l-3.8,6.5
			c1.5-9.2-1.5-15.5-9.7-20.4c-1.7-1-3.4-1.7-5-2.3c-0.9-0.4-1.8-0.7-2.6-1.1l-0.1,0l-0.1,0c-1.8-0.8-3.8-1.2-5.8-1.2
			c-0.2,0-0.5,0-0.7,0h-36.4h-2.7l0,0h-32.1c-0.5,0-1.1,0-1.6,0c-2.7,0-5.5,0.4-8.1,1.3L201-3l-0.1,0c-1.1,0.4-2.3,0.7-3.6,1.1
			c-1.9,0.5-4,1-6.1,2c-6.5,3.2-11.3,7-14.6,11.9c-3.1,4.4-5.8,9.1-8.5,13.6l-0.2,0.3l0,0l0,0l-7.7,13.6l-9.4,16.1L131,90.3l0,0l0,0
			l-3.2,5.8c-0.7,1.3-1.4,2.5-2.1,3.8c-1.8,3.2-3.7,6.6-5.3,10l0,0.1l0,0.1c-1.7,3.9-1.8,8.2-0.3,12.1c1.9,5.6,6.3,8.7,9.4,10.6l0,0
			l0,0c5.3,3,11.3,4.6,17.3,4.6l0.3,0c18.6,0.1,37.4,0.1,55.6,0.1c0.4,0,0.8,0,1.2,0c6.7,0,13.5-0.6,20.1-1.7
			c4.5-0.8,8.9-2.3,12.9-4.5c3.8-2,7.2-4.7,10.1-7.9l-3.1,5.6c-0.3,0.6-0.5,1.1-0.8,1.6c-0.1,0.2-0.1,0.3-0.2,0.5l-2.3,4.9l5.3,1.1
			c0.9,0.2,1.7,0.3,2.6,0.4l0.1,0h0.1h51.5c0.1,0,0.2,0,0.3,0c2.3,0,4.3-1.2,5.4-3.2l6.9-12l0,0l0,0l5.1-9.1l-1.5,7.7
			c-0.2,1-0.3,1.9-0.5,2.9c-0.4,2.4-0.7,4.4-1.7,6c-1.1,1.7-1.3,3.7-0.4,5.3c0.4,0.8,1.7,2.6,4.7,2.6h0.1l0.1,0l1.1,0
			c1,0,1.9-0.1,2.8-0.1l46.7,0c0.2,0,0.4,0,0.6,0c3.2,0,6.2-1.8,7.6-4.7l6.1-10.6l5.9-10.5c-0.4,2.1-0.6,4.2-0.4,6.3
			c0.4,4.8,2.8,9.2,6.6,12.1c5.3,4.4,11.9,6.7,19.8,6.9c4.2,0.1,8.5,0.2,14.2,0.2c3.2,0,6.5,0,10,0c4.1,0,8.3,0,12.9,0h1l0.1-0.1
			c0.8,0,1.7,0,2.7,0c2.1,0,4.3,0,6.7,0.1c2.8,0.1,5.6,0.1,8.6,0.1c6.1,0,11.2-0.3,15.9-0.8c3.2-0.3,6.4-0.8,9.5-1.5l0.1,0l0.1,0
			c3.1-0.9,6.1-2.2,9-3.7c6.2-3.1,11.2-7.9,15.2-14.8l4.9-8.5c2.1-3.7,4.3-7.5,6.4-11.3l5.2-9.4l5.2-8.9l0,0l0,0l11.1-19.6l5.1-8.4
			l0-0.1l0-0.1c0.7-1.3,0.9-2.9,0.6-4.3l-0.1-0.3l-0.1-0.3c-0.8-1.8-2.6-2.9-4.9-2.9l-10,0.1l-48.6,0c-0.4,0-0.8,0-1.2,0
			c-0.4,0-0.8,0-1.2,0c-0.3,0-0.6,0-1,0c0.2-0.3,0.3-0.5,0.5-0.8l0,0l0,0c1.5-2.2,4-3.5,6.6-3.5c0.1,0,0.2,0,0.3,0l0.1,0h0.1h61.8
			c0.1,0,0.2,0,0.2,0c2.3,0,4.4-1.3,5.4-3.3c0.4-0.7,0.8-1.3,1.2-2c0.7-1.1,1.4-2.2,2-3.5c0.3-0.6,0.6-1.2,0.9-1.7
			c1.2-2.2,2.6-4.7,3.1-7.6c1.5-8.2-1.9-15.3-9.6-19.8c-1.6-1-3.3-1.6-4.9-2.3c-1-0.4-1.8-0.7-2.7-1.1l-0.1,0l-0.1,0
			c-1.8-0.8-3.7-1.2-5.7-1.2c-0.2,0-0.4,0-0.7,0h-31.3c-6.9,0-13.9,0-20.8,0s-13.9,0-20.8,0c-2,0-4,0.2-5.9,0.6
			C472-3.4,471-3,470.1-2.7c-0.8,0.2-1.5,0.5-2.1,0.6c-4.8,0.9-8.9,3.3-12.2,5.3l0,0l0,0c-2.5,1.5-4.7,3.4-6.7,5.5l3-5.1l0-0.1
			l0-0.1c1-1.9,1-3.8,0-5.3l-0.3-0.4l-0.3-0.3c-0.9-0.9-2.2-1.5-3.5-1.6c-0.3,0-0.6-0.1-1-0.1c-0.3,0-0.5,0-0.8,0
			c-0.1,0-0.2,0-0.4,0c-8.5,0-17,0-25.5,0c-8.5,0-17,0-25.5,0l0,0c-1.9,0-3.7,0.8-5,2.2l-0.4,0.4l-0.3,0.5l-4.7,8.3l-6.4,11.5
			l-0.7,1.2c0.5-2.9,0.7-5.8,0.6-8.7c-0.1-2-0.5-3.8-1.2-5.6c-1.5-4.4-4.9-6.8-8-8.6c-1.8-1.1-3.8-1.2-5.6-1.2l-0.4,0l-0.3,0
			l-38.5,0C324-4.3,323.9-4.3,323.8-4.3L323.8-4.3z M184.5,94l8.2-14.4c2.5-4.3,5-8.7,7.4-13l5.5-9.5l0,0l0,0l1.2-2.2
			c1.7-3.1,3.5-6.2,5.2-9.2c0.5-0.8,0.9-1.6,1.3-2.4c1.4-2.6,2.8-5.1,4.7-7c2-2,4.4-3.4,7-4.2c2.2-0.6,4.4-1,6.7-1c1,0,2,0.1,3,0.2
			l0.1,0l0.1,0c2.5,0.2,4.8,1.5,6.3,3.4c0.5,0.7,0.6,1.5,0.3,2.2l0,0.1l0,0.1c-0.8,1.8-1.8,3.6-2.9,5.5c-0.3,0.6-0.7,1.2-1,1.8
			c-3.1,5.5-6.3,11-9.4,16.5l-8.7,15l0,0l0,0l-7.2,12.8c-0.4,0.6-0.7,1.3-1.1,2c-1.2,2.3-2.4,4.4-4,5.9l-0.1,0.1l-0.1,0.1
			c-2.3,2.3-5.1,3.8-8.2,4.5c-1.4,0.3-2.9,0.4-4.4,0.4c-1.8,0-3.6-0.2-5.4-0.6l-0.1,0l-0.1,0c-1.9-0.4-3.6-1.5-4.7-3l0,0l0,0
			c-0.1-0.1-0.3-0.8-0.4-1.2c0-0.1,0-0.1-0.1-0.2C183.9,95.7,184.2,94.8,184.5,94L184.5,94z M464.2,94.8l1.8-3.1l3.5-6.2
			c0.4,0.1,0.7,0.2,1.1,0.2l0.4,0.1l0.4,0l4.9-0.1l-0.9,1.4c-0.3,0.6-0.7,1.1-1,1.7c-0.5,0.9-0.9,1.7-1.4,2.4l0,0l0,0
			c-1.1,1.7-2.9,2.8-4.9,3.2l-0.1,0l-0.1,0c-0.9,0.2-1.8,0.3-2.7,0.3C464.7,94.8,464.5,94.8,464.2,94.8L464.2,94.8z M1293.6-4.3
			c-0.1,0-0.1,0-0.2,0h-26.7h-1l0,0h-25.6c-2.5,0-4.7,1.5-5.6,3.8c-0.5,1-1,2-1.5,2.9l-9.8,16.9l-9.4,16.5l-10.9,18.9
			c-3.9,6.7-7.8,13.5-11.6,20.2l-9.2,16.4l-13.1,22.4l-9.5,16.3c-1.4,2.4-0.6,4.4-0.2,5.1c0.4,0.7,1.7,2.5,4.6,2.5h0l0,0
			c0.5,0,1.1,0,1.6-0.1c0.7,0,1.3,0,1.9,0l47.8,0.1c0.2,0,0.4,0,0.6,0c3.3,0,6.3-1.9,7.8-4.8l7.2-12.6l5.5-9.6l9.2-15.8l0,0l0,0
			l5.1-9.1h5.4l-1.6,2.7l0,0l0,0l-7,12.2l-7,11.8l0,0l0,0c-3.2,5.6-6.4,11.2-9.5,16.8l-0.1,0.1l0,0.1c-0.3,0.7-0.6,1.4-0.9,2.2
			l-1.4,4.4l4.5,1.1l1.6,0.4l0.2,0.1l0.3,0c0.2,0,0.4,0,0.6,0c0.1,0,0.2,0,0.3,0h50.2l0.1,0c1.2,0,5,0,7.2-4l8.7-15.3
			c3.3-5.7,6.7-11.5,10-17.3l7.1-12.2l12.7-22.3l11.6-20.1c3.1-5.4,6.3-10.9,9.4-16.3l8.1-14.2l6.9-11.8c1.2-2,1.2-4.3,0-6
			c-1.2-1.7-3-2-3.8-2.2l-0.2,0l-0.2-0.1l-0.2,0c-0.3,0-0.6,0-1,0c-0.2,0-0.5,0-0.7,0h-48.5c-0.5,0-1,0-1.5,0c-0.5,0-1.1,0-1.6,0.1
			l-0.1,0l-0.1,0c-1.7,0.2-3.2,1.1-4.2,2.4l-0.2,0.3l-0.2,0.3l-4.2,7.5l-6.6,11.6l-8,13.7l0,0l0,0l-6.1,10.9l-5.3,0l5.5-9.6
			c2.5-4.4,5.1-8.9,7.7-13.4c0.6-1,1.1-2,1.7-3c0.9-1.6,1.8-3.3,2.8-5l4.8-8c0.9-1.4,1.4-3.6,0.1-5.6l-0.3-0.5l-0.4-0.4
			C1296.3-3.8,1295-4.3,1293.6-4.3L1293.6-4.3z M975.7-1.6c-2.6,0-4.9,1.6-6,3.9c-1.9,3.5-3.9,7.1-5.9,10.6l-9,15.5l0,0l0,0l-6.1,11
			l-9.3,16l-6.5,11.4l-8.8,15.2l0,0l0,0l-7,12.5l-18.7,32.1c-0.8,1.3-1,2.9-0.6,4.4l0.2,0.6l0.4,0.6c0.9,1.4,2.6,2.2,4.5,2.2h0l0,0
			l4.6-0.1c13,0,26.2,0,39.2,0.1l0,0l0.1,0c2.5,0,4.8-1.4,6-3.7l7.9-13.4l7.8-13.5l6.7-11.3l6.5-11.2c0.6,0,1.3,0,2.1,0
			c0.6,0,1.1,0,1.7,0c0.6,0,1.1,0,1.7,0c1,0,2.3,0,3.7,0.1c1,0.1,2.1,0.3,3.1,0.7c0.6,0.2,0.8,0.5,0.9,0.7c0.1,0.2,0,0.6-0.3,1.2
			c-0.8,1.5-1.6,3-2.5,4.5c-0.4,0.7-0.8,1.4-1.2,2c-3.4,5.9-6.7,11.8-10.1,17.7l-5.8,10.4l-4.6,8c-1.4,2.5-0.7,4.4-0.2,5.3
			c0.5,0.9,1.9,2.5,4.7,2.5h21.4h15.3l-0.1-0.1h6.1l0.1,0c2.5,0,4.9-1.5,6-3.7c2.5-4.5,5.2-9.1,7.7-13.5c1.2-2,2.3-4,3.5-6
			c2.4-4.1,4.9-8.4,7.3-12.7c1.4-2.4,2.3-5,2.7-7.7l0-0.1l0-0.1c0.4-3.2-0.4-6.4-2.2-9.1c2-0.4,3.9-1.1,5.8-2c3.6-1.5,6.6-4,8.7-7.3
			l0,0l0,0c2.1-3.3,4-6.7,5.8-10l0.5-0.8l6.6-11.5l5.8-10.2l1.5-2.6c2.4-4.3,4.9-8.7,7.2-13.2c2.8-5.3,2.3-11.7-1.4-16.4
			c-3.9-5.4-9.8-7.2-15.5-8.4l-0.1,0l-0.1,0c-2.5-0.4-5-0.6-7.5-0.6c-0.5,0-1,0-1.4,0h-80.4h-0.1l-0.1,0c-0.1,0-0.2,0-0.2,0
			c-0.1,0-0.3,0-0.4,0C976.6-1.6,976.1-1.6,975.7-1.6L975.7-1.6z M1006.5,36.8c0.4-0.7,0.8-1.4,1.2-2.1l10.8,0.1
			c2,0,2.7,0.6,3.2,1.1c0.1,0.1,0.1,0.3,0.1,0.4l-0.1,0.1l0,0.1c-0.6,1.3-1.3,2.6-2.1,3.9c-1,1.8-2,3.6-2.8,5.6
			c-0.3,0.6-0.4,0.8-0.4,0.8c0,0,0,0,0,0c0,0-0.2,0.1-0.6,0.1c-0.2,0-0.4,0-0.6,0c-1.1-0.1-2.2-0.2-3.6-0.2c-0.9,0-1.7,0-2.6,0
			c-0.8,0-1.6,0-2.4,0h-4.3v0.1l-1.3,0L1006.5,36.8L1006.5,36.8z M830.8-1.6c-2.5,0-4.7,1.4-5.7,3.6l-1.8,3.2l-6.7,12.2l-5.8,9.8
			c-1.5,2.5-0.7,4.6-0.2,5.3c0.4,0.7,1.7,2.5,4.6,2.5c0.1,0,0.2,0,0.3,0c0.4,0,0.7,0,1.1,0c0.2,0,0.4,0,0.6,0h46.5l0.3,0h0.3
			c1.2,0,2.3,0,3.4,0.1c-0.1,0.5-0.2,1-0.4,1.5h-43.5h-0.2l-0.2,0c-1.6,0.1-3.2,0.8-4.4,2l-6.3,5.9c-1.1,1-2.3,2.1-3.4,3.1
			c-2.1,1.9-4.2,3.9-6.3,5.9l-13.3,13.1l-9.8,9.3c-7.1,6.8-14.1,13.6-21.2,20.4l-10.5,10l0,0l0,0L737.4,117l-9.3,8.6l-0.1,0.1
			l-0.1,0.1c-0.5,0.5-1,1.1-1.4,1.7l-4.8,6.7l8.2,0.1l3.3,0l0,0h0h148.3c0.1,0,0.2,0,0.3,0c2.7,0,5.1-1.8,5.9-4.3
			c2.7-7.3,5.4-14.7,8.2-22c1.8-4.7,3.5-9.5,5.3-14.3c1.1-3,2.2-6,3.3-9l3-8.3l5-13.3l5.5-15.1l3.4-9.1l5-13.5l0-0.1
			c1.5-4.1,3.5-9.3,1.1-14.9c-0.8-2.2-2-4.1-3.6-5.8l-0.1-0.1l-0.1-0.1c-3.3-3-7.3-4.9-11.7-5.5l0,0l0,0c-2.5-0.3-5-0.4-7.6-0.4
			c-0.4,0-0.7,0-1.1,0h-69.2h0l0,0c-0.1,0-0.2,0-0.4,0c-0.7,0-1.3,0-2-0.1C831.5-1.5,831.2-1.6,830.8-1.6L830.8-1.6z M822,97.7
			L841,78.1c3.4-3.6,6.9-7.2,10.3-10.7l6.7-6.9l-5.1,12.9l-8,20.3l-1.6,4H822L822,97.7z"/>
	</g>
	<g>
		<path class="st1" d="M100.1,135.1c-0.1,0-0.2,0-0.4,0l-44.8-0.1l-4,0H3c0,0-2.1,0-2.1,0c-1.3,0-2.2-0.4-2.7-1.3
			c-0.5-0.9-0.5-1.9,0.2-3l4-7l8.3-14.3l7.5-12.8l3.8-7.1l4.9-8.3l2.8-5.2l4.3-7.2c0,0,2.5-4.5,3.7-6.8l6.6-11.4
			c1.1-1.8,2.1-3.7,3.1-5.5c0.9-1.6,1.8-3.2,2.7-4.8l4.8-8.3c0.6-0.9,1.1-1.9,1.6-2.8c0.4-0.8,0.8-1.5,1.3-2.3l3.7-6.3l3.3-5.8L71,4
			c0.6-1.1,1.2-2.2,1.7-3.3c0.5-1.5,2-2.6,3.7-2.6c0.1,0,0.2,0,0.3,0h62.4c1.6,0,2.3,0.8,2.6,1.3c0.4,0.6,0.6,1.6-0.1,3l-5.4,9.3
			l-10.9,19l-7.2,13.2c-1.2,2.2-2.5,4.3-3.7,6.4c-0.8,1.4-1.7,2.8-2.5,4.2l-4.7,8.3l-7.5,13l-3.4,6l-5,8.4c-0.4,0.6-0.7,1.3-1.1,2.1
			c-0.3,0.6-0.7,1.3-1,1.9c-0.3,0.5-0.7,1.1-1,1.6c-0.3,0.5-0.6,1-0.9,1.4h31.1c0.3,0,0.7,0,1,0c0.4,0,0.8,0,1.2,0l0.1,0
			c0.8,0,1.5,0.3,2.1,0.8l0.4,0.4l0.2,0.5c0.3,0.9,0.2,1.8-0.3,2.6c-2.6,4.5-5.2,9-7.9,13.5l-6,10.2c-1.3,2.2-2.6,4.4-3.8,6.6
			C104.5,133.8,102.4,135.1,100.1,135.1z"/>
		<path class="st2" d="M76.5,0.2c0.1,0,0.1,0,0.2,0h62.5c0.9,0,1,0.4,0.6,1.2l-5.4,9.3l-4.4,7.7l-6.5,11.3l-7.2,13.2
			c-2,3.6-4.2,7-6.2,10.5l-4.7,8.3l-7.5,12.9l-3.4,6l-5,8.4c-0.8,1.3-1.4,2.7-2.1,4c-0.7,1.1-1.5,2.2-2.1,3.3
			c-0.4,0.7-0.5,1.4-0.4,2.2c0.1,0.4,1.2,0.7,1.8,0.7h31.8c0.8,0,1.5-0.1,2.3-0.1c0,0,0,0,0.1,0c0.2,0,0.5,0.1,0.7,0.3
			c0.1,0.3,0,0.5-0.1,0.8c-2.6,4.5-5.3,9-7.9,13.5l-6,10.2c-1.3,2.2-2.6,4.5-3.9,6.8c-0.6,1.4-2,2.3-3.5,2.3c-0.1,0-0.2,0-0.3,0
			l-49-0.1l0,0H3l-2.2,0c-0.9,0-1-0.3-0.6-1.1l4-6.9l8.3-14.3L20,97.9l3.8-7.2l4.9-8.2l2.9-5.3l4.2-7.1c0,0,2.5-4.6,3.8-6.8L46.2,52
			c2-3.4,3.8-6.9,5.8-10.3l4.8-8.2c1-1.7,1.9-3.4,2.9-5.1l3.7-6.3l3.3-5.8l6-10.7c0.7-1.3,1.5-2.6,2.1-4C75,0.7,75.7,0.2,76.5,0.2
			 M76.5-4.1c-2.5,0-4.8,1.6-5.7,3.9c-0.5,1-1,2-1.6,3.1l-0.3,0.5l-6,10.7l-3.3,5.8L56,26.1c-0.5,0.8-0.9,1.6-1.3,2.4
			c-0.5,1-1,1.9-1.5,2.8l-4.8,8.2c-1,1.7-1.9,3.3-2.7,4.9c-1,1.8-2,3.6-3.1,5.4l-6.6,11.4c-1.2,2.2-3.5,6.2-3.8,6.8l-4.2,7l0,0.1
			l0,0.1L25,80.4l-4.8,8.2l0,0.1l0,0.1l-3.8,7.1l-7.5,12.7l-8.3,14.3l-4,6.9l0,0l0,0c-1.3,2.4-0.7,4.3-0.1,5.1
			c0.5,0.9,1.8,2.4,4.5,2.4h0.1l0,0l2.1,0h47.8h10.4l0,0l38.4,0.1c0.1,0,0.3,0,0.4,0c3.2,0,6-1.8,7.3-4.7c1.2-2.2,2.4-4.3,3.7-6.4
			l6-10.2c2.6-4.5,5.3-9,7.9-13.5c0.8-1.3,1-2.9,0.5-4.4l-0.4-1.1l-0.9-0.8c-1-0.9-2.2-1.3-3.5-1.3c0,0-0.1,0-0.1,0
			c-0.4,0-0.8,0-1.3,0c-0.3,0-0.6,0-0.9,0H91.2c0.3-0.6,0.6-1.2,0.9-1.7c0.4-0.7,0.7-1.3,1-1.9l5-8.4l0,0l0,0l3.4-6l7.5-12.9
			l4.7-8.3c0.8-1.4,1.6-2.8,2.5-4.2c1.2-2.1,2.5-4.2,3.7-6.4l0,0l0,0l7.2-13.2l6.5-11.3l4.4-7.7l5.4-9.3l0,0l0,0
			c1.3-2.4,0.6-4.3,0.1-5.2c-0.4-0.7-1.7-2.4-4.5-2.4H76.8C76.7-4.1,76.6-4.1,76.5-4.1L76.5-4.1z"/>
	</g>
	<g>
		<path d="M1107.7,132.4c-4.2,0-8.3,0-12.5-0.1c-4.2,0-8.3-0.1-12.5-0.1c-3.3,0-6.2,0-9,0.1c-0.8,0-1.7,0.1-2.6,0.1
			c-1.7,0-3.4-0.1-5.1-0.2c-5.3-0.6-10.9-1.6-15.6-5.3c-5.1-4-6.6-9.7-4.2-15.7c1.7-3.7,3.6-7.2,5.6-10.5l6.4-11.4l7.3-12.7
			l6.9-12.1l9.4-16.2l6-10.6c1.9-3.3,3.8-6.7,5.7-10c0.5-0.8,0.9-1.6,1.4-2.4c1.2-2,2.3-4.1,3.6-6.1c3.2-5,6.9-10.1,12.6-13.1
			c2.5-1.3,5.1-2.3,7.8-3c7.9-2.2,16-2.2,23.9-2.3l15.7,0l1.3,0h24.5l0.8,0c3.1,0,6.3,0.2,9.4,0.5c4.7,0.4,9.2,2.2,12.9,5.1
			c2.4,1.9,3.5,4.5,4.4,6.7c1.5,3.5,0.5,6.7-0.7,9.3c-0.9,2-1.9,3.9-3,5.8c-0.4,0.8-0.8,1.5-1.2,2.3c-0.7,1.6-2.3,2.7-4,2.7l-0.1,0
			c-11.2,0-22.4-0.1-33.6-0.1l-4.9,0l-14.6,0.1c-2.2,0-4.4,0.6-6.4,1.6c-2.5,1.4-4.4,3.6-6.1,7.1c-1.7,3.3-3.6,6.6-5.4,9.7
			c-0.7,1.2-1.4,2.4-2.1,3.6l-6.8,12L1115,81l-8,14.3c-0.5,0.9-0.5,1.9-0.2,2.7c0.3,0.7,1,1.2,2,1.4c1.6,0.4,3.1,0.7,4.7,0.7l50.4,0
			c0.3,0,0.5,0,0.8,0c0.3,0,0.7,0,1,0c0.1,0,0.2,0,0.4,0c1.1,0.1,2.1,0.6,2.5,1.6c0.4,0.9,0.4,1.9-0.2,2.8c-0.8,1.3-1.5,2.6-2.3,3.9
			c-1.9,3.2-3.8,6.5-6,9.6c-3.3,5-8.3,8.9-14.1,11c-3.6,1.3-7.5,2.2-11.3,2.6C1124.7,132.3,1115,132.4,1107.7,132.4z"/>
		<path class="st2" d="M1185.1,2.9c3.1,0,6.1,0.2,9.2,0.5c4.3,0.4,8.4,2,11.8,4.6c1.9,1.5,2.8,3.7,3.8,5.9c1.2,2.7,0.3,5.2-0.7,7.6
			c-1.2,2.8-2.8,5.4-4.2,8.1c-0.3,0.9-1.2,1.4-2.1,1.4c0,0,0,0-0.1,0c-11.3,0-22.5-0.1-33.8-0.1c-1.6,0-3.2,0-4.8,0l-14.4,0.1
			c-0.1,0-0.1,0-0.2,0c-2.6,0-5.1,0.7-7.4,1.9c-3.2,1.8-5.3,4.7-7,8c-2.3,4.5-4.9,8.9-7.4,13.3c-2.3,4-4.5,8-6.8,12l-7.9,13.7
			l-8,14.3c-1.5,2.8-0.6,6.4,3.2,7.3c1.7,0.5,3.4,0.7,5.2,0.8h50.5c0.6,0,1.2-0.1,1.7-0.1c0.1,0,0.2,0,0.3,0c0.6,0,1,0.5,0.6,1
			c-2.7,4.5-5.3,9.1-8.2,13.5c-3.1,4.7-7.7,8.3-13,10.1c-3.5,1.3-7.1,2.1-10.8,2.4c-8.9,0.8-17.8,1-26.8,1c-8.3,0-16.6-0.2-24.9-0.2
			c-3,0-6,0-9.1,0.1c-0.8,0-1.7,0.1-2.5,0.1c-1.6,0-3.3-0.1-4.9-0.2c-5.1-0.6-10.2-1.6-14.4-4.9s-5.7-8-3.6-13.2
			c1.6-3.5,3.5-6.9,5.5-10.2l6.5-11.5l7.3-12.7l6.9-12.1l9.4-16.2l6-10.6c1.9-3.3,3.8-6.7,5.7-10c1.6-2.8,3.2-5.7,4.9-8.5
			c3.1-4.9,6.5-9.5,11.8-12.3c2.3-1.2,4.8-2.1,7.3-2.8c7.7-2.1,15.7-2.2,23.6-2.2h16.7l0,0h24.5C1184.6,2.9,1184.8,2.9,1185.1,2.9
			 M1185.1-1.4c-0.3,0-0.6,0-0.8,0l-24.4,0h-2.6l0,0h-14l-0.4,0c-8,0-16.3,0.1-24.4,2.4c-2.8,0.8-5.5,1.8-8.1,3.1l0,0l0,0
			c-6.2,3.2-10.1,8.6-13.4,13.8c-1.3,2.1-2.5,4.2-3.7,6.2c-0.5,0.8-0.9,1.6-1.4,2.4c-1.9,3.3-3.8,6.7-5.7,10l-6,10.6l-9.3,16.1
			l-6.9,12.1l-7.3,12.7l-6.5,11.4c-2.1,3.4-4,7-5.7,10.6l0,0.1l0,0.1c-2.8,6.8-1,13.6,4.9,18.2c5.1,4,11,5.2,16.6,5.8l0.1,0l0.1,0
			c1.7,0.1,3.5,0.2,5.3,0.2c0.9,0,1.8,0,2.7-0.1c2.7-0.1,5.7-0.1,8.9-0.1c4.1,0,8.4,0,12.4,0.1c4.1,0,8.3,0.1,12.5,0.1
			c7.4,0,17.2-0.1,27.1-1c4.1-0.4,8.1-1.3,11.9-2.7c6.1-2.2,11.5-6.4,15.1-11.8c2.2-3.2,4.2-6.5,6.1-9.7c0.8-1.3,1.5-2.6,2.3-3.8
			c1-1.5,1.1-3.4,0.3-4.9c-0.8-1.6-2.5-2.7-4.4-2.7c-0.2,0-0.3,0-0.5,0c-0.4,0-0.8,0-1.1,0c-0.2,0-0.4,0-0.6,0h-50.4
			c-1.4,0-2.8-0.3-4.1-0.6l-0.1,0l-0.1,0c-0.3-0.1-0.5-0.2-0.5-0.2c0-0.1-0.1-0.4,0.1-0.8l8-14.2l7.9-13.7l3.8-6.7l3-5.3
			c0.7-1.2,1.4-2.4,2.1-3.7c1.8-3.2,3.7-6.4,5.4-9.8l0,0l0,0c1.5-3.1,3.2-5,5.2-6.2c1.6-0.9,3.5-1.4,5.3-1.4l0.1,0l0,0l0,0l14.4-0.1
			l4.8,0c11.2,0,22.5,0,33.7,0.1c0,0,0.1,0,0.1,0c2.6,0,4.9-1.5,6-3.9c0.4-0.7,0.8-1.5,1.2-2.2c1-1.9,2.1-3.9,3-6
			c1.4-3.1,2.6-6.8,0.8-11.1c-1-2.4-2.3-5.4-5.1-7.6c-4.1-3.2-8.9-5.1-14.1-5.6C1191.6-1.3,1188.3-1.4,1185.1-1.4L1185.1-1.4z"/>
	</g>
</g>
</svg>
