<?xml version="1.0" encoding="UTF-8"?>
<svg id="Layer_4" data-name="Layer 4" xmlns="http://www.w3.org/2000/svg" viewBox="0 0 389.19 229.04">
  <defs>
    <style>
      .cls-1 {
        fill: #000;
        stroke-width: 0px;
      }
    </style>
  </defs>
  <path class="cls-1" d="M125.45,129.48c-36.49,0-72.97,0-109.46,0-2.45,0-2.85-.35-2.85-2.73,0-20.32,0-40.64,0-60.96,0-1.9.72-2.65,2.64-2.65,5.76,0,11.53.06,17.29.05,7.52,0,15.03-.07,22.55-.07,59.34,0,118.68,0,178.02.02.55,0,1.11-.02,1.65.03,1.49.14,2.14.82,2.18,2.33.04,1.8.01,3.6.02,5.41,0,18.52,0,37.04,0,55.56,0,2.69-.31,3-3.03,3-36.33,0-72.67,0-109,0v.03Z"/>
  <path class="cls-1" d="M236.02,141.9c.62-.13,1.25-.36,1.87-.36,3.36-.04,6.72-.02,10.08-.02,2.39,0,2.73-.35,2.73-2.8-.01-13.32-.03-26.63-.04-39.95,0-3.1-.05-6.21-.01-9.31.02-1.66.13-3.46,1.76-4.37,1.06-.59,2.41-1.02,3.61-.97,4.65.19,9.3.59,13.95.92,6.1.43,12.2.87,18.29,1.31,1.92.14,2.08.33,2.08,2.3,0,13.67,0,27.33,0,41,0,.6-.01,1.2.04,1.8.15,1.84,1.21,2.96,3.04,3.07,1.55.09,3.11.09,4.66,0,2.3-.13,3.2-1.11,3.21-3.45.02-10.06.02-20.13.02-30.19,0-3.4,0-6.81,0-10.21,0-1.56.58-1.89,1.94-1.1,3.96,2.28,7.34,5.18,9.69,9.16.71,1.21,1.64,1.75,3.14,1.82,6,.28,12,.66,17.99,1.16,3.17.26,5.08,2.16,6.07,5.2.99,3.03,2.25,5.97,3.39,8.96.39,1.02.74,2.06,1.18,3.07.42.95,1.17,1.35,2.26,1.41,8.75.52,17.5,1.1,26.26,1.66,1.83.12,3.58.44,4.99,1.75,1.2,1.11,1.89,2.45,1.89,4.09,0,6.66.07,13.32-.1,19.97-.05,2.22-.5,4.5-1.2,6.62-.3.9-1.62,1.93-2.59,2.05-2.42.31-4.9.19-7.35.13-.39,0-.98-.54-1.11-.95-.48-1.52-.71-3.12-1.22-4.63-.71-2.11-1.18-4.46-2.47-6.17-1.99-2.64-4.62-4.67-8.35-4.48-2.65.14-5.31-.01-7.97.05-3.94.09-7.98,3.22-9.1,7.02-.78,2.63-1.52,5.27-2.19,7.93-.22.89-.63,1.29-1.53,1.28-1.75-.01-3.51,0-5.26,0-2.03.01-2.18.17-2.21,2.25,0,.5,0,1-.02,1.5-.09,1.82-.88,2.66-2.7,2.68-3.86.05-7.72.04-11.58.04-4.31,0-8.62,0-12.93,0-2.15,0-2.99-.18-3.22-3.24-.01-.15,0-.3,0-.45.01-2.57-1.39-3.61-3.81-2.67-.46.18-.79,1.03-.94,1.63-.28,1.14-.23,2.38-.63,3.46-.2.53-1.05.89-1.67,1.18-.38.18-.89.09-1.34.09-7.87,0-15.74-.08-23.61.02-2.47.03-3.34-1.13-3.38-3.47,0-.5-.01-1,0-1.5.01-1.08-.56-1.54-1.59-1.54-1.4,0-2.81,0-4.21-.01-2.43-.02-3.71-.93-4.3-3.33-.31-1.29-.97-1.72-2.21-1.68-1.8.05-3.61-.04-5.41.04-1.11.05-1.92-.36-2.23-1.38-1.02-3.25-2.91-5.85-5.66-7.87,0-.17,0-.35,0-.52ZM323.58,112.27c0,1.8-.04,3.6.01,5.4.06,2.07.58,2.62,2.58,2.7,3.3.13,6.61.21,9.91.25,1.94.03,2.58-.7,2.22-2.6-.6-3.14-1.19-6.29-2.05-9.36-.36-1.28-.66-3.04-2.5-3.2-2.79-.25-5.59-.35-8.4-.46-1.23-.05-1.82.62-1.79,1.87.03,1.8,0,3.6,0,5.4ZM319.92,112.31c0-1.85-.02-3.7,0-5.55.01-1.07-.59-1.53-1.53-1.7-1.53-.27-2.59.47-2.66,2.05-.14,2.94-.21,5.89-.16,8.84.01.85.3,1.91.87,2.46.58.57,1.66.87,2.51.85,1.08-.02.97-1.06.97-1.86,0-1.7,0-3.4,0-5.1Z"/>
  <path class="cls-1" d="M125.43,132.32c16.69,0,33.38,0,50.07,0,19.19,0,38.38.02,57.57.03.75,0,1.5-.1,2.25-.1,1.26,0,2.14.49,2.18,1.91.05,1.39-.57,2.11-2.09,2.13-3.66.05-7.32.03-10.97,0-.95,0-1.75.09-2.23,1.12-.16.34-.78.61-1.22.66-.99.11-2,.12-3,.08-1.63-.06-3.07.02-4.26,1.52-.98,1.24-4.17.64-5.18-.61-.36-.44-1.01-.8-1.58-.88-1.03-.15-2.1-.12-3.15-.07-1.38.06-2.67.14-3.52-1.34-.21-.36-1.07-.48-1.63-.48-24.71-.03-49.41-.03-74.12-.03-1.91,0-2.26.28-2.31,2.24-.04,1.44-.64,2.14-2.11,2.03-.6-.04-1.2-.03-1.8-.05-1.23-.04-1.23-.97-1.3-1.82-.19-2.26-.33-2.38-2.64-2.38-16.89,0-33.78,0-50.66,0-2.5,0-2.63.09-2.84,2.49-.11,1.18-.54,1.9-1.87,1.75-.45-.05-.9-.05-1.35,0-1.34.13-1.91-.46-1.97-1.79-.12-2.33-.27-2.44-2.54-2.44-9.92,0-19.84,0-29.77,0-2.12,0-2.42.25-2.54,2.34-.08,1.36-.66,2.04-2.07,1.89-.4-.04-.8-.03-1.2,0-1.33.1-2-.51-1.95-1.83.06-1.28-.36-2.11-1.59-2.75-.53-.28-.92-1.46-.81-2.14.09-.56.98-1.34,1.58-1.41,1.73-.19,3.49-.08,5.25-.08,20.4,0,40.79.01,61.19.02,14.73,0,29.46,0,44.2,0v-.02Z"/>
  <path class="cls-1" d="M213.86,154.95c-.16-6.81,5.44-12.83,12.07-13.3,7.99-.56,14.06,5.67,14.2,12.61.15,7.7-5.26,13.59-12.93,13.79-6.86.18-13.23-5.3-13.34-13.1ZM232.38,154.93c.02-2.8-2.66-5.56-5.4-5.58-2.63-.02-5.17,2.62-5.19,5.4-.02,2.86,2.46,5.53,5.17,5.56,2.66.03,5.4-2.69,5.42-5.38Z"/>
  <path class="cls-1" d="M365.18,155.15c.09,7.25-6.46,13.05-13.34,12.95-7.04-.1-13.07-6.33-12.92-13.41.16-7.42,6.36-13.48,13.99-13.05,6.64.37,12.57,6.22,12.27,13.52ZM357.41,154.69c-.03-2.67-2.69-5.33-5.33-5.33-2.68,0-5.4,2.77-5.37,5.45.03,2.77,2.68,5.49,5.34,5.49,2.77,0,5.4-2.75,5.37-5.62Z"/>
  <path class="cls-1" d="M195.99,141.65c6.85-.16,13.11,5.6,13.06,13.29-.05,7.69-6.43,13.19-13.14,13.13-7.62-.07-13.09-6.16-13.12-13.03-.04-7.58,5.98-13.63,13.21-13.38ZM201.2,154.8c0-2.85-2.5-5.47-5.25-5.51-2.85-.04-5.11,2.52-5.18,5.66-.07,3.33,3.06,5.32,5.2,5.34,2.78.03,5.24-2.59,5.24-5.49Z"/>
  <path class="cls-1" d="M75.42,168.05c-7.55-.16-13.11-5.98-12.92-13.48.19-7.25,5.79-12.86,13.31-12.82,6.74.04,12.96,5.82,12.82,13.43-.13,7.45-6.48,13.15-13.22,12.87ZM80.84,154.95c.01-2.87-2.5-5.46-5.28-5.45-2.82,0-5.06,2.37-5.1,5.38-.04,2.88,2.37,5.5,5.03,5.48,2.82-.02,5.34-2.57,5.35-5.41Z"/>
  <path class="cls-1" d="M40.88,168.06c-7.56-.14-13.06-5.85-12.94-13.41.12-7.48,5.93-13.08,13.47-12.86,7.24.21,12.59,5.97,12.63,13.02.04,7.74-6,13.3-13.15,13.25ZM35.65,154.98c.02,2.81,2.66,5.42,5.42,5.36,2.65-.06,5.09-2.62,5.08-5.34-.01-2.96-2.45-5.54-5.21-5.52-2.73.02-5.3,2.7-5.28,5.51Z"/>
  <path class="cls-1" d="M292.14,107.63c0-7.55,0-15.1,0-22.66,0-2.17.45-2.64,2.64-2.65.8,0,1.6.06,2.4.04,1.91-.06,2.62.61,2.62,2.56,0,9.6-.01,19.21-.01,28.81,0,5.4.01,10.8.01,16.21,0,2.62-.54,3.14-3.19,3.09-.6-.01-1.2-.01-1.8-.01-2.28.02-2.58-.24-2.59-2.58-.02-7.6,0-15.2,0-22.81-.02,0-.05,0-.07,0Z"/>
  <path class="cls-1" d="M84.03,142.16c.95-.23,1.47-.46,2-.47,11.32-.04,22.64-.06,33.95-.07,1.84,0,2.19.36,2.22,2.21.03,2,.02,4-.01,6-.02,1.16-.5,1.85-1.81,1.85-9.46,0-18.93.03-28.39-.03-.58,0-1.47-.63-1.67-1.17-1.19-3.26-3.05-6.01-6.28-8.33Z"/>
  <path class="cls-1" d="M31.91,142.06c-1.54,1.95-3.02,3.73-4.36,5.59-.51.7-.73,1.62-1.04,2.45-.42,1.1-1.09,1.67-2.37,1.62-2.25-.09-4.5-.07-6.75-.03-1.19.02-1.77-.47-1.77-1.66,0-2.25,0-4.49,0-6.74,0-1.21.63-1.67,1.79-1.66,4.4.03,8.79.02,13.19.06.48,0,.95.26,1.31.36Z"/>
  <path class="cls-1" d="M66.7,142.14c-1.38,1.6-2.8,3.05-3.98,4.68-.8,1.12-1.33,2.45-1.85,3.74-.33.84-.79,1.19-1.68,1.13-.7-.05-1.43.11-2.09-.05-.49-.11-1.14-.49-1.31-.91-1.26-3.22-2.96-6.09-5.81-8.16-.07-.05-.07-.18-.1-.27,1.01-.85,15.31-1,16.82-.18Z"/>
  <path class="cls-1" d="M187.19,142.15c-3.19,2.39-5.04,5.26-6.33,8.58-.17.44-1.07.81-1.65.85-3.16.17-3.28,0-3.29-3.17,0-1.75-.03-3.5-.04-5.25,0-.95.44-1.56,1.41-1.57,2.8-.03,5.6-.02,8.4.02.4,0,.79.28,1.49.54Z"/>
  <path class="cls-1" d="M218.23,142.28c-3.3,2.3-5.29,5.36-6.55,9.17-1.93-3.3-3.37-6.85-6.68-8.97.89-1.11,11.58-1.34,13.23-.2Z"/>
  <path class="cls-1" d="M297.58,75.04c0,1.35,0,2.7,0,4.05,0,.2.09.46,0,.59-.48.69-1,1.34-1.5,2.01-.65-.67-1.82-1.3-1.86-2.01-.2-3.18-.12-6.39-.07-9.59.02-1.08.9-1.38,1.8-1.39.99-.02,1.61.48,1.62,1.55,0,1.6,0,3.2,0,4.8,0,0,.01,0,.02,0Z"/>
</svg>