<?xml version="1.0" encoding="UTF-8"?>
<svg id="Super_Cargo" data-name="Super Cargo" xmlns="http://www.w3.org/2000/svg" version="1.1" viewBox="0 0 525.7 101.4">
  <defs>
    <style>
      .cls-1 {
        fill: #be1e2d;
        fill-rule: evenodd;
        stroke-width: 0px;
      }
    </style>
  </defs>
  <path class="cls-1" d="M516.5,37.6c-2.1-8.2-6.1-15.2-12.8-20.5-6.8-5.4-14.8-7.5-23.3-7-8.2.5-15.6,3.5-21.6,9.4-.4.4-.7.5-.8-.2-.4-1.8-1.5-3-2.9-4.1-2.3-1.8-5.1-2.4-7.8-3.1-7.2-1.9-14.5-2.3-21.9-.9-8,1.6-15,4.9-20.8,10.7-.6.6-.8.3-1.1-.2-2-3.2-4.9-5.5-8.2-7.2-4.2-2.3-9-3.2-13.7-3.7-7.5-.7-14.9-.2-22.3,1-1.7.3-3.4.5-4.9,1.4-3.1,1.8-4,4.8-4.2,8-.2,3.7,0,7.3,0,11-.3-.3-.4-.7-.5-1.1-1.3-4.9-2.6-9.9-4.1-14.8-.7-2.2-2.3-3.7-4.5-4.5-1.8-.6-3.7-.9-5.7-.9-3.9,0-7.8,0-11.6,0-1.9,0-3.7.2-5.6.7-2.8.8-4.5,2.5-5.4,5.2-.3,1-.4,2.2-1,3.3-.4-1.1-.4-2.1-1-3-1.3-2.1-3.2-3.5-5.5-4.3-8.8-3-17.6-3.8-26.7-1.4-6.9,1.8-12.7,5.1-17.6,10.1-7.8,8-10.7,18-11.5,28.8-.4,5.4.4,10.7,1.7,16,2.8,11.3,9.1,19.9,19.8,24.7,9,4,18.5,4.7,28.1,2.3.9-.2,1.7-.3,2.6,0,.9.3,1.9.4,2.9.4,2.8,0,5.7,0,8.5,0,2.1,0,4.1-.1,6-.7,2.7-.8,4.5-2.5,5.2-5.2.7-2.8,1.4-5.6,2.1-8.4.7-2.8.7-2.8,3.6-2.7.7,0,1,.2,1.1.9.9,3.5,1.8,6.9,2.8,10.4.4,1.5,1.3,2.6,2.4,3.6,1.8,1.6,4.1,2,6.4,2,5.8,0,11.5,0,17.3,0s5.4,0,8.2,0c2,0,4-.2,5.9-.7,1.5-.4,2.6-1.3,3.6-2.4,1.3-1.3,1.5-3.1,2.1-4.8.3.9.6,1.7.9,2.6,1,2.1,2.4,3.8,4.7,4.5,2,.7,4.1.9,6.2.8,3,0,5.9,0,8.9,0,3.8,0,7-1.2,8.8-4.8.2-.5.4-.4.8-.2,6.4,4,13.6,5.4,21,5.7,8.1.3,15.9-1.7,23.6-4.2,1.5-.5,2.9-1.5,3.7-2.9.6-.9.9-.8,1.7-.2,5.1,4.5,11.3,6.4,17.9,7.3,5.8.8,11.4-.4,16.8-2.3,7.6-2.7,13.1-7.9,17.2-14.8,4.1-7,5.6-14.8,6.2-22.8.4-5.8-.5-11.4-1.9-17ZM306.6,39.3c0,0,.2-.2.3,0,0,0,0,0-.1.1-.7,3.6-1.8,7-2.7,10.5-1.1,4.2-2.2,8.4-3.3,12.6-.2.7-.5,1-1.2,1.2-3.1.8-6.2,1.8-9.5,1.8-6,0-8.8-3.9-9.6-8.9-.5-2.8-.5-5.8,0-8.6.6-3.8,2.3-7,6.2-8.6.9-.4,1.9-.4,2.8-.5,2.6,0,5.1.2,7.5,1.3,2.4,1.1,5,1.3,7.7.3.8-.3,1.4-1,2.1-1.3ZM302.3,83.9c-2.5,1.1-5.2,1.7-7.9,2-5.7.7-11.3.6-16.8-1.2-9.6-3.1-15.3-10-18.1-19.5-1.1-3.9-1.6-8-1.5-10.8,0-9.1,1.6-16.6,6-23.1,5.2-7.6,12.5-11.7,21.5-12.8,5.5-.6,10.9-.2,16.2,1.7,2.2.8,2.2.8,1.7,3.1-.6,2.9-1.3,5.8-1.9,8.6-.2.9-.4,1.2-1.4.7-4.3-1.9-8.8-2.5-13.5-1.7-6.3,1.1-10.7,4.7-12.9,10.5-2.8,7.1-2.8,14.4,0,21.5,2.6,6.8,8.5,10.7,15.8,10.8,3.8,0,7.4-.5,10.9-1.8.5-.2.8-.3.9.4.6,3.5,1.2,6.9,1.8,10.4.1.7-.4.8-.8,1ZM342.4,85.3c-.7,0-.8-.4-.9-.9-1.3-4.9-2.6-9.8-3.8-14.7-.2-1-.6-1.4-1.7-1.4-4.7,0-9.3,0-14,0-.8,0-1.1.2-1.3,1.1-1.1,4.9-2.4,9.8-3.5,14.8-.2.8-.5,1.1-1.4,1.1-4.1,0-8.2,0-12.5,0,.6-2.3,1.2-4.5,1.8-6.7,5.2-19.4,10.4-38.7,15.5-58.1.2-.9.6-1.2,1.6-1.2,5,0,10,0,15,0s1,0,1.2.7c5.8,21.6,11.7,43.2,17.6,64.8,0,.1,0,.2,0,.4-4.5,0-9,0-13.5,0ZM402,85.3c-4.2,0-8.5,0-12.7,0-.6,0-.8-.4-.9-.8-1.2-3.1-1.8-6.4-2.6-9.7-.7-3.1-1.1-6.2-2.1-9.2-1.5-4.5-3.8-6.2-8.6-6.2-1.1,0-2.6-.5-3.2.2-.5.6-.2,2.1-.2,3.1,0,7.2,0,14.3,0,21.5,0,.9-.2,1.2-1.1,1.1-3.6,0-7.3,0-10.9,0-.8,0-1-.2-1-1,0-21.1,0-42.1,0-63.2,0-.7.1-1,.9-1.1,7.5-1.1,15-1.5,22.6-.9,3.2.3,6.2,1,9.1,2.5,5.4,2.8,7.9,7.4,8.6,13.3.7,6.2-.8,11.7-5.4,16.2-1.4,1.3-2.9,2.3-4.8,3.1,5.4,3,6.8,8.3,8.1,13.6,1.4,5.7,2.5,11.5,4.3,17.2,0,0,0,.2,0,.3ZM452.1,81.4c0,.7-.2,1.1-.9,1.3-7.9,2.8-15.9,4-24.2,3-12.4-1.5-21-8.8-24.2-21-2.7-10.3-2.2-20.5,2.7-30.1,4.4-8.5,11.6-13.4,20.9-15.3,7.1-1.4,14.2-1,21.1,1.2,2.9.9,2.9,1,2.2,4-.6,2.8-1.3,5.5-1.9,8.3-.2.8-.3,1-1.1.6-4.4-2.1-9.2-2.7-14-2.4-8.4.5-14.3,5.1-16.5,13.2-1.9,7-1.6,14,1.8,20.6,3.1,6.1,9.7,9.7,16.5,9,1.5-.1,2.9-.2,4.4-.6.5-.2.7-.4.7-1,0-4.1,0-8.2,0-12.4,0-.7-.2-.8-.8-.8-2.4,0-4.8,0-7.2,0-.7,0-.9-.2-.9-.9,0-3.3,0-6.6,0-10,0-.7.2-.9.9-.9,6.5,0,13.1,0,19.7,0,1,0,1,.4,1,1.2,0,5.4,0,10.9,0,16.3s0,11,0,16.4ZM504.8,73.4c-5.8,9.7-15.8,13.9-26.4,12.7-10.3-1.2-17-7.2-20.8-16.5-4.8-11.9-4.5-23.9.8-35.6,3.5-7.6,9.3-12.9,17.7-15,13.1-3.2,25.1,2.9,30.6,15.3,2.4,5.5,3.4,11.4,3.4,17.4,0,7.6-1.3,14.9-5.3,21.6Z"/>
  <path class="cls-1" d="M249.1,84c-1.4-5.6-2.9-11.1-4.2-16.7-.8-3.7-1.5-7.5-3.3-10.9-.6-1.1-.5-1.8.3-2.7,3.8-4.8,5.1-10.5,5.3-16.4.1-3-.7-5.8-1.4-8.6-1.3-5-4.1-9-8.2-12.2-4.1-3.3-8.9-4.6-13.9-5.4-8.2-1.4-16.4-.7-24.6.4-1.6.2-3.2.4-4.8-.1-.8-.3-1.7-.5-2.6-.5-11.4,0-22.8,0-34.2,0-2.9,0-5.8.8-7.5,3.6-.3.5-.5.5-1,.2-1.2-.7-2.4-1.4-3.8-1.8-5-1.6-10-2.6-15.3-2.6-6.4,0-12.7.2-18.9,1.7-.4,0-.7,0-1.1-.1-1.5-.5-3-1-4.6-1-3.8,0-7.6,0-11.4,0-1.7,0-3.5.4-5,1.3-3.1,1.8-4.1,4.7-4.1,8,0,12.8,0,25.7-.1,38.5,0,2,0,4.2-1,6.1-.2.5-.3,1.1-1.1,1.1-.8,0-.8-.7-1.1-1.1-.9-1.8-1-3.9-1-5.8,0-12.5,0-25.1,0-37.7,0-1.8-.3-3.6-.9-5.3-.8-2.1-2.4-3.7-4.7-4.4-2-.6-4.1-.8-6.2-.7-2.3,0-4.7,0-7.1,0-1.5,0-3,.3-4.5.4-1.5.1-2.6,1.8-4.3,1.2-1.5-.6-3.1-.9-4.6-1.3-5.5-1.4-11.1-1.8-16.7-.6-5.2,1.1-10,2.8-14,6.4-8.1,7.3-10.8,16.4-8.8,27.1,1.2,6.2,4.5,11.1,9.3,15,2.4,1.9,4.9,3.6,7.6,5-.8-.2-1.5-.5-2.2-.9-2.6-1.3-5.2-2-8.1-1-2.4.9-4.2,2.4-4.8,4.9-1,3.9-1.7,7.9-2.7,11.8-.5,2.1-.7,4.1,0,6.2.5,1.5,1.3,2.7,2.5,3.7,3.1,2.5,6.9,3.4,10.6,4.4,6.4,1.7,12.8,2,19.3.6,7-1.5,13-4.6,17.5-10.3,5.5,7.7,13.4,10.7,22.3,11.2,8.9.5,17.2-1.7,24-8.1.5,1.2.5,2.2,1.1,3.1,1.8,3,4.7,3.9,7.8,4.1,3.8.2,7.7.1,11.5,0,1.7,0,3.4-.4,4.9-1.3,3.1-1.8,4.1-4.7,4.2-8,.1-4.4,0-8.8,0-13.2,0-.4-.3-.9.6-1.1,4.8-.8,9.6-1.7,14.1-4.3v1.3c0,5.7,0,11.4,0,17,0,1.8.4,3.6,1.3,5.3,1.8,3.2,4.8,4.1,8.1,4.2,4.6,0,9.3,0,13.9,0s9.2,0,13.8,0c4.6.1,9.2-.4,13.8,0,3.5.2,7,.2,10.4,0,3.2-.2,6.2-1.2,8-4.2.6-1.1.6-2.4,1.2-3.8.3,1,.6,1.9,1,2.7,1.1,2.4,2.7,4.2,5.4,4.8,1.6.4,3.2.6,4.8.6,3.3,0,6.6,0,9.8,0,2.4,0,4.7-.5,6.5-2.2,2.1-2,3.3-4.5,2.6-7.4ZM55.1,68c-1,10.9-8.9,16.9-18.7,18-6.8.8-11.7,0-19.6-3-1-.4-1.2-.9-1-2,.8-3.3,1.5-6.6,2.2-9.9.2-1.2.6-1,1.4-.6,4,2.1,8.2,3.3,12.7,3.5,2,0,4.1-.1,5.9-1,4.1-2,5.1-7.3,2-10.7-1.8-2-4.3-3.1-6.7-4.1-3.3-1.4-6.6-2.9-9.4-5.1-6.2-4.8-8.5-11.2-7.1-18.9,1.4-7.7,6.4-12.2,13.7-14.8,6-2.2,17.1.5,21.6,1.8s.9.6.7,1.4c-.9,3.3-1.7,6.7-2.5,10.1-.2.9-.4,1-1.2.6-4.2-2.1-8.7-3.1-13.4-2.5-.2,0-.5,0-.7.1-2.8.6-4.7,2.4-5.2,5-.4,2.2.3,4.1,2,5.6,1.8,1.6,3.9,2.6,6.1,3.5,3.6,1.6,7.3,3.2,10.5,5.7,5.5,4.5,7.5,10.4,6.9,17.2ZM106.1,40.2c0,6,0,12,0,18,0,5.3-.9,10.6-3.1,15.5-3.3,7.3-9,11.4-16.9,12.4-4.3.5-8.6.4-12.7-1.1-6.5-2.3-10.3-7.1-12.4-13.5-1.5-4.4-2.1-9-2.1-13.5,0-12.5,0-25,0-37.4,0-.9.2-1.2,1.2-1.2,3.6,0,7.3,0,10.9,0,1,0,1.1.3,1.1,1.2,0,12.2,0,24.4,0,36.6,0,3.7.3,7.3,1.7,10.8,2.2,5.5,7.4,7.8,12.6,5.6,2.4-1,3.9-2.9,4.9-5.2,1.3-3,1.7-6.2,1.8-9.5.2-12.8,0-25.5,0-38.3,0-1.1.3-1.4,1.4-1.3,3.5,0,7,0,10.6,0,.9,0,1.1.2,1.1,1.1,0,6.6,0,13.2,0,19.8ZM150.2,52.9c-3.4,5-8.4,7.5-14.1,8.5-3.3.6-6.7.7-10,.3-1-.1-.8.5-.8,1,0,7.1,0,14.2,0,21.2,0,1.1-.3,1.3-1.3,1.3-3.5,0-7,0-10.4,0-1,0-1.2-.2-1.2-1.2,0-10.4,0-20.9,0-31.3s0-21,0-31.4c0-1,.2-1.3,1.2-1.4,7.7-1.1,15.5-1.7,23.3-.6,10.5,1.4,17,9,17.1,19.6,0,5-.8,9.8-3.6,14ZM193.7,84.3c0,.7,0,1-.9,1-11.7,0-23.4,0-35,0-1,0-1-.4-1-1.2,0-10.6,0-21.3,0-31.9s0-21.2,0-31.8c0-1,.3-1.2,1.2-1.2,11.1,0,22.2,0,33.4,0,.9,0,1.2.2,1.2,1.2,0,3.3,0,6.6,0,10,0,1-.3,1.1-1.2,1.1-6.8,0-13.5,0-20.3,0-.9,0-1.2.2-1.1,1.1,0,3.8,0,7.7,0,11.5,0,1.1.3,1.2,1.3,1.2,6.3,0,12.6,0,18.8,0,1,0,1.3.2,1.3,1.2,0,3.3,0,6.6,0,9.8,0,.9-.3,1.1-1.1,1.1-6.4,0-12.7,0-19.1,0-1,0-1.2.3-1.2,1.2,0,4.4,0,8.9,0,13.3,0,1,.3,1.2,1.2,1.1,7.2,0,14.3,0,21.5,0,.9,0,1.1.2,1.1,1.1,0,3.4,0,6.8,0,10.2ZM228.1,85.3c-.7,0-.7-.5-.9-.9-1.4-3.8-2.2-7.8-3.1-11.8-.6-2.6-1-5.2-1.9-7.7-1.3-3.6-3.7-5.4-7.6-5.5-1.1,0-2.2,0-3.2,0-.9,0-1,.2-1,1.1,0,7.9,0,15.8,0,23.6,0,1.1-.3,1.3-1.3,1.3-3.6,0-7.1,0-10.7,0-.8,0-1-.2-1-1,0-21.1,0-42.1,0-63.2,0-.8.3-1,1-1.2,7.5-1.1,14.9-1.5,22.5-.9,3.2.3,6.2,1,9.1,2.5,5.3,2.8,7.9,7.4,8.6,13.3.7,6.2-.8,11.7-5.4,16.2-1.4,1.3-2.9,2.3-4.8,3.2,4.8,2.6,6.4,7.1,7.6,11.9,1.7,6.3,2.8,12.8,4.8,19.2-4.4,0-8.6,0-12.9,0Z"/>
  <path class="cls-1" d="M306.9,39.3s0,0-.1.1c0,0,0,0-.1-.1,0,0,.2-.2.3,0Z"/>
  <path class="cls-1" d="M495.9,47c-.6-4.4-1.8-8.5-4.5-12.1-4.5-5.9-12.2-6.4-17.4-1.1-1.8,1.8-3,4.1-3.8,6.5-2.1,6.2-2.4,12.6-1.3,19,.6,3.8,1.9,7.4,4.3,10.5,3.4,4.2,8.8,5.7,13.5,3.6,3.3-1.5,5.3-4.1,6.8-7.3,2-4.4,2.6-9.1,2.7-14.3,0-1.3,0-3.1-.3-4.8ZM487.2,59c-.4,2.2-1.3,4.4-2.9,6.1-1.2,1.3-2.8,1.3-4.1,0-2.1-2.1-2.9-4.8-3.3-7.7-.2-1.7-.4-3.3-.3-4.5,0-4.4.3-8.3,2.4-11.8.3-.6.7-1.1,1.2-1.6,1.3-1.3,2.7-1.3,4,0,1.8,1.9,2.8,4.3,3.2,6.9.7,4.2.7,8.4-.2,12.6Z"/>
  <path class="cls-1" d="M386.8,40.3c-.6,5-4.1,8.1-9.3,8.2-1.7,0-3.4,0-5.2,0-.7,0-.9-.2-.8-.9,0-2.8,0-5.6,0-8.4s0-5.4,0-8.2c0-.4-.2-.8.5-.9,3.2-.5,6.4-.8,9.6.3,4.3,1.5,5.7,5.7,5.2,9.7Z"/>
  <path class="cls-1" d="M335.4,57.2h-12.6c2.2-8.8,4.4-17.5,6.1-26.4,1.9,8.9,4.3,17.6,6.5,26.4Z"/>
  <path class="cls-1" d="M225.8,40.3c-.5,5-4,8-9.1,8.2-1.8,0-3.6,0-5.4,0-.7,0-.8-.3-.8-.8,0-2.8,0-5.5,0-8.3s0-5.4,0-8.1c0-.8.2-1,1-1.1,2.5-.3,4.9-.5,7.4,0,5.6,1,7.4,5.4,6.9,10.2Z"/>
  <path class="cls-1" d="M140.8,41c-.6,5.9-4.4,9.3-10.4,9.4-1.3,0-2.7,0-4.1-.2-.9,0-1.1-.5-1.1-1.3,0-2.9,0-5.8,0-8.6v-8.9c0-.5,0-.9.6-1,3-.5,5.9-.7,8.9.2,4.7,1.5,6.5,5.6,6,10.4Z"/>
</svg>