<?xml version="1.0" encoding="UTF-8"?>
<svg id="Layer_1" data-name="Layer 1" xmlns="http://www.w3.org/2000/svg" version="1.1" viewBox="0 0 1384.7 171.6">
  <defs>
    <style>
      .cls-1 {
        stroke-width: 0px;
      }

      .cls-1, .cls-2 {
        fill: #124c84;
      }

      .cls-2 {
        display: none;
        font-family: AcierBATText-Solid, 'Acier BAT';
        font-size: 240px;
        letter-spacing: 0em;
      }
    </style>
  </defs>
  <text class="cls-2" transform="translate(4.5 159.7)"><tspan x="0" y="0">SUPERSTRONG</tspan></text>
  <g>
    <path class="cls-1" d="M49.7,117.5c0,8.4,6.7,15.1,14.9,15.1s14.4-5,14.4-12.5c0-10.8-14.2-13.9-25.9-18-24.2-8.6-37.7-19.9-37.7-44.6S37.2,10.9,64.3,10.9s47,20.4,49,47h-33.1c0-8.2-5-14.9-14.9-14.9s-15.1,4.6-15.1,13.9,13.2,12.7,25.4,16.3c25.7,7.7,37.7,22.1,37.7,44.6s-21.6,46.6-48.7,46.6-49.2-21.1-49.2-47h34.3Z"/>
    <path class="cls-1" d="M125,15.7h35v90.2c0,19.2,9.1,25.9,21.4,25.9s21.8-6.7,21.8-25.9V15.7h35.3v95.5c0,34.1-25.4,53.3-57.1,53.3s-56.4-20.2-56.4-53.3V15.7Z"/>
    <path class="cls-1" d="M249.6,15.7h60.2c29.5,0,46.8,21.8,46.8,46.1s-20.2,46.1-46.8,46.1h-25.2v51.8h-35V15.7ZM306.5,77.7c9.1,0,14.2-8.4,14.2-16.8s-4.8-15.1-14.2-15.1h-21.8v31.9h21.8Z"/>
    <path class="cls-1" d="M367.2,15.7h95.3v31.2h-60v25.9h55.4v30.7h-55.4v25.9h62.6v30.2h-97.9V15.7Z"/>
    <path class="cls-1" d="M474.9,15.7h60.2c31,0,51.1,18.7,51.1,45.8s-12.7,39.4-34.1,44.6l38.9,53.5h-44.2l-36.7-53.8v53.8h-35.3V15.7ZM538.5,78.1c7.9,0,13.2-8.2,13.2-16.6s-6.2-15.8-14.2-15.8h-27.4v32.4h28.3Z"/>
    <path class="cls-1" d="M625.2,117.5c0,8.4,6.7,15.1,14.9,15.1s14.4-5,14.4-12.5c0-10.8-14.2-13.9-25.9-18-24.2-8.6-37.7-19.9-37.7-44.6s21.8-46.6,49-46.6,47,20.4,49,47h-33.1c0-8.2-5-14.9-14.9-14.9s-15.1,4.6-15.1,13.9,13.2,12.7,25.4,16.3c25.7,7.7,37.7,22.1,37.7,44.6s-21.6,46.6-48.7,46.6-49.2-21.1-49.2-47h34.3Z"/>
    <path class="cls-1" d="M723.6,46.9h-32.2V15.7h100.3v31.2h-32.6v112.8h-35.5V46.9Z"/>
    <path class="cls-1" d="M800.8,15.7h60.2c31,0,51.1,18.7,51.1,45.8s-12.7,39.4-34.1,44.6l38.9,53.5h-44.2l-36.7-53.8v53.8h-35.3V15.7ZM864.4,78.1c7.9,0,13.2-8.2,13.2-16.6s-6.2-15.8-14.2-15.8h-27.4v32.4h28.3Z"/>
    <path class="cls-1" d="M996.4,10.9c45.4,0,77.5,33.8,77.5,76.8s-32.2,76.8-77.5,76.8-77.5-33.8-77.5-76.8,31.9-76.8,77.5-76.8ZM996.4,131.2c25.4,0,41.8-19.2,41.8-43.4s-16.3-43.4-41.8-43.4-41.8,19.2-41.8,43.4,16.1,43.4,41.8,43.4Z"/>
    <path class="cls-1" d="M1086.4,15.7h37.2l55.9,85.4V15.7h35v144h-36.7l-56.2-85.7v85.7h-35.3V15.7Z"/>
    <path class="cls-1" d="M1302.9,10.9c26.6,0,45.1,9.8,60.2,25.2l-24.5,22.6c-9.8-8.9-22.1-14.4-35.8-14.4-25.7,0-42.2,19.2-42.2,43.4s19,43.4,43,43.4,37.4-13.9,38.4-27.8h-41v-30.5h79.2v13.7c0,42.5-25,78-77.3,78s-78-33.8-78-76.8,32.4-76.8,78-76.8Z"/>
  </g>
</svg>