<?xml version="1.0" encoding="UTF-8"?>
<svg id="Layer_6" data-name="Layer 6" xmlns="http://www.w3.org/2000/svg" viewBox="0 0 389.19 229.04">
  <defs>
    <style>
      .cls-1 {
        fill: #283A8E;
        stroke-width: 0px;
      }
    </style>
  </defs>
  <path class="cls-1" d="M28.33,117.5c-.77.27-1.53.6-2.32.8-2.14.55-4.3,1.02-6.44,1.59-.38.1-.8.47-.98.82-.57,1.11-.06,1.85,1.18,1.82,4.85-.14,9.7-.28,14.55-.42,7.26-.21,14.52-.4,21.78-.61,17.68-.52,35.36-1.05,53.04-1.58,1.03-.03,1.41-.36,1.46-1.41.05-.97,0-1.95,0-2.93.01-11.12.03-22.25.04-33.37,0-1.14-.03-2.27-.06-3.41-.04-1.61.73-2.53,2.44-2.52,21.05.04,42.09.03,63.14.03,61.51,0,123.01-.01,184.52-.02,2.25,0,4.5,0,6.74,0,1.65,0,2.4.71,2.43,2.37.03,1.92,0,3.84,0,5.75,0,10.51-.02,21.01-.02,31.52,0,1.26.27,1.52,1.56,1.53,1.58,0,2.01.45,2.01,2.05-.01,2.8,0,5.59,0,8.39,0,1.63-.38,2.01-2.02,2.03-.75,0-1.5,0-2.25,0-1.44.01-2.43-.71-2.98-1.97-.32-.72-.81-.96-1.52-.96-1.6,0-3.19,0-4.79,0-15.67,0-31.34-.01-47.01,0-.96,0-1.31-.37-1.44-1.28-1.11-7.97-4.32-14.99-9.77-20.93-2.46-2.69-5.29-4.95-8.44-6.85-7.14-4.32-14.86-6.07-23.13-5.4-3.14.26-6.2,1-9.22,2.03-3.66,1.26-7,3.07-10.09,5.33-2.95,2.16-5.57,4.68-7.73,7.65-.74,1.02-1.46,2.07-2.18,3.1-.44.63-.77.75-1.27-.02-2.13-3.28-4.6-6.28-7.57-8.85-2.52-2.17-5.27-3.99-8.25-5.46-6.58-3.25-13.54-4.5-20.82-3.73-3.72.39-7.31,1.37-10.81,2.83-5.54,2.31-10.2,5.78-14.11,10.23-3.02,3.43-5.29,7.35-6.9,11.66-1.03,2.76-1.6,5.62-2.1,8.49-.14.81-.52,1.17-1.37,1.17-15.08-.02-30.17-.04-45.25-.04-14.14,0-28.28.02-42.42.03-19.74,0-39.48,0-59.23,0-2.63,0-5.27.01-7.9,0-.69,0-1.28-.24-1.55-.96-.31-.85-.01-2.25.7-2.65.6-.34,1.3-.58,1.98-.68,1.22-.17,1.4-.29,1.41-1.48,0-.55-.02-1.11.04-1.66.14-1.23.76-1.88,1.98-2.05,2.96-.41,5.93-.85,8.91-1.15.65-.07,1.36.39,2.04.61,0,.18,0,.36,0,.54Z"/>
  <path class="cls-1" d="M180.07,130.64c-.37-14.63,12.09-27,26.86-26.97,14.7.02,27.08,11.99,26.96,27.02-.12,14.67-11.91,26.5-26.64,26.7-14.99.2-27.36-12.08-27.18-26.75ZM192.32,130.3c-.19,7.95,6.23,14.59,14.11,14.84,8.28.26,14.87-6.15,15.16-14.11.3-8.19-6.22-14.78-14.03-15.12-8.23-.36-15.22,6.33-15.24,14.39Z"/>
  <path class="cls-1" d="M273.51,103.71c14.38-.15,26.94,11.86,26.88,26.88-.06,14.77-12.27,27.02-27.29,26.8-14.58-.22-26.55-11.83-26.58-26.82-.04-14.91,12.03-26.97,26.99-26.85ZM288.04,130.54c.26-7.81-6.56-14.75-14.64-14.65-7.78.1-14.73,6.4-14.57,14.9.15,8.04,6.6,14.28,14.62,14.35,7.9.07,14.78-6.53,14.6-14.61Z"/>
  <path class="cls-1" d="M240.18,115.85c.68-1.17,1.24-2.11,1.78-3.07,2.98-5.32,7.1-9.57,12.24-12.82,2.41-1.52,5-2.7,7.72-3.64,5.73-1.98,11.57-2.3,17.5-1.42,3.85.57,7.44,1.89,10.89,3.7,4.18,2.18,7.76,5.07,10.81,8.64,2.33,2.73,4.2,5.75,5.61,9.06,1.26,2.94,2.18,5.97,2.53,9.16.13,1.21-.13,1.52-1.35,1.5-.88-.01-1.76-.03-2.64.03-.76.05-1.17-.29-1.35-.98-.16-.63-.32-1.26-.44-1.9-.65-3.42-1.98-6.57-3.8-9.52-1.87-3.03-4.15-5.72-6.95-7.95-1.96-1.56-4.07-2.83-6.36-3.91-3.68-1.74-7.54-2.67-11.56-2.87-4.99-.25-9.75.79-14.29,2.89-5.08,2.35-9.19,5.84-12.36,10.4-2.18,3.14-3.81,6.56-4.56,10.35-.17.86-.39,1.7-.58,2.56-.13.59-.48.89-1.09.9-1.14,0-2.28.02-3.42.02-.74,0-1.08-.4-1.21-1.13-1.48-8.64-5.79-15.53-12.99-20.56-3.61-2.52-7.61-4.1-11.96-4.94-4.32-.83-8.58-.65-12.79.38-4.76,1.17-9.03,3.4-12.75,6.63-2.95,2.56-5.35,5.58-7.15,9.02-1.31,2.5-2.31,5.15-2.81,7.96-.09.51-.15,1.03-.29,1.53-.18.69-.61,1.12-1.39,1.11-.98-.01-1.95.02-2.93,0-.9-.02-1.3-.4-1.12-1.29.44-2.19.93-4.37,1.49-6.53.71-2.72,2.03-5.18,3.5-7.56,2.27-3.68,5.04-6.96,8.57-9.47,2.37-1.68,4.86-3.25,7.46-4.54,2.84-1.42,5.93-2.26,9.09-2.73,3.93-.59,7.86-.57,11.78.07,3.18.52,6.21,1.51,9.14,2.87,4.42,2.06,8.25,4.88,11.55,8.43,2.09,2.24,3.83,4.73,5.25,7.45.34.65.72,1.29,1.22,2.18Z"/>
  <path class="cls-1" d="M214.64,130.43c.18,4.15-3.31,7.78-7.63,7.77-4.48-.01-7.71-3.28-7.82-7.52-.11-4.3,3.08-7.8,7.68-7.89,4.04-.08,7.78,2.98,7.77,7.64Z"/>
  <path class="cls-1" d="M281.22,130.6c-.07,4.35-3.55,7.66-7.96,7.58-4.35-.07-7.5-3.47-7.49-7.9.01-4.5,3.91-7.46,7.66-7.52,4.26-.07,7.86,3.65,7.79,7.85Z"/>
</svg>