<?xml version="1.0" encoding="UTF-8"?>
<svg id="Layer_7" data-name="Layer 7" xmlns="http://www.w3.org/2000/svg" viewBox="0 0 389.19 229.04">
  <defs>
    <style>
      .cls-1 {
        fill: #000;
        stroke-width: 0px;
      }
    </style>
  </defs>
  <path class="cls-1" d="M295.93,115.57c-.14,18.1-4.6,35.17-13.87,50.88-10.84,18.39-26.03,32.02-45.53,40.76-7.2,3.23-14.72,5.47-22.5,6.87-8.98,1.62-18.02,2.07-27.09,1.26-25.56-2.29-47.45-12.45-65.33-30.92-10.63-10.98-18.18-23.87-22.86-38.42-1.78-5.52-3.02-11.17-3.81-16.93-1.04-7.56-1.25-15.14-.61-22.74,1.33-15.76,5.96-30.45,14.3-43.93,5.59-9.04,12.49-16.95,20.67-23.72,9.67-8,20.46-14.03,32.32-18.15,6.6-2.29,13.36-3.92,20.26-4.93,9.93-1.46,19.86-1.46,29.79.17,13.15,2.15,25.36,6.77,36.63,13.85,11.43,7.17,21.04,16.27,28.88,27.27,7.04,9.89,12.14,20.68,15.3,32.38,2.32,8.56,3.41,17.3,3.45,26.3ZM131.66,113.86c.01,5.64.68,10.91,2.01,16.07,1.57,6.06,3.83,11.87,6.91,17.34,5.91,10.51,14.23,18.51,25.04,23.84,9.16,4.52,18.88,6.98,29.1,7.46,11.56.53,22.33-2.14,32.33-7.94,9.76-5.66,17.44-13.57,24.1-22.54,1.08-1.45.77-2.58-.75-3.52-.94-.58-1.86-1.21-2.72-1.91-1.43-1.15-2.41-1.07-3.44.46-1.37,2.04-2.69,4.12-4,6.21-.21.33-.33.79-.3,1.17.17,1.73-.53,3.1-1.66,4.31-.68.72-1.5,1.34-2.04,2.16-.84,1.28-1.92,1.39-3.2,1.02-.57-.16-1.17-.32-1.69-.6-2-1.06-2.41-2.79-1.13-4.65,1.07-1.56,2.13-3.13,3.23-4.66.22-.31.62-.69.95-.69,1.54-.03,2.37-.97,3.12-2.12.93-1.43,1.86-2.87,2.88-4.24,1.55-2.08,3.65-3.07,6.25-2.88,1.89.14,3.78.27,5.65.52,3.31.45,3.78-.29,4.69-3.38,0-.03.01-.06.02-.09,1.29-6.21,2.22-12.47,2.39-18.82.27-10.17-1.86-19.85-6.14-29.08-2.6-5.6-6.34-10.37-10.57-14.81-2.46-2.59-4.77-5.32-7.65-7.48-8.77-6.58-18.58-10.64-29.39-12.4-9.6-1.56-19.08-1.4-28.44,1.45-13.4,4.08-24.65,11.33-32.98,22.74-8.11,11.11-12.47,23.52-12.59,37.04Z"/>
</svg>