<?xml version="1.0" encoding="UTF-8"?>
<svg id="Layer_1" data-name="Layer 1" xmlns="http://www.w3.org/2000/svg" version="1.1" viewBox="0 0 711 149.3">
  <defs>
    <style>
      .cls-1 {
        fill: #646161;
      }

      .cls-1, .cls-2, .cls-3, .cls-4, .cls-5, .cls-6, .cls-7, .cls-8, .cls-9, .cls-10, .cls-11, .cls-12, .cls-13, .cls-14, .cls-15, .cls-16, .cls-17, .cls-18, .cls-19, .cls-20, .cls-21, .cls-22, .cls-23, .cls-24, .cls-25, .cls-26, .cls-27, .cls-28, .cls-29, .cls-30, .cls-31, .cls-32, .cls-33, .cls-34, .cls-35, .cls-36, .cls-37, .cls-38, .cls-39, .cls-40, .cls-41, .cls-42, .cls-43, .cls-44, .cls-45, .cls-46, .cls-47, .cls-48, .cls-49, .cls-50, .cls-51, .cls-52, .cls-53, .cls-54, .cls-55, .cls-56, .cls-57, .cls-58, .cls-59, .cls-60, .cls-61, .cls-62, .cls-63, .cls-64, .cls-65, .cls-66, .cls-67, .cls-68, .cls-69, .cls-70, .cls-71, .cls-72, .cls-73, .cls-74, .cls-75, .cls-76, .cls-77, .cls-78, .cls-79, .cls-80, .cls-81, .cls-82, .cls-83, .cls-84, .cls-85, .cls-86, .cls-87, .cls-88, .cls-89, .cls-90, .cls-91, .cls-92, .cls-93, .cls-94, .cls-95, .cls-96, .cls-97, .cls-98, .cls-99, .cls-100, .cls-101, .cls-102, .cls-103, .cls-104, .cls-105, .cls-106, .cls-107, .cls-108, .cls-109, .cls-110, .cls-111, .cls-112, .cls-113, .cls-114, .cls-115, .cls-116, .cls-117, .cls-118, .cls-119, .cls-120, .cls-121, .cls-122, .cls-123, .cls-124, .cls-125, .cls-126, .cls-127, .cls-128, .cls-129, .cls-130, .cls-131, .cls-132, .cls-133, .cls-134, .cls-135, .cls-136, .cls-137, .cls-138, .cls-139, .cls-140, .cls-141, .cls-142, .cls-143, .cls-144, .cls-145, .cls-146, .cls-147, .cls-148, .cls-149, .cls-150, .cls-151, .cls-152, .cls-153, .cls-154, .cls-155, .cls-156, .cls-157, .cls-158, .cls-159, .cls-160, .cls-161, .cls-162, .cls-163, .cls-164, .cls-165, .cls-166, .cls-167, .cls-168, .cls-169, .cls-170, .cls-171, .cls-172, .cls-173, .cls-174, .cls-175, .cls-176, .cls-177, .cls-178, .cls-179, .cls-180, .cls-181, .cls-182, .cls-183, .cls-184, .cls-185, .cls-186, .cls-187, .cls-188, .cls-189, .cls-190, .cls-191, .cls-192, .cls-193, .cls-194, .cls-195, .cls-196, .cls-197, .cls-198, .cls-199, .cls-200, .cls-201, .cls-202, .cls-203, .cls-204, .cls-205, .cls-206, .cls-207, .cls-208, .cls-209, .cls-210, .cls-211, .cls-212, .cls-213, .cls-214, .cls-215, .cls-216, .cls-217, .cls-218, .cls-219 {
        stroke-width: 0px;
      }

      .cls-2 {
        fill: #3d3837;
      }

      .cls-3 {
        fill: #a8aaac;
      }

      .cls-4 {
        fill: #e3454c;
      }

      .cls-5 {
        fill: #de3d41;
      }

      .cls-6 {
        fill: #7b7a7b;
      }

      .cls-7 {
        fill: #dcdddf;
      }

      .cls-8 {
        fill: #4e4c4d;
      }

      .cls-9 {
        fill: #bdbec0;
      }

      .cls-10 {
        fill: #737171;
      }

      .cls-11 {
        fill: #e64a52;
      }

      .cls-12 {
        fill: #d53033;
      }

      .cls-13 {
        fill: #948f8f;
      }

      .cls-14 {
        fill: #d8d5d5;
      }

      .cls-15 {
        fill: #4e4a4a;
      }

      .cls-16 {
        fill: #716a69;
      }

      .cls-17 {
        fill: #c4c5c7;
      }

      .cls-18 {
        fill: #cd2f2e;
      }

      .cls-19 {
        fill: #cf3533;
      }

      .cls-20 {
        fill: #dfdbda;
      }

      .cls-21 {
        fill: #ec575f;
      }

      .cls-22 {
        fill: #c6c7c9;
      }

      .cls-23 {
        fill: #b2acac;
      }

      .cls-24 {
        fill: #98999a;
      }

      .cls-25 {
        fill: #a8a7a9;
      }

      .cls-26 {
        fill: #cecac9;
      }

      .cls-27 {
        fill: #d1cccc;
      }

      .cls-28 {
        fill: #9f9b9c;
      }

      .cls-29 {
        fill: #a7a3a3;
      }

      .cls-30 {
        fill: #595758;
      }

      .cls-31 {
        fill: #cbcaca;
      }

      .cls-32 {
        fill: #757373;
      }

      .cls-33 {
        fill: #443a37;
      }

      .cls-34 {
        fill: #7c7878;
      }

      .cls-35 {
        fill: #e95058;
      }

      .cls-36 {
        fill: #3b3a3b;
      }

      .cls-37 {
        fill: #453d3b;
      }

      .cls-38 {
        fill: #7c7a7b;
      }

      .cls-39 {
        fill: #807d7d;
      }

      .cls-40 {
        fill: #a5a2a2;
      }

      .cls-41 {
        fill: #98999b;
      }

      .cls-42 {
        fill: #e2474d;
      }

      .cls-43 {
        fill: #989697;
      }

      .cls-44 {
        fill: #e94e57;
      }

      .cls-45 {
        fill: #555354;
      }

      .cls-46 {
        fill: #dd3b3f;
      }

      .cls-47 {
        fill: #c5c2c3;
      }

      .cls-48 {
        fill: #414042;
      }

      .cls-49 {
        fill: #c5c4c6;
      }

      .cls-50 {
        fill: #cbcacb;
      }

      .cls-51 {
        fill: #938987;
      }

      .cls-52 {
        fill: #d83537;
      }

      .cls-53 {
        fill: #e6e4e4;
      }

      .cls-54 {
        fill: #958f8f;
      }

      .cls-55 {
        fill: #403f41;
      }

      .cls-56 {
        fill: #857e7d;
      }

      .cls-57 {
        fill: #514948;
      }

      .cls-58 {
        fill: #e24249;
      }

      .cls-59 {
        fill: #ea4f58;
      }

      .cls-60 {
        fill: #565252;
      }

      .cls-61 {
        fill: #c9c1c0;
      }

      .cls-62 {
        fill: #b2b1b2;
      }

      .cls-63 {
        fill: #838587;
      }

      .cls-64 {
        fill: #535051;
      }

      .cls-65 {
        fill: #a49f9f;
      }

      .cls-66 {
        fill: #e6e7e7;
      }

      .cls-67 {
        fill: #878688;
      }

      .cls-68 {
        fill: #706b6b;
      }

      .cls-69 {
        fill: #a2a3a5;
      }

      .cls-70 {
        fill: #b6b5b7;
      }

      .cls-71 {
        fill: #e0e1e2;
      }

      .cls-72 {
        fill: #767576;
      }

      .cls-73 {
        fill: #bfbbbb;
      }

      .cls-74 {
        fill: #c1b8b7;
      }

      .cls-75 {
        fill: #6b6b6d;
      }

      .cls-76 {
        fill: #da3c3e;
      }

      .cls-77 {
        fill: #9d9b9c;
      }

      .cls-78 {
        fill: #b5b5b7;
      }

      .cls-79 {
        fill: #7e7d7e;
      }

      .cls-80 {
        fill: #8a898a;
      }

      .cls-81 {
        fill: #656262;
      }

      .cls-82 {
        fill: #c1c0c1;
      }

      .cls-83 {
        fill: #df4449;
      }

      .cls-84 {
        fill: #e84b54;
      }

      .cls-85 {
        fill: #7c7b7c;
      }

      .cls-86 {
        fill: #e74851;
      }

      .cls-87 {
        fill: #555556;
      }

      .cls-88 {
        fill: #e14147;
      }

      .cls-89 {
        fill: #7b7879;
      }

      .cls-90 {
        fill: #e14046;
      }

      .cls-91 {
        fill: #b7b8b9;
      }

      .cls-92 {
        fill: #e5e6e7;
      }

      .cls-93 {
        fill: #676363;
      }

      .cls-94 {
        fill: #7b7a7c;
      }

      .cls-95 {
        fill: #979292;
      }

      .cls-96 {
        fill: #a8a9ab;
      }

      .cls-97 {
        fill: #df3e43;
      }

      .cls-98 {
        fill: #534e4d;
      }

      .cls-99 {
        fill: #d6d7d8;
      }

      .cls-100 {
        fill: #6b6969;
      }

      .cls-101 {
        fill: #d93437;
      }

      .cls-102 {
        fill: #9d9695;
      }

      .cls-103 {
        fill: #dc383c;
      }

      .cls-104 {
        fill: #8f8b8c;
      }

      .cls-105 {
        fill: #beb7b7;
      }

      .cls-106 {
        fill: #b9b4b4;
      }

      .cls-107 {
        fill: #e14349;
      }

      .cls-108 {
        fill: #f4f4f5;
      }

      .cls-109 {
        fill: #d4d5d7;
      }

      .cls-110 {
        fill: #ec5a60;
      }

      .cls-111 {
        fill: #b8b7b9;
      }

      .cls-112 {
        fill: #4c4443;
      }

      .cls-113 {
        fill: #f7f7f7;
      }

      .cls-114 {
        fill: #a29f9f;
      }

      .cls-115 {
        fill: #e54750;
      }

      .cls-116 {
        fill: #db393d;
      }

      .cls-117 {
        fill: #838588;
      }

      .cls-118 {
        fill: #dadbdc;
      }

      .cls-119 {
        fill: #e14a4f;
      }

      .cls-120 {
        fill: #d33938;
      }

      .cls-121 {
        fill: #d23031;
      }

      .cls-122 {
        fill: #d32e30;
      }

      .cls-123 {
        fill: #afafb1;
      }

      .cls-124 {
        fill: #5e5958;
      }

      .cls-125 {
        fill: #787474;
      }

      .cls-126 {
        fill: #807c7c;
      }

      .cls-127 {
        fill: #908b8b;
      }

      .cls-128 {
        fill: #585657;
      }

      .cls-129 {
        fill: #d53234;
      }

      .cls-130 {
        fill: #8b8a8c;
      }

      .cls-131 {
        fill: #e56667;
      }

      .cls-132 {
        fill: #393839;
      }

      .cls-133 {
        fill: #8c898a;
      }

      .cls-134 {
        fill: #db383c;
      }

      .cls-135 {
        fill: #d4cecd;
      }

      .cls-136 {
        fill: #7e7a7a;
      }

      .cls-137 {
        fill: #706f71;
      }

      .cls-138 {
        fill: #838385;
      }

      .cls-139 {
        fill: #c92e2b;
      }

      .cls-140 {
        fill: #545456;
      }

      .cls-141 {
        fill: #959292;
      }

      .cls-142 {
        fill: #cfd1d2;
      }

      .cls-143 {
        fill: #5d5959;
      }

      .cls-144 {
        fill: #a19fa0;
      }

      .cls-145 {
        fill: #9f9ea0;
      }

      .cls-146 {
        fill: #ea5e63;
      }

      .cls-147 {
        fill: #8b8787;
      }

      .cls-148 {
        fill: #adafb1;
      }

      .cls-149 {
        fill: #d83235;
      }

      .cls-150 {
        fill: #9c9c9d;
      }

      .cls-151 {
        fill: #ddd5d4;
      }

      .cls-152 {
        fill: #989798;
      }

      .cls-153 {
        fill: #d9d4d3;
      }

      .cls-154 {
        fill: #5c5453;
      }

      .cls-155 {
        fill: #c03c31;
      }

      .cls-156 {
        fill: #e6e7e8;
      }

      .cls-157 {
        fill: #c6c6c8;
      }

      .cls-158 {
        fill: #726c6b;
      }

      .cls-159 {
        fill: #404042;
      }

      .cls-160 {
        fill: #e74a53;
      }

      .cls-161 {
        fill: #767475;
      }

      .cls-162 {
        fill: #de3b40;
      }

      .cls-163 {
        fill: #403c3c;
      }

      .cls-164 {
        fill: #919192;
      }

      .cls-165 {
        fill: #aeacad;
      }

      .cls-166 {
        fill: #f2f3f3;
      }

      .cls-167 {
        fill: #3b3636;
      }

      .cls-168 {
        fill: #4d4d4f;
      }

      .cls-169 {
        fill: #5c5859;
      }

      .cls-170 {
        fill: #d2cfcf;
      }

      .cls-171 {
        fill: #e55056;
      }

      .cls-172 {
        fill: #939597;
      }

      .cls-173 {
        fill: #9f9fa0;
      }

      .cls-174 {
        fill: #fff;
      }

      .cls-175 {
        fill: #a9a7a8;
      }

      .cls-176 {
        fill: #797778;
      }

      .cls-177 {
        fill: #d12f30;
      }

      .cls-178 {
        fill: #979799;
      }

      .cls-179 {
        fill: #413d3d;
      }

      .cls-180 {
        fill: #3a3231;
      }

      .cls-181 {
        fill: #767678;
      }

      .cls-182 {
        fill: #aaa7a7;
      }

      .cls-183 {
        fill: #f0f1f1;
      }

      .cls-184 {
        fill: #b7b3b3;
      }

      .cls-185 {
        fill: #636162;
      }

      .cls-186 {
        fill: #898788;
      }

      .cls-187 {
        fill: #919294;
      }

      .cls-188 {
        fill: #726e6e;
      }

      .cls-189 {
        fill: #d93538;
      }

      .cls-190 {
        fill: #656161;
      }

      .cls-191 {
        fill: #5e5c5d;
      }

      .cls-192 {
        fill: #cdcccd;
      }

      .cls-193 {
        fill: #c9cbcd;
      }

      .cls-194 {
        fill: #c2342c;
      }

      .cls-195 {
        fill: #5e5b5c;
      }

      .cls-196 {
        fill: #312f31;
      }

      .cls-197 {
        fill: #aaa6a6;
      }

      .cls-198 {
        fill: #aeadae;
      }

      .cls-199 {
        fill: #8f8e8f;
      }

      .cls-200 {
        fill: #5a5251;
      }

      .cls-201 {
        fill: #6a6767;
      }

      .cls-202 {
        fill: #eeefef;
      }

      .cls-203 {
        fill: #4a4a4c;
      }

      .cls-204 {
        fill: #727273;
      }

      .cls-205 {
        fill: #a6a8aa;
      }

      .cls-206 {
        fill: #747171;
      }

      .cls-207 {
        fill: #c93e32;
      }

      .cls-208 {
        fill: #ded6d4;
      }

      .cls-209 {
        fill: #b9b1b1;
      }

      .cls-210 {
        fill: #d53134;
      }

      .cls-211 {
        fill: #666567;
      }

      .cls-212 {
        fill: #de3f43;
      }

      .cls-213 {
        fill: #d12a2d;
      }

      .cls-214 {
        fill: #8f8c8c;
      }

      .cls-215 {
        fill: #6f6c6d;
      }

      .cls-216 {
        fill: #a4a1a1;
      }

      .cls-217 {
        fill: #e4454d;
      }

      .cls-218 {
        fill: #727173;
      }

      .cls-219 {
        fill: #cf2c2d;
      }
    </style>
  </defs>
  <g id="copy">
    <g id="Pack">
      <g id="I">
        <path class="cls-48" d="M583.7,124c-.2,0-.4,0-.6-.1l-1.4-.5,5-5.3c4-4.2,8.2-8.6,12.4-12.9.8-.8,1.2-1.6,1.5-2.5,2.4-8.1,4.7-16.2,7.1-24.3,4.6-15.8,9.2-31.5,13.8-47.3.6-2,1.6-3.6,3.1-5,1-.9,1.8-1.9,2.7-2.9.1-.2.3-.3.4-.5l-12.7-7.5,30.7-10.5s-5.5,19.6-6.9,24.5c0,0-5.3,19-5.7,20.2.5-1.7,1.1-3.4,1.6-5.1l1.7-5.4h0s0,0,0,0h0c0-.1,0,0,0,0l.7-1c.8-1.2,1.6-2.4,2.4-3.7,1.8-2.9,3.7-5.8,5.9-8.4,2.3-2.6,5.7-4.3,9.2-4.4,2.6,0,5.3-.1,7.9-.1s5.3,0,8,.1c.3,0,.5,0,.8,0,3.1,0,5.9-.7,8.9-2.1,3.2-1.5,5-3.2,6.2-5.7.2-.4.4-.7.5-1.1,1.1-2.2,2.2-4.6,4.2-6.4l1.7-1.5v5.8c-.8,1.2-.9,2.6-1,4.1,0,.7,0,1.5-.2,2.3-.4,2.6-.7,5.5-1,9.1-.1,1.4-.7,2.4-2,3.2-3.9,2.4-7,4.4-9.7,6.3-1.2.8-2.5,1.2-4,1.2-1.3,0-2.7,0-4,0s-3.5,0-5.3,0c-1.7,0-3.5,0-5.2,0-4,0-7,0-9.9.2-3.1.1-6.2.8-9.8,2-.1,0-.3.1-.4.2-.5.2-1,.5-1.7.5s-.6,0-.9-.2l-1-.3,1,1.2c1.7,2.1,33.5,64.8,33.7,65.3l.6,1.4h-33.9l2.5-1.8c1-.7,2-1.4,2.9-2.1,2.3-1.7,4.7-3.4,7.1-5,1.3-.8,1.3-1.2.5-2.6-3.4-6.5-6.8-12.9-10.2-19.4-3-5.8-6-11.6-9.1-17.4-.4-.8-.7-1.6-.6-2.4-4.5,15.9-8.9,31.7-13.4,47.6-.4,1.5-1.3,2.6-2.1,3.7-.3.3-.5.7-.8,1-3.7,5.1-8.7,8.4-15.6,10.2-3,.8-5.9,1.9-8.8,2.9-1.5.6-3.1,1.1-4.7,1.7-.3,0-.5.2-.8.3-.6.3-1.1.5-1.6.5Z"/>
        <path class="cls-174" d="M644.4,6.2c-2.2,7.8-4.3,15.2-6.4,22.6-7,24.8-14,49.7-21,74.5-.5,1.8-1.7,3-2.8,4.4-3.8,5.2-8.8,8.2-15,9.9-4.6,1.2-9,3.1-13.5,4.6-.8.3-1.6.8-2.1.8s-.2,0-.2,0c5.4-5.6,10.9-11.4,16.4-17.1.9-.9,1.4-1.8,1.8-2.9,7-23.9,14-47.7,20.9-71.6.5-1.8,1.4-3.3,2.8-4.5,1.4-1.3,2.7-2.9,4-4.4-3.7-2.2-7.6-4.4-11.9-7,9.1-3.1,17.8-6.1,26.9-9.2M691.9,6.7v3.1c-1.2,2.1-.8,4.5-1.2,6.8-.5,3-.8,6.1-1,9.2,0,1.2-.5,1.8-1.5,2.4-3.3,2.1-6.6,4.2-9.8,6.3-1.1.7-2.2,1.1-3.5,1.1-1.3,0-2.6,0-4,0-3.5,0-7,0-10.5,0s-6.6,0-9.9.2c-3.5.1-6.8.9-10.1,2.1-.6.2-1.1.6-1.8.6s-.4,0-.6-.1c2.7-4.1,5.1-8.4,8.2-12,2-2.3,5.1-4,8.4-4.1,2.6-.1,5.3-.1,7.9-.1,2.7,0,5.3,0,8,.1.3,0,.5,0,.8,0,3.3,0,6.3-.7,9.3-2.2,3-1.4,5.2-3.1,6.7-6.1,1.2-2.5,2.3-5.2,4.5-7.2M637,40.7c1.4,1.6,32.1,61.7,33.6,65.1h-29.3c3.4-2.4,6.6-4.9,10-7.1,2-1.2,1.8-2.2.9-4-6.5-12.2-12.8-24.5-19.2-36.7-.6-1.1-.7-2.1-.3-3.3,1.5-4.6,2.9-9.3,4.4-14M693.9,2.2l-3.3,3c-2.2,1.9-3.4,4.5-4.4,6.7-.2.4-.3.7-.5,1.1-1.1,2.3-2.8,3.8-5.8,5.2-2.9,1.4-5.5,2-8.5,2s-.5,0-.7,0c-2.7,0-5.4-.1-8-.1-2.7,0-5.4,0-8,.2-3.7.1-7.4,1.9-9.9,4.8-2.3,2.6-4.2,5.6-6,8.5l1.1-4c1.4-5.1,2.9-10.2,4.3-15.4l2-7.3,1-3.7-3.6,1.2-17.8,6.1-9.1,3.1-4.1,1.4,3.8,2.2,4.8,2.8,5,2.9c-.8.9-1.5,1.7-2.3,2.4-1.7,1.5-2.8,3.3-3.4,5.5-4.6,15.7-9.3,31.7-13.8,47.2-2.4,8.1-4.8,16.2-7.1,24.4-.2.8-.6,1.4-1.3,2.1-4.2,4.3-8.4,8.7-12.5,13-1.3,1.4-2.7,2.8-4,4.2l-2.1,2.2,2.8,1.1c.3.1.6.2.9.2.8,0,1.5-.3,2.1-.6.3-.1.5-.2.7-.3,1.6-.5,3.1-1.1,4.7-1.7,2.8-1,5.8-2.1,8.7-2.9,7-1.9,12.3-5.4,16.1-10.6.2-.3.5-.6.7-1,.9-1.1,1.8-2.3,2.3-4.1,4.1-14.8,8.3-29.7,12.5-44.4,2.9,5.6,5.9,11.2,8.8,16.7,3.3,6.4,6.8,13,10.2,19.4.3.5.4.8.4.9,0,0-.2.2-.6.4-2.5,1.6-4.9,3.3-7.2,5-1,.7-1.9,1.4-2.9,2.1l-5.1,3.6h38.6l-1.2-2.8c-.8-1.8-9.4-18.7-16.9-33.3-11.8-23-15.3-29.4-16.4-31.4.8,0,1.4-.3,1.8-.5.1,0,.2-.1.3-.1,3.5-1.2,6.5-1.8,9.5-2,2.9-.1,5.9-.2,9.9-.2s3.5,0,5.2,0c1.8,0,3.5,0,5.3,0s2.7,0,4,0c1.7,0,3.2-.5,4.6-1.4,2.8-1.9,5.8-3.8,9.7-6.3,1.5-1,2.3-2.2,2.4-4,.2-3.5.6-6.4,1-9,.1-.8.2-1.6.2-2.4,0-1.4.2-2.7.7-3.7l.2-.4V2.2h0Z"/>
      </g>
      <g id="C">
        <path class="cls-48" d="M578.9,105.9c-11.4,0-22.7,0-34.1-.1h-10.1c-.2,0-.4,0-.7,0h-3c0-.1,4.8-4.7,4.8-4.7,2.6-2.4,5.1-4.8,7.6-7.1.9-.8,1.3-1.5,1.5-2.6,2.6-12.2,5.3-24.5,7.9-36.7,1.3-5.9,2.6-11.9,3.8-17.8.2-1,.6-2.3,1.5-3.4,2.6-3.3,5.3-6.8,8.2-10.6.6-.8,1.5-1.6,3.1-1.6,3.9,0,7.8,0,11.6,0s9.6,0,14.4,0c1,0,2.3.2,3.1,1.5.2.2.3.4.5.6,5.1,4.2,6.6,9.5,4.6,15.6-1.2,3.7-.6,7,1.8,9.9.3.3.3.6.4.9,0,0,0,.2,0,.3l.3,1.3-16.7-.8c-.3,0-.7,0-1,0-.4,0-.8,0-1.1,0s-.3,0-.5,0c-.4,0-.7,0-1,0-.9,0-1.6-.3-2-.8-.7-.9-.5-2.1-.3-3.2.3-1.2.5-2.4.7-3.7.3-1.4.5-2.9.9-4.3,0-.2,0-.4,0-.5,0,0,0,0,0,0,0,0-.2,0-.3,0-.2,0-.4,0-.7,0-.5,0-1,0-1.4,0-.4,0-.8,0-1.2,0-.7,0-1.2.1-1.7.4-2,1.1-2.9,2.5-3.4,4.8-3,15.2-6.2,30.7-9.3,45.6l-.6,3.1c-.1.5-.1.8-.1.9,0,0,0,0,.1,0,.2,0,.3,0,.5,0,.2,0,.5,0,.7,0s.5,0,.7,0c.7.1,1.3.2,1.9.2,2.7,0,4.2-1.2,4.9-4,.5-1.8,1.7-2.1,2.4-2.1s.1,0,.2,0c5.3.4,10.6.7,15.9,1l6.3.4v1.1c-.1,0-.1.1-.1.1,0,.5-.2.8-.6,1-5.1,2.4-9.1,6.4-12.9,10.2-1.3,1.3-2.7,2.7-4.1,4-1,1-2,1.4-3.4,1.4h0Z"/>
        <path class="cls-174" d="M595.4,22.3c1,0,1.7.2,2.2,1,.2.3.4.6.7.8,4.7,3.9,6.2,8.6,4.3,14.5-1.3,3.9-.7,7.6,2,10.8.1.1.1.4.2.8-5.2-.3-10.3-.5-15.4-.8-.7,0-1.5-.2-2.2-.2-.2,0-.4,0-.7,0-.3,0-.6,0-.8,0-1.7,0-1.6-1.2-1.3-2.8.6-2.6,1-5.3,1.6-8,.3-1.2,0-1.7-1-1.7-.1,0-.2,0-.4,0-.2,0-.4,0-.6,0-.9,0-1.7-.2-2.6-.2-.7,0-1.4.1-2.2.5-2.3,1.3-3.4,2.9-3.9,5.5-3.2,16.2-6.6,32.4-9.9,48.6-.3,1.4-.2,2.1,1,2.1s.4,0,.7,0c.2,0,.4,0,.5,0s.4,0,.6,0c.7.1,1.4.2,2,.2,2.9,0,5-1.3,5.9-4.7.2-.6.5-1.3,1.4-1.3s0,0,.1,0c7.1.5,14.1.9,21.2,1.4,0,.2,0,.3,0,.3-7,3.3-11.8,9.3-17.3,14.4-.8.8-1.6,1.1-2.7,1.1s0,0,0,0c-14.7,0-29.5-.1-44.2-.2-.3,0-.5,0-1.3,0,3.8-3.5,7.2-6.8,10.7-9.9,1-.9,1.6-1.8,1.8-3.1,3.9-18.2,7.8-36.3,11.7-54.5.2-1.1.6-2.1,1.3-3,2.8-3.5,5.5-7.1,8.2-10.6.6-.8,1.2-1.2,2.3-1.2s0,0,0,0c3.9,0,7.7,0,11.6,0s9.6,0,14.4,0c0,0,0,0,0,0M595.4,20.3h0c-4.8,0-9.6,0-14.4,0s-7.7,0-11.6,0c-2.2,0-3.3,1.2-4,2-2.9,3.8-5.5,7.3-8.2,10.6-1,1.3-1.4,2.6-1.7,3.8-1.3,5.9-2.6,11.8-3.8,17.7-2.6,12.1-5.3,24.5-7.9,36.8-.2.8-.5,1.4-1.2,2-2.5,2.3-5,4.6-7.6,7.1-1,.9-2,1.9-3.1,2.9l-3.5,3.2,4.7.2h.7c.3,0,.5,0,.7,0h10.1c11.2,0,22.8.1,34.2.2,1.6,0,2.9-.5,4.1-1.6,1.4-1.3,2.8-2.7,4.1-4,4-4,7.7-7.7,12.6-10,.4-.2,1.1-.7,1.2-1.8h0c0,0,.3-2.2.3-2.2h-2.1c0-.1-5.1-.5-5.1-.5-5.4-.3-10.7-.7-16-1,0,0-.2,0-.3,0-.6,0-2.6.2-3.3,2.8-.6,2.3-1.7,3.3-4,3.3s-1.1,0-1.7-.2c-.3,0-.6,0-.9,0s-.1,0-.2,0l.6-2.9c3.1-14.9,6.3-30.2,9.3-45.4.4-2.1,1.2-3.2,2.9-4.1.3-.2.7-.3,1.2-.3.3,0,.7,0,1.1,0,.4,0,.8,0,1.3,0-.3,1.2-.5,2.4-.7,3.5-.2,1.2-.5,2.4-.7,3.6-.2,1-.6,2.7.5,4.1.4.5,1.3,1.2,2.8,1.2s.7,0,1.2-.1c0,0,.2,0,.3,0,.3,0,.6,0,1,0,.3,0,.7,0,1.1,0,3.8.2,7.6.4,11.4.6l4,.2h2.7c0,.1-.6-2.5-.6-2.5,0-.1,0-.2,0-.3,0-.3-.2-.9-.6-1.4-2.2-2.6-2.8-5.5-1.7-8.9,2.2-6.5.5-12.1-4.9-16.7,0,0-.2-.2-.3-.4-1.2-2-3.3-2-3.9-2h0Z"/>
      </g>
      <g id="A">
        <path class="cls-48" d="M518.7,106c-1.1,0-2.2,0-3.3-.2-1.1,0-2.1-.1-3.2-.1-2,0-3.9,0-5.9,0h-10s.4-1.3.4-1.3c.4-1.2,1.4-1.5,2-1.7.1,0,.3,0,.4-.1,5.9-2.6,10.7-4.6,15.2-6.5.8-.4,1.2-.6,1.3-1.3,5.3-17.1,10.7-34.2,16.1-51.6l3.3-10.5-.8.2c-3.3.7-6.4,1.3-9.5,2,0,0-.2.2-.2.3h0c-4.4,6.3-8.7,12.5-13.2,18.9l-1.6,2.3c1,.2,2,.4,2.9.4,1.5,0,2.7-.4,3.8-1.4,2-1.7,4.3-3.1,6.5-4.5.9-.6,1.8-1.1,2.7-1.7,0,0,0,0,.1,0,.2-.2.6-.6,1.2-.6s.6,0,.9.3c.7.5.9,1.2.5,2.1,0,0,0,.1,0,.2-1,4.5-2,8.6-3.2,12.4-.5,1.7-1.6,2.5-3.4,2.5h-.2c-1.8,0-3.6,0-5.3,0-1.8,0-3.6,0-5.4,0-1.5,0-2.8,0-4.1,0,0,0-.2,0-.3,0-1.6,0-2.4.5-3.2,2.2-3.3,6.5-6.7,13.2-10,19.6-2.6,5.1-5.2,10.1-7.8,15.2-1,1.9-2.2,2.7-4.3,2.7h-.1c-3.9,0-8,0-13.3,0s-18.8,0-18.8,0l7.3-6.8c5.3-4.9,10.4-9.6,15.5-14.3,1-.9,1.8-1.9,2.5-3,4.5-7.2,9.1-14.5,13.7-21.7,5.7-9.1,11.4-18.1,17.1-27.2,1-1.6,2.2-2.6,4-3.4,4.1-1.8,8.2-3.8,12.2-5.7l3.5-1.6c1.2-.6,2.3-.8,3.4-.8,6,0,12,0,18,0h15.6s-.5,1.3-.5,1.3c-.4,1.1-1.3,1.4-1.8,1.5s-.2,0-.3.1c-.7.3-1.4.6-2,.9-1.8.8-3.7,1.7-5.7,2.1-4.7,1-6,3.8-6.9,8.6-2.3,13.5-4.9,27.1-7.4,40.3-1.1,5.8-2.2,11.6-3.3,17.3-.3,1.7-1.1,3.1-2.3,4.3-.8.8-1.6,1.7-2.4,2.6-1.7,1.9-3.4,3.9-5.7,4.8-1.3.5-2.8.8-4.7.8Z"/>
        <path class="cls-174" d="M528,22.3s0,0,0,0c6,0,12,0,18,0s9.4,0,14.2,0c-.3.8-1,.8-1.6,1-2.5,1.1-4.9,2.4-7.5,3-5.3,1.1-6.8,4.4-7.6,9.4-3.3,19.3-7.1,38.4-10.6,57.7-.3,1.5-.9,2.7-2,3.7-2.6,2.5-4.7,6-7.8,7.3-1.3.5-2.8.7-4.3.7s-4.4-.3-6.5-.3c0,0,0,0,0,0-1.9,0-3.8,0-5.7,0-2.9,0-5.8,0-8.7,0,.3-1,1.2-1,1.9-1.2,5-2.2,10.1-4.4,15.1-6.5.9-.4,1.6-.8,1.9-1.9,6.6-21.1,13.2-42.1,19.9-63.6-4.2.9-8.2,1.7-12.2,2.5-.3,0-.5.5-.7.8-5.2,7.4-10.3,14.7-15.6,22.3,1.6.4,3.1.7,4.6.7s3-.4,4.5-1.6c2.8-2.3,6-4.1,9.1-6.1.2-.2.5-.5.8-.5s.2,0,.3.1c.5.3.1.8,0,1.2-.9,4.1-1.9,8.3-3.2,12.3-.4,1.4-1.1,1.8-2.5,1.8s0,0,0,0c0,0-.1,0-.2,0-3.6,0-7.2.1-10.7.1s-2.7,0-4,0c-.1,0-.2,0-.3,0-2.2,0-3.2.9-4.1,2.8-5.9,11.6-11.9,23.2-17.7,34.8-.8,1.5-1.6,2.2-3.4,2.2s0,0,0,0c-4.4,0-8.9,0-13.3,0s-9.6,0-14.4,0h-1.9c7.3-6.7,14.1-13,21-19.3,1-.9,1.9-2,2.7-3.2,10.2-16.3,20.5-32.6,30.8-48.9.9-1.4,2-2.4,3.5-3,5.3-2.4,10.5-4.8,15.7-7.3.9-.4,1.9-.7,2.9-.7M528,20.3c-1.2,0-2.4.3-3.8.9-1.2.5-2.3,1.1-3.5,1.6-4,1.9-8.1,3.8-12.2,5.6-1.9.9-3.3,2.1-4.4,3.8-5.7,9.1-11.4,18.2-17.2,27.3-4.5,7.2-9.1,14.4-13.6,21.6-.6,1-1.4,1.9-2.3,2.8-5.1,4.7-10.3,9.5-15.6,14.4l-5.4,4.9-3.8,3.5h7c2.4,0,4.8,0,7.2,0,2.4,0,4.8,0,7.2,0,5.3,0,9.5,0,13.3,0h.1c2.4,0,4-1,5.2-3.3,2.6-5.1,5.2-10.3,7.8-15.3,3.3-6.4,6.7-13,10-19.5.7-1.5,1.2-1.7,2.4-1.7s.2,0,.2,0c1.3,0,2.6,0,4.1,0s3.6,0,5.4,0c1.7,0,3.6,0,5.3,0h.2c.7,0,1.3,0,1.9-.3-2.9,9.3-5.8,18.6-8.7,27.9,0,.2-.1.4-.8.6-4.4,1.9-9.3,3.9-15.2,6.5,0,0-.2,0-.3,0-.7.2-2.1.6-2.7,2.3l-.9,2.6h7.2s4.3,0,4.3,0c1.9,0,3.8,0,5.7,0h0c1,0,2,0,3.1.1,1.1,0,2.2.2,3.4.2,2.1,0,3.7-.3,5.1-.8,2.5-1,4.3-3.1,6-5.1.8-.9,1.6-1.8,2.4-2.5,1.4-1.3,2.3-2.9,2.6-4.8,1.1-5.8,2.2-11.6,3.3-17.4,2.5-13.2,5.1-26.8,7.4-40.3.9-5.1,2.3-7,6.1-7.8,2.1-.4,4-1.3,5.9-2.2.7-.3,1.3-.6,2-.9,0,0,.1,0,.2,0,.6-.2,1.9-.6,2.5-2.1l.9-2.7h-9.9s-7.1,0-7.1,0c-6,0-12,0-18,0h0ZM525.3,35.9c2.7-.6,5.5-1.1,8.3-1.7l-2.4,7.5c-.7,2.3-1.5,4.7-2.2,7-.2-.3-.5-.5-.7-.7-.4-.3-.9-.5-1.4-.5-1,0-1.6.6-1.9.8h0c-.9.6-1.8,1.2-2.6,1.7-2.2,1.4-4.5,2.8-6.6,4.6-1,.8-1.9,1.2-3.2,1.2s-.8,0-1.2,0l.6-.9c4.5-6.4,8.9-12.7,13.3-18.9h0Z"/>
      </g>
      <g id="P">
        <path class="cls-48" d="M419,126.9c-.4-1.2-.3-2.2.2-3.1l1-7.2c.7-5.4,1.5-10.7,2.3-16.1.8-5.2,1.5-10.4,2.3-15.7,1.9-12.3,3.8-25,5.2-37.6.7-5.7,4-9.1,7.2-12.3l.8-.9c1.3-1.3,2.7-2.5,4.2-3.7.3-.3.6-.5.9-.8l-19.4-8.7.4-2.1,39.2,1.1-14.4,43c2.2-1,4.4-1.9,6.6-2.9,4.3-1.9,8.7-3.8,13.1-5.7,1-.4,1.4-.9,1.7-2,2.6-8,4.8-14.6,6.9-20.8.2-.6.2-.7.2-.7,0,0,0,0,0,0,0,0-.2-.1-.8-.3-2.1-.5-4.2-1.1-6.2-1.7-2.1-.6-4.2-1.2-6.3-1.7-2-.5-2-1.7-1.9-2.9.3-2.8,1.6-4.3,4.5-5.5,1.8-.7,3.7-1.1,5.9-1.1s3.9.3,5.7.6c.8.1,1.7.2,2.5.3,1.6.2,3.2.4,4.8.7,1.5.2,2.9.4,4.4.6.7,0,1.5.3,1.9.9.5.7.4,1.5.2,2.2-2.6,12.4-5.2,25.1-7.7,37-.3,1.3-.9,2.1-2,2.6-12.2,6-22.2,10.9-31.7,15.6-.6.3-1.2.4-1.7.4s-1,0-1.5-.3c-1.8-.6-3.7-1.2-5.6-1.9l-1-.3c0,.4,0,.8.1,1.2.2,2,.3,3.9.6,5.8.3,2.2,0,4-.9,5.9-4.5,8.5-9,17.2-13.4,25.6l-5.1,9.8c-.2.3-.3.6-.5.9l-.2.3-1.7,4.1-.8-2.7Z"/>
        <path class="cls-174" d="M472.7,18.6c2.7,0,5.4.6,8.1.9,3.1.4,6.1.9,9.1,1.3,1.3.2,1.6.6,1.3,2-2.6,12.3-5.1,24.6-7.7,37-.2,1-.6,1.5-1.5,2-10.6,5.2-21.1,10.4-31.7,15.6-.5.2-.9.3-1.3.3s-.8,0-1.2-.2c-2.6-.9-5.2-1.7-8.1-2.7.3,3,.5,5.8.9,8.6.3,1.9,0,3.5-.8,5.2-6.2,11.8-12.4,23.6-18.5,35.4-.2.4-.5.7-.7,1.1-.1-.3-.3-.6-.4-.9,0,0,0,0,0,0,0,0,0,0,0,0,1.1-7.8,2.2-15.7,3.3-23.5,2.6-17.8,5.5-35.5,7.6-53.3.7-5.8,4.2-9,7.7-12.6,1.8-1.9,3.9-3.5,6.2-5.5-7.3-3.3-13.7-6.2-20.1-9,0-.2,0-.3,0-.5,12.3.4,24.5.7,37,1.1-4.9,14.6-9.7,29-14.5,43.4.2.1.4.2.5.2.4,0,.8-.3,1.1-.5,6.6-2.9,13.3-5.8,19.9-8.7,1.3-.5,1.9-1.3,2.3-2.6,2.2-7,4.5-13.9,6.9-20.8.5-1.5,0-1.9-1.3-2.3-4.2-1.1-8.3-2.3-12.5-3.4-1.2-.3-1.2-.8-1.1-1.8.3-2.5,1.4-3.7,3.9-4.7,1.9-.8,3.7-1,5.5-1M420.2,124.1c-.2.5-.4.9.4.9s0,0,0,0c-.2.4-.3.8-.6,1.5-.3-1.1-.2-1.8.2-2.5M472.7,16.6c-2.3,0-4.3.4-6.3,1.2-.8.3-1.5.7-2.2,1.1h-2.2c0,0-2.6-.1-2.6-.1l-34.4-1h-1.7s-.3,1.6-.3,1.6v.2s0,.2,0,.2l-.3,1.6,1.5.7,17.2,7.7c-1.4,1.2-2.7,2.3-4,3.6-.3.3-.6.6-.8.9-3.3,3.4-6.7,6.9-7.4,12.9-1.5,12.6-3.4,25.3-5.2,37.6-.8,5.1-1.6,10.4-2.3,15.7-.8,5.4-1.5,10.9-2.3,16.2-.3,2.3-.7,4.7-1,7-.5,1.1-.6,2.3-.2,3.7l1.6,5.5,2.2-5.3.2-.5.4-.9c0,0,0-.1.1-.2.2-.3.4-.6.6-.9,1.7-3.2,3.4-6.5,5.1-9.7,4.4-8.4,8.9-17.1,13.5-25.7,1.1-2,1.4-4.1,1.1-6.5-.3-1.7-.4-3.5-.6-5.4,1.8.6,3.5,1.1,5.2,1.7.7.2,1.3.3,1.8.3s1.5-.2,2.2-.5c9.4-4.7,19.4-9.6,31.7-15.6,1.4-.7,2.3-1.8,2.6-3.3,2.5-12.5,5-24.7,7.7-37,.1-.6.4-1.9-.4-3-.7-1-1.8-1.2-2.6-1.3-1.4-.2-2.9-.4-4.4-.6-1.6-.2-3.2-.5-4.8-.7-.8,0-1.7-.2-2.5-.3-1.9-.3-3.8-.6-5.9-.6h0ZM450.7,61.1l2.7-8.1,8.7-25.9c.4.4,1,.8,1.9,1,2.1.5,4.2,1.1,6.3,1.7,2,.6,4,1.1,6,1.6-2.1,6.2-4.3,12.7-6.8,20.6-.3.8-.5,1.1-1.2,1.4-4.4,1.9-8.8,3.8-13.1,5.7-1.5.7-3,1.3-4.6,2h0Z"/>
      </g>
    </g>
    <g id="Slash">
      <g id="slash_4" data-name="slash 4">
        <path class="cls-203" d="M400.3,75.8c-.1.6-.4,1.1-.3,1.7.2,2.5-.9,4.3-2.7,5.8-1.2-.2-1.1-1.1-1-2,.4-3.1.9-6.1,2-9,0-1,0-1.8.9-2.5,1.3-.9,1.1-2.9,2.6-3.8.5,2.2-.9,4-1,6.1,0,1.2-.5,2.4-.4,3.7Z"/>
        <path class="cls-52" d="M381.9,92.9c-.1,1.2-.6,2.5.5,3.6-.5,1.8-1.4,3.5-2.7,4.8-.3.1-.6.2-.9.4-.4,0-.8,0-1.3.1-.7-.9-.5-1.8,0-2.7,1.3-1.6.8-4.1,2.7-5.3.1-.2.2-.3.3-.5.3-.5.9-.3,1.4-.5Z"/>
        <path class="cls-5" d="M373.6,100c.1,0,.2,0,.4,0,1,2.2-.3,4.2-.4,6.2,0,.4-.3.8,0,1.2.2.9-.5,1.4-.8,2.2-1.7.2-1.8,1.8-2.6,2.8-.3.1-.5.3-.8.4-1,.1-1.5-.6-1.3-1.3.6-2.1.2-4.4,1.6-6.3.8-1,.2-2.4,1-3.4,1-.5,2.3-.7,3-1.8Z"/>
        <path class="cls-88" d="M369.6,105.2c-.5,1.9,0,4-1.1,5.9-.4.8,0,1.4.8,1.7-.6.4-1.2.9-1.9,1.3-.4.1-.9.3-1.3.4-.8-.7-1.3.1-1.9.4-.4-.9.5-1.9-.4-2.7.2-.8.9-1.4.5-2.4-.4-.9.3-1.4.9-1.9,1-.4,1.7-1.2,2.2-2.2.7-.2,1.4-.3,2.1-.5Z"/>
        <path class="cls-116" d="M373.5,107.4c-1.5-1.2,0-2.6,0-3.8,0-1.1.3-2.5.5-3.7.3-.6.9-.3,1.3-.5.8.3,1.5-.2,2.2-.3.4.9.2,1.8,0,2.7-.3,1-.7,1.9-1,2.9-.6.9-2.1.9-2.2,2.2-.3.2-.6.3-.9.5Z"/>
        <path class="cls-138" d="M374.9,111.3c.4-.4.9-.3,1.3-.3.5,0,.9,0,1.4,0-.8.6-1.8.2-2.7.3Z"/>
        <path class="cls-6" d="M380.1,92c0,.5,0,1,.4,1.3.2.4,0,.5-.3.5-.2-.1-.3-.3-.5-.4.1-.5.3-.9.4-1.4Z"/>
        <path class="cls-131" d="M349.4,123c.5-.5,1.1-.2,1.6-.1.4-.2.7-.3,1,0-.3.3-.7.5-1,.8-.9.5-1.7.9-2.6,1.4-.8-1.2.7-1.3.9-2.1Z"/>
        <path class="cls-18" d="M392.9,79.7c.5.3.4.9.5,1.4-.2.4-.3.8-.5,1.3-.6.7-1.2,1.4-1.8,2.1-.3,0-.5,0-.8,0-.2.2-.4.1-.6,0,0-.7.1-1.4.2-2.1,1-.9,2-1.8,3-2.7Z"/>
        <path class="cls-44" d="M352,122.9c-.3,0-.7,0-1,0,.5-.9,1-1.7,1.5-2.6.7-.8,1.5-1.4,2.5-1.9,1.4.8.6,1.7,0,2.6-.5.3-1.3,0-1.7.6-.4.5-.9.9-1.3,1.4Z"/>
        <path class="cls-129" d="M381.9,92.9c.1-.3.3-.6.4-.8.7-1,1.8-1.8,2.3-3,.3-.1.6-.3.8-.4.9,1,.1,2.3.5,3.4,0,.1,0,.3,0,.4-1.5,1-1,3.5-3.1,4.1-.1,0-.3,0-.4,0-1.4-.9-1.6-1.7-.5-3.6Z"/>
        <path class="cls-121" d="M385.9,92.1c-1.7-.9,0-2.3-.5-3.4,2.4-.4,2.7-2.9,4.4-4.1.2,0,.4,0,.6,0-1.2,1.5-.6,3.9-2.3,5.3-.7.7-1.5,1.5-2.2,2.2Z"/>
        <path class="cls-42" d="M363.4,112.3c.1,0,.3,0,.4,0,1.5.7.6,1.7.4,2.7-.4,1.4-.7,2.8-2.1,3.6-.6.1-1.1.3-1.7.4-1.7,0-2.1-.4-1.7-1.8.2-.7.7-1.3,1.2-1.7.3-.2.6-.5.9-.7,1.8.2,2.1-1.1,2.6-2.3Z"/>
        <path class="cls-11" d="M359.9,115.4c-.2.6-.4,1.2-.7,1.8-.5,1.2-.1,1.8,1.2,1.8-.5.6-1.4,0-1.9.8-.4.3-.9.7-1.3,1-.8-.2-1.5,0-2.2.2,0-.9.7-1.7,0-2.6,0-.1,0-.3,0-.4.1-.8.5-1.2,1.4-1.3.7-.1,1.5-.5,1.8-1.2.6,0,1.2,0,1.7,0Z"/>
        <path class="cls-202" d="M328.6,140c.3-.8,0-1.9,1.3-2.2.6,0,1.2-.1,1.8-.4,0,.6,0,1.3.9,1.3-1.2.7-2.5,1.4-4,1.3Z"/>
        <path class="cls-207" d="M392.9,79.7c.4-.7.9-1.4.9-2.3.7-.4.7-1.6,1.8-1.6.4.4.4.8,0,1.3-.7,1.4-1.8,2.6-2.1,4.1-.5-.3-.5-.9-.5-1.4Z"/>
        <path class="cls-209" d="M352.5,120.3c-.8-1,.5-1.2.7-1.8.3-.4.6-.9.9-1.3.3.3.5.6.8.8.2.1.2.3.2.5-.7.8-1.5,1.6-2.6,1.7Z"/>
        <path class="cls-105" d="M349.4,123c.3-1.1.5-2.2.8-3.2.6-1.4,2-.9,3.1-1.3.2.8-.8,1.2-.6,2-.1,1-.7,1.8-1.4,2.4-.6.4-1.3.3-1.9,0Z"/>
        <path class="cls-206" d="M381.8,88.4c1,1.1,0,2.5.4,3.7.3.5,0,.8-.4,1.1-.5.3-1,.5-1.6.3-.5-.4-.5-.9-.2-1.5-.2-1.6,0-2.9,1.7-3.7Z"/>
        <path class="cls-113" d="M328.6,140c-.2.4-.4.9-.7,1.3-.2.3-.5.5-.9.4-.5-.1-.8-.5-.8-.9,0-1.3,1.1-1.9,1.7-2.8.5-.7,1.3-.9,2-.1-.3.8-.7,1.6-1.3,2.2Z"/>
        <path class="cls-81" d="M389.8,82.3c.4-2.4,1.4-4.3,4-4.9.8,1-.2,1.6-.5,2.3-1,1-1.7,2.4-3.3,2.7h-.2Z"/>
        <path class="cls-79" d="M376.6,104.7c.3,2.1-.8,4.1-.4,6.2-.3.5-.9.1-1.3.3-.1.1-.2.2-.4.2-.9-1.5,1-3-.1-4.5-.3-1.8.9-2,2.2-2.2Z"/>
        <path class="cls-117" d="M373.6,100c-.5,0-1-.2-.7-.9.4-1,.7-2,1.1-3,1.1.1,1.7-.6,2.2-1.3.2,1.7-.7,3.1-.9,4.7-.3.5-.7.5-1.2.7-.2,0-.4,0-.5-.1Z"/>
        <path class="cls-148" d="M357.7,112.7c.2.9.3,1.8.5,2.8-.2,1.8-2.3,1.6-3.1,2.7-.6,0-1-.2-.9-1,1.5-1.2,1.4-3.7,3.5-4.5Z"/>
        <path class="cls-77" d="M363.4,112.3c-1.7-2.4.1-4.6.2-6.9,0-.2.2-.4.3-.6.4-.3.9-.6,1.3-.9.5.7.3,1.3,0,2-.4.7-.7,1.4,0,2.1-.6,1.4.3,3.3-1.3,4.5-.2,0-.4,0-.6,0Z"/>
        <path class="cls-172" d="M367.4,114.1c-.6,1.8-.1,3.8-1,5.5-.2.5.3.5.6.6-.4.6-1,.9-1.7.9-.2-.3-.7-.7-.6-.8.9-1.9-.1-4.2,1.4-5.9.4-.4.7-.7,1.3-.4Z"/>
        <path class="cls-156" d="M331.7,137.4c.4-.9,1.2-1.5,1.2-2.7,0-1,.9-1.6,1.9-1.7,1.8,1.3.3,2.6,0,4-.7.7-1.3,1.4-2.2,1.7-1.4.3-1.3-.4-.9-1.3Z"/>
        <path class="cls-71" d="M334.8,137c-.8-1.3,1.3-2.6,0-4,1.1,0,1.1-1.7,2.2-1.8.9.9.3,1.9.2,2.9,0,.7-1.4,2.2.7,2.3-.9.8-2.1.3-3.1.5Z"/>
        <path class="cls-10" d="M384.6,85.5c0,1.2-.6,2.4,0,3.5,0,1.7-1,2.6-2.5,3.1-.9-1.2-.3-2.5-.3-3.8.5-1.4.8-2.9,2.7-2.8Z"/>
        <path class="cls-9" d="M351,123.7c.3.2.6.6.5.9-.8,1.8-.4,3.8-.8,5.7-.9.2-1.7.8-2.7.5.1-1.9.3-3.8.4-5.7.6-.9,1.3-1.7,2.6-1.4Z"/>
        <path class="cls-218" d="M380.9,106.1c-.6,0-2,.6-1.4-.7.8-1.5,0-2.8.2-4.1.4-1.9,1.6-3.4,2.6-5,.2,0,.4,0,.6,0,.7,1.8,0,3.5-.2,5.3-.7,1.4,0,3.4-1.8,4.4Z"/>
        <path class="cls-191" d="M389,93.8c-1.4-1.1-.5-2.7-.9-4,.4-1.9.7-3.8,2.1-5.3.3-.2.6-.2.9-.1,1,1.8.5,3.7.2,5.5-.1,1-.5,2,0,3-.6.6-1.5.5-2.2.9Z"/>
        <path class="cls-187" d="M369.6,99.1c.1-.8,0-1.8,1.3-1.7.8,1.6-.7,3.1-.1,4.7-.2,1.2-.1,2.5-1.1,3.4-.7.5-1.5.7-2.3.5-1.4-2.3-.2-6.1,2.2-6.9Z"/>
        <path class="cls-178" d="M369.6,99.1c-2.5,1.6-2.2,4.2-2.1,6.6,0,1.6-.9,2.3-2.3,2.4-1-.4-.8-1.2-.7-2,.2-.8.5-1.5.7-2.2.6-3.9,1-4.3,4.4-4.8Z"/>
        <path class="cls-123" d="M357.3,120.8c-1.5,1.2-.7,3.1-1.3,4.6-.3.8-.2,1.7-.9,2.3-.7.3-1.3.6-1.4,1.4-.6.3-.7.1-.6-.5.3-1.9,1.2-3.7,1.1-5.7,0-.6,0-1.2-.8-1.3,0-1.2.9-.9,1.5-1.1.8-.2,1.7-.5,2.4.3Z"/>
        <path class="cls-144" d="M360.8,114.6c-.7-2,.7-3.9.6-5.8,0-.5,0-1,.2-1.5,0-1.6,1.2-2,2.3-2.6.3,1.2-.2,2.3-.3,3.4-.2,1.5-.3,3,.1,4.5-.3,1.6-.9,2.8-2.8,2Z"/>
        <path class="cls-30" d="M391.2,93c-1.3,0-.9-1.2-.8-1.6.7-2.2.4-4.5.7-6.8.1-1.1.6-1.9,1.8-2.1.5,1.8-.2,3.4-.4,5.1-.1,1.2-.7,2.6.5,3.7-.9.2-1.3,1.1-1.8,1.7Z"/>
        <path class="cls-41" d="M362.6,122.1c-1-1.1-.3-2.4-.5-3.5.5-1.4,1.3-2.6,1.9-3.9.7-.5,1.3-1.4,2.2-.2-.4,2.3-.8,4.5-.9,6.8-.9.3-1.8.6-2.7.9Z"/>
        <path class="cls-118" d="M339.2,135.2c-.5.3-.6,1.1-1.3,1.3-1.3.6-1.6,0-1.5-1.2.1-1.4.7-2.7.6-4.1,1-.1,1.5-.7,1.8-1.6.2-.8.5-1.5,1.3-1.9,1.3,2.7.4,5.1-.9,7.5Z"/>
        <path class="cls-199" d="M370.6,116.8c-.7.8-1.9,1.1-1.9,2.5,0,.9-1,.9-1.6,1-1,.5-1.2-.2-1-.9.4-1.7.2-3.4.9-5,.4-.8,1.2-1.3,1.9-1.8.4-.2.7-.4,1.2-.2.4.7,0,1.4-.2,2-.3,1-.1,1.8.7,2.4Z"/>
        <path class="cls-126" d="M376.2,94.8c1.1-.8,2.4-.8,3.5-1.4.3.1.6.3.6.7-1.3,1.6-1.1,4-2.7,5.4-.7.4-1.5.6-2.3.2-1-1.9.6-3.3.8-5Z"/>
        <path class="cls-138" d="M374.5,111.5c-.3,2-2.3,2.9-2.8,4.8-1.2-.6-.9-1.7-.7-2.5.4-1.4.5-2.8,1.2-4.1.3-.8.6-1.5,1-2.3.3-.4.6-.6,1.1-.5,1.8,1.5.3,3.1.2,4.7Z"/>
        <path class="cls-109" d="M339.2,135.2c.4-2.5,1.2-4.9.9-7.5.6-.6,1.8-.3,2.2-1.3-.3,1.8-.6,3.7-.8,5.5,0,.8-.4,1.7.4,2.4-.8.6-1.8.6-2.7.8Z"/>
        <path class="cls-75" d="M382.7,101.7c-.7-1.7.3-3.4.1-5.1,1.2-1.3,1.1-3.5,3.1-4.1-.3,2.7-1.2,5.3-1.3,8.1-.5.5-1.6.3-1.9,1.2Z"/>
        <path class="cls-186" d="M372.6,109.6c-.4,2.2-1.8,4.3-.9,6.6-.2.6-.7.5-1.1.5-1.3-.1-2.3-.3-1.3-2.1.3-.6.6-1.5.7-2.3.2-2.3.7-2.8,2.6-2.8Z"/>
        <path class="cls-94" d="M378.8,101.7c-.5,2.3-.5,4.6-1.4,6.8-.4.9.6,1.6.5,2.4h-.2c0,0-.2,0-.2,0-.4.2-.9.2-1.3.1-.9-.5-.8-1.3-.6-2.1.3-1.4.3-2.9.5-4.3.3-1.1.5-2.3,1.4-3.2.5-.2.9-.3,1.3.1Z"/>
        <path class="cls-130" d="M370.6,101.8c-1.4-1.6.4-2.9.3-4.4.9-.7,1.8-1.4,3.1-1.3.5,1.4-.8,2.7-.3,4.1-.6,1.4-1.6,1.9-3.1,1.6Z"/>
        <path class="cls-196" d="M407,59c.3-2.8,3-4,4.2-6.4.3.8.4,1.5,0,2.2-1.2,3.2-2.5,6.4-2.8,9.8,0,1-1.1,1.6-1.9,2.3-1.4,0-1.7-.9-1.4-2,.5-2,.8-4.1,1.8-5.9Z"/>
        <path class="cls-132" d="M407,59c.3,2.1-.9,3.8-1.3,5.8-.3,1.3,0,1.7.8,2.2,0,2.3.1,4.7-2.7,5.7-.6.2.1,1.3-.8,1.3-1.7-2.8-.2-5.5.4-8.1.2-.7.9-1.2.5-2,.7-1.8,1.3-3.7,3-4.9Z"/>
        <path class="cls-159" d="M404,63.9c1,.1.7.7.4,1.2-.6,1.1-.8,2.4-1.1,3.6-.5,1.8-.2,3.5-.2,5.3-.9.6-1.8,1.2-2.7,1.8-.7-.5-.5-1.2-.4-2,.4-2.6.9-5.3,1.8-7.8,1.1-.4,2.1-.8,2.3-2.1Z"/>
        <path class="cls-17" d="M348,130.8c-.4.5-.9.9-1.3,1.4-.4.3-.9.2-1.3.1-.1-3.9.4-7.7,1.3-11.5,1.2-.3,2.3-.7,3.5-1,.5,1.1-.1,2-.4,3-.3.9-1.3,1.4-1,2.5-.2,1.8.1,3.8-.8,5.5Z"/>
        <path class="cls-140" d="M395.5,85.5c-.6,1.1-1.3,2.2-1,3.6.2,1-.2,2-1.5,2.2-1.3.2-1.1-.8-1.2-1.6-.1-1.8.5-3.4.6-5.2,0-.7.1-1.4.1-2.2,0-.5.2-1,.4-1.5.6-1.5.8-3.1,2.6-3.7.7,1.2.5,2.4.2,3.6-.4,1.6-.5,3.2-.3,4.8Z"/>
        <path class="cls-193" d="M346.7,120.7c0,3.8-.3,7.6-1.3,11.4-2.6.4-2.5.4-2.3-2.1.2-2.3.5-4.6,1.4-6.7.8-.8,1-2.1,2.2-2.5Z"/>
        <path class="cls-8" d="M395.5,85.5c-1.5-1.2-.6-2.9-.4-4.1.3-1.4.4-2.8.4-4.3,0-.4,0-.8,0-1.3-.2-2,1.8-2.4,2.7-3.6,0,1.8-.4,3.6-.9,5.3-.4,1.5,0,3.1-.6,4.6,0,.3.4.7.6,1.1-.2,1.1-1,1.6-1.7,2.2Z"/>
        <path class="cls-78" d="M353.6,129c0,2.7-1.7,1.6-3,1.2-1-2.2.2-4.3.2-6.4,0-.6.4-.9.8-1.3.5-.5.9-1.2,1.7-1.3,1.1,0,1.1.9,1.2,1.7.1,1.6-.4,3-.7,4.5-.1.5-.7,1-.2,1.6Z"/>
        <path class="cls-211" d="M389,93.8c-1,2.6-2.5,4.8-4.4,6.7-1-2,0-4,.3-5.9,0-.6.4-1.2.5-1.9,0-.2.1-.4.2-.6.7-.9,1.2-2.1,2.5-2.3,1,1.2.5,2.7.9,4.1Z"/>
        <path class="cls-142" d="M344.4,123.2c.4,2.3-.4,4.6-.8,6.8-.4,1.9,0,2.3,1.7,2,.4,0,.9,0,1.3,0-1.8.4-3.6.6-4.8,2.2-1.4-.2-1.1-1.4-1-2.2.2-2,.2-4,1.4-5.8,1.1-.8.3-2.9,2.2-3.2Z"/>
        <path class="cls-205" d="M357.7,112.7c.3-.6.9-.9.8-1.7-.2-2.3,1-3.4,3.1-3.6,1,1.4.1,2.8,0,4.2,0,1-.4,2-.5,3-.2.6-.7,1-1.3,1.2-.6.2-1.2.2-1.8-.2-.6-.9-.9-1.8-.4-2.8Z"/>
        <path class="cls-69" d="M362.6,122.1c-1.5,1.2-2.5,2.8-3.7,4.3-1.1-.3-1.3-.5-1.1-1.6.4-1.7.3-3.4.5-5.2.4-.8,1.3-.8,2-1.1.7-.1,1.3-.5,2,0,.5,1.1.4,2.3.3,3.5Z"/>
        <path class="cls-96" d="M358.6,119.7c.6,1.5.4,3,0,4.5-.2.8-.6,1.6.4,2.1-.8,1.9-2.4,1.4-3.9,1.3,0-1.9.7-3.7.8-5.6,0-.7.4-1.2,1-1.6.5-.4,1-.9,1.7-.7Z"/>
        <path class="cls-201" d="M384.6,85.5c.9-.1,1.8-.4,2.2-1.2.6-1.4,1.8-1.6,3.1-2,0,0,.2.2.3.2.3.6.3,1.3,0,2-1.3,1.7-2,4-4.5,4.4-.4.1-.9.3-1.3,0-.9-1.2-.6-2.3.2-3.4Z"/>
        <path class="cls-181" d="M380.9,106.1c-.4.7-.9,1.4-.7,2.2.4,1.9-.7,2.4-2.2,2.6-.7-.6-1.3-1.4-1-2.3.8-2.3.7-4.9,1.5-7.2.3-.4.6-.5,1.1-.4,1.2.9.8,2.2.8,3.3,0,.7-.1,1.3.5,1.7Z"/>
      </g>
      <g id="Slash_3" data-name="Slash 3">
        <path class="cls-124" d="M388.8,54.2c.2-.7.4-1.5.6-2.2,0,.8.5,1.7-.6,2.2Z"/>
        <path class="cls-204" d="M378,65.7c.2-1.3,1.2,0,1.7-.5-.4.8-1.1.5-1.7.5Z"/>
        <path class="cls-149" d="M381.4,63c-1-1-.4-2.3-.3-3.3.3-2.6.9-5.1.9-7.7,0-.7.5-1.5.8-2.2,0-.1,0-.2,0-.4.4-.8,1.8,0,1.9-1.2,1-.7,1-2.2,2.1-2.8.9,2.9-.3,5.7-.1,8.6,0,.4-.3.8.2,1.1-.4.3-.9.6-1.3.9-1.4.4-.8,1.7-1.2,2.5-.8,1.6-1.6,3.2-2.9,4.5Z"/>
        <path class="cls-98" d="M398.9,29.6c0,1.2.4,2.3-.3,3.4.1-1.1-.3-2.3.3-3.4Z"/>
        <path class="cls-97" d="M362.4,66.1c.5-.4,1-.9,1.4-1.3.4.2.8.5,1.3.4.8.9.5,1.9.4,2.9-.4,4.5-1.5,8.9-1.6,13.5-.2.7-.4,1.4-.5,2.1-.4.7-1.1,1-1.4,1.8-.6.2-.8.7-.8,1.3-1.2,0-2.2.5-3.1,1.3-.6-.5-.7-1.2-.6-1.8.5-4.5.9-9.1,1.9-13.5,0,0,0-.2,0-.2,1.8-.4,2.5-1.4,2.1-3.2-.3-1.2.3-2.2.9-3.2Z"/>
        <path class="cls-103" d="M370,62.1c.2-.4.6-.4.9-.4.8,0,1.5.7,2.3,0,.8-.4,1.7-.9,2.5-1.3,1.1,1.9,0,3.8,0,5.6-.2,1.2-1.2,2.2-.9,3.5-.7,1-1.4,2.1-2.2,3.1-.9,1-2.7,1-3.2,2.6-1.4-.1-1.4-1.2-1.2-2.1.7-3.7,1-7.4,1.7-11.1Z"/>
        <path class="cls-21" d="M320.7,107.6c1.1-.6,1.8-1.5,2.6-2.3.7.9,1.5.5,2.2.1.3.1.5.4.4.7-.3.3-.6.6-.9,1-.7.4-1.7.7-2.2,1.3-.9,1.2-2,1.1-3.2.9-.1-.8,1-.9,1-1.7Z"/>
        <path class="cls-217" d="M348,89.3c.6,2.1-.8,4.2,0,6.3,0,.1,0,.3,0,.4-1.2,1.4-2.9,1.8-4.4,2.6-.7,0-1.5,0-2.2,0-1.1-2.4,0-4.7.4-7,.1-.2.3-.3.4-.5,1.1,0,1.8-.7,2.6-1.3,1,0,2.1.1,3-.6Z"/>
        <path class="cls-189" d="M375.7,66.1c-1.2-1.9.4-3.8,0-5.6,1.8-1.6,2.2-3.6,1.2-5.8,1.2-.8,2.5-1.6,3.1-3.1,1-.5,1.5-1.6,2.7-1.8.1,2.2-.2,4.3-.5,6.4-.3,2.3-.7,4.6-.9,6.9-.1.4-.2.8-.4,1.2-.6,0-1.1.3-1.3.9-.4.7-1.3-.1-1.7.5,0,0-.1.2-.1.3-.7,0-1.4,0-2.2.1Z"/>
        <path class="cls-86" d="M341.8,91.6c.6,2.4-.7,4.6-.4,7-1.6,0-2.1,1.5-3.1,2.2-.5.4-1,.7-1.7.5-1.2,0-1.1-.9-1-1.5.3-2,.2-4.1.9-6,.5-.7,1.9-.3,1.8-1.6,1.1-.6,2.3-.6,3.5-.6Z"/>
        <path class="cls-59" d="M326,106.1c-.1-.2-.3-.5-.4-.7.4-1.8,1.7-2.9,2.6-4.4.7-.8,1.4-1.5,2.2-2.3.4-.2.9-.4,1.3-.5.9,1.3-.1,2.8.5,4.1,0,.1,0,.2-.1.4-.8,0-1.6-.1-2.2.5-.7.4-.9,1.2-1.4,1.8-.5.7-1.1,2-2.5,1.3Z"/>
        <path class="cls-90" d="M359.5,72.7c.4,2.8-.3,5.4-.7,8.2-.3,2.4-.9,4.7-.7,7.1-.3.3-.6.6-.8.9-1.4-1.1-1.9,1.1-3.1.8-.3-.3-.6-.6-.9-.8.5-3.7,1.1-7.5,1.6-11.2.1-.7-.2-1.1-.4-1.7.9-1.1,1.6-2.5,3.2-2.9.6-.1,1.1-.3,1.7-.4Z"/>
        <path class="cls-162" d="M370,62.1c1,1.6,0,3.3-.1,4.9,0,2.1-.7,4.1-1.1,6.2-.1.8-.2,1.6.7,2.1,0,.1,0,.2,0,.4-.8.2-1.2.9-1.3,1.6,0,1.4-1,2.3-1.8,3.3-.9.3-1.7.7-2.6,1-.7,0-.9-.4-.8-1.2.7-4.3,1.4-8.7,2-13,.1-.7,0-1.4,0-2.2.8-.5,1.4-1.2,1.8-2,1-.3,1.8-1.4,3-1.1Z"/>
        <path class="cls-51" d="M362,85.4c-.2-1.1.8-1.3,1.4-1.8,0,.9-.8,1.3-1.4,1.8Z"/>
        <path class="cls-84" d="M332.2,102.2c-1.3-.2-.9-1.2-.9-2,0-.7.2-1.4.3-2.1.6-.9,1.8-1.3,1.8-2.5.6-.4,1.2-.9,1.8-1.3.4-.1.9-.3,1.3-.4.5,1.7,0,3.3-.2,4.9-.1.9-.5,1.9.3,2.6-.3.1-.6.3-1,.4-1.3-.7-2.3.7-3.5.5Z"/>
        <path class="cls-112" d="M401.3,33.5c-.1.4-.4.9.4.9-.1.7-.9.5-1.2.9-.6-.3-.5-.9-.5-1.4.2-.9.7-.8,1.3-.5Z"/>
        <path class="cls-176" d="M377.1,52c-.4.4-.7.9-1.1,1.3-.9-1.5.4-1.1,1.1-1.3Z"/>
        <path class="cls-167" d="M407.5,28.4c0-.8,0-1.6,0-2.5.3.8.8,1.6,0,2.5Z"/>
        <path class="cls-213" d="M401.3,33.5c-.4.2-1,0-1.3.5-.2.3-.3.6-.5.9-.9.4-1.3,0-1.3-.9.2-.3.3-.6.5-.9.5-1.1,0-2.3.3-3.4.6-1,1.9-1.4,2-2.7.7-.4,1.5-.8,1.7-1.7,1.6-.7,2.6-1.7,3.2-3.5.5-1.6,1.4-3.2,2.4-4.5.9-1.1,1.3-2.4,1.9-3.6.4,0,.6,0,.4.5-.7,3.4-1.5,6.9-3.9,9.6-.2.3-.5.6-.5.9.2,1.8-.5,3.2-1.6,4.6-.3.3-.1,1-.2,1.5-1.2.6-2.3,1.5-3,2.7Z"/>
        <path class="cls-139" d="M410.6,14.3c-.1-.2-.3-.4-.4-.5.5-.4,0-1.8,1.3-1.3-.3.6-.6,1.2-.9,1.9Z"/>
        <path class="cls-58" d="M350.3,78.5c1.1-.2,2.1-.7,3.1-1.4.7,0,.8-.7,1.2-1,.7.3.9.9.9,1.6-.2,3.3-.6,6.7-1.3,10-.1.5-.3,1-.8,1.3-.7.6-1.5,1.1-2.2,1.7-.9.7-2.6.9-1.6,2.9.5,1-.7,1.6-1.5,2.1-.9,0-.9-.9-.9-1.4.2-1.6,0-3.3.9-4.8,0-.6.3-1.2-.3-1.7.5-.7,1-1.4,1.6-2,1.6-1.4,2.2-2.9,1-4.9-.5-.8,0-1.5,0-2.3Z"/>
        <path class="cls-12" d="M388.5,54.3c-.6.3-1.2.6-1.8.8-1,0-.8-.9-.7-1.5,0-2.8.2-5.5.7-8.3,1-.7,2-1.3,2.3-2.6.6-1.4,2.2-1.6,3.1-2.6.4,0,.8,0,1.2,0-.2,2.1-1,4.1-.4,6.2,0,.1,0,.2-.1.4-.4.5-.8.9-1.2,1.4-1,1.1-2.2,2.2-2.2,3.9-.5.7.2,1.6-.6,2.2-.1,0-.2,0-.3.1Z"/>
        <path class="cls-122" d="M392.9,46.3c-1.1-1.8-1-4.4.4-6.2.6-1.6,2.9-2,3-4,0-1.2.4-2.1,1.8-2.2.2.6.6.9,1.3.9-.8,1.1-1.6,2.2-.8,3.7.3.6.1,1.6-.4,2-2,1.7-3.3,4-5.2,5.7Z"/>
        <path class="cls-50" d="M332,102.6c.7.4.6.9.2,1.5-.4.5-.2.7.4.8-.7.7-2-.1-2.6.9-1-.9.8-1.8-.1-2.7.5-1.2,1.3-1,2.2-.5Z"/>
        <path class="cls-163" d="M401,26.9c-.2-.2-.4-.3-.6-.5.5-1.6.9-3.4,3.1-3.4-.3.7-.6,1.5-.8,2.2,0,1.2-.5,1.8-1.7,1.7Z"/>
        <path class="cls-135" d="M329.9,96.9c1.1.3.6,1.1.5,1.7,0,1.4-1,2-2.2,2.3-.6-.9-.6-1.7.4-2.3,0-.8.6-1.3,1.3-1.7Z"/>
        <path class="cls-214" d="M364.7,61.8c.2,1.2-1.2,1.9-.9,3-.2.7-.6,1.2-1.4,1.3-.6-.6,0-1.2.1-1.8-.2-1.7,1-2.1,2.2-2.5Z"/>
        <path class="cls-167" d="M404.3,30.8c.2.2.4.4.5.5-.5,1.6-2,2.1-3.2,3.1-1.2.3-1-.3-.8-1,.8-1.3,1.6-2.6,3.4-2.6Z"/>
        <path class="cls-74" d="M335.7,103c0-.4,0-.9,0-1.3.2-.4.5-.6.9-.7.6-.2,1.1-.5,1.7-.2-.3,1.1.7,1.3,1.3,1.7-1.3,0-2.6.9-3.9.5Z"/>
        <path class="cls-68" d="M381,64.2c0,.5-.7,1.1.2,1.5-.9.9-2.6.7-3.1,2.2-1-.6-.3-1.3-.2-1.9,0-.2,0-.4.1-.5.5-.3,1.1-.3,1.4-.8.4-.4.9-.8,1.5-.4Z"/>
        <path class="cls-49" d="M335.7,103c-.9.8-1.2,2.6-3.1,1.8-.6.3-1,.3-.9-.5,0-.6.3-1.2.3-1.9,0-.2.2-.4.3-.5,1.2-.4,2.4-1.5,3.6-.2.2.5.1.9-.2,1.3Z"/>
        <path class="cls-152" d="M357.3,89c-.8,1.2.4,1.4,1,1.9-1.1,1.2-2.9.3-4.1,1.4-.5-.8-.6-1.6,0-2.4,1.7-1.8,1.9-1.8,3.1-.8Z"/>
        <path class="cls-197" d="M348,96c.1.9.2,1.8.4,2.6-.5.9-1.3,1-2.1.8-.7-.8-2,.2-2.6-.9,1-1.7,2.8-1.9,4.4-2.6Z"/>
        <path class="cls-124" d="M388.5,54.3c.4.4.8.8,1.2,1.2-.3,2-2.1,1.4-3.2,1.9-.6-.3-1-.7-1-1.4.1-.7.7-.9,1.2-1.3.6-.3,1.1-.9,1.9-.5Z"/>
        <path class="cls-183" d="M315.4,111.9c0,.6,0,1.3.9,1.3-1.4.8-2.7,1.5-4.4,1.3-.6-1.2-.6-2.1.9-2.6.9,0,1.8,0,2.6,0Z"/>
        <path class="cls-113" d="M312.8,111.9c-.6.8-.8,1.7-.9,2.6-.2.4-.4.7-.6,1.1-.2.4-.6.7-1.1.6-.5,0-.7-.5-.8-.9-.3-1.2,1.9-3.5,3.3-3.4Z"/>
        <path class="cls-39" d="M366.8,82.4c-1.4-.4-.5-1.2-.4-1.8.2-1.5,1.3-2.7,1.7-4.2.1-.6.6-1,1.4-.7,0,1.1.6,2.1,0,3.2-1.8.5-1.9,2.3-2.7,3.5Z"/>
        <path class="cls-136" d="M373.6,57.9c.8,1.4-1,2.5-.3,3.9-.7,1.3-1.5.5-2.2.2-.7-1.2-.6-2.3.4-3.3.7-.2,1.5-.5,2.2-.7Z"/>
        <path class="cls-63" d="M371.3,58.6l-.4,3.1c-.2.4-.6.6-.9.8-1,.1-1.8,1-3,.7-.8-2.5,1.4-2,2.6-2.7.8-.4.3-2.1,1.8-1.9Z"/>
        <path class="cls-40" d="M352.8,74.3c.9.8-.1,2,.5,2.8-.5,1.5-1.6,1.9-3.1,1.4,0-1.2,1.5-2.2.4-3.5.7-.2,1.4-.4,2.1-.7Z"/>
        <path class="cls-100" d="M384.5,44.9c.8,1.1-.3,2.2.1,3.3.1,1.6-1.1,1.2-1.9,1.2-1.3-.3-.2-1.5-.8-2.1,1.5-.2,1.9-1.5,2.6-2.4Z"/>
        <path class="cls-20" d="M324.2,103c.1.9-.9,1.3-.9,2.2-.2,1.5-1.1,2.3-2.6,2.3,0-.6,0-1.2,0-1.8.4-1.8,2.4-1.7,3.5-2.7Z"/>
        <path class="cls-62" d="M342.3,91.1c1.2-.9.4-2.1.4-3.1.4-1.5,1.9-2.2,2.7-3.5.5,1.8-.7,3.5-.4,5.3-.5,1.1-1.3,1.9-2.6,1.3Z"/>
        <path class="cls-215" d="M380,51.6c-.5,0-1.6.6-1-.7.3-.8,0-1.4-.2-2,.6-1.4,2.1-1.1,3.1-1.5.7.5.6,1.4,1,2.1,0,.2,0,.4-.1.6-.8.7-1.5,1.6-2.8,1.6Z"/>
        <path class="cls-87" d="M391.6,48c0,1.1,0,2.2-.6,3.3-.6,1,0,2,.7,2.9-.3.9-1.8,0-1.9,1.3-.9,0-1.2-.4-1.3-1.2,0-.2.1-.4.2-.5.4-.6.2-1.3.3-2,.4-1.6.7-3.3,2.7-3.7Z"/>
        <path class="cls-169" d="M388.4,41.3c.4-1.9,1.4-3.2,3.5-3.4q.9.5.3,2.5c-1,1.1-2,2.3-3.6,2.5-.6-.5-.4-1-.1-1.6Z"/>
        <path class="cls-133" d="M364.7,61.8c1.4-1.1,3-1.5,4.8-1.3-.5,1.2-2.5,1-2.3,2.8-.3,1.1-1,1.9-2.2,2.2-.6,0-1.1-.2-1.4-.7-.5-1.3.5-2.1,1.1-3Z"/>
        <path class="cls-151" d="M325.1,107c.5.3.4.8.4,1.3-1.4.9-2.3,2.7-4.4,2.2-.5-.2-1.2-.2-1.6-.5-.8-.5-.4-.7.3-.8,1.4-.4,2.6-.9,3.7-1.9.4-.4,1-.6,1.6-.3Z"/>
        <path class="cls-82" d="M335.2,94.2c.3-1,1.5-1.7.8-3.1-.3-.6.8-.3,1-.8.8-.4,1.7-.5,2.1-1.4.6,1.3-.1,2.3-.8,3.3.4,1.4-.9,1.5-1.7,2-.5.2-1,.5-1.5,0Z"/>
        <path class="cls-98" d="M392.2,40.2c-1-.7,1.1-1.7-.2-2.3,1.6-.5,3.2-1.2,3.6-3.1,0,.6,0,1.3.9,1.4.5,1.2-.2,1.9-1,2.5-.7.5-1.2,1.2-1.9,1.7-.4.2-.9.2-1.3-.1Z"/>
        <path class="cls-185" d="M388.4,41.3c0,.5,0,1.2.6,1.5.4,1.7-1,2.2-2,3-1.1.5-.9,2.6-2.7,2.2-.7-1.1.2-2.1,0-3.1,2-.5,3-2,3.9-3.6Z"/>
        <path class="cls-168" d="M395.5,34.8c0-.9-.6-1.8.9-2.2.9-.2,1.3-1.2,1.4-2.1.2-1.8,1.6-2.8,2.6-4,.3,0,.6.3.7.6.2,1.4-1.2,1.9-1.6,2.9-.5,1-.1,2.1-.4,3.1-.1.4-.4.8-.7,1.1-1.1.4-1.3,1.7-2.2,2.2-1.1-.2-.9-.9-.6-1.6Z"/>
        <path class="cls-45" d="M392.8,46.6c.5.2.9.5,1,1.1-1,1-1,2.2-.8,3.4.2,1.3,0,2.5-1.4,3.1-1.7-.5-1.5-1.8-1.2-3,.2-1,.6-1.9.7-2.9.3-.9.6-1.6,1.7-1.6Z"/>
        <path class="cls-164" d="M361.2,86.7c.2.2.3.4.5.5-.2,2.1-1.6,3.1-3.4,3.6-1.3,0-1.9-.6-1.5-2,.3-.5.7-.9,1.1-1.3,1-.8,1.9-1.6,3.3-.9Z"/>
        <path class="cls-91" d="M339.1,88.9c1.2-.3,2.4-.6,3.5-.9,1.1,1.1,1,2.3,0,3.3-.2.2-.5.4-.8.6-1.1.2-2.1.5-3.2.3-.7-1.3.7-2.2.6-3.4Z"/>
        <path class="cls-22" d="M333.5,95.6c-.8-1.1.3-2.4-.4-3.5.9-1.6,2.4-1.7,4-1.7.1.6-1.2.7-.4,1.7.4.5-.5,1.7-1.1,2.4-.6.5-1,1.4-2.1,1.1Z"/>
        <path class="cls-65" d="M351,90.6c-.3,1.6-.7,3.3-.5,5,0,1.5-1.4,2.1-2.2,3.1-1.2-.6-.5-1.7-.8-2.6,0-.2,0-.4.1-.6.6-.9,1.2-1.6,1-3-.2-1.4,1-1.9,2.3-1.9Z"/>
        <path class="cls-170" d="M330,105.7c-.9,1.9-2.5,2.6-4.4,2.6-.4-.4-.6-.8-.6-1.4,0-.6.4-.9.9-1.1,1-.2,1.7-.7,2.3-1.5.4-.7.8-1.4,1.8-1.5,1.3.9,0,1.9,0,2.9Z"/>
        <path class="cls-32" d="M377,54.6c-.6,0-1-.3-1.2-.9,0-.2.1-.3.2-.5-.2-.9.6-1,1.1-1.3.6-1,.5-2.4,1.7-3.2.8.3,1,1,.8,1.7-.3.8.4.7.7,1-.3,1.9-1.5,2.8-3.3,3.1Z"/>
        <path class="cls-70" d="M346.2,99.4c-1.8,0-3.3,0-3.7,2.6-.2,2-1.9.8-3,.6-1-.2-2-.3-1.6-1.7.7-1.4,1.7-2.6,3.4-2.7.7,0,1.4,0,2.1.1.8.5,2.2-.2,2.7,1.2Z"/>
        <path class="cls-176" d="M373.6,57.9c2.6-.4,1.3-2.8,2.2-4.1.7,0,1.2.5,1.7,1,1.2,2.3.4,4.2-1.2,5.9-1,.5-1.9,1.2-3,1.2-.8-.2-.7-.9-.5-1.4.4-.9.4-1.9.9-2.7Z"/>
        <path class="cls-14" d="M324.2,103c.9-2.1,1.2-4.7,4.4-4.4,0,0,0,.2,0,.2-.5.7-.8,1.4-.2,2.1-.5,1.8-2.1,2.9-2.7,4.5-.9.7-1.9,1.5-2.7-.2-.3-1.1.8-1.5,1.1-2.2Z"/>
        <path class="cls-24" d="M359.5,65.3c.3,1.7-.1,3.5-.6,5-.4,1.2,0,1.6.6,2.3,0,.1,0,.2,0,.4-.5.7-1.2.7-2,.7-1.5-.4-2-1.3-1.5-2.7,1.2-.6,1.4-1.6,1.6-2.7.2-1.2,0-2.7,1.9-2.9Z"/>
        <path class="cls-94" d="M372.7,72.7c0,1.5-.4,2.9-.3,4.4,0,1,.5,1.2,1.3,1.3-1.3.5-2.6,1-4.1.4-.6-.9-.3-2-.5-3,0-.2,0-.4,0-.7.6-1.6,1.9-2.4,3.6-2.5Z"/>
        <path class="cls-67" d="M366.8,82.4c-.3.3-.7.6-.8.9-.4,1.5-1,2.7-2.9,2.8-.5,0-1,.8-1.5,1.2-.4.2-.6,0-.8-.4-.2-.7.2-1.2.6-1.7.6-.5,1.2-1,1.3-1.8.1-.7.3-1.4.8-2,.8-.6,1.6-1.1,2.6-.9.8.5.1,1.4.5,1.9Z"/>
        <path class="cls-173" d="M355.9,70.9c.3,1,.2,2.4,1.9,2.3-.8,1.3-2.2,2.1-2.9,3.4-.4.5-.9,1-1.7.8-1.1-.9-.6-2-.4-3,0-2.1,1.8-2.5,3.1-3.4Z"/>
        <path class="cls-190" d="M386.5,57.4c-1.4,3-3.3,5.7-5.3,8.3-1.2,0-.8-.8-.7-1.4.1-.6.4-1.1.6-1.6,1.3-1.6,2.4-3.4,2.9-5.4.2-.7.4-1.4,1.3-1.4.6.3,1,.9,1.1,1.5Z"/>
        <path class="cls-145" d="M354.2,92.2c-.8,1.5-3.3,1.3-3.7,3.3-1.4-1.6-.3-3.2,0-4.8.6-1.1,1.4-1.8,2.6-2,.6,0,1,.4,1.2,1,0,.8,0,1.7-.2,2.5Z"/>
        <path class="cls-31" d="M329.9,96.9c0-2.3,1.9-3.3,3.1-4.8,1.3.9.5,2.4.8,3.5,0,1.4-1,2.1-1.9,2.8-.5.3-.9.5-1.5.4-.5-.5-.4-1.3-.6-1.9Z"/>
        <path class="cls-55" d="M403.5,23c1.4-.7,1.3-2.2,1.6-3.3.9-2.9,3.4-4.6,4.4-7.6.6-1.7,2.8-3.1,4.1-4.9.5,2.4-.6,4.3-1.7,6.2-.2,0-.4-.3-.7-.3-.5.2-.5.7-.7,1.1-1.3,3.3-3.5,6.1-4.9,9.2-.5,1-1.3,2.2-2.9,1.9-.5-1,.2-1.6.8-2.3Z"/>
        <path class="cls-180" d="M411.5,12.4c.4.2.4.6.4,1-.7,2-1.2,4.1-1.4,6-.3,2.8-2.3,4.3-3,6.6.3.8.2,1.6,0,2.5-.8,1.1-1,2.6-2.7,2.9-.4.2-.6,0-.8-.4-.1-.3-.3-.8,0-1.1,1.5-2.3,1.6-5.1,3.1-7.4,1.6-2.4,2.5-5.2,3.2-8.1.4-.7.5-1.5,1.2-2Z"/>
        <path class="cls-175" d="M347.5,81.4c1-.9,1.5-2,1.4-3.5-.1-1.3.4-2.4,1.8-2.9,1.7,1.1.3,2.4.1,3.6-.2.8-.1,1.6,0,2.4.8,3.1-.4,5.5-3.6,6.8-.9-2.2,0-4.3.2-6.4Z"/>
        <path class="cls-15" d="M400.5,35.3c-.2.6-.6,1.3-.6,1.9.3,4.9-3.3,7.5-6.1,10.5-.6-.1-.9-.5-1.1-1.1,0-.2,0-.4.1-.6,1.2-1.7,2.5-3.5,4.1-4.9.8-.7,1.3-1.6,1-2.7-.4-1.5.2-2.7,1-3.9.2-.4.5-.7,1-.7.5.4.5.9.5,1.4Z"/>
        <path class="cls-141" d="M359.5,65.3c.9-.8,2-.8,3.1-1,.4.6.1,1.4.2,2-.3,1.2-.9,2.4-.8,3.8.2,1.8-.7,2.7-2.4,2.8-1.3-.4-1.7-1.1-1.2-2.5.6-1.6.3-3.5,1.2-5.1Z"/>
        <path class="cls-72" d="M375.7,73.6c0,.9-.4,1.7-.1,2.8.4,1.4-.9,1.7-1.9,2.1-1.2.4-1.6-.3-1.8-1.3-.3-1.5,0-2.9.3-4.3.6-1.3,1.2-2.6,2.5-3.4,1.1.3,1.1,1.2,1,2.1,0,.7-.6,1.4,0,2Z"/>
        <path class="cls-66" d="M315.4,111.9c1-1,1.8-2,1.9-3.6.1-1.6,1.9-2.1,3.4-2.5.4.4.5,1,.5,1.6,0,.8-.5,1.3-.9,1.9-.3.9.8.8.9,1.4-2,.2-3,2.2-4.8,2.6-1.4.3-1.2-.5-.9-1.3Z"/>
        <path class="cls-198" d="M347.5,81.4c.7,1.8,0,3.6-.2,5.3,0,.4-.1.7.3.9,1.1.3.8,1.1.6,1.9-.9,1-2,1.1-3.2.6-1.4-1.9,0-3.7.3-5.5-.5-1.9,1.2-2.3,2.2-3.2Z"/>
        <path class="cls-204" d="M375.7,73.6c-1.4.6-1-.3-.8-1,.3-1,.7-2,0-3-.9-1.4,0-2.4.6-3.5.8-.7,1.5-.8,2.4-.2.6.6-.2,1.4.2,2,0,2.2-.3,4.4-2.4,5.7Z"/>
      </g>
      <g id="slash_2" data-name="slash 2">
        <path class="cls-101" d="M359,47.6c-.9-1.4.3-2.9-.4-4.3.2-.6.8-1.2.4-1.8-.7-1.4.2-2.1,1.2-2.7.3-1.1,1.3-1.7,1.9-2.5.7-.3,1.4-.6,2.2-1-.1,1.5.2,3-.2,4.5-.2.6.3.7.8.8-.6,2.3-1.9,4.2-3.2,6.1-.8.5-1.6.9-2.6.9Z"/>
        <path class="cls-13" d="M351.4,46.7c-.1.4-.5.4-.8.5-.4,0-.9,0-1.3,0,.6-.7,1.4-.3,2.1-.4Z"/>
        <path class="cls-43" d="M347.9,48.9c-.2,1,.5,2.1-.4,3,.2-1-.4-2.1.4-3Z"/>
        <path class="cls-46" d="M350.2,58.6c-2-1.5-.2-3.3-.3-5,0-2.1.4-4.3.7-6.4.1-.4.6-.1.8-.5,0-.3,0-.5.1-.8,1.1-.5,2.1-1.3,3.5-.9-.4,2.9-1.6,5.7-1,8.7-.2,1-1.3,1.6-1.2,2.7-.8.9-1.3,2.1-2.6,2.2Z"/>
        <path class="cls-134" d="M355,44.9c.9.1,1.7,0,2.3-.7.7,0,.9-.6,1.3-.8,1.3,1.3.6,2.8.4,4.3-.3.3-.6.6-.9.9-.6,1.3-1.2,2.6-1.8,3.9-.7.6-1.8.5-2.3,1.4-.3,0-.6-.2-.6-.5-.1-2.9,0-5.7,1.7-8.2h0Z"/>
        <path class="cls-110" d="M322.5,76.6c-1.3.7-2.1,2-3.5,2.3-.3,0-.7,0-1.1-.2.7-.7,1.3-1.4,1.9-2.1.7-1,1.9-.3,2.7-.8.2.3.3.5,0,.8Z"/>
        <path class="cls-115" d="M332.1,71.8c-.8-.4-.9-1-.6-1.8.4-1,.2-2.1.2-3.2.9-1.3,2.6-.5,3.6-1.5.1,0,.3,0,.4,0-.4,1.9-1,3.7-.9,5.6-.9.2-2,0-2.7.9Z"/>
        <path class="cls-160" d="M326.5,73.6c.1-1,.6-2,.4-3,.7-.6,1.1-1.4,1.4-2.2,1-.5,2.1-.8,3-1.6.1,0,.3,0,.4,0,1.4,1.6,0,3.3.4,5-.4,1.4-1.5,1.3-2.6,1.4-1.1-.3-2,.7-3.1.4Z"/>
        <path class="cls-90" d="M346.2,52.8c.7,2.9-.3,5.6-.7,8.4-.1.8-.2,1.6-.2,2.4-.7.4-1.5.8-2.2,1.2-.4-.2-.9-.4-1.3-.5-.2-3,1-5.8.9-8.8.6-.9,1.1-1.9,2.2-2.4.4,0,.9-.2,1.3-.3Z"/>
        <path class="cls-35" d="M322.5,76.6c0-.3,0-.5,0-.8.4-1.8,2-2.8,2.6-4.4.6-.2,1.2-.5,1.8-.7.9,1.2.4,2.1-.4,3,0,.1,0,.2,0,.3-.9,0-1.5.4-1.8,1.2-.3.8-1,1.1-1.7,1.5-.1,0-.3,0-.4-.1Z"/>
        <path class="cls-210" d="M368.7,36.1c-1.4.9-.5,3.2-2.2,3.9-.6.2-1.1.4-1.7.6-.9.4-1.3-.1-1.2-.9,0-1.5-.2-3.1.7-4.4.9-1,1.8-2.1,2.6-3.1.6-.8.8-2.1,2.2-2.1,1.2,1.3.4,2.9.5,4.3-.3.6-.6,1.1-.9,1.7Z"/>
        <path class="cls-177" d="M369.6,34.4c-1.1-1.3.1-2.9-.5-4.3.2-.2.3-.4.5-.5,1.6-.6,2.4-1.8,3.2-3.3.7-1.4,1.8-2.5,2-4.1.2.9-.4,1.9.5,2.6-.1,1.2-2,2-.9,3.5-.8,2.7-3,4.3-4.9,6.2Z"/>
        <path class="cls-107" d="M341.8,64.3c-.6.5-1.2.9-1.8,1.4-1.2.5-.6,1.7-1,2.6-1.3.4-1.2-.7-1.3-1.4-.2-.8,0-1.6.5-2.3.1-.8-.2-1.7.6-2.4,1.2-1.1,2.2-2.3,1-4.1-.5-.8.2-1.4,1.1-1.8.6-.3,1.2-.5,1.8-.8.3.2.5.6.5.9-.2,2.6-.2,5.3-1.4,7.8Z"/>
        <path class="cls-4" d="M338.3,64.6c.4,1.2-.7,2.8.8,3.7-.8,1.4-2.2,1.8-3.4,2.6-.3,0-.6,0-.9,0-1-2.1-.4-3.9.9-5.6.4-.7,1.2-.4,1.7-.6.3,0,.5,0,.8,0Z"/>
        <path class="cls-97" d="M347.2,52c.1,0,.3,0,.4,0,.6-.9,0-2,.4-3,0-.9.8-1.2,1.4-1.8,0,0,0,0,0,0,.5-.3.9-.3,1.4,0,.8,2.2,0,4.3-.2,6.5-.1,1.7-.6,3.3-.3,5-.7,1.2-1.5,2.3-2.2,3.5-.9.5-1.7,1-2.6,1.5-.4-.3-.6-.9-.5-1.4.5-3.1.6-6.3,1.3-9.4.3-.3.6-.5,1-.8Z"/>
        <path class="cls-33" d="M385.1,7.8c0-.5,0-1.1-.4-1.5.1-.3.4-.6.6-.3.4.6.4,1.3-.1,1.8Z"/>
        <path class="cls-161" d="M359.5,51.6c0-.7-.3-1.5.3-2.2,0,.8.3,1.5-.3,2.2Z"/>
        <path class="cls-219" d="M378.4,22.9c-1.1.4-1.5,2-3,1.8-1.4-.6-.5-1.7-.5-2.6.1-.3.3-.6.4-1,1.1-1.4,2.6-2.3,4-3.5.4-.1.6,0,.5.5.6,1.9-1.1,3.1-1.3,4.8Z"/>
        <path class="cls-194" d="M379.7,18.1c-.2-.2-.3-.3-.5-.5.7-2.5,2.3-4.6,3.6-6.8-.3,2.7-.8,5.3-3.1,7.3Z"/>
        <path class="cls-34" d="M357.7,41.4c-.5.9-.5,1.8-.4,2.8-.4,1.5-1.2,1.4-2.3.8-.6-1-.6-2,.5-2.7.7-.3,1.5-.6,2.2-.9Z"/>
        <path class="cls-195" d="M366.9,32.2c-.2-.2-.3-.3-.5-.5.5-1.7.7-3.7,3.1-3.9,0,.6,0,1.2,0,1.8.1.3,0,.5-.3.7-1,.3-1.4,1.5-2.4,1.9Z"/>
        <path class="cls-56" d="M355.5,42.3c-.5.8-.4,1.7-.5,2.6,0,0-.1.2-.2.2-1,.3-2,1-3.2.9-.7-.6-.3-1.3-.2-1.9,1.6,0,2.4-1.7,4-1.8Z"/>
        <path class="cls-104" d="M351.5,44.1c.5.6.3,1.2,0,1.8.2.3.2.5,0,.8-.5.5-1.3.4-1.9.6-.2,0-.4,0-.6,0-.6-.1-.5-.7-.7-1.1.5-1.4,1.9-1.6,3-2.2Z"/>
        <path class="cls-128" d="M367,41.5c-.8-.3-.8-.8-.5-1.5.7-1.3.4-3.2,2.2-3.9.5,1.1-1,2.6.5,3.6-1,.2-1.4,1.3-2.2,1.7Z"/>
        <path class="cls-208" d="M322.9,76.7c0,.4,0,.8,0,1.3-1.3.7-2.2,2.1-4,1.8,0-.3,0-.6,0-.8.9-1.2,2-2,3.4-2.5.2,0,.4.1.5.3Z"/>
        <path class="cls-13" d="M348.5,46.3c.3.3.5.6.8.9.2.9-.9,1.3-1,2-.4.9,0,1.9-.6,2.7-.2.2-.4.2-.6.1-.7-1.7-.1-3.5,0-5.2.4-.2,1,0,1.4-.5Z"/>
        <path class="cls-108" d="M315,80.6c0,.6.3.9.9.9-1.1.9-2.7.9-3.8,2-.2.2-.5.2-.8,0-.3-.3,0-.5,0-.8.4-2.3,1.2-2.7,3.7-2.1Z"/>
        <path class="cls-47" d="M331.3,64.8c.5.7-.1,1.4,0,2.1-.4,1.7-1.7,1.6-3,1.6-.6-.9.1-1.8,0-2.7.9-.6,2-.7,3.1-.9Z"/>
        <path class="cls-158" d="M361.6,46.7c0,.4.1.8.5,1-.5,1-2.2.3-2.4,1.7-.3.7.1,1.5-.3,2.2-.3.4-.7.8-1,1.2-.9-1.4.5-3-.3-4.4-.1-.7.4-.9.9-1.2.9-.2,1.7-.9,2.7-.7Z"/>
        <path class="cls-28" d="M343.2,64.8c0,.5,0,1,0,1.4-.5,1.3-2.4,1-2.8,2.4-.8-.9.7-2.1-.3-3,0-1.2.9-1.4,1.7-1.7.6,0,1.1.1,1.3.8Z"/>
        <path class="cls-157" d="M329.5,73.2c.4.4.9.7,1.3,1.1-1.6,0-2.6,2.1-4.4,1.4-1.1-.5-.7-1.3-.3-2,.1-.2.3-.3.5-.5,1-.2,1.9-.9,2.9,0Z"/>
        <path class="cls-188" d="M360.3,38.8c-.3-.6-.6-1.2-.8-1.8-.1-1.3.6-2,1.8-2.3.7-.2,1.5-.5,2.2-.7.6,1.1-.5,1.6-.9,2.4-.7.8-1.3,1.8-2.3,2.4Z"/>
        <path class="cls-93" d="M362.1,36.2c.2-.9,1.3-1.2,1.3-2.3.3-1.7,1.8-1.8,3-2.3.3,0,.5.3.6.6-.3,1.6-1.7,2.2-2.6,3.3-.7.4-1.3,1.1-2.3.6Z"/>
        <path class="cls-57" d="M378.4,22.9c.2.2.3.3.5.5-.3.6-.3,1.1-1.2,1.5-1.4.5-2.5,1.6-2.5,3.3-.2,0-.5,0-.7,0-1.7-1.5,0-2.5.6-3.6,1.2-.5,1.9-1.7,3.3-1.7Z"/>
        <path class="cls-27" d="M326.4,74c-.3.6-.5,1.2,0,1.7-1.2.7-1.7,2.5-3.5,2.3-.4-.4-.4-.8-.2-1.3.5-.8,1.2-1.4,1.7-2.2.5-.7,1.1-1.1,2-.5Z"/>
        <path class="cls-165" d="M337.8,58.9c.4,2,0,3.8-.4,5.8-.4.7-1,.7-1.7.8-.2,0-.4,0-.6-.2-.4-.7,0-1.6-.4-2.3,1.5-1,1.2-3.4,3.1-4.1Z"/>
        <path class="cls-29" d="M337,71.7c-.4-.3-.9-.6-1.3-.9,0-1,.9-1,1.4-1.4.7-.4,1.2-.9,1.5-1.7.2-.9,0-2,1.4-2.3,1.9.8,0,2.2.5,3.2-.5,1.7-1.3,3.1-3.4,3Z"/>
        <path class="cls-95" d="M348,62.1c0,.4,0,.7,0,1.1.2,2.2-1.8,2.1-3,2.8-.5.3-1.3.2-1.9.3-.4-.3-.4-.8-.4-1.3.4-1.1,1.4-1.4,2.3-1.8,1-.3,1.7-1.4,2.9-1Z"/>
        <path class="cls-85" d="M353.3,57.3c-.3-.2-.4-.5-.4-.9-.7-1.3.4-2,.9-2.9.7-.8,1.5-1.3,2.6-1.1,0,1.6-1.6,3-.5,4.7-.8.4-1.7.1-2.6.2Z"/>
        <path class="cls-26" d="M325.1,71.4c-.1-.3-.3-.6-.4-.8.9-1.8,1.8-3.6,3.5-4.8.7.8.3,1.8.4,2.7,0,1-.6,1.9-1.4,2.5-.6.3-1.2,1.1-2.1.5Z"/>
        <path class="cls-81" d="M367,41.5c-1.5.7-2.1,2.2-3,3.4-.6.9-.9,2-1.8,2.8-.7.2-.7-.3-.9-.7.7-2.3,2.3-4.2,3.2-6.4.5-.4,1.1-.7,1.8-.6.6.3.5,1,.7,1.6Z"/>
        <path class="cls-111" d="M334.7,63c1.8.4.2,1.5.5,2.3-.6,1.6-2.3,1-3.4,1.8-.2,0-.4,0-.6,0-.6-.8-.4-1.5,0-2.3.8-1.3,2.5-.9,3.5-1.8Z"/>
        <path class="cls-125" d="M357.7,41.4c0-1.7-.2-3.5,1.7-4.4.9.3,1,1.1,1.1,1.9-1.5,1.2-.6,3.3-1.7,4.7-.5.5-1,1.1-1.7.5-.5-1-.3-1.9.6-2.6Z"/>
        <path class="cls-216" d="M343.6,51.5c0,.9.7,1.3,1.4,1.6-.4,1.1-1.3,1.8-2,2.7-.6.4-1.1,1-2,.6-.5-1,.1-1.7.4-2.6.2-1.3,1.2-1.8,2.2-2.3Z"/>
        <path class="cls-153" d="M319.8,76.6c0-.6,0-1.1,0-1.7.7-.4,1.5-.6,1.7-1.5.3-1.7,1.6-2.5,3.1-2.9.5.2.6.5.6,1-.3,1.8-1.9,2.8-2.5,4.4-.9.7-1.9.9-2.9.7Z"/>
        <path class="cls-184" d="M337,71.7c-1.1,0-2.2,0-2.3,1.6,0,1-.9,1.3-1.8.8-.7-.4-1.4-.2-2.1.1-.5-.4-1.6-.2-1.3-1.3.8-.5,1.9-.8,2.4-1.7.8-.7,1.7-1,2.7-.9.3,0,.7,0,1,.2.5.3,1.3.3,1.4,1.1Z"/>
        <path class="cls-147" d="M353.3,57.3c-1.3,2.4-2.5,4.8-5.2,5.9-.3-.2-.4-.5-.4-.9.4-1.5,1.1-2.8,2.2-3.9,1.2-.4,1.7-1.7,2.9-2.1.4.2.6.5.6,1Z"/>
        <path class="cls-64" d="M374.9,20.7c.1.1.3.3.4.4.3.4,0,.8,0,1.3-.2,2.5-2,4.2-3.3,6.1-.5.7-1.3,1.6-2.5.8-.3-.6-.2-1.2.2-1.7,1.2-.8,2.1-1.3,2.6-3,.3-1.1,1.2-3,2.7-3.9Z"/>
        <path class="cls-182" d="M337.8,58.9c.4-.9,1.1-1.6,1-2.7,0-1.5,1.1-2.3,2.5-2.4.3,1-.2,1.9-.4,2.9-.1.3-.4.6-.4.8,1.1,3.1-1.5,5.1-2.4,7.5-.4.1-.7,0-.9-.2-.4-2,0-3.9.5-5.8Z"/>
        <path class="cls-2" d="M382.8,10.9c.1,0,.3-.2.4-.2.9.5.5,1.4.3,1.9-.7,1.9-.5,4.2-2.1,5.8-.4.4-.5.9-.4,1.4.2,1.7-.6,2.9-2.1,3.7-.4.2-.6,0-.7-.4-.1-1.9,1.2-3.3,1.4-5.1,1.5-2.2,2.4-4.6,3.2-7Z"/>
        <path class="cls-161" d="M358.4,52.9c-.1.4-.4.9-.3,1.2.4,1.9-.6,2.6-2.2,3-1.2-.4-.9-1.4-.8-2.2.1-.9.5-1.7.8-2.5.8-1.3.7-3.1,2.2-4,1.5,1.4.3,3,.3,4.5Z"/>
        <path class="cls-53" d="M315,80.6c1.4-2.1,2.3-4.6,4.9-5.7.4.4.5,1,.4,1.5-.2.8-.8,1.4-1.4,1.9-.2.1,0,.4.2.6.1.3,0,.6-.1.8-1,.6-2.1,1.2-3.1,1.8-.9.4-1.2,0-.9-.9Z"/>
        <path class="cls-43" d="M343.6,51.5c.8-.6,1.4-1.1,1.4-2.3,0-1.3.8-2.2,2.1-2.4.7,1.7.2,3.5.2,5.2-.1.6-.6.8-1,1.1-.5.2-1,.4-1.6.3-.8-.4-1.7-.8-1.2-2Z"/>
        <path class="cls-179" d="M385.1,7.8c-.3,1.2-.7,2.3-1.8,2.9,0,.3-.1.6-.3.8-1.2,2.1-2.4,4.2-3.4,6.3-1.2,1.5-2.7,2.5-4.2,3.5-.3,0-.6-.2-.4-.6.7-1.4.9-3.2,2.9-3.6.5-.1.7-.7.9-1.2,1.4-3.6,3.6-6.7,6-9.7,1,.2.4,1,.4,1.5Z"/>
        <path class="cls-60" d="M375.2,28.2c.5,2.9-2,4.3-3.5,6.1-.7.9-1.4,1.6-1.2,2.8.2,1.3-.3,2-1.3,2.6-1.1.2-1.1-.6-1.1-1.3,0-.7,0-1.4.1-2.1.2-.8.5-1.5,1-2.1,1.8-1.9,3.7-3.9,5.1-6.1.3-.2.6-.2.9,0Z"/>
      </g>
      <g id="Slash1">
        <path class="cls-76" d="M341,35.3c.4-.3.9-.6,1.3-.9.7.2,1.2,0,1.8-.4.5.6.4,1.2,0,1.8-.4,1.6-1.9,2.5-2.7,3.9-.2.2-.3.3-.5.5-1.1,0-1.1-.9-.9-1.6.2-1.1.3-2.3,1-3.3Z"/>
        <path class="cls-120" d="M344.1,35.7c0-.5,0-1,0-1.5.4-.9.5-1.8,1.2-2.6.5-.2.9-.5,1.4-.7,0,.6-.3,1.4.5,1.9-.5.5-.9,1.1-1,1.8-.7.4-1.1,1.2-2.2,1.2Z"/>
        <path class="cls-212" d="M341,35.3c0,.9,0,1.8-.4,2.7-.3.7-.5,1.5.3,2.1-.9,1.1-1.6,2.2-3,2.7-1.1-1.9-.7-3.5.8-4.9,1.1-.5.5-2,1.4-2.7.3,0,.5,0,.8,0Z"/>
        <path class="cls-83" d="M338.7,38c-.6,1.6-1,3.2-.8,4.9-.2.2-.3.3-.5.5-1.7-.3-2,1.1-2.7,2.1-1-.8-1-1,0-2.1,1.1-1.1.7-2.9,1.8-4,.7-.2,1-.8,1.4-1.3.3,0,.5,0,.8,0Z"/>
        <path class="cls-119" d="M334.8,43.3c-.3.7-.8,1.4,0,2.1,0,.1,0,.3,0,.4-.8.4-1.9.2-2.7.9-2.1-.4-.4-1.4-.3-2.2.5-.3.9-.6,1.4-.9.4-.2.8-.3,1.3-.5.1,0,.3,0,.4,0Z"/>
        <path class="cls-171" d="M331.7,44.6c.4.7-.8,1.6.3,2.2,0,.4-.5.4-.8.5-1.4-.5-2,.9-3.1,1.2,0-.1,0-.2,0-.4,0-.1,0-.3,0-.4.8-.8,1.5-1.7,2.3-2.5.4-.2.8-.4,1.2-.6Z"/>
        <path class="cls-155" d="M351.5,25.6c-.2,0-.3,0-.5,0,0-1.4,1.1-2.1,1.8-3.1.3-.3.6-.5.9-.8.2,1.8-.7,3-2.2,3.9Z"/>
        <path class="cls-19" d="M350.2,28.6c-.6.7-1.2,1.5-1.7,2.2-.4.5-.8.9-1.2,1.4-1.5-.4-1-1.3-.5-2.2.3-.5.5-.9.8-1.4,1.1-1.1,2.8-1.5,3.5-3.1.2-.1.3-.1.5,0-.6.9-.4,2.3-1.3,3Z"/>
        <path class="cls-146" d="M326.9,48.5c.4-.1.9-.3,1.3-.4,0,0,.1.2,0,.2,0,0,0,.1-.1.1,0,.1,0,.3,0,.4-.5,0-.9.7-1.5.4,0,0,.1-.5.2-.7Z"/>
        <path class="cls-37" d="M355.5,18.6c-.6,0-.8-.3-.9-.9.2-1,1.6-.9,1.7-1.9.1,1,0,2-.8,2.7Z"/>
        <path class="cls-80" d="M340.2,35.3c-1-.9-.5-1.8-.1-2.7.6-.6,1.7-.4,2.2-1.2,0,1-.9,1.9,0,2.9-.1.7-.7.9-1.3,1.2-.3,0-.6,0-.8-.2Z"/>
        <path class="cls-25" d="M331.3,48.8c0-.5,0-1.1,0-1.6.1-.4.4-.7.7-1,.8-.5,1.8-.8,2.8-.7.2,0,.4.2.5.4-1,1.5-2,3-4.1,2.9Z"/>
        <path class="cls-99" d="M325.1,47.6c0,1.5,0,3-.4,4.4-.6.3-1.2.6-1.8.8-.4-1.6.4-2.9.9-4.4.4-.3.9-.6,1.3-.9Z"/>
        <path class="cls-150" d="M336.6,39.3c-1.4-.7,0-1.9-.5-2.7.8-.7.4-2.3,1.8-2.5,0,1.3-1.2,2.6,0,3.9,0,.9-.4,1.4-1.4,1.3Z"/>
        <path class="cls-200" d="M354.6,20.7c-.3.3-.6.6-.9.9-.4.2,0,1.2-.9.8-.2-.2-.3-.4-.5-.6.4-1.6,1.4-2.9,2.3-4.2.4.2.7.5.9.9,0,.1,0,.3,0,.4-.4.5-.2,1.4-.9,1.8Z"/>
        <path class="cls-73" d="M328.2,44.6c.8-.7,1.7-1,2.7-1.3.5.6.3,1.3,0,1.9-.7,1.1-1.4,2.2-2.8,2.5-.6-1-.3-2.1,0-3.1Z"/>
        <path class="cls-7" d="M323.8,48.5c0,1.5,0,3-.9,4.4-.4.2-.9.3-1.3.5-.5-.9,0-1.7,0-2.6,1-.5,1.5-1.5,2.2-2.2Z"/>
        <path class="cls-92" d="M321.6,50.7c1.1.9.1,1.7,0,2.6-.5.3-.6,1-1.3.9-.3.3-.7.3-.9,0-.3-.5.2-.9.4-1.3.6-.7.7-1.9,1.8-2.2Z"/>
        <path class="cls-23" d="M330.5,45.1c.1-.6.2-1.2.4-1.9.7-.7.7-1.9,1.7-2.3.2.9-.1,1.9.5,2.7,0,.8-.7.9-1.1,1.3-.5.2-.9.4-1.5.2Z"/>
        <path class="cls-102" d="M335.3,45.9c-.2,0-.4,0-.6,0-.1-.2-.2-.4-.2-.7.6-1.3.9-2.8,2.9-1.9-.3.6-.8,1.1,0,1.7-.7.3-1.4.6-2.1.9Z"/>
        <path class="cls-16" d="M346.3,35c0-.2,0-.4,0-.6-.6-1,.2-1.6.6-2.4.5-.4.8-1.5,1.8-.9,0,.5,0,.9-.1,1.3-.6,1-.8,2.3-2.2,2.7Z"/>
        <path class="cls-166" d="M319.8,52.9c.2.4-.7,1.2.4,1.3-.8.4-1.7.8-2.5,1.2q-.1-1.8,2.1-2.6Z"/>
        <path class="cls-61" d="M328.2,44.6c.5,1,0,2.1,0,3.1.1.2.1.3,0,.5-.4.2-.8.6-1.3.3.5-1.3.2-2.7.9-3.9.1,0,.3,0,.4,0Z"/>
        <path class="cls-143" d="M348.5,32.3c0-.5,0-1,0-1.5,0-1.2.6-1.9,1.7-2.2,0,.5,0,1.1.5,1.4-.4,1.1-1.8,1.3-2.2,2.3Z"/>
        <path class="cls-37" d="M354.6,20.7c0-.7.3-1.3.9-1.8,0,.8.2,1.6.8,2.2-.2.6-.9.6-1.3.9-.5-.3-.3-.8-.4-1.3Z"/>
        <path class="cls-114" d="M334.8,37.8c.3-.6.7-1,1.3-1.3.9.8.2,1.9.6,2.8-.4,1.5-.1,3.4-2.2,4-.2-.1-.4-.3-.5-.5-.4-1.8-.6-3.5.8-5.1Z"/>
        <path class="cls-3" d="M334.8,37.8c-.5,1.8-.4,3.6-.4,5.4-.2.7-.7.8-1.4.7-1.1-.8-.8-1.9-.4-3,.7-1.1.3-2.9,2.2-3.1Z"/>
        <path class="cls-137" d="M345.3,30.9c-.6-.7-.3-1.5-.4-2.3,0-2,2.5-1.5,3.1-2.9.5,1.1-1.6,1.7-.5,2.9.4.7,0,1.2-.5,1.6-.5.4-1,.7-1.7.6Z"/>
        <path class="cls-127" d="M341.4,39.6c.3.6.9.4,1.4.5-1.9.6-2.3,2.8-3.9,3.7-.4.3-1,.7-1.5,1.1-1.3-.3-.7-1-.5-1.7.2-.3.4-.5.6-.7,1.1-.7,2-1.7,2.9-2.7.2-.2.5-.3.8-.2Z"/>
        <path class="cls-106" d="M328.2,50.2c-.3-.4-.2-.9,0-1.4,0-.2,0-.4,0-.7.9-1,1.7-2,3.2-1,.3.6.2,1.1-.2,1.6-.1.9-.3,1.6-1.4,1.2-.6-.2-1.1,0-1.6.2Z"/>
        <path class="cls-89" d="M346.3,35c-.6,1.2-1.4,2.3-1.6,3.6-.2,1.3-.8,1.5-1.8,1.6-.6.2-1.1.3-1.5-.2-.1-2,1.8-2.9,2.6-4.4.8-.4,1.4-1.5,2.5-1.1.1.2.1.4,0,.6Z"/>
        <path class="cls-38" d="M342.3,31.5c1.1-.3,2.1-.7,1.7-2.1-.2-.9.5-.6.9-.8.7.6.6,1.4.7,2.2-.3,1.2-.6,2.4-1.4,3.4-.6.5-1.2.7-2,.4-1.4-1.1-.4-2.1,0-3.1Z"/>
        <path class="cls-54" d="M337.9,34.1c1,0,.9-1.8,2.2-1.4.4.9,0,1.9.3,2.8-.1,1.2-.2,2.4-1.6,2.8-.4,0-.7,0-1.1-.1-1.4-1.5-.6-2.8.3-4.1Z"/>
        <path class="cls-192" d="M325.1,47.6c.6-1.2,1.2-2.5,2.6-3,.4,1.2,0,2.4-.3,3.6-.3.7.3.5.6.6.5.4.3,1,.1,1.5-.9,1.1-2.5,1-3.5,1.8-.5-1.5-.3-3,.4-4.4Z"/>
        <path class="cls-1" d="M348,25.7c1.4-1.4,2.4-3.1,4.3-3.8.3,0,.5.3.7.6,0,1.3-1.4,2-1.6,3.2-.8,1.7-2.1,2.7-3.9,3.1-1.7-1.4.6-2,.6-3.1Z"/>
        <path class="cls-154" d="M355,22.1c-.2,2.2-1.3,4-2.9,5.3-1,.8.4,2.5-1.4,2.7-.9.1-.8-.6-.9-1.1.3-1.2.9-2.2,1.5-3.3.7-1.3,2.2-2.3,2.1-4,.2-.5.5-1,1.1-1,.5.3.5.9.5,1.4Z"/>
        <path class="cls-36" d="M356.3,15.8c.7-2.3,2.3-3.9,3.9-5.7-.9,3.8-1.3,7.8-3.9,11-1.2-.2-1.2-1.2-1.2-2.1,0-.2,0-.4.1-.6.3-.9,1-1.7,1.1-2.6Z"/>
      </g>
    </g>
    <g id="Wolf">
      <g id="F">
        <path class="cls-48" d="M207.1,128.3c-.4,0-.9-.1-1.3-.3l-1.3-.7,6.7-6c5.5-4.9,11.3-10,16.9-14.9,1-.9,1.5-1.8,1.8-3.3,3-17.9,6.2-36.1,9.2-53.8l2.5-14.4c0-.3,0-.7.1-1,.3-3.3,1.2-7.4,5-10.7,1-.9,1.9-2,2.8-3.1,1.4-1.8,2.9-3.7,4.9-4.6,1.2-.6,2.6-.8,4.5-.8s2.2,0,3.2.2c1,0,2.1.2,3.1.2,5.3,0,10.6,0,15.8,0s12.5,0,18.8,0h0c1.4,0,2.6-.2,3.7-.6,4.4-1.6,8.8-3.2,13.1-4.7l5.5-2,1,1.5-.5.7-3,3.3c-2.6,2.8-5.2,5.7-7.7,8.5-1,1.1-2,2.2-3.1,3.3-2.2,2.4-4.5,4.9-6.7,7.4-1,1.2-2.2,1.7-3.7,1.7-3.9,0-7.8.1-11.7.2-5.8.1-11.9.2-17.8.3-1.5,0-2.3.4-3.2,1.6q-6.6,8.9-8.5,20v.3c-1.7,9.9-3.5,20-5.2,29.8-1.1,6.2-2.1,12.3-3.2,18.5-.2,1.1-.6,1.9-1.3,2.5l-.3.3c-.3.2-.5.4-.7.6-6.5,7.8-15.6,11.2-24.3,14.5-1.4.5-2.8,1.1-4.2,1.6-3.1,1.2-6.1,2.4-9.2,3.6,0,0-.2,0-.3.1-.4.2-.9.4-1.6.4ZM253.8,82.5l.2-1c.3-1.8.7-3.7,1-5.5.8-4.3,1.6-8.6,2.2-13,.5-4.1,2.3-7.3,5.7-10.1,2.9-2.5,5.5-4,9.1-4s.8,0,1.3,0c2.9.3,5.7.3,8.4.3s3.9,0,4.6,0,2.1,0,3.1,0h.1c1,0,1.8-.2,2.6-.7,3.4-2.2,6.8-4.4,10.1-6.5l4.4-2.8.6.6c.5.5,1,1.4,0,2.5,0,0,0,0,0,0-.4.8-.9,1.5-1.3,2.3-.8,1.3-1.5,2.5-2,3.7-3.4,8-9,14.2-17.2,19.2-1.3.8-2.5,1.2-3.8,1.2s-.3,0-.4,0c-2.2-.1-4.5-.2-6.7-.3-2.4,0-4.7-.2-7.1-.3h-.1c-.7,0-1.1.3-1.7,1.1-2.6,3.3-5.2,6.5-7.9,9.7l-3.1,3.8-2-.3Z"/>
        <path class="cls-174" d="M321.8,8.9c0,0,.1.2.2.3-3.6,3.9-7.1,7.9-10.7,11.8-3.3,3.6-6.6,7.1-9.8,10.7-.9,1-1.7,1.4-3,1.4-9.8.1-19.6.4-29.5.5-1.8,0-2.9.6-4,2-6.8,9.2-6.8,9.2-8.7,20.7-2.7,16.1-5.6,32.2-8.3,48.2-.1.8-.4,1.4-1,1.9-.4.3-.8.6-1.1,1-7.4,8.8-18,11.8-28.1,15.8-3.1,1.2-6.1,2.4-9.2,3.6-.5.2-1,.5-1.5.5s-.5,0-.8-.2c7.6-6.7,15-13.3,22.6-19.9,1.2-1.1,1.8-2.3,2.1-3.9,3.9-22.7,7.8-45.4,11.7-68.2,0-.4.1-.7.1-1.1.4-3.9,1.5-7.3,4.6-10,2.7-2.3,4.5-6.2,7.5-7.6,1.2-.6,2.6-.7,4.1-.7s4.2.3,6.3.3,0,0,0,0c5.3,0,10.5,0,15.8,0s12.5,0,18.8,0c0,0,0,0,0,0,1.4,0,2.7-.2,4-.7,6-2.2,11.9-4.3,17.9-6.4M306.7,40.5c.7.7,0,1-.2,1.4-1.1,2.1-2.5,4-3.4,6.1-3.5,8.2-9.3,14.2-16.8,18.8-1.1.7-2.1,1-3.3,1s-.2,0-.3,0c-4.6-.2-9.2-.3-13.8-.6,0,0-.1,0-.2,0-1.2,0-1.8.6-2.5,1.4-3.5,4.4-7.1,8.8-10.6,13.1-.1,0-.3,0-.4,0,1.1-6.2,2.4-12.3,3.3-18.6.5-4,2.3-6.9,5.4-9.5,2.6-2.2,5-3.8,8.5-3.8s.8,0,1.2,0c2.8.3,5.7.3,8.5.3s3.1,0,4.6,0c1,0,2.1,0,3.1,0,0,0,.1,0,.2,0,1.2,0,2.1-.3,3.1-.9,4.6-3,9.2-5.9,13.8-8.9M322.6,6.5l-1.4.5-4.7,1.7c-4.3,1.5-8.8,3.1-13.2,4.7-1.1.4-2.1.6-3.4.6-6.3,0-12.6,0-18.8,0s-10.5,0-15.8,0h0c-1,0-2,0-3-.2-1.1,0-2.2-.2-3.3-.2-2,0-3.6.3-4.9.9-2.2,1-3.8,3-5.3,4.9-.9,1.1-1.7,2.2-2.7,3-4,3.5-4.9,7.9-5.3,11.3,0,.4,0,.7-.1,1l-2.5,14.7c-3,17.5-6.1,35.6-9.2,53.4-.2,1.2-.6,2-1.5,2.7-5.7,4.9-11.4,10-16.9,14.9-1.9,1.7-3.8,3.3-5.7,5l-2.1,1.9,2.5,1.4c.6.3,1.2.5,1.8.5s1.5-.3,2-.5c0,0,.2,0,.3-.1,3.1-1.2,6.1-2.4,9.2-3.6,1.4-.5,2.8-1.1,4.2-1.6,8.9-3.3,18-6.8,24.7-14.8.1-.1.3-.3.6-.5.1,0,.2-.2.3-.3.9-.8,1.5-1.8,1.7-3.1,1.1-6.1,2.1-12.3,3.2-18.4.2-1,.3-1.9.5-2.9h1c0,.1.4.2.4.2h1.1c0,.1.7-.7.7-.7l2.8-3.4c2.6-3.2,5.2-6.5,7.9-9.7.6-.7.7-.7,1-.7s0,0,0,0c2.4.1,4.8.2,7.1.3,2.2,0,4.5.2,6.7.3.2,0,.3,0,.5,0,1.5,0,2.9-.4,4.4-1.3,8.3-5.1,14.1-11.5,17.6-19.7.5-1.2,1.2-2.4,2-3.6.4-.7.9-1.5,1.3-2.3h0c1.6-1.9.3-3.4-.1-3.8l-1.1-1.2-1.4.9c-1.2.8-2.4,1.6-3.7,2.3-3.3,2.1-6.8,4.3-10.2,6.5-.6.4-1.2.6-2,.6h-.1c-1,0-2.1,0-3.2,0s-1.6,0-2.3,0c-.8,0-1.5,0-2.3,0-2.6,0-5.5,0-8.3-.3-.5,0-.9,0-1.4,0-4.4,0-7.3,2.2-9.8,4.2-1.7,1.4-3,2.9-4,4.6,0,0,0,0,0,0v-.3q1.9-10.8,8.3-19.6c.7-.9,1.2-1.2,2.4-1.2,5.9,0,12-.2,17.8-.3,3.9,0,7.8-.1,11.7-.2,1.8,0,3.3-.7,4.5-2.1,2.2-2.5,4.5-5,6.7-7.4,1-1.1,2.1-2.2,3.1-3.4,2.5-2.7,5-5.5,7.5-8.2l3.2-3.6,1.1-1.2-.9-1.3h0c0-.1-.1-.3-.1-.3l-.9-1.3h0Z"/>
      </g>
      <g id="L">
        <path class="cls-48" d="M170.3,107.3c-.4,0-.7-.2-.9-.3,0,0-.1,0-.2-.2l-1.1-.7,4.1-3.9c3.1-2.8,6.2-5.8,9.3-8.6.6-.5.9-1.1,1.1-1.9l3.7-17.9c3.2-15.4,6.4-31.4,9.6-47.1.5-2.3,1.6-3.3,3.9-3.6,5.7-.8,11.4-1.7,16.9-2.5,2-.3,4-.6,6-.9.4-.3.9-.4,1.4-.4s.6,0,.9.2l1,.4-.4,1c0,.2-.2.4-.4.6h0c-.3.3-.7.6-1.3.7l-2.9,1.5c-2.7,1.4-5.4,2.9-8.2,4.3-.8.4-1.2.9-1.4,1.8-3.4,14.6-6.7,29.2-10.1,43.8l-4.3,18.5,1.7-.4c2.8-.6,5.6-1.3,8.5-1.9.2,0,.2,0,.3-.6,0-.1,0-.3.1-.4l.7-2.2c1-3.3,2.1-6.8,3.1-10.2.4-1.3,1.1-2.2,2.2-2.9,4.3-2.5,8.5-5,12.8-7.6l5.1-3.1c0,0,.1,0,.2-.1.3-.2.7-.5,1.2-.5s.5,0,.8.2c.5.3.7.7.7.9.2.6-.2,1.1-.3,1.4h0c-3.2,6.3-4.1,13.2-5,19.9-.3,2.1-.6,4.2-.9,6.3-.5,3-1.8,5.2-3.2,7.6l-.5.8c-2.7,4.8-6.4,6.7-12.6,6.7h-.1c-9.8,0-19.8.4-29.5.7-4.1.1-8.2.3-12.3.4h0Z"/>
        <path class="cls-174" d="M224.3,20.3c.2,0,.4,0,.6.1-.2.5-.6.7-1.1.7,0-.3,0-.5-.2-.5,0,0-.1,0-.2,0,0,0,0,0,0,0,.3-.2.6-.4,1-.4M223.3,20.7l.5.5c-3.8,2-7.5,4-11.3,5.9-1.1.5-1.6,1.3-1.9,2.4-4.8,21-9.6,41.9-14.5,62.9,0,.2,0,.4,0,.9,3.9-.9,7.7-1.7,11.5-2.5,1-.2,1-1,1.2-1.7,1.3-4.1,2.6-8.2,3.8-12.4.3-1.1.8-1.8,1.8-2.3,6-3.5,12-7.1,17.9-10.6.3-.2.5-.5.9-.5s.2,0,.3,0c.6.3.1.8,0,1.1-4.2,8.3-4.5,17.5-6,26.4-.5,3.1-2,5.4-3.5,8.1-2.7,4.7-6.3,6.2-11.7,6.2h0s0,0-.1,0c-13.9,0-27.9.7-41.8,1.1,0,0,0,0,0,0-.1,0-.2-.1-.5-.3,4.2-3.9,8.3-7.8,12.5-11.6.8-.7,1.2-1.4,1.4-2.4,4.4-21.6,8.9-43.3,13.3-64.9.4-1.9,1.2-2.5,3.1-2.8,7.8-1.1,15.5-2.3,23.2-3.5M224.3,18.3c-.6,0-1.2.2-1.7.4-1.9.3-3.9.6-5.8.9-5.6.9-11.3,1.8-17,2.6-2.8.4-4.2,1.7-4.8,4.4-3.2,15.6-6.4,31.5-9.6,46.9-1.2,6-2.5,12-3.7,18-.1.6-.3.9-.8,1.3-3.1,2.9-6.3,5.8-9.3,8.6-1.1,1-2.1,2-3.2,3l-1.9,1.7,2.1,1.4c0,0,.1,0,.1.1.2.2.7.6,1.5.6h0c4.1-.1,8.3-.3,12.3-.4,9.7-.3,19.7-.7,29.5-.7h.1c6.5,0,10.5-2.2,13.4-7.2l.5-.8c1.4-2.3,2.8-4.8,3.3-7.9.4-2.1.6-4.2.9-6.3.9-6.9,1.8-13.4,4.9-19.5h0c.2-.4.7-1.2.4-2.2-.2-.6-.6-1.2-1.2-1.6-.4-.2-.9-.4-1.3-.4-.9,0-1.5.5-1.8.7,0,0,0,0,0,0-1.7,1-3.4,2-5.1,3-4.2,2.5-8.5,5.1-12.8,7.6-1.4.8-2.2,1.9-2.7,3.5-1,3.4-2.1,6.8-3.1,10.1l-.7,2.2c0,.1,0,.3-.1.4-2.7.6-5.3,1.2-8,1.7h-.3c0,0,4-17.4,4-17.4,3.3-14.4,6.6-28.9,10-43.3.1-.6.3-.8.9-1.1,2.8-1.4,5.5-2.9,8.2-4.3.9-.5,1.9-1,2.8-1.5.6-.1,1.2-.4,1.6-.9l1.1-.6-.4-.4s0,0,0,0l.9-2-2-.7c-.4-.2-.9-.2-1.3-.2h0Z"/>
      </g>
      <g id="O">
        <path class="cls-48" d="M156.6,106.7c-10.3,0-20.7,0-31.2,0h-20.3s5.6-4.3,5.6-4.3c2.6-2,5.1-3.9,7.6-5.8,1-.7,1.5-1.5,1.7-2.6,2.9-11.6,5.8-23.3,8.6-34.9,1.8-7.1,3.5-14.2,5.3-21.4.5-1.8,1.2-3.3,2.4-4.6,3-3.4,5.9-6.8,8.5-10,1-1.2,2-1.7,3.5-1.7,10.5.1,21.3.2,32.2.3,2.2,0,3.1,1,3.9,2.6,3.2,6.4,3.4,12.9.6,21.8-3.5,10.9-6.6,22.2-9.5,33-1.2,4.2-2.3,8.5-3.5,12.7-.3,1.2-.8,2.5-2,3.7-3.4,3.2-6.8,6.5-10.1,9.6l-.4.4c-.6.6-1.5,1.2-2.8,1.2h0ZM147.7,92.9c.5,0,1.1,0,1.6.1.4,0,.7.1,1.1.2,0,0,.2,0,.3,0,.3-.4.6-.8.9-1.2.7-.9,1.4-1.7,1.6-2.8l3.1-16.5c1.9-10.5,3.9-20.9,5.8-31.4.2-1,.4-2.2.3-2.5-.2-.1-1.3-.2-2.5-.2,0,0-.1,0-.2,0-1.9,0-3.7,1.4-4.1,3.3-3.3,15.4-6.6,30.8-9.9,46.1-.1.6-.3,1.1-.5,1.7-.3,1-.7,2.4-.5,2.8.2.4,1.1.5,2.1.5h1Z"/>
        <path class="cls-174" d="M148.3,22.3s0,0,0,0c10.7.1,21.4.2,32.1.3,1.6,0,2.3.5,3,2,3.5,7,2.9,13.7.6,21.1-4.8,15.1-8.8,30.5-13.1,45.8-.3,1.2-.8,2.3-1.8,3.2-3.5,3.3-7,6.7-10.5,10-.6.6-1.2,1-2.1,1h0c-10.3,0-20.6,0-31,0s-11.6,0-17.6,0c3.9-3,7.3-5.7,10.8-8.3,1.1-.8,1.8-1.8,2.1-3.2,4.6-18.8,9.3-37.5,13.9-56.3.4-1.6,1.1-3,2.2-4.2,2.9-3.3,5.7-6.7,8.5-10.1.7-.9,1.5-1.3,2.7-1.3M146.8,93.9c.3,0,.6,0,1,0,.5,0,1,0,1.5,0,.4,0,.7.1,1.1.2.2,0,.3,0,.5,0,.3,0,.6,0,.7-.4.9-1.5,2.3-2.6,2.7-4.5,3-16,5.9-31.9,8.9-47.9.7-3.7.6-3.7-3.1-3.9,0,0-.2,0-.2,0-2.4,0-4.6,1.7-5.1,4.1-3.3,15.4-6.6,30.8-9.9,46.1-.4,1.8-1.5,4.1-.8,5.3.5.8,1.7.9,2.9.9M148.3,20.3c-1.7,0-3.1.7-4.3,2.1-2.7,3.2-5.5,6.7-8.5,10-1.3,1.4-2.1,3.1-2.6,5.1-1.8,7.1-3.5,14.2-5.3,21.3-2.8,11.5-5.8,23.3-8.7,35-.2.9-.6,1.5-1.4,2-2.5,1.9-5,3.8-7.6,5.9-1,.8-2.1,1.6-3.2,2.5l-4.6,3.6h14.7s8.7,0,8.7,0c10.5,0,20.7,0,31,0,1.7,0,2.8-.8,3.5-1.5l.4-.4c3.3-3.2,6.7-6.5,10.1-9.6,1.4-1.3,1.9-2.8,2.3-4.1,1.2-4.2,2.4-8.6,3.5-12.8,3-10.9,6.1-22.1,9.5-33,2-6.4,3.5-14.2-.7-22.6-1.1-2.2-2.5-3.1-4.8-3.1-10.9,0-21.7-.2-32.1-.3h0ZM145.6,91.8c0-.5.3-1.4.5-1.9.2-.6.4-1.2.5-1.8,3.3-15.4,6.6-30.8,9.9-46.1.3-1.4,1.7-2.5,3.1-2.5s0,0,.1,0c.5,0,1.1,0,1.5,0,0,.4-.2,1-.2,1.5-1.9,10.4-3.9,20.9-5.8,31.3-1,5.5-2.1,11.1-3.1,16.6-.1.8-.7,1.5-1.4,2.4-.2.3-.4.5-.6.8-.2,0-.5,0-.7-.1-.6,0-1.2-.1-1.8-.1h-.5s-.5,0-.5,0c-.6,0-.9,0-1.2,0h0Z"/>
      </g>
      <g id="W">
        <path class="cls-48" d="M5.6,146.2c-.5-1.1.1-1.9.4-2.3,0,0,.1-.1.1-.2,1.9-3.1,3.8-6.1,5.6-9.2,4-6.5,8.1-13.2,12-19.9,3.9-6.8,6.6-14.4,8.5-23.1,3-14.3,6.3-28.8,9.5-42.8.8-3.4,1.5-6.8,2.3-10.2.3-1.2,0-1.8-.9-2.5-2.8-2.2-5.6-4.5-8.2-6.8-1.3-1.2-2.7-1.8-4.5-2.1-4.3-.5-8.5-1.2-12.9-1.8-1.7-.3-3.5-.5-5.2-.8l-4-.6,3.8-1.4c2.3-.8,4.6-1.2,6.7-1.6.7-.1,1.5-.3,2.2-.4,13-2.5,25.9-5,38.9-7.5l12.4-2.4c.2,0,.3,0,.5-.1.4-.1.8-.2,1.3-.2.7,0,1.2.3,1.5.6,1,1.1.2,2.3-.1,2.8,0,.1-.2.3-.2.4-1.2,2.6-2.4,5.1-3.5,7.7-1.8,3.9-3.7,8-5.5,12-1.5,3.3-2,6.7-2.6,10.4-.2,1.4-.5,2.9-.8,4.4-1.7,8.3-3.3,16.7-4.9,24.9-.7,3.8-1.5,7.6-2.2,11.4,1-1,2.1-1.8,3.2-2.6,1.9-1.4,3.8-2.7,4.5-4.9.8-2.5,1.4-5.2,1.9-7.7.2-1.1.5-2.2.8-3.3,2-8.3,3.9-16.5,5.9-24.8.3-1.1.7-2.1,1.4-2.9,5.3-6.8,10.9-13.9,16.5-21.1.7-.8,1.5-1.6,2.9-1.7,6.6-.2,13.2-.4,19.8-.6l6.6-.2.6,2-5.5,3.4c-4.7,2.8-9.3,5.7-14,8.5-1,.6-1.8,1.3-2.4,2.2l-.5.8c-.8,1.2-1.6,2.5-2.7,3.7-3.9,4.3-6.1,9.6-7.2,17.3-1,7.3-2.4,14.6-3.7,21.7l-.6,3.2c-.3,1.8.2,3.4.8,5.2.2.5.3,1,.5,1.5.3-.3.6-.6.8-.9,1.4-1.5,2.7-2.7,3.1-4.7,1.4-7,2.9-14,4.4-20.8.8-3.8,1.6-7.6,2.4-11.4.2-.9.5-2,1.2-3l1.8-2.6c2.2-3.2,4.4-6.5,6.6-9.7.6-.9,1.4-1.5,2.5-1.8,6.6-1.6,13.2-3.3,19.9-5l7.9-2-1.5,2.8c-.3.5-.5.9-.7,1.3l-.3.6c-.3.6-.7,1.2-1.1,1.8-7.9,11.4-13.1,24.2-15.9,39.1-1,5.2-2.3,10.4-3.6,15.5-.6,2.3-1.2,4.7-1.8,7-.3,1.3-.9,2.5-1.7,3.5-2.4,2.9-4.4,5.6-6.3,8.1-.9,1.2-2,1.9-3.5,2.1l-1.4.2c-3.4.5-7,1.1-10.4,1.8-.4,0-.7.1-.9.1-1.4,0-2.1-.9-2.5-1.8-1.6-3.1-3.2-6.1-5-9.3l-1.2-2.3c-.5.6-.9,1.3-1.4,1.9-1.9,2.7-3.8,5.2-5.6,7.9-1,1.5-2.2,2.2-3.9,2.3-3.5.3-7.4.7-11.8,1.3-.3,0-.6,0-.9,0-1.2,0-2.3-.3-3.5-1-.9-.5-1.9-1-2.9-1.5,0,.3,0,.5,0,.8,0,2,0,3.9,0,5.9,0,1.3-.4,2.2-1.4,3-10.5,8.8-21,17.6-31.5,26.5l-8.3,7-.6-1.2Z"/>
        <path class="cls-174" d="M74.1,11.4c.3,0,.5,0,.7.3.6.7-.2,1.5-.5,2.2-3,6.6-6.1,13.1-9.1,19.7-2.1,4.7-2.4,9.9-3.4,14.9-2.5,12.1-4.8,24.3-7.2,36.4-.1.7-.4,1.4-.6,2.1.1.1.3.2.4.2.3,0,.6-.4.9-.5.3-.2.6-.4.8-.7,2.6-2.8,6.8-4.1,8.1-8.1,1.1-3.6,1.8-7.4,2.7-11.1,2-8.3,3.9-16.5,5.9-24.8.2-.9.6-1.8,1.2-2.5,5.5-7,11-14.1,16.5-21.1.6-.7,1.1-1.3,2.1-1.3,8.6-.3,17.1-.5,25.7-.8,0,.2,0,.3.1.5-6.3,3.8-12.6,7.7-18.9,11.5-1.1.7-2,1.4-2.7,2.5-1,1.5-1.9,3-3.1,4.3-4.6,5.1-6.5,11.2-7.4,17.8-1.1,8.3-2.7,16.6-4.3,24.9-.6,3.1,1.2,5.7,1.8,9,2-2.6,4.7-4.1,5.4-7.5,2.2-10.8,4.5-21.5,6.8-32.2.2-1,.5-1.8,1-2.6,2.8-4.1,5.6-8.2,8.4-12.3.5-.7,1-1.1,1.9-1.4,8.4-2.1,16.9-4.2,25.6-6.4-.5.8-.8,1.4-1.1,2-.4.8-.8,1.6-1.3,2.3-8.3,12-13.4,25.2-16,39.5-1.4,7.5-3.6,14.9-5.4,22.4-.3,1.2-.8,2.2-1.5,3.1-2.2,2.7-4.3,5.4-6.3,8.2-.8,1-1.7,1.5-2.9,1.7-4,.6-8,1.2-11.9,2-.3,0-.5,0-.7,0-.8,0-1.2-.4-1.6-1.2-2.2-4.3-4.5-8.5-7-13-2.7,3.8-5.4,7.4-7.9,11.1-.8,1.2-1.8,1.8-3.2,1.9-3.9.3-7.9.8-11.8,1.3-.3,0-.5,0-.8,0-1.1,0-2-.3-3-.8-1.4-.8-2.9-1.4-4.4-2.2,0,2.8,0,5.6,0,8.3,0,1-.3,1.6-1,2.2-12.9,10.8-25.8,21.7-38.8,32.6-.3-.7.2-1.1.5-1.6,5.9-9.7,12-19.3,17.6-29.1,4.1-7.3,6.8-15.1,8.6-23.4,3.7-17.7,7.8-35.3,11.8-52.9.4-1.6,0-2.5-1.2-3.5-2.8-2.2-5.5-4.4-8.1-6.8-1.5-1.3-3.1-2.1-5-2.3-6-.8-11.9-1.7-18.2-2.6,3-1.1,5.9-1.4,8.8-1.9,17.1-3.3,34.2-6.6,51.3-9.9.5,0,1.1-.3,1.6-.3M74.1,9.4c-.6,0-1.1.1-1.6.3-.1,0-.3,0-.4.1l-12.4,2.4c-12.8,2.5-26,5-39,7.6-.7.1-1.4.3-2.2.4-2.2.4-4.5.8-6.9,1.6l-7.6,2.7,8,1.1c1.8.3,3.5.5,5.3.8,4.4.7,8.6,1.3,12.9,1.8,1.5.2,2.8.8,4,1.8,2.6,2.3,5.4,4.6,8.2,6.9.6.5.7.6.5,1.5-.8,3.4-1.5,6.8-2.3,10.2-3.2,14-6.5,28.5-9.5,42.8-1.8,8.6-4.5,16.1-8.3,22.8-3.8,6.7-7.9,13.4-11.9,19.9-1.9,3-3.8,6.1-5.6,9.2,0,0,0,0,0,0-.3.4-1.3,1.7-.5,3.4l1.1,2.4,2-1.7,6.9-5.8c10.6-8.9,21.2-17.9,31.9-26.8,1.2-1,1.8-2.3,1.7-3.8,0-1.7,0-3.3,0-5,.5.2.9.5,1.4.7,1.3.7,2.6,1.1,4,1.1s.7,0,1,0c4.4-.5,8.2-1,11.7-1.3,2-.2,3.5-1.1,4.7-2.8,1.8-2.6,3.6-5.2,5.5-7.8.1-.2.3-.4.4-.6.2.3.3.6.4.8,1.7,3.2,3.4,6.2,5,9.3.3.6,1.2,2.3,3.4,2.3s.7,0,1.1-.1c3.4-.7,7-1.2,10.4-1.8l1.4-.2c1.8-.3,3.1-1.1,4.2-2.5,1.8-2.5,3.9-5.2,6.2-8.1.9-1.2,1.6-2.4,1.9-3.9.6-2.3,1.2-4.7,1.8-7,1.3-5.1,2.7-10.3,3.6-15.6,2.8-14.8,7.9-27.5,15.7-38.7.4-.6.8-1.2,1.1-1.8.1-.2.2-.4.3-.6.2-.4.4-.8.7-1.3l.4-.8,2.2-4-4.4,1.1-5.7,1.4c-6.7,1.7-13.3,3.3-19.9,5-1.3.3-2.3,1-3.1,2.2-2.2,3.3-4.5,6.6-6.7,9.8l-1.7,2.5c-.8,1.1-1.1,2.3-1.3,3.4-.8,3.8-1.6,7.6-2.4,11.4-1.5,6.8-3,13.9-4.4,20.8-.3,1.6-1.3,2.6-2.5,3.9-.6-1.7-1.1-3.1-.8-4.6l.6-3.2c1.3-7.1,2.7-14.5,3.7-21.8,1-7.5,3.1-12.6,6.9-16.8,1.1-1.2,1.9-2.5,2.8-3.8.2-.3.3-.5.5-.8.5-.8,1.1-1.3,2-1.9,4.7-2.8,9.5-5.7,14.1-8.6l4.8-2.9,1.3-.8-.4-1.5v-.2c0,0-.1-.2-.1-.2l-.4-1.5h-1.5c0,0-5.9.2-5.9.2-6.6.2-13.2.4-19.8.6-2.1,0-3.2,1.5-3.6,2.1-5.6,7.3-11.2,14.4-16.5,21.1-.8,1-1.3,2.1-1.6,3.3-2,8.3-3.9,16.5-5.9,24.8-.3,1.1-.5,2.2-.8,3.3-.6,2.5-1.1,5.2-1.9,7.6-.6,1.9-2.2,3.1-4.1,4.4-.4.3-.7.5-1.1.8.6-2.9,1.1-5.8,1.7-8.7,1.6-8.2,3.2-16.6,4.9-24.8.3-1.5.5-3,.8-4.4.6-3.6,1.1-7,2.5-10.1,1.8-4,3.7-8.1,5.5-12,1.2-2.6,2.4-5.1,3.6-7.7,0,0,.1-.2.2-.3.4-.6,1.5-2.4,0-4-.4-.4-1.1-.9-2.2-.9h0Z"/>
      </g>
    </g>
  </g>
</svg>